<?xml version="1.0" encoding="UTF-8"?>
<svg width="994px" height="251px" viewBox="0 0 994 251" version="1.1" xmlns="http://www.w3.org/2000/svg" xmlns:xlink="http://www.w3.org/1999/xlink">
    <!-- Generator: Sketch 52 (66869) - http://www.bohemiancoding.com/sketch -->
    <title>Artboard</title>
    <desc>Created with Sketch.</desc>
    <g id="Artboard" stroke="none" stroke-width="1" fill="none" fill-rule="evenodd">
        <rect id="Rectangle" fill="#FFFFFF" fill-rule="nonzero" x="0" y="0" width="994" height="251"></rect>
        <g id="Group-2" transform="translate(91.000000, 60.000000)">
            <g id="noun_Programming-Student_1248420" fill="#004C23">
                <g id="Group">
                    <path d="M14.85792,70.60992 L14.85792,60.68496 L15.81792,61.08912 L15.81792,107.91216 C15.81792,111.19104 18.47568,113.84688 21.75312,113.84688 C24.288,113.84688 26.44656,112.25424 27.29664,110.016 C27.54528,109.36128 27.68736,108.65424 27.68736,107.91216 L27.68736,64.58208 L29.91264,64.58208 L29.91264,107.91216 C29.91264,111.19104 32.5704,113.84688 35.84784,113.84688 C39.12432,113.84688 41.78208,111.19104 41.78208,107.91216 L41.78208,35.9112 C43.44624,39.3192 45.1416,45.84864 45.12528,57.47232 C45.12528,60.12 45.03984,63.02688 44.85264,66.21936 C44.72784,68.33568 46.34304,70.15392 48.46272,70.27776 C48.53808,70.28208 48.61392,70.28448 48.68928,70.28448 C50.70768,70.284 52.39968,68.71008 52.51968,66.66864 C52.71456,63.34032 52.8048,60.28416 52.8048,57.4728 C52.79904,46.59696 51.4752,39.39408 49.50384,34.4112 C47.55648,29.44896 44.77344,26.64768 42.19152,25.36704 C40.55184,24.54096 39.1128,24.35472 38.24544,24.34368 C38.18832,24.34128 38.1312,24.33504 38.07312,24.33504 L25.3248,24.33504 C25.32672,24.44016 25.32864,24.56352 25.32912,24.7224 C25.32144,26.60256 25.11456,32.16432 22.73376,38.53392 L20.07504,37.41408 C22.2408,31.54608 22.45536,26.37936 22.44912,24.7224 C22.44912,24.5496 22.44672,24.42432 22.4448,24.33504 L19.52784,24.33504 C19.29792,24.33504 19.07472,24.35904 18.85632,24.39888 L18.8568,24.4032 C17.37456,24.57024 16.08912,25.15104 14.96448,25.89408 C13.6368,26.7816 12.49152,27.93888 11.50128,29.3064 C9.53904,32.03616 8.17776,35.66448 8.17056,39.79056 C8.16576,42.87984 8.97312,46.22736 10.84512,49.43856 C12.7128,52.65456 15.6096,55.71312 19.66512,58.42512 C20.32032,58.86384 21.06288,59.07456 21.7968,59.07456 C23.0352,59.07456 24.25104,58.476 24.99168,57.36912 C26.17104,55.60656 25.69872,53.22144 23.9352,52.04208 C20.6832,49.8624 18.68448,47.64144 17.48448,45.57888 C16.28928,43.51104 15.85488,41.5824 15.85056,39.79056 C15.84864,38.11776 16.25184,36.55728 16.86768,35.26464 C17.4744,33.97488 18.31632,32.97168 18.97632,32.46288 C19.1808,32.29872 19.35552,32.19504 19.48848,32.12736 L19.57728,33.21168 C19.07568,33.59808 18.30624,34.46352 17.73696,35.67264 C17.12832,36.94944 16.80912,38.37072 16.81008,39.7896 C16.81296,40.73376 16.9488,41.65248 17.2152,42.56064 L18.92784,38.49264 L33.8016,44.7576 L25.8096,63.73488 L10.9368,57.47088 L12.5976,53.52624 C11.60592,52.37136 10.74,51.16896 10.01376,49.92 C8.1744,46.76304 7.2048,43.25904 7.21104,39.78864 C7.2168,35.80992 8.46432,31.88736 10.72128,28.74576 C11.81136,27.23904 13.05936,26.01312 14.4312,25.09536 C15.79776,24.19296 17.376,23.62176 18.77808,23.43312 L18.77904,23.44128 C19.02384,23.40144 19.27296,23.37552 19.5288,23.37552 L26.5512,23.37552 C24.0144,22.8336 19.64208,22.0056 16.8192,22.04496 C16.09104,22.05504 15.46272,22.12176 15,22.26816 C11.96064,23.22816 3.48,28.98816 0.36,46.02816 C-1.98768,58.83984 7.67424,68.86992 14.85792,70.60992 Z" id="Path"></path>
                    <circle id="Oval" cx="28.80048" cy="10.8" r="10.8"></circle>
                    <rect id="Rectangle" transform="translate(24.887068, 45.137363) rotate(-67.194139) translate(-24.887068, -45.137363) " x="24.3293219" y="39.6789423" width="1.11549155" height="10.9168416"></rect>
                    <rect id="Rectangle" transform="translate(24.023109, 47.193482) rotate(-67.214425) translate(-24.023109, -47.193482) " x="23.4650851" y="41.7346893" width="1.11604759" height="10.9175856"></rect>
                </g>
            </g>
            <g id="noun_Teacher_1219418" transform="translate(251.000000, 13.000000)" fill="#004C23" fill-rule="nonzero">
                <path d="M16.856,11.192 C16.856,5.01 21.867,0 28.049,0 C34.23,0 39.241,5.01 39.241,11.192 C39.241,17.374 34.23,22.384 28.049,22.384 C21.867,22.384 16.856,17.374 16.856,11.192 Z M88.902,4.083 L67.83,26.938 C67.867,26.985 67.906,27.029 67.941,27.078 C69.314,28.968 68.894,31.613 67.003,32.985 L52.215,44.01 C50.324,45.382 47.68,44.962 46.307,43.072 L39.129,34.309 L39.129,94.97 C39.129,97.748 36.857,100.001 34.053,100.001 C31.25,100.001 28.977,97.748 28.977,94.97 L28.977,65.678 L27.12,65.678 L27.12,94.969 C27.12,97.747 24.849,100 22.044,100 C19.241,100 16.969,97.747 16.969,94.969 L16.969,61.176 C16.534,61.979 15.829,62.643 14.919,63.014 C14.911,63.016 14.903,63.02 14.894,63.023 C12.8,63.861 10.422,62.842 9.584,60.748 L0.996,44.072 C0.495,42.818 0.646,41.398 1.398,40.277 L10.066,29.47 C13.339,24.867 17.006,24.152 19.588,24.152 L24.263,24.152 L27.649,28.881 L24.263,52.553 L28.047,56.961 L28.048,56.959 L28.048,56.962 L31.833,52.553 L28.447,28.881 L31.833,24.152 L36.508,24.152 C39.091,24.152 42.758,24.867 46.03,29.47 L50.346,34.851 L62.034,26.139 C62.988,25.446 64.135,25.212 65.213,25.391 L86.718,2.068 C87.274,1.464 88.214,1.426 88.818,1.983 C89.42,2.539 89.459,3.479 88.902,4.083 Z M16.969,34.308 L9.81,43.042 L16.969,57.313 L16.969,34.308 Z" id="Shape"></path>
            </g>
            <g id="noun_business-administrator_1880059" transform="translate(539.000000, 14.000000)" fill="#004C23" fill-rule="nonzero">
                <path d="M95.414,75.803 C95.742,73.528 95.676,71.211 95.422,68.932 C94.177,68.694 92.876,68.518 91.606,68.389 C91.352,66.897 90.958,65.434 90.43,64.02 C91.455,63.272 92.463,62.477 93.448,61.637 C92.565,59.524 91.411,57.528 90.018,55.711 C88.801,56.145 87.61,56.619 86.455,57.137 C85.498,55.981 84.43,54.905 83.248,53.934 C83.769,52.77 84.267,51.557 84.678,50.362 C82.828,49.008 80.852,47.796 78.72,46.945 C77.879,47.933 77.098,48.915 76.347,49.97 C74.91,49.435 73.451,49.048 71.986,48.801 C71.86,47.513 71.673,46.275 71.436,45 C69.166,44.675 66.846,44.739 64.568,44.991 C64.33,46.235 64.155,47.538 64.026,48.809 C62.534,49.064 61.071,49.457 59.658,49.987 C58.911,48.96 58.116,47.953 57.275,46.967 C55.161,47.848 53.166,49.003 51.346,50.397 C51.78,51.614 52.257,52.804 52.774,53.962 C51.619,54.917 50.544,55.985 49.572,57.165 C48.407,56.644 47.194,56.149 45.999,55.735 C44.645,57.585 43.431,59.561 42.583,61.696 C43.572,62.538 44.552,63.317 45.608,64.067 C45.073,65.505 44.686,66.963 44.438,68.43 C43.15,68.555 41.914,68.739 40.639,68.977 C40.309,71.248 40.378,73.567 40.629,75.846 C41.874,76.084 43.175,76.258 44.447,76.387 C44.701,77.879 45.096,79.344 45.625,80.758 C44.598,81.502 43.589,82.297 42.604,83.141 C43.487,85.254 44.641,87.248 46.034,89.069 C47.251,88.633 48.44,88.159 49.597,87.639 C50.552,88.795 51.621,89.871 52.802,90.842 C52.281,92.006 51.785,93.219 51.371,94.416 C53.222,95.77 55.2,96.982 57.33,97.832 C58.173,96.842 58.952,95.859 59.704,94.807 C61.14,95.34 62.599,95.729 64.065,95.975 C64.192,97.262 64.378,98.5 64.614,99.776 C66.885,100.104 69.204,100.036 71.481,99.786 C71.721,98.54 71.896,97.237 72.024,95.968 C73.518,95.714 74.981,95.32 76.397,94.79 C77.14,95.817 77.937,96.825 78.776,97.81 C80.89,96.927 82.885,95.773 84.704,94.38 C84.272,93.161 83.795,91.972 83.277,90.817 C84.434,89.862 85.51,88.792 86.482,87.61 C87.643,88.133 88.856,88.628 90.051,89.042 C91.406,87.19 92.62,85.216 93.469,83.081 C92.479,82.239 91.496,81.462 90.444,80.71 C90.979,79.272 91.367,77.815 91.614,76.349 C92.9,76.223 94.139,76.037 95.414,75.803 Z M79.833,75.541 C78.092,82.061 71.395,85.936 64.875,84.195 C58.355,82.454 54.48,75.757 56.221,69.238 C57.962,62.717 64.659,58.843 71.178,60.584 C77.699,62.324 81.574,69.021 79.833,75.541 Z M49.168,44.777 L67.617,44.777 C69.953,44.801 71.866,42.928 71.89,40.592 C71.915,38.257 70.042,36.343 67.706,36.318 L51.196,36.318 L45.69,29.47 C42.417,24.866 38.75,24.152 36.168,24.152 L31.492,24.152 L28.107,28.881 L31.492,52.553 L27.707,56.961 L27.707,56.959 L27.706,56.961 L23.923,52.553 L27.308,28.881 L23.923,24.152 L19.247,24.152 C16.665,24.152 12.997,24.867 9.725,29.47 L1.057,40.277 C0.305,41.398 0.154,42.818 0.655,44.072 L9.243,60.746 C10.081,62.842 12.459,63.859 14.553,63.021 C14.561,63.019 14.57,63.015 14.577,63.013 C15.488,62.642 16.193,61.978 16.627,61.175 L16.627,94.968 C16.627,97.745 18.899,99.999 21.703,99.999 C24.507,99.999 26.779,97.745 26.779,94.968 L26.779,65.678 L28.635,65.678 L28.635,94.969 C28.635,97.746 30.907,100 33.711,100 C36.514,100 38.786,97.746 38.786,94.969 L38.786,34.308 L45.965,43.07 C46.746,44.146 47.929,44.777 49.168,44.777 Z M16.628,57.313 L9.469,43.042 L16.628,34.309 L16.628,57.313 Z M16.515,11.191 C16.515,5.009 21.526,0 27.708,0 C33.889,0 38.9,5.009 38.9,11.191 C38.9,17.373 33.889,22.382 27.708,22.382 C21.526,22.382 16.515,17.373 16.515,11.191 Z" id="Shape"></path>
            </g>
            <text id="Students-Over-30,000" font-family="SFProDisplay-Regular, SF Pro Display" font-size="24" font-weight="normal" letter-spacing="-0.480000108" fill="#4A4A4A">
                <tspan x="69" y="79">Students</tspan>
                <tspan x="69" y="108">Over 30,000</tspan>
            </text>
            <text id="Faculties-Around-150" font-family="SFProDisplay-Regular, SF Pro Display" font-size="24" font-weight="normal" letter-spacing="-0.480000108" fill="#4A4A4A">
                <tspan x="341" y="79">Faculties</tspan>
                <tspan x="341" y="108">Around 1500</tspan>
            </text>
            <text id="School-operations-ad" font-family="SFProDisplay-Regular, SF Pro Display" font-size="24" font-weight="normal" letter-spacing="-0.480000108" fill="#4A4A4A">
                <tspan x="643" y="79">School operations</tspan>
                <tspan x="643" y="108">administrators</tspan>
            </text>
        </g>
    </g>
</svg>