<?xml version="1.0" encoding="UTF-8"?>
<svg width="272px" height="272px" viewBox="0 0 272 272" version="1.1" xmlns="http://www.w3.org/2000/svg" xmlns:xlink="http://www.w3.org/1999/xlink">
    <!-- Generator: Sketch 52 (66869) - http://www.bohemiancoding.com/sketch -->
    <title>4 colostate</title>
    <desc>Created with Sketch.</desc>
    <g id="Page-1" stroke="none" stroke-width="1" fill="none" fill-rule="evenodd">
        <g id="Artboard">
            <g id="Artboard-1" transform="translate(16.000000, 16.000000)">
                <ellipse id="Oval" fill="#004C23" cx="119.709343" cy="120" rx="119.584775" ry="120"></ellipse>
                <path d="M131.659516,183.075 C127.714879,183.466667 123.39654,184.391667 119.916955,184.325 C116.43737,184.391667 112.110727,183.491667 108.174394,183.075 C107.773541,183.050023 107.380107,183.191668 107.086505,183.466667 C104.786159,188.383333 117.982007,191.1 119.875433,191.016667 C121.777163,191.1 135.039446,188.383333 132.747405,183.466667 C132.452774,183.193366 132.060088,183.051989 131.659516,183.075 Z" id="Path" fill="#FFFFFF"></path>
                <path d="M81.6581315,150.091667 C83.6761246,155.541667 88.3017301,164.566667 94.1148789,173.041667 C92.4955017,159.583333 99.9280277,150.716667 101.638754,147.058333 C104.819377,142.166667 108.157785,131.5 106.222837,126.991667 C102.572628,125.571038 99.4170905,123.108531 97.1460208,119.908333 C94.8955017,116.641667 93.583391,112.991667 89.6719723,111.908333 C87.0900988,111.087353 84.2854234,111.36759 81.9155709,112.683333 C78.4276817,114.7 77.5806228,119.516667 77.032526,123.333333 C76.783391,131.191667 78.2449827,142.783333 81.6581315,150.091667 Z M83.983391,117.741667 C87.6290657,114.408333 97.0878893,125.125 94.9951557,133.525 C94.0650519,133.833333 93.6,133.3 91.415917,129.725 C89.8712803,126.991667 85.9183391,127.533333 84.0581315,126.45 C81.0435986,124.5 81.1930796,120.3 83.983391,117.741667 Z" id="Shape" fill="#FFFFFF" fill-rule="nonzero"></path>
                <path d="M145.32872,173.041667 C151.141869,164.566667 155.792388,155.541667 157.727336,150.091667 C161.148789,142.783333 162.710035,131.191667 162.386159,123.333333 C161.921107,119.516667 160.991003,114.7 157.503114,112.683333 C155.135835,111.368982 152.334267,111.088756 149.755017,111.908333 C145.802076,112.991667 144.556401,116.641667 142.222837,119.908333 C139.96084,123.11041 136.809917,125.573824 133.16263,126.991667 C131.219377,131.5 134.56609,142.166667 137.738408,147.058333 C139.515571,150.716667 146.840138,159.583333 145.32872,173.041667 Z M155.410381,117.741667 C158.275433,120.3 158.358478,124.5 155.33564,126.45 C153.550173,127.533333 149.597232,126.991667 147.96955,129.725 C145.802076,133.3 145.32872,133.833333 144.40692,133.525 C142.280969,125.125 151.731488,114.391667 155.377163,117.741667 L155.410381,117.741667 Z" id="Shape" fill="#FFFFFF" fill-rule="nonzero"></path>
                <path d="M44.4539792,113.333333 C44.0636678,116.666667 48.5564014,120.258333 51.4297578,122.358333 C54.3778547,124.608333 59.0283737,124.766667 61.3951557,128.425 C63.594653,132.140507 65.0080907,136.270729 65.5474048,140.558333 C66.4692042,148.816667 66.3197232,159.15 72.0581315,166 C73.1294118,161.95 70.1896194,152.85 70.1231834,141.108333 C69.9992415,136.567341 68.5114447,132.169782 65.8546713,128.491667 C70.5799308,128.116667 70.6546713,128.741667 71.0449827,127.258333 C71.4352941,125.775 70.5799308,124.141667 69.4920415,122.825 C66.0788927,118.858333 61.1875433,120.958333 56.8525952,119.55 C53.9875433,118.541667 49.5778547,117.05 49.3785467,113.025 C49.2290657,110.308333 57.7577855,109.691667 57.7577855,109.691667 C64.567474,110.225 63.7951557,114.116667 68.5536332,114.5 C72.4318339,114.825 74.0595156,110.7 75.3051903,108.208333 C77.1653979,104.241667 79.332872,95.7583333 71.4269896,97 C67.2747405,97.7083333 66.5439446,103.783333 69.6415225,107.433333 C66.7764706,107.116667 62.516263,103.15 52.4346021,106.333333 C48.9965398,107.391667 44.9937716,108.791667 44.4539792,113.333333 Z" id="Path" fill="#FFFFFF"></path>
                <path d="M101.314879,177.316667 C105.26782,180.741667 110.449827,183.075 117.591696,180.891667 C119.377163,179.658333 118.364014,176 117.442215,174.358333 C114.120415,170.008333 108.913495,171.725 107.476817,169.541667 C106.040138,167.358333 107.011765,165.8 107.858824,164.725 C109.104498,163.166667 111.114187,163.55 112.841522,164.016667 C115.494282,164.573255 117.924022,165.90396 119.825606,167.841667 L119.825606,167.983333 L119.900346,167.916667 L119.975087,167.983333 L119.975087,167.841667 C121.861402,165.888159 124.293656,164.554491 126.950865,164.016667 C128.611765,163.55 130.67128,163.183333 131.842215,164.725 C133.164536,166.001873 133.331896,168.06719 132.232526,169.541667 C130.754325,171.725 125.638754,170.008333 122.267128,174.358333 C121.345329,176.025 120.249135,179.658333 122.026298,180.891667 C129.242907,183.075 134.358478,180.741667 138.311419,177.316667 C147.30519,169.616667 135.06436,153.358333 129.010381,146.833333 C125.688581,143.216667 123.56263,140.075 119.941869,139.991667 L119.792388,139.991667 C116.088581,140.075 114.087197,143.216667 110.657439,146.833333 C104.686505,153.333333 92.4290657,169.616667 101.314879,177.316667 Z" id="Path" fill="#FFFFFF"></path>
                <path d="M171.903114,114.458333 C176.636678,114.075 175.922491,110.183333 182.757093,109.65 C182.757093,109.65 191.277509,110.275 191.136332,112.983333 C190.820761,117.025 186.394464,118.5 183.537716,119.508333 C179.269204,120.916667 174.402768,118.816667 170.89827,122.783333 C169.818685,124.1 168.955017,125.741667 169.337024,127.216667 C169.719031,128.691667 169.893426,128.05 174.618685,128.45 C171.977855,131.725 170.466436,136.708333 170.350173,141.066667 C170.208997,152.808333 167.252595,161.9 168.415225,165.958333 C174.078893,159.108333 173.995848,148.775 174.934256,140.516667 C175.419631,136.216675 176.836865,132.075361 179.086505,128.383333 C181.486505,124.725 186.062284,124.566667 189.051903,122.316667 C191.92526,120.216667 196.409689,116.633333 196.027682,113.291667 C195.487889,108.783333 191.534948,107.383333 188.055363,106.283333 C177.965398,103.1 173.70519,107.066667 170.765398,107.383333 C173.937716,103.733333 173.165398,97.6583333 168.988235,96.95 C161.148789,95.7083333 163.316263,104.191667 165.184775,108.158333 C166.463668,110.658333 168.008304,114.783333 171.903114,114.458333 Z" id="Path" fill="#FFFFFF"></path>
                <path d="M119.742561,228.825 C179.42699,228.825 228.116263,179.891667 228.116263,120 C228.116263,60.1083333 179.42699,11.175 119.742561,11.175 C60.0581315,11.175 11.3024221,60 11.3024221,120 C11.3024221,180 59.983391,228.825 119.742561,228.825 Z M95.5930796,97.5 C97.8685121,99.6 108.116263,97.5 110.076125,95.0916667 C112.658824,91.975 117.824221,80.775 111.952941,73.425 C103.856055,63.1416667 71.2608997,33.6166667 40.4512111,55.8833333 C47.9252595,45.5083333 59.2608997,36.15 72.7806228,29.2166667 C88.0027682,21.3833333 104.678201,17.3083333 119.742561,17.725 L119.825606,17.725 C134.873356,17.3166667 151.507266,21.3833333 166.687889,29.2083333 C180.132872,36.15 191.418685,45.5083333 198.950865,55.875 C168.058131,33.5583333 135.570934,63.0833333 127.382699,73.3333333 C121.56955,80.725 126.685121,91.925 129.259516,95.0416667 C131.294118,97.45 141.550173,99.55 143.825606,97.45 C158.383391,84.3083333 166.845675,55.7833333 215.136332,84.3833333 C209.904498,83.6083333 200.188235,80.725 195.737024,83.6083333 C182.723875,91.7 214.00692,110.366667 193.611073,147.316667 C193.777163,147.541667 205.602768,141.4 210.137024,141.558333 C213.110035,141.708333 214.679585,143.725 214.206228,146.766667 C213.583391,150.933333 210.36955,153.616667 207.712111,155.875 C196.351557,165.208333 179.842215,187.608333 188.138408,187.141667 C196.434602,186.675 214.712803,159.758333 217.56955,153.308333 C214.206228,164.583333 207.479585,175.233333 200.736332,184.491667 C197.13218,189.4 192.99654,193.433333 187.748097,195.325 C184.426298,196.641667 181.004844,197.191667 177.641522,195.633333 C175.006054,194.340114 173.206953,191.790648 172.866436,188.866667 C172.251903,184.508333 174.676817,179.375 176.777855,175.95 C179.684429,171.058333 186.336332,162.5 194.009689,156.825 C204.896886,148.725 212.478893,146.475 209.671972,144.608333 C207.712111,143.283333 197.381315,148.966667 195.346713,150.058333 C183.720415,156.041667 167.775779,173.391667 165.898962,186.233333 C164.60346,195.075 173.323183,201.725 180.847059,201.408333 C155.933564,221.458333 128.885813,222.116667 119.800692,222.333333 L119.709343,222.333333 C110.574394,222.125 83.4103806,221.441667 58.6297578,201.416667 C66.1038062,201.733333 74.8567474,195.091667 73.5778547,186.241667 C71.7010381,173.391667 55.6484429,156.05 44.1467128,150.066667 C42.1038062,148.975 31.7647059,143.291667 29.8131488,144.616667 C26.9896194,146.483333 34.5799308,148.733333 45.467128,156.833333 C53.1487889,162.508333 59.7259516,171.066667 62.615917,175.958333 C64.8083045,179.383333 67.233218,184.516667 66.6103806,188.875 C66.2451094,191.789392 64.4535282,194.328201 61.8352941,195.641667 C58.4636678,197.2 55.0256055,196.65 51.6622837,195.333333 C46.4968858,193.458333 42.3446367,189.425 38.7404844,184.5 C31.8726644,175.266667 25.2207612,164.616667 21.8408304,153.333333 C24.7391003,159.783333 43.067128,186.775 51.2055363,187.166667 C59.5764706,187.633333 43.067128,165.233333 31.7065744,155.9 C28.96609,153.641667 25.8352941,150.991667 25.2207612,146.791667 C24.7391003,143.75 26.3086505,141.733333 29.2816609,141.583333 C33.832526,141.425 45.649827,147.566667 45.799308,147.341667 C25.2955017,110.391667 56.6865052,91.725 43.6899654,83.6333333 C39.1474048,80.75 29.5723183,83.6333333 24.2740484,84.4083333 C72.5896194,55.8333333 81.0269896,84.3416667 95.5930796,97.5 Z" id="Shape" fill="#FFFFFF" fill-rule="nonzero"></path>
            </g>
        </g>
    </g>
</svg>