<?xml version="1.0" encoding="UTF-8"?>
<svg width="769px" height="360px" viewBox="0 0 769 360" version="1.1" xmlns="http://www.w3.org/2000/svg" xmlns:xlink="http://www.w3.org/1999/xlink">
    <!-- Generator: Sketch 52.4 (67378) - http://www.bohemiancoding.com/sketch -->
    <title>Group 16</title>
    <desc>Created with Sketch.</desc>
    <defs>
        <filter x="-4.5%" y="-6.4%" width="109.1%" height="112.8%" filterUnits="objectBoundingBox" id="filter-1">
            <feOffset dx="0" dy="2" in="SourceAlpha" result="shadowOffsetOuter1"></feOffset>
            <feGaussianBlur stdDeviation="1" in="shadowOffsetOuter1" result="shadowBlurOuter1"></feGaussianBlur>
            <feColorMatrix values="0 0 0 0 0   0 0 0 0 0   0 0 0 0 0  0 0 0 0.0690953351 0" type="matrix" in="shadowBlurOuter1" result="shadowMatrixOuter1"></feColorMatrix>
            <feMerge>
                <feMergeNode in="shadowMatrixOuter1"></feMergeNode>
                <feMergeNode in="SourceGraphic"></feMergeNode>
            </feMerge>
        </filter>
    </defs>
    <g id="Page-1" stroke="none" stroke-width="1" fill="none" fill-rule="evenodd">
        <g id="Group-16" transform="translate(2.000000, 0.000000)">
            <g id="Group-11" transform="translate(694.000000, 143.000000)">
                <path d="M62.383,72.223 C62.328,72.236 62.27,72.241 62.208,72.24 C62.146,72.238 62.081,72.23 62.014,72.213 C62.011,72.213 62.009,72.213 62.007,72.211 C61.939,72.195 61.869,72.171 61.797,72.141 C61.793,72.141 61.791,72.141 61.789,72.139 C61.714,72.109 61.639,72.069 61.559,72.024 L61.553,72.021 C61.473,71.975 61.393,71.923 61.308,71.861 C61.304,71.861 61.302,71.858 61.3,71.857 C61.215,71.797 61.128,71.727 61.04,71.652 C61.038,71.652 61.036,71.652 61.035,71.649 C60.945,71.573 60.855,71.489 60.76,71.399 L58.513,72.749 C58.583,72.819 58.653,72.879 58.723,72.939 L58.719,72.941 L58.789,72.997 L58.792,73.001 L58.799,73.007 C58.826,73.027 58.851,73.05 58.877,73.07 L58.955,73.13 L59.03,73.185 L59.054,73.201 C59.054,73.203 59.057,73.204 59.058,73.205 L59.062,73.208 L59.097,73.233 C59.119,73.247 59.14,73.263 59.162,73.276 L59.226,73.316 C59.246,73.329 59.268,73.341 59.289,73.353 L59.306,73.363 L59.313,73.367 L59.348,73.387 L59.408,73.417 C59.426,73.427 59.446,73.437 59.465,73.445 C59.485,73.455 59.503,73.462 59.522,73.47 L59.542,73.477 C59.542,73.477 59.545,73.477 59.546,73.479 L59.55,73.479 C59.56,73.483 59.57,73.489 59.58,73.491 L59.636,73.511 L59.692,73.528 L59.746,73.542 L59.763,73.545 L59.769,73.547 C59.782,73.547 59.793,73.551 59.804,73.553 L59.86,73.563 L59.916,73.568 L59.968,73.572 C59.99,73.572 60.01,73.572 60.03,73.57 C60.05,73.57 60.07,73.567 60.09,73.564 C60.11,73.561 60.128,73.557 60.147,73.552 C60.165,73.548 60.183,73.542 60.2,73.537 C60.21,73.532 60.218,73.529 60.227,73.527 L60.252,73.514 L60.277,73.502 L60.301,73.488 L62.535,72.161 C62.488,72.188 62.438,72.209 62.385,72.221" id="Path" fill="#8895A6"></path>
                <path d="M4.108,12.87 L2.872,14.072 C2.44,13.34 1.955,12.169 2.53,11.582 L13.65,0.247 L11.92,1.951 C0.42,13.811 0.36,13.403 0.23,14.106 C0.245,14.156 -0.125,15.588 2.048,17.704 L2.728,17.052 C2.758,17.09 2.791,17.128 2.824,17.165 L2.829,17.161 C2.889,17.226 2.946,17.294 3.013,17.358 L5.093,15.364 C4.49,14.768 3.583,13.434 4.107,12.871" id="Path" fill="#8895A6"></path>
                <polyline id="Path" fill="#575560" points="60.763 71.396 58.515 72.746 2.048 17.703 4.144 15.688"></polyline>
                <path d="M5.094,15.363 C4.857,15.129 4.652,14.883 4.482,14.639 C4.314,14.394 4.182,14.151 4.092,13.925 C4.048,13.812 4.014,13.703 3.992,13.599 C3.969,13.496 3.957,13.399 3.957,13.309 C3.957,13.129 4.007,12.977 4.107,12.869 L14.699,1.519 C14.731,1.484 14.772,1.459 14.821,1.446 C14.869,1.432 14.926,1.426 14.988,1.432 C15.111,1.442 15.26,1.49 15.423,1.57 C15.586,1.65 15.763,1.764 15.945,1.904 C16.127,2.044 16.315,2.211 16.497,2.401 L17.079,3.011 L16.472,1.591 C16.212,1.331 15.952,1.091 15.694,0.894 C15.397,0.664 15.107,0.479 14.841,0.347 C14.575,0.213 14.331,0.133 14.126,0.113 C13.92,0.093 13.754,0.136 13.646,0.248 L2.526,11.583 C2.356,11.756 2.272,12.001 2.266,12.296 C2.262,12.591 2.336,12.936 2.482,13.309 C2.628,13.683 2.845,14.083 3.125,14.489 C3.403,14.893 3.745,15.299 4.14,15.689 L35.81,46.851 L34.945,44.824 L5.089,15.364 L5.094,15.363 Z M60.762,71.396 C61.062,71.69 61.346,71.908 61.602,72.048 C61.858,72.188 62.087,72.251 62.277,72.238 C62.465,72.226 62.617,72.138 62.717,71.978 C62.817,71.82 62.867,71.588 62.861,71.284 L62.321,50.907 C62.315,50.7 62.261,50.453 62.169,50.184 C62.076,49.916 61.946,49.624 61.786,49.329 C61.626,49.032 61.439,48.731 61.23,48.442 C61.023,48.152 60.795,47.874 60.555,47.622 L40.08,26.24 C40.29,26.705 40.5,27.176 40.717,27.655 L60.846,48.738238 L60.762,71.396 Z" id="Shape" fill="#575560" fill-rule="nonzero"></path>
                <path d="M60.763,48.6389701 L40.716,27.653 C45.009,37.203 55.926,60.3666534 60.763,71.0336534 C60.8636667,56.2091979 60.8636667,48.7443035 60.763,48.6389701 Z M17.082,3.01 L16.499,2.4 C16.315,2.21 16.129,2.043 15.946,1.904 C15.764,1.764 15.586,1.651 15.424,1.571 C15.261,1.491 15.112,1.444 14.988,1.434 C14.925,1.429 14.868,1.434 14.82,1.448 C14.77,1.462 14.73,1.488 14.697,1.522 L4.105,12.872 C4.005,12.98 3.955,13.132 3.955,13.312 C3.955,13.402 3.965,13.499 3.989,13.602 C4.011,13.706 4.045,13.815 4.089,13.928 C4.179,14.154 4.311,14.398 4.479,14.641 C4.649,14.884 4.854,15.131 5.091,15.364 L34.947,44.824 L17.079,3.01 L17.082,3.01 Z" id="Shape" fill="#E9E9E9" fill-rule="nonzero"></path>
                <path d="M55.903,44.038 C55.955,44.2 55.981,44.346 55.976,44.466 C55.981,44.346 55.956,44.2 55.903,44.038 Z M55.903,44.038 C55.853,43.876 55.775,43.7 55.679,43.518 C55.649,43.461 55.612,43.402 55.579,43.344 C55.612,43.402 55.649,43.461 55.679,43.518 C55.774,43.7 55.851,43.876 55.902,44.038 L55.903,44.038 Z M54.915,42.458 C55.065,42.616 55.209,42.791 55.338,42.97 C55.378,43.024 55.412,43.08 55.448,43.134 C55.412,43.079 55.378,43.024 55.338,42.97 C55.208,42.79 55.066,42.616 54.915,42.458 L40.717,27.653 L54.915,42.458 Z M17.082,3.01 L16.499,2.4 L17.081,3.01 L17.082,3.01 Z M15.947,1.904 C16.129,2.044 16.317,2.211 16.499,2.401 C16.315,2.211 16.129,2.044 15.946,1.905 L15.947,1.904 Z" id="Shape" fill="#FFD5C7" fill-rule="nonzero"></path>
                <path d="M54.934,63.946 C54.984,63.926 55.031,63.893 55.067,63.85 C55.143,63.763 55.187,63.632 55.194,63.455 C55.187,63.632 55.144,63.763 55.067,63.85 C55.031,63.893 54.985,63.925 54.934,63.946 Z M34.95,44.823 L53.784,63.407 C53.972,63.592 54.152,63.733 54.317,63.827 C54.152,63.733 53.972,63.592 53.784,63.407 L34.95,44.823 Z M54.76,63.974 C54.633,63.97 54.483,63.922 54.318,63.827 C54.483,63.922 54.633,63.97 54.761,63.974 L54.76,63.974 Z" id="Shape" fill="#95122E" fill-rule="nonzero"></path>
                <path d="M40.717,27.653 L40.081,26.238 L16.596,1.708 C16.556,1.665 16.516,1.628 16.476,1.588 L17.083,3.008 L40.718,27.653 L40.717,27.653 Z M53.785,63.406 L34.951,44.822 L35.817,46.849 L60.763,71.399 C61.4510997,70.7307964 53.972,63.591 53.785,63.406 Z" id="Shape" fill="#8895A6" fill-rule="nonzero"></path>
                <path d="M17.082,3.01 L34.95,44.823 L53.784,63.408 C53.971,63.592 54.152,63.733 54.317,63.828 C54.483,63.922 54.633,63.971 54.761,63.975 C54.826,63.975 54.883,63.967 54.935,63.945 C54.987,63.925 55.032,63.893 55.069,63.85 C55.143,63.763 55.189,63.632 55.195,63.455 L55.335,60.052 C50.499,49.386 45.011,37.202 40.718,27.652 L17.083,3.009 L17.082,3.01 Z" id="Path" fill="#FFFFFF"></path>
            </g>
            <g id="Group-7" transform="translate(477.000000, 22.000000)">
                <path d="M110.727,73.828 C103.777,76.278 96.305,78.598 88.982,82.636 C80.857,87.12 72.909,93.591 64.692,100.884 C56.066,93.294 46.446,85.078 36.758,74.924 C25.48,63.1 13.796,48.51 0.834,31.542 C13.124,29.27 24.914,25.892 35.347,20.442 C46.172,14.779 55.727,7.346 65.477,0.462 C74.687,12.338 83.201,24.376 90.677,36.92 C98.117,49.407 104.507,62.01 110.727,73.828" id="Path" fill="#FFFFFF"></path>
                <path d="M77.124,30.59 C63.519,39.493 51.226,51.552 36.068,60.432 C35.51,59.818 34.95,59.197 34.39,58.57 C49.723,49.992 62.14,37.96 75.804,28.823 C76.246,29.411 76.686,30 77.124,30.591 M81.106,36.102 C67.723,44.19 55.724,56.156 41.116,65.852 C40.582,65.292 40.044,64.725 39.506,64.152 C54.292,54.698 66.373,42.674 79.833,34.31 C80.26,34.907 80.683,35.504 81.106,36.102 M84.948,41.698 C71.842,48.893 60.025,60.515 45.973,70.814 C45.457,70.299 44.94,69.78 44.423,69.254 C58.653,59.126 70.518,47.366 83.72,39.878 C84.132,40.483 84.54,41.088 84.948,41.698 M88.653,47.38 C75.885,53.673 64.158,64.72 50.651,75.39 C50.155,74.913 49.657,74.432 49.157,73.947 C62.839,63.371 74.587,52.114 87.47,45.533 C87.866,46.147 88.26,46.763 88.653,47.38 M92.223,53.135 C79.847,58.585 68.147,68.855 55.163,79.657 C54.683,79.209 54.203,78.757 53.721,78.305 C66.871,67.521 78.576,56.979 91.083,51.267 C91.466,51.889 91.846,52.511 92.223,53.135 M95.663,58.933 C83.715,63.663 72.011,72.989 59.523,83.696 L58.13,82.409 C70.773,71.647 82.476,62 94.564,57.054 C94.934,57.679 95.299,58.306 95.664,58.932 M63.092,12.778 C58.142,16.418 53.19,20.171 48.014,23.718 C47.478,23.101 46.941,22.476 46.401,21.848 C51.633,18.363 56.631,14.632 61.611,10.978 C62.108,11.578 62.601,12.178 63.093,12.778 M67.564,18.27 C62.712,21.8 57.888,25.565 52.876,29.25 C52.36,28.67 51.843,28.088 51.324,27.5 C56.387,23.848 61.251,20.077 66.134,16.503 C66.614,17.093 67.089,17.683 67.564,18.27" id="Shape" fill="#D0E0EC" fill-rule="nonzero"></path>
                <path d="M179.436,138.87 L160.926,166.078 C158.306,162.49 155.646,158.946 152.201,156.502 C148.766,154.067 144.554,152.762 140.275,151.632 C135.985,150.502 131.72,149.317 128.189,146.997 C124.672,144.681 121.919,141.231 119.306,137.652 L137.816,110.442 C140.43,114.022 143.18,117.472 146.699,119.788 C150.229,122.108 154.493,123.292 158.784,124.424 C163.064,125.554 167.274,126.858 170.712,129.294 C174.159,131.737 176.818,135.281 179.438,138.869" id="Path" fill="#FFFFFF"></path>
                <path d="M149.13,125.98 C144.638,132.584 140.145,139.19 135.652,145.793 C135.232,145.633 134.816,145.463 134.405,145.285 L147.885,125.471 C148.295,125.651 148.71,125.821 149.131,125.981 M153.164,127.288 C148.671,133.893 144.179,140.498 139.686,147.101 C139.241,146.977 138.796,146.848 138.356,146.714 L151.836,126.9 C152.276,127.033 152.719,127.162 153.164,127.288 M157.33,128.404 C152.835,135.009 148.343,141.614 143.85,148.217 C143.4,148.097 142.95,147.977 142.5,147.859 L155.98,128.045 C156.43,128.163 156.88,128.282 157.33,128.403 M161.42,129.625 L147.942,149.439 C147.512,149.289 147.077,149.149 146.639,149.013 C151.129,142.409 155.623,135.805 160.116,129.2 C160.554,129.336 160.989,129.477 161.42,129.625 M165.258,131.223 L151.778,151.037 C151.384,150.837 150.982,150.647 150.575,150.467 C155.068,143.861 159.56,137.257 164.055,130.652 C164.461,130.832 164.863,131.022 165.258,131.222 M168.718,133.373 C164.226,139.977 159.733,146.583 155.24,153.186 C154.89,152.922 154.53,152.668 154.165,152.426 L167.643,132.612 C168.009,132.855 168.367,133.109 168.718,133.372 M138.378,118.157 L133.602,125.179 C133.309,124.827 133.02,124.469 132.736,124.109 L137.512,117.089 C137.797,117.449 138.085,117.806 138.378,118.156 M141.24,121.187 C139.65,123.527 138.057,125.867 136.465,128.207 C136.137,127.907 135.815,127.599 135.502,127.281 L140.279,120.261 C140.592,120.579 140.912,120.888 141.239,121.188" id="Shape" fill="#D0E0EC" fill-rule="nonzero"></path>
                <path d="M221.27,55.64 C227.958,50.076 234.798,45.454 241.87,42.874 C248.5,40.46 255.616,39.988 262.243,41.687 C250.913,44.022 239.971,51.735 229.329,61.027 C218.056,70.873 207.601,81.907 196.206,90.995 C182.289,78.458 170.362,62.927 156.284,51.235 C166.737,43.565 178.186,38.581 189.052,39.4 C200.096,40.243 211.087,46.85 221.269,55.64" id="Path" fill="#FFFFFF"></path>
                <path d="M179.363,44.166 C189.669,49.978 198.983,59.414 208.505,69.486 C207.927,70.026 207.35,70.569 206.772,71.112 C197.215,60.96 187.938,51.296 177.645,45.044 C178.215,44.741 178.788,44.448 179.363,44.166 M184.663,41.907 C194.975,46.257 204.435,54.861 213.857,64.532 C213.28,65.057 212.702,65.585 212.127,66.117 C202.673,56.293 193.267,47.397 182.949,42.561 C183.519,42.331 184.089,42.114 184.662,41.908 M189.948,40.375 C200.194,43.151 209.871,50.721 219.205,59.787 C218.628,60.284 218.052,60.787 217.475,61.292 C208.115,52.009 198.515,44.082 188.24,40.789 C188.808,40.637 189.378,40.499 189.948,40.374 M195.218,39.61 C205.322,40.772 215.282,47.087 224.548,55.366 C223.971,55.822 223.395,56.286 222.82,56.754 C213.534,48.202 203.672,41.456 193.515,39.772 C194.082,39.704 194.651,39.652 195.218,39.61 M200.474,39.632 C210.384,39.214 220.656,44.04 229.881,51.375 C229.306,51.779 228.731,52.192 228.158,52.613 C218.923,44.957 208.751,39.623 198.776,39.538 C199.343,39.555 199.909,39.586 200.476,39.632" id="Shape" fill="#D0E0EC" fill-rule="nonzero"></path>
                <path d="M205.713,40.442 C215.426,38.529 225.98,41.65 235.205,47.909 C234.63,48.251 234.055,48.604 233.485,48.966 C224.265,42.346 213.793,38.653 204.02,40.093 C204.585,40.195 205.15,40.311 205.713,40.441" id="Path" fill="#D0E0EC"></path>
                <path d="M210.842,41.987 C220.404,38.707 231.139,40.002 240.418,45.1 C239.845,45.374 239.272,45.66 238.701,45.957 C229.448,40.465 218.759,38.557 209.154,41.397 C209.719,41.582 210.281,41.777 210.844,41.987" id="Path" fill="#D0E0EC"></path>
                <path d="M216.052,44.293 C225.529,39.72 236.312,39.09 245.717,42.911 C245.145,43.111 244.573,43.321 244.004,43.541 C234.649,39.298 223.864,39.305 214.368,43.471 C214.931,43.734 215.493,44.009 216.052,44.294" id="Path" fill="#FD6868"></path>
                <path d="M221.25,47.285 C230.71,41.515 241.396,39.007 251,41.455 C250.43,41.57 249.86,41.7 249.293,41.843 C239.761,38.941 229.028,40.853 219.569,46.246 C220.129,46.582 220.691,46.929 221.249,47.286" id="Path" fill="#FD6868"></path>
                <path d="M262.243,41.687 C262.243,41.687 251.979,35.921 186.153,39.172 C186.153,39.172 204.498,39.149 221.27,55.639 C221.27,55.639 238.643,39.719 262.243,41.686" id="Path" fill="#FFFFFF"></path>
            </g>
            <g id="Group-6" transform="translate(620.000000, 240.000000)">
                <path d="M145.466,2.028 L144.358,0.918 L103.625,52.908 L52.225,22.298 L0.822,68.455 L1.018,70.219 C1.2,71.861 2.14,73.325 3.558,74.172 L77.338,118.252 C78.538,118.968 80.07,118.772 81.053,117.779 L133.695,64.575 C134.641,63.619 135.282,62.405 135.539,61.085 L146.425,5.178 C146.648,4.033 146.288,2.851 145.465,2.026" id="Path" fill="#4F4E5E"></path>
                <polyline id="Path" fill="#8F9CAC" points="103.14 48.534 78.894 115.1 0.822 68.455 51.739 17.925"></polyline>
                <polyline id="Path" fill="#475767" points="92.472 53.88 73.56 97.12 46.89 81.086 75.058 43.179"></polyline>
                <path d="M58.427,47.457 L45.355,64.327 L30.405,55.467 L45.703,40.207 L58.427,47.457 Z M106.607,47.27 L140.337,7.933 L139.073,14.42 C140.049,13.713 141.06,13.056 142.11,12.464 L144.358,0.918 L103.14,48.534 L95.248,70.202 C96.843,68.462 98.473,66.752 100.128,65.062 L106.608,47.269 L106.607,47.27 Z M130.128,60.353 L92.618,98.293 C92.644,98.616 92.67,98.939 92.708,99.26 C92.768,99.81 92.852,100.353 92.943,100.895 L132.72,60.681 L140.915,18.601 C139.683,19.895 138.532,21.266 137.461,22.698 L130.129,60.354 L130.128,60.353 Z" id="Shape" fill="#CDD5E2" fill-rule="nonzero"></path>
                <path d="M106.607,47.27 L100.127,65.062 C104.234,60.869 108.504,56.829 112.867,52.91 C117.227,48.994 121.817,45.012 124.227,39.663 C125.559,36.705 126.151,33.473 127.197,30.401 C129.374,24.013 133.615,18.371 139.073,14.421 L140.337,7.934 L106.607,47.27 Z M126.728,53.568 C122.328,63.212 105.236,68.248 97.168,80.538 C93.754,85.736 92.138,92.09 92.618,98.294 L130.128,60.354 L137.462,22.697 C133.009,28.657 130.002,35.711 128.889,43.075 C128.351,46.62 128.215,50.307 126.727,53.568 L126.728,53.568 Z" id="Shape" fill="#FFFFFF" fill-rule="nonzero"></path>
                <path d="M97.673,117.94 C97.785,118.46 97.89,118.98 97.979,119.502 C98.244,118.987 98.059,118.384 97.672,117.94" id="Path" fill="#661C3F"></path>
                <path d="M139.073,14.42 L137.463,22.697 C138.533,21.265 139.683,19.894 140.915,18.6 L142.11,12.464 C141.06,13.056 140.05,13.714 139.073,14.42 M92.62,98.293 L85.34,105.655 L100.126,65.062 C98.473,66.75 96.843,68.462 95.248,70.202 L78.894,115.1 L92.944,100.895 C92.851,100.353 92.77,99.809 92.707,99.26 C92.67,98.94 92.644,98.616 92.619,98.293" id="Shape" fill="#4F4E5E" fill-rule="nonzero"></path>
                <path d="M127.197,30.4 C126.151,33.472 125.559,36.705 124.227,39.663 C121.817,45.011 117.227,48.993 112.867,52.91 C108.504,56.83 104.234,60.87 100.127,65.062 L85.34,105.656 L92.62,98.293 C92.137,92.09 93.754,85.736 97.17,80.537 C105.236,68.249 122.33,63.212 126.728,53.567 C128.216,50.307 128.352,46.62 128.888,43.075 C130.003,35.711 133.008,28.658 137.461,22.697 L139.074,14.42 C133.616,18.37 129.374,24.013 127.198,30.4" id="Path" fill="#FFFFFF"></path>
            </g>
            <g id="Group-10" transform="translate(68.000000, 0.000000)">
                <path d="M60.55,131.91 L56.536,138.277 C55.616,139.737 56.131,141.672 57.653,142.479 L87.716,158.411 L59,157.1 L30.525,138.236 L41.845,121.881 L60.55,131.911 L60.55,131.91 Z" id="Path" fill="#97A2B7"></path>
                <polyline id="Path" fill="#453F43" points="58.048 159.13 87.12 159.845 87.716 158.412 59 157.1"></polyline>
                <path d="M40.533,120.688 L30.649,135.183 C28.889,137.763 29.624,141.288 32.265,142.946 L58.047,159.129 L59,157.099 L34.83,139.134 C34.166,138.64 34.033,137.697 34.534,137.036 L46.967,120.686" id="Path" fill="#2B2A30"></path>
                <polyline id="Path" fill="#800080" points="122.88 131.06 118.303 129.098 139.453 67.66 144.383 68.12"></polyline>
                <polyline id="Path" fill="#800080" points="144.384 68.12 139.452 67.66 47.602 5.206 51.81 3.684"></polyline>
                <polyline id="Path" fill="#9A009A" points="14.17 97.485 11.116 95.708 118.303 129.098 122.88 131.06"></polyline>
                <polyline id="Path" fill="#800080" points="14.17 97.486 11.116 95.709 47.601 5.205 51.811 3.683"></polyline>
                <path d="M46.314,2.2 C46.254,2.225 46.194,2.25 46.134,2.278 C46.094,2.296 46.057,2.316 46.019,2.335 L45.981,2.353 L45.956,2.366 C45.899,2.396 45.841,2.429 45.786,2.464 C45.761,2.478 45.736,2.494 45.714,2.511 L45.687,2.527 L45.667,2.542 C45.651,2.554 45.635,2.562 45.617,2.575 C45.557,2.618 45.497,2.663 45.437,2.71 L45.414,2.73 L45.371,2.767 L45.264,2.857 L45.157,2.962 C45.149,2.972 45.139,2.978 45.13,2.987 C45.127,2.991 45.124,2.997 45.12,3 L45.1,3.02 C45.047,3.075 44.994,3.133 44.944,3.193 C44.928,3.213 44.914,3.233 44.897,3.251 L44.871,3.284 C44.859,3.302 44.845,3.318 44.831,3.334 L44.725,3.482 L44.673,3.56 C44.669,3.567 44.663,3.572 44.659,3.58 C44.656,3.584 44.654,3.59 44.649,3.595 C44.641,3.61 44.632,3.623 44.623,3.635 L44.527,3.798 C44.507,3.838 44.484,3.878 44.463,3.918 L44.463,3.921 L44.459,3.926 C44.439,3.964 44.419,4.002 44.402,4.041 C44.382,4.081 44.364,4.125 44.345,4.167 L44.289,4.297 L0.829,111.594 L0.812,111.636 L0.795,111.676 L0.78,111.718 L0.764,111.76 C0.74,111.824 0.718,111.89 0.697,111.954 C0.677,112.019 0.657,112.084 0.639,112.148 L0.609,112.268 L0.602,112.291 C0.598,112.308 0.592,112.325 0.589,112.341 C0.574,112.407 0.559,112.471 0.549,112.535 C0.533,112.61 0.521,112.685 0.509,112.762 C0.501,112.825 0.493,112.888 0.487,112.952 C0.487,112.955 0.487,112.958 0.485,112.962 L0.485,112.968 C0.485,112.975 0.483,112.982 0.482,112.988 L0.467,113.213 C0.464,113.288 0.462,113.363 0.463,113.436 C0.463,113.48 0.469,113.522 0.471,113.564 L0.479,113.706 C0.491,113.888 0.512,114.069 0.546,114.244 L0.55,114.274 L0.552,114.284 L0.552,114.294 C0.59,114.476 0.644,114.652 0.704,114.824 L0.752,114.954 C0.772,115.002 0.785,115.05 0.805,115.097 C0.857,115.217 0.915,115.333 0.978,115.447 L0.985,115.463 L0.987,115.467 C1.057,115.589 1.13,115.709 1.211,115.824 C1.235,115.861 1.266,115.894 1.293,115.931 L1.377,116.039 C1.495,116.186 1.619,116.327 1.757,116.457 L4.499,119.042 C4.359,118.908 4.229,118.762 4.109,118.612 C4.079,118.576 4.051,118.539 4.023,118.502 C3.908,118.348 3.8,118.189 3.708,118.022 L3.698,118.002 C3.61,117.839 3.534,117.669 3.468,117.494 C3.45,117.45 3.434,117.404 3.418,117.36 C3.355,117.178 3.3,116.992 3.261,116.8 C3.258,116.787 3.257,116.774 3.255,116.76 C3.22,116.58 3.199,116.392 3.187,116.203 L3.179,116.056 C3.172,115.852 3.175,115.646 3.196,115.438 C3.196,115.425 3.199,115.411 3.201,115.398 C3.211,115.306 3.224,115.215 3.238,115.123 C3.242,115.098 3.248,115.073 3.251,115.046 C3.269,114.946 3.291,114.846 3.315,114.744 L3.329,114.694 C3.355,114.587 3.386,114.48 3.419,114.374 L3.429,114.349 C3.466,114.236 3.506,114.123 3.552,114.009 L48.427,2.725 C48.481,2.591 48.54,2.462 48.603,2.34 L48.606,2.337 C48.666,2.219 48.732,2.107 48.8,1.999 L48.824,1.964 C48.889,1.864 48.957,1.769 49.029,1.679 L49.056,1.644 C49.129,1.554 49.206,1.467 49.286,1.386 L49.323,1.346 C49.393,1.276 49.466,1.209 49.543,1.146 L49.586,1.108 C49.67,1.038 49.756,0.975 49.846,0.915 L49.892,0.885 C49.982,0.827 50.072,0.773 50.166,0.723 L50.203,0.705 C50.303,0.655 50.403,0.607 50.507,0.567 L46.317,2.207 L46.314,2.2 Z" id="Path" fill="#D0D9E5"></path>
                <path d="M69.037,36.146 C65.941,44.984 61.969,54.106 63.457,63.352 C63.933,66.307 65.027,69.262 67.151,71.366 C71.586,75.759 78.761,75.168 84.661,77.196 C91.108,79.416 96.033,84.924 98.918,91.113 C101.804,97.303 102.883,104.169 103.621,110.961 C104.145,115.781 104.504,120.615 104.729,125.455 L122.881,131.061 L144.385,68.121 L72.251,17.913 C72.701,23.928 71.071,30.343 69.038,36.147" id="Path" fill="#FFFFFF"></path>
                <path d="M103.62,110.96 C102.882,104.17 101.803,97.303 98.917,91.113 C96.033,84.923 91.107,79.415 84.657,77.197 C78.761,75.167 71.585,75.76 67.151,71.367 C65.028,69.262 63.933,66.307 63.458,63.353 C61.968,54.105 65.942,44.983 69.038,36.146 C71.071,30.342 72.7,23.926 72.252,17.912 L51.812,3.684 L14.172,97.484 L104.73,125.454 C104.505,120.614 104.146,115.781 103.622,110.961" id="Path" fill="#C3C7CD"></path>
                <path d="M104.728,125.453 L14.17,97.485 L51.81,3.685 L72.25,17.912 C72.137,16.388 71.886,14.892 71.48,13.437 L54.25,1.177 C53.7,0.784 53.123,0.531 52.552,0.41 C51.98,0.29 51.414,0.3 50.886,0.438 C50.356,0.576 49.864,0.84 49.443,1.223 C49.023,1.606 48.671,2.108 48.425,2.719 L8.897,100.744 L104.855,128.466 C104.82,127.462 104.775,126.456 104.728,125.452" id="Path" fill="#453F43"></path>
                <path d="M144.384,68.12 L122.88,131.06 L104.728,125.453 C104.774,126.458 104.82,127.463 104.854,128.467 L123.534,133.864 L145.397,69.727 C145.537,69.317 145.621,68.893 145.654,68.477 C145.687,68.059 145.669,67.649 145.604,67.27 C145.539,66.89 145.424,66.538 145.268,66.24 C145.11,65.94 144.908,65.692 144.666,65.52 L71.479,13.437 C71.885,14.892 72.136,16.387 72.249,17.912 L144.383,68.122 L144.384,68.12 Z" id="Path" fill="#D0D9E5"></path>
                <path d="M14.17,97.485 L104.728,125.455 M144.384,68.12 L122.88,131.06 L104.728,125.453 L122.88,131.059" id="Shape" fill="#B9090B" fill-rule="nonzero"></path>
                <path d="M118.182,145.542 C118.488,145.436 118.792,145.252 119.08,145.006 C119.367,144.761 119.636,144.451 119.87,144.093 C120.106,143.735 120.307,143.329 120.457,142.888 L123.533,133.864 L104.855,128.467 C105.019,133.232 105.043,138.001 104.951,142.77 L117.279,145.607 C117.569,145.674 117.877,145.647 118.183,145.542" id="Path" fill="#55525B"></path>
                <path d="M104.855,128.467 L8.897,100.745 L3.551,114.003 C3.276,114.688 3.155,115.376 3.174,116.031 C3.194,116.687 3.35,117.311 3.629,117.868 C3.909,118.422 4.307,118.912 4.811,119.302 C5.311,119.692 5.916,119.982 6.605,120.14 L104.952,142.772 C105.046,138.002 105.02,133.234 104.857,128.469" id="Shape" fill="#453F43" fill-rule="nonzero"></path>
            </g>
            <g id="Group-9" filter="url(#filter-1)" transform="translate(0.000000, 217.000000)">
                <path d="M159.185,57.738 C158.781,57.738 158.375,57.704 157.969,57.634 C155.626,57.232 153.637,55.701 152.646,53.537 L150.56,48.984 L154.086,47.362 L156.173,51.916 C156.636,52.926 157.529,53.616 158.623,53.803 C159.717,53.99 160.79,53.64 161.563,52.841 L165.203,49.078 C169.583,44.548 170.133,37.513 166.51,32.353 L169.683,30.116 C174.377,36.8 173.665,45.912 167.989,51.782 L164.349,55.547 C162.981,56.961 161.114,57.74 159.184,57.74" id="Path" fill="#661C3F" fill-rule="nonzero"></path>
                <path d="M170.46,35.12 L148.274,54.713 C147.762,55.165 147.188,55.546 146.558,55.849 C145.928,56.149 145.241,56.375 144.504,56.517 C143.767,56.66 142.98,56.719 142.144,56.69 C141.314,56.663 140.434,56.548 139.514,56.338 L161.664,36.965 C162.579,37.147 163.454,37.239 164.286,37.245 C165.119,37.251 165.908,37.171 166.648,37.01 C167.388,36.85 168.08,36.608 168.718,36.29 C169.355,35.974 169.938,35.582 170.461,35.12" id="Path" fill="#95122E"></path>
                <path d="M121.776,23.188 L144.79,4.578 C144.025,5.198 143.38,5.954 142.868,6.831 C142.358,7.706 141.978,8.699 141.745,9.794 C141.51,10.884 141.42,12.074 141.485,13.349 C141.547,14.619 141.765,15.972 142.151,17.389 C142.779,19.699 143.791,21.973 145.083,24.107 C146.375,26.237 147.949,28.237 149.703,29.997 C151.458,31.761 153.398,33.292 155.421,34.487 C157.449,35.684 159.564,36.547 161.665,36.967 L139.513,56.34 C137.401,55.86 135.261,54.93 133.201,53.668 C131.146,52.408 129.165,50.812 127.363,48.988 C125.563,47.162 123.935,45.104 122.588,42.92 C121.238,40.73 120.166,38.41 119.478,36.063 C119.055,34.62 118.8,33.248 118.702,31.963 C118.605,30.676 118.664,29.475 118.869,28.38 C119.075,27.28 119.427,26.287 119.914,25.416 C120.404,24.543 121.028,23.794 121.778,23.188" id="Path" fill="#380812"></path>
                <path d="M120.31,21.28 L143.374,2.727 C143.916,2.291 144.51,1.917 145.154,1.612 C145.802,1.305 146.499,1.065 147.242,0.898 C147.988,0.731 148.78,0.638 149.616,0.621 C150.454,0.607 151.336,0.671 152.256,0.819 L129.149,19.579 C128.222,19.405 127.339,19.319 126.499,19.313 C125.663,19.307 124.873,19.383 124.131,19.533 C123.391,19.683 122.701,19.906 122.061,20.2 C121.424,20.493 120.838,20.855 120.308,21.28" id="Path" fill="#FF8479"></path>
                <path d="M139.513,56.338 C141.636,56.82 143.537,56.808 145.158,56.368 C146.788,55.924 148.134,55.05 149.135,53.815 C150.142,52.571 150.799,50.963 151.043,49.062 C151.288,47.152 151.116,44.947 150.461,42.525 C149.805,40.093 148.725,37.675 147.336,35.385 C145.944,33.095 144.246,30.939 142.356,29.037 C140.466,27.137 138.389,25.495 136.242,24.225 C134.102,22.959 131.895,22.065 129.738,21.658 C127.591,21.251 125.696,21.363 124.108,21.908 C122.528,22.452 121.254,23.424 120.335,24.742 C119.422,26.054 118.861,27.708 118.703,29.625 C118.547,31.533 118.788,33.705 119.48,36.063 C120.168,38.411 121.24,40.733 122.59,42.92 C123.937,45.104 125.564,47.162 127.365,48.987 C129.167,50.812 131.148,52.409 133.202,53.667 C135.262,54.931 137.402,55.859 139.515,56.337 M129.151,19.577 C131.561,20.029 134.031,21.023 136.427,22.437 C138.831,23.855 141.157,25.691 143.272,27.817 C145.39,29.947 147.292,32.357 148.849,34.925 C150.404,37.487 151.609,40.195 152.342,42.917 C153.07,45.627 153.258,48.09 152.978,50.224 C152.698,52.344 151.958,54.138 150.828,55.521 C149.705,56.896 148.196,57.865 146.373,58.353 C144.563,58.837 142.438,58.845 140.069,58.303 C137.713,57.763 135.329,56.726 133.032,55.317 C130.742,53.911 128.536,52.132 126.529,50.097 C124.524,48.065 122.712,45.774 121.209,43.341 C119.705,40.904 118.509,38.318 117.737,35.701 C116.962,33.071 116.689,30.649 116.86,28.518 C117.03,26.376 117.652,24.526 118.666,23.058 C119.686,21.581 121.106,20.49 122.866,19.878 C124.636,19.261 126.753,19.13 129.151,19.578" id="Shape" fill="#B9090B" fill-rule="nonzero"></path>
                <path d="M172.046,36.828 L149.906,56.481 C150.646,55.824 151.271,55.031 151.766,54.115 C152.262,53.198 152.628,52.158 152.849,51.011 C153.071,49.859 153.149,48.601 153.069,47.248 C152.989,45.892 152.749,44.444 152.339,42.918 C151.607,40.196 150.401,37.488 148.846,34.926 C147.289,32.36 145.386,29.946 143.27,27.818 C141.155,25.692 138.83,23.855 136.426,22.438 C134.03,21.024 131.561,20.03 129.149,19.578 L152.255,0.818 C154.653,1.205 157.095,2.128 159.45,3.465 C161.816,4.807 164.09,6.565 166.15,8.615 C168.208,10.667 170.045,13.005 171.535,15.505 C173.021,18.002 174.157,20.652 174.819,23.327 C175.189,24.827 175.391,26.257 175.437,27.597 C175.483,28.934 175.373,30.183 175.122,31.329 C174.872,32.472 174.482,33.512 173.962,34.434 C173.446,35.354 172.802,36.157 172.045,36.829" id="Path" fill="#95122E"></path>
                <path d="M123.182,31.426 C121.864,34.421 121.534,37.789 120.116,40.738 C118.699,43.686 115.543,46.278 112.396,45.401 C110.003,44.735 106.12,40.321 99.816,41.595 C95.231,42.52 91.906,46.347 88.593,49.653 C85.279,52.958 80.939,56.139 76.349,55.245 C73.076,54.608 70.516,51.985 68.846,49.093 C64.806,42.103 64.602,32.913 58.859,27.243 C54.982,23.419 49.039,22.023 43.731,23.223 C38.424,24.426 33.811,28.037 30.894,32.64 C28.611,36.24 27.306,40.815 28.83,44.8 C31.007,50.492 37.942,52.938 40.96,58.23 C43.687,63.015 42.617,69.11 40.354,74.13 C37.27,80.974 30.75,89.145 31.994,95.11 C32.974,99.807 38.374,102.285 43.164,102.265 C47.904,102.245 52.477,100.535 56.736,98.449 C79.086,87.492 94.619,65.952 100.139,63.021 C102.179,61.939 104.741,61.571 106.779,62.653 C110.151,64.443 111.316,69.607 115.089,70.173 C116.992,70.46 118.832,69.37 120.281,68.101 C129.418,60.101 128.951,46.281 134.124,35.845 C135.702,32.661 138.249,29.569 141.332,28.055 C139.725,26.57 138.007,25.269 136.24,24.225 C135.325,23.682 134.396,23.215 133.465,22.817 C128.995,23.963 125.049,27.182 123.182,31.425" id="Path" fill="#FF8479"></path>
                <path d="M31.722,57.95 C31.447,57.863 31.164,57.798 30.875,57.754 C27.093,57.164 23.133,60.504 23.51,63.951 C23.74,66.047 25.776,67.479 27.85,67.805 C31.498,68.378 35.524,65.673 35.34,62.225 C35.294,61.345 34.957,60.465 34.28,59.628 C33.604,58.796 32.72,58.26 31.722,57.95 M54.64,103.365 C54.177,103.22 53.71,103.08 53.224,102.995 C48.037,102.092 42.501,106.292 42.902,111.015 C43.136,113.758 45.697,116.007 48.428,116.538 C53.793,117.583 59.681,112.553 58.922,107.678 C58.629,105.794 57.312,104.198 54.639,103.365 M34.25,117.47 C31.68,117.246 29.37,118.81 29.55,121.448 C29.656,122.998 30.673,124.214 32.317,124.422 C34.649,124.716 37.015,122.878 36.88,120.53 C36.8,119.165 35.805,117.733 34.46,117.495 C34.39,117.483 34.32,117.475 34.25,117.469 M9.825,62.923 C9.871,65.253 11.811,67.278 14.647,67.269 C17.493,67.259 19.487,64.882 19.403,62.429 C19.325,60.107 17.343,58.359 15.091,58.239 C12.464,58.099 9.771,60.091 9.826,62.922 M110.273,39.427 C110.413,40.597 111.213,41.457 112.553,41.653 C114.648,41.958 116.803,40.35 116.576,38.109 C116.456,36.923 115.654,36.023 114.292,35.856 C111.672,35.536 110.05,37.556 110.272,39.426 M3.22,72.523 C1.39,72.809 0.206,74.46 0.415,75.998 C0.565,77.095 1.418,77.918 2.541,78.05 C4.615,78.294 6.245,76.304 5.995,74.524 C5.798,73.136 4.295,72.354 3.222,72.524 M20.392,47.53 C16.804,47.87 14.352,50.41 14.679,52.642 C14.825,53.649 15.939,54.194 16.999,54.652 C20.655,56.237 26.276,53.465 25.759,50.018 C25.597,48.935 24.381,48.408 23.419,48.031 C22.486,47.668 21.454,47.429 20.391,47.531" id="Shape" fill="#FF8479" fill-rule="nonzero"></path>
                <path d="M159.185,57.738 C158.781,57.738 158.375,57.704 157.969,57.634 C155.626,57.232 153.637,55.701 152.646,53.537 L150.56,48.984 L154.086,47.362 L156.173,51.916 C156.636,52.926 157.529,53.616 158.623,53.803 C159.717,53.99 160.79,53.64 161.563,52.841 L165.203,49.078 C169.583,44.548 170.133,37.513 166.51,32.353 L169.683,30.116 C174.377,36.8 173.665,45.912 167.989,51.782 L164.349,55.547 C162.981,56.961 161.114,57.74 159.184,57.74" id="Path" fill="#000000"></path>
                <path d="M170.46,35.12 L148.274,54.713 C147.762,55.165 147.188,55.546 146.558,55.849 C145.928,56.149 145.241,56.375 144.504,56.517 C143.767,56.66 142.98,56.719 142.144,56.69 C141.314,56.663 140.434,56.548 139.514,56.338 L161.664,36.965 C162.579,37.147 163.454,37.239 164.286,37.245 C165.119,37.251 165.908,37.171 166.648,37.01 C167.388,36.85 168.08,36.608 168.718,36.29 C169.355,35.974 169.938,35.582 170.461,35.12" id="Path" fill="#95122E"></path>
                <path d="M121.776,23.188 L144.79,4.578 C144.025,5.198 143.38,5.954 142.868,6.831 C142.358,7.706 141.978,8.699 141.745,9.794 C141.51,10.884 141.42,12.074 141.485,13.349 C141.547,14.619 141.765,15.972 142.151,17.389 C142.779,19.699 143.791,21.973 145.083,24.107 C146.375,26.237 147.949,28.237 149.703,29.997 C151.458,31.761 153.398,33.292 155.421,34.487 C157.449,35.684 159.564,36.547 161.665,36.967 L139.513,56.34 C137.401,55.86 135.261,54.93 133.201,53.668 C131.146,52.408 129.165,50.812 127.363,48.988 C125.563,47.162 123.935,45.104 122.588,42.92 C121.238,40.73 120.166,38.41 119.478,36.063 C119.055,34.62 118.8,33.248 118.702,31.963 C118.605,30.676 118.664,29.475 118.869,28.38 C119.075,27.28 119.427,26.287 119.914,25.416 C120.404,24.543 121.028,23.794 121.778,23.188" id="Path" fill="#380812"></path>
                <path d="M120.31,21.28 L143.374,2.727 C143.916,2.291 144.51,1.917 145.154,1.612 C145.802,1.305 146.499,1.065 147.242,0.898 C147.988,0.731 148.78,0.638 149.616,0.621 C150.454,0.607 151.336,0.671 152.256,0.819 L129.149,19.579 C128.222,19.405 127.339,19.319 126.499,19.313 C125.663,19.307 124.873,19.383 124.131,19.533 C123.391,19.683 122.701,19.906 122.061,20.2 C121.424,20.493 120.838,20.855 120.308,21.28" id="Path" fill="#F3F3F3"></path>
                <path d="M139.513,56.338 C141.636,56.82 143.537,56.808 145.158,56.368 C146.788,55.924 148.134,55.05 149.135,53.815 C150.142,52.571 150.799,50.963 151.043,49.062 C151.288,47.152 151.116,44.947 150.461,42.525 C149.805,40.093 148.725,37.675 147.336,35.385 C145.944,33.095 144.246,30.939 142.356,29.037 C140.466,27.137 138.389,25.495 136.242,24.225 C134.102,22.959 131.895,22.065 129.738,21.658 C127.591,21.251 125.696,21.363 124.108,21.908 C122.528,22.452 121.254,23.424 120.335,24.742 C119.422,26.054 118.861,27.708 118.703,29.625 C118.547,31.533 118.788,33.705 119.48,36.063 C120.168,38.411 121.24,40.733 122.59,42.92 C123.937,45.104 125.564,47.162 127.365,48.987 C129.167,50.812 131.148,52.409 133.202,53.667 C135.262,54.931 137.402,55.859 139.515,56.337 M129.151,19.577 C131.561,20.029 134.031,21.023 136.427,22.437 C138.831,23.855 141.157,25.691 143.272,27.817 C145.39,29.947 147.292,32.357 148.849,34.925 C150.404,37.487 151.609,40.195 152.342,42.917 C153.07,45.627 153.258,48.09 152.978,50.224 C152.698,52.344 151.958,54.138 150.828,55.521 C149.705,56.896 148.196,57.865 146.373,58.353 C144.563,58.837 142.438,58.845 140.069,58.303 C137.713,57.763 135.329,56.726 133.032,55.317 C130.742,53.911 128.536,52.132 126.529,50.097 C124.524,48.065 122.712,45.774 121.209,43.341 C119.705,40.904 118.509,38.318 117.737,35.701 C116.962,33.071 116.689,30.649 116.86,28.518 C117.03,26.376 117.652,24.526 118.666,23.058 C119.686,21.581 121.106,20.49 122.866,19.878 C124.636,19.261 126.753,19.13 129.151,19.578" id="Shape" fill="#FFFFFF" fill-rule="nonzero"></path>
                <path d="M172.046,36.828 L149.906,56.481 C150.646,55.824 151.271,55.031 151.766,54.115 C152.262,53.198 152.628,52.158 152.849,51.011 C153.071,49.859 153.149,48.601 153.069,47.248 C152.989,45.892 152.749,44.444 152.339,42.918 C151.607,40.196 150.401,37.488 148.846,34.926 C147.289,32.36 145.386,29.946 143.27,27.818 C141.155,25.692 138.83,23.855 136.426,22.438 C134.03,21.024 131.561,20.03 129.149,19.578 L152.255,0.818 C154.653,1.205 157.095,2.128 159.45,3.465 C161.816,4.807 164.09,6.565 166.15,8.615 C168.208,10.667 170.045,13.005 171.535,15.505 C173.021,18.002 174.157,20.652 174.819,23.327 C175.189,24.827 175.391,26.257 175.437,27.597 C175.483,28.934 175.373,30.183 175.122,31.329 C174.872,32.472 174.482,33.512 173.962,34.434 C173.446,35.354 172.802,36.157 172.045,36.829" id="Path" fill="#000000"></path>
                <path d="M31.722,57.95 C31.447,57.863 31.164,57.798 30.875,57.754 C27.093,57.164 23.133,60.504 23.51,63.951 C23.74,66.047 25.776,67.479 27.85,67.805 C31.498,68.378 35.524,65.673 35.34,62.225 C35.294,61.345 34.957,60.465 34.28,59.628 C33.604,58.796 32.72,58.26 31.722,57.95 M54.64,103.365 C54.177,103.22 53.71,103.08 53.224,102.995 C48.037,102.092 42.501,106.292 42.902,111.015 C43.136,113.758 45.697,116.007 48.428,116.538 C53.793,117.583 59.681,112.553 58.922,107.678 C58.629,105.794 57.312,104.198 54.639,103.365" id="Shape" fill="#380812" fill-rule="nonzero"></path>
                <path d="M50.63,104.81 C50.434,104.748 50.236,104.688 50.03,104.652 C47.822,104.268 45.466,106.055 45.637,108.065 C45.737,109.233 46.827,110.189 47.987,110.415 C50.271,110.86 52.777,108.72 52.454,106.645 C52.329,105.843 51.769,105.165 50.631,104.81" id="Path" fill="#6F1E22"></path>
                <path d="M51.828,104.674 C51.758,104.652 51.688,104.631 51.616,104.619 C50.836,104.482 50.004,105.113 50.064,105.823 C50.099,106.235 50.484,106.573 50.894,106.653 C51.701,106.81 52.586,106.053 52.472,105.321 C52.428,105.038 52.23,104.798 51.828,104.673" id="Path" fill="#FFFFFF"></path>
                <path d="M34.25,117.47 C31.68,117.246 29.37,118.81 29.55,121.448 C29.656,122.998 30.673,124.214 32.317,124.422 C34.649,124.716 37.015,122.878 36.88,120.53 C36.8,119.165 35.805,117.733 34.46,117.495 C34.39,117.483 34.32,117.475 34.25,117.469" id="Path" fill="#380812"></path>
                <path d="M32.778,118.61 C31.671,118.513 30.674,119.187 30.752,120.324 C30.798,120.992 31.236,121.517 31.945,121.607 C32.95,121.734 33.97,120.941 33.912,119.929 C33.878,119.339 33.449,118.722 32.869,118.619 C32.839,118.615 32.807,118.611 32.777,118.609" id="Path" fill="#6F1E22"></path>
                <path d="M33.66,118.606 C32.942,118.544 32.295,118.981 32.345,119.72 C32.375,120.154 32.66,120.495 33.12,120.553 C33.773,120.635 34.436,120.12 34.398,119.463 C34.376,119.081 34.098,118.68 33.72,118.613 L33.66,118.606" id="Path" fill="#FFFFFF"></path>
                <path d="M9.825,62.923 C9.871,65.253 11.811,67.278 14.647,67.269 C17.493,67.259 19.487,64.882 19.403,62.429 C19.325,60.107 17.343,58.359 15.091,58.239 C12.464,58.099 9.771,60.091 9.826,62.922 M110.273,39.427 C110.413,40.597 111.213,41.457 112.553,41.653 C114.648,41.958 116.803,40.35 116.576,38.109 C116.456,36.923 115.654,36.023 114.292,35.856 C111.672,35.536 110.05,37.556 110.272,39.426" id="Shape" fill="#380812" fill-rule="nonzero"></path>
                <path d="M110.983,38.39 C111.068,39.097 111.553,39.617 112.363,39.735 C113.629,39.919 114.933,38.947 114.795,37.592 C114.723,36.875 114.238,36.332 113.415,36.23 C111.829,36.035 110.849,37.258 110.983,38.39" id="Path" fill="#6F1E22"></path>
                <path d="M112.82,37.34 C112.864,37.71 113.115,37.98 113.537,38.04 C114.194,38.137 114.871,37.632 114.8,36.927 C114.762,36.555 114.51,36.272 114.082,36.219 C113.259,36.117 112.749,36.753 112.82,37.339" id="Path" fill="#FFFFFF"></path>
                <path d="M3.22,72.523 C1.39,72.809 0.206,74.46 0.415,75.998 C0.565,77.095 1.418,77.918 2.541,78.05 C4.615,78.294 6.245,76.304 5.995,74.524 C5.798,73.136 4.295,72.354 3.222,72.524" id="Path" fill="#380812"></path>
                <path d="M116.645,66.05 C115.522,65.917 114.668,65.095 114.519,63.998 C114.309,62.46 115.494,60.81 117.324,60.522 C118.394,60.354 119.9,61.136 120.096,62.525 C120.346,64.305 118.716,66.295 116.644,66.049 M136.24,24.224 C135.325,23.682 134.396,23.214 133.465,22.817 C128.995,23.963 125.049,27.182 123.182,31.425 C121.865,34.42 121.534,37.788 120.116,40.737 C118.699,43.687 115.543,46.277 112.396,45.4 C110.004,44.734 106.12,40.32 99.816,41.594 C95.232,42.519 91.906,46.346 88.593,49.651 C85.279,52.958 80.939,56.139 76.349,55.245 C73.076,54.608 70.516,51.985 68.846,49.095 C64.806,42.105 64.603,32.912 58.859,27.245 C54.982,23.419 49.039,22.022 43.732,23.225 C38.424,24.425 33.812,28.038 30.894,32.639 C28.611,36.239 27.307,40.816 28.83,44.801 C31.007,50.493 37.942,52.939 40.96,58.231 C43.687,63.015 42.617,69.111 40.354,74.131 C37.27,80.975 30.75,89.146 31.994,95.111 C32.974,99.808 38.374,102.285 43.164,102.265 C47.904,102.245 52.478,100.537 56.734,98.45 C79.084,87.493 94.619,65.953 100.139,63.023 C102.179,61.94 104.739,61.57 106.779,62.653 C110.151,64.443 111.316,69.608 115.089,70.175 C116.992,70.461 118.833,69.371 120.281,68.103 C129.418,60.103 128.951,46.281 134.124,35.846 C135.702,32.662 138.25,29.57 141.332,28.058 C139.726,26.571 138.008,25.27 136.24,24.225" id="Shape" fill="#6F1E22" fill-rule="nonzero"></path>
                <path d="M20.392,47.53 C16.804,47.87 14.352,50.41 14.679,52.642 C14.825,53.649 15.939,54.194 16.999,54.652 C20.655,56.237 26.276,53.465 25.759,50.018 C25.597,48.935 24.381,48.408 23.419,48.031 C22.486,47.668 21.454,47.429 20.391,47.531" id="Path" fill="#380812"></path>
                <path d="M3.815,118.518 C3.098,119.288 2.811,120.198 2.907,121.033 C3.044,122.233 3.987,123.131 5.243,123.256 C7.181,123.449 8.94,121.849 8.743,119.783 C8.621,118.533 7.761,117.628 6.455,117.493 C5.452,117.391 4.499,117.783 3.815,118.518" id="Path" fill="#6F1E22"></path>
                <path d="M77.628,44.33 C75.391,45.077 73.82,47.49 74.262,49.747 C74.516,51.047 75.496,51.899 76.729,52.169 C79.723,52.824 83.065,49.587 82.333,46.352 C82.047,45.092 81.097,44.36 79.817,44.148 C79.082,44.026 78.335,44.092 77.627,44.328" id="Path" fill="#380812"></path>
                <path d="M77.447,44.668 C75.945,45.168 74.89,46.788 75.187,48.305 C75.357,49.178 76.017,49.75 76.844,49.931 C78.854,50.373 81.099,48.201 80.608,46.027 C80.416,45.181 79.778,44.689 78.918,44.547 C78.425,44.467 77.923,44.51 77.448,44.669" id="Path" fill="#6F1E22"></path>
                <path d="M78.822,44.653 C78.372,44.803 78.054,45.291 78.142,45.746 C78.194,46.009 78.392,46.181 78.642,46.236 C79.246,46.368 79.92,45.716 79.772,45.061 C79.715,44.808 79.522,44.661 79.265,44.618 C79.115,44.593 78.965,44.606 78.822,44.654 M43.986,24.35 C43.174,24.353 42.4,24.973 42.301,25.76 C42.246,26.214 42.475,26.598 42.851,26.82 C43.761,27.358 45.203,26.66 45.311,25.52 C45.353,25.077 45.121,24.735 44.724,24.527 C44.496,24.407 44.244,24.349 43.987,24.35 M47.91,24.212 C47.46,24.054 46.91,24.244 46.703,24.662 C46.583,24.9 46.633,25.158 46.798,25.354 C47.196,25.831 48.131,25.728 48.414,25.12 C48.524,24.883 48.464,24.648 48.284,24.455 C48.181,24.345 48.054,24.262 47.911,24.212 M101.636,42.316 C101.186,42.158 100.636,42.348 100.428,42.766 C100.308,43.006 100.358,43.262 100.523,43.459 C100.921,43.934 101.856,43.831 102.139,43.223 C102.249,42.986 102.187,42.751 102.009,42.558 C101.905,42.446 101.777,42.364 101.635,42.314" id="Shape" fill="#FFFFFF" fill-rule="nonzero"></path>
                <path d="M18.758,79.888 C17.112,79.6 15.331,81.166 15.686,82.786 C15.736,83.011 16.01,83.194 16.451,83.373 C18.211,84.091 20.606,82.31 20.185,80.771 C20.083,80.391 19.745,80.138 19.365,80.018 C19.158,79.952 18.945,79.922 18.759,79.888" id="Path" fill="#380812"></path>
                <path d="M30.173,58.4 C29.969,58.335 29.759,58.287 29.545,58.254 C26.747,57.818 23.815,60.289 24.095,62.841 C24.265,64.393 25.772,65.453 27.307,65.694 C30.007,66.118 32.987,64.116 32.851,61.564 C32.818,60.914 32.568,60.261 32.066,59.642 C31.566,59.027 30.912,58.63 30.174,58.402 M10.416,61.812 C10.446,63.368 11.741,64.72 13.636,64.714 C15.536,64.708 16.866,63.121 16.81,61.484 C16.757,59.934 15.434,58.766 13.93,58.686 C12.177,58.593 10.378,59.923 10.416,61.812 M3.037,72.737 C1.852,72.923 1.083,73.992 1.219,74.989 C1.314,75.699 1.869,76.231 2.595,76.317 C3.939,76.475 4.995,75.185 4.832,74.033 C4.705,73.133 3.732,72.626 3.036,72.736 M19.757,48.136 C17.097,48.389 15.279,50.271 15.521,51.928 C15.631,52.674 16.457,53.078 17.243,53.418 C19.953,54.594 24.123,52.538 23.739,49.982 C23.619,49.179 22.717,48.786 22.004,48.508 C21.312,48.238 20.547,48.061 19.758,48.136 M18.34,80.103 C17.07,79.88 15.698,81.087 15.97,82.337 C16.01,82.51 16.22,82.651 16.56,82.79 C17.918,83.343 19.764,81.97 19.44,80.782 C19.36,80.49 19.1,80.294 18.81,80.202 C18.648,80.152 18.482,80.127 18.34,80.102" id="Shape" fill="#6F1E22" fill-rule="nonzero"></path>
                <path d="M63.718,98.024 C61.704,97.67 59.526,99.586 59.958,101.569 C60.018,101.843 60.355,102.067 60.895,102.287 C63.049,103.165 65.978,100.987 65.465,99.102 C65.338,98.638 64.925,98.327 64.461,98.18 C64.208,98.1 63.945,98.063 63.719,98.024" id="Path" fill="#380812"></path>
                <path d="M62.995,98.56 C62.155,98.412 61.248,99.21 61.429,100.037 C61.453,100.151 61.593,100.244 61.819,100.337 C62.715,100.702 63.935,99.794 63.722,99.009 C63.669,98.814 63.497,98.685 63.304,98.624 C63.198,98.59 63.088,98.574 62.994,98.558 M123.24,77.067 C120.693,77.887 118.772,80.43 118.772,81.397 C118.772,82.094 119.438,82.449 120.342,82.449 C123.095,82.449 126.069,79.621 126.069,78.006 C126.069,77.154 125.389,76.822 124.533,76.822 C124.095,76.822 123.657,76.932 123.24,77.066" id="Shape" fill="#6F1E22" fill-rule="nonzero"></path>
                <path d="M134.125,35.846 C135.279,33.518 136.952,31.243 138.972,29.594 L138.677,25.854 C137.879,25.262 137.067,24.714 136.241,24.224 C136.133,24.16 136.021,24.107 135.913,24.044 C132.943,26.319 130.233,28.934 127.868,31.834 C127.221,32.624 126.571,33.516 126.553,34.54 C126.533,35.703 127.327,36.696 127.8,37.76 C129.61,41.825 126.44,46.584 122.502,48.645 C121.482,49.179 120.355,49.645 119.684,50.581 C118.227,52.619 119.704,55.374 119.966,57.866 C120.098,59.136 119.888,60.286 119.443,61.266 C119.779,61.594 120.026,62.019 120.097,62.526 C120.347,64.304 118.717,66.296 116.645,66.05 C115.74,65.942 115.018,65.385 114.69,64.6 C113.91,64.624 113.122,64.456 112.38,64.062 C110.03,62.816 109.26,59.874 107.66,57.747 C105.29,54.594 100.973,53.332 97.073,53.895 C90.991,54.773 84.698,60.119 83.633,62.965 C80.919,70.223 84.263,72.678 72.215,76.219 C60.135,79.769 64.445,67.117 60.91,63.869 C59.183,62.283 56.22,62.786 54.585,64.466 C51.102,68.042 52.895,74.078 53.005,78 C53.32,89.04 43.495,94.61 39.185,91.043 C33.695,86.496 44.589,70.901 42.317,67.788 C41.957,69.972 41.253,72.136 40.354,74.13 C37.271,80.974 30.749,89.145 31.994,95.11 C32.974,99.807 38.374,102.284 43.164,102.264 C47.902,102.244 52.478,100.536 56.734,98.449 C79.084,87.492 94.619,65.952 100.139,63.022 C102.179,61.939 104.739,61.569 106.779,62.652 C110.151,64.442 111.316,69.607 115.089,70.174 C116.992,70.46 118.832,69.37 120.281,68.102 C129.418,60.102 128.951,46.282 134.124,35.845" id="Path" fill="#380812"></path>
                <path d="M16.233,59.69 C16.233,60.21 15.813,60.632 15.293,60.632 C14.771,60.632 14.349,60.21 14.349,59.689 C14.349,59.166 14.769,58.744 15.291,58.744 C15.811,58.744 16.231,59.166 16.231,59.688 M22.387,48.995 C22.387,49.517 21.967,49.939 21.445,49.939 C20.925,49.939 20.503,49.516 20.503,48.994 C20.503,48.474 20.925,48.051 21.445,48.051 C21.965,48.051 22.387,48.473 22.387,48.994 M32.402,59.69 C32.402,60.276 31.929,60.75 31.345,60.75 C30.761,60.75 30.289,60.276 30.289,59.69 C30.289,59.107 30.759,58.632 31.344,58.632 C31.928,58.632 32.401,59.107 32.401,59.692 M19.037,80.903 C19.037,81.225 18.777,81.486 18.455,81.486 C18.135,81.486 17.873,81.226 17.873,80.903 C17.873,80.58 18.133,80.319 18.455,80.319 C18.777,80.319 19.037,80.579 19.037,80.902 M4.14,73.55 C4.14,73.83 3.912,74.06 3.63,74.06 C3.35,74.06 3.124,73.83 3.124,73.55 C3.124,73.27 3.351,73.042 3.631,73.042 C3.913,73.042 4.141,73.27 4.141,73.55" id="Shape" fill="#FFFFFF" fill-rule="nonzero"></path>
            </g>
            <g id="Group-12" transform="translate(214.000000, 125.000000)">
                <path d="M262.22,105.946 C265.296,103.931 268.49,102.141 271.765,100.51 L268.547,95.718 C267.467,96.318 266.393,96.923 265.322,97.535 C261.242,99.865 257.209,102.285 253.242,104.805 L216.032,91.057 L210.977,92.324 L210.257,95.574 L209.993,96.762 C252.078,112.622 250.145,113.858 262.221,105.946" id="Path" fill="#DBBF9C"></path>
                <path d="M250.497,123.23 L268.027,114.403 C271.307,113.475 275.207,112.348 278.977,111.251 L271.765,100.511 C268.49,102.141 265.295,103.931 262.221,105.947 C250.145,113.859 252.079,112.623 209.994,96.763 L209.462,99.163 L250.499,123.233 L250.497,123.23 Z" id="Path" fill="#986B47"></path>
                <path d="M318.962,88.756 C304.646,79.474 299.657,80.556 291.257,84.328 C283.53,87.798 275.954,91.603 268.547,95.718 L271.765,100.51 C283.409,94.713 296.137,91.042 308.701,87.458 C308.881,89.861 308.411,92.228 307.568,94.493 L315.088,90.707 L318.963,88.757 L318.962,88.756 Z" id="Path" fill="#FFFFFF"></path>
                <path d="M308.7,87.46 C296.137,91.042 283.41,94.713 271.765,100.51 L278.975,111.25 C286.75,108.99 293.955,106.855 293.955,106.855 L293.719,101.465 L307.566,94.495 C308.408,92.229 308.879,89.861 308.7,87.459" id="Path" fill="#E9E9E9"></path>
                <path d="M315.702,97.208 C314.185,96.423 313.135,95.658 312.432,94.871 C311.702,96.677 311.132,98.548 310.742,100.457 C309.555,106.297 311.016,108.945 313.477,111.301 C317.197,114.861 320.99,116.455 324.554,117.308 L332.246,101.41 C326.508,101.294 320.802,99.845 315.702,97.208" id="Path" fill="#FF00FF"></path>
                <path d="M325.055,117.422 C321.347,116.6 317.371,115.026 313.477,111.299 C311.017,108.943 309.555,106.294 310.743,100.455 C311.775,95.385 314.07,90.583 317.343,86.582 C315.443,86.277 313.618,86.107 311.958,86.144 C302.02,86.362 293.218,92.201 284.768,97.448 C266.52,108.781 246.555,118.43 225.164,120.273 L226.457,127.001 L261.46,164.241 L272.227,160.354 C292.971,151.232 310.221,134.936 325.055,117.42" id="Path" fill="#FFFFFF"></path>
                <path d="M337.503,133.32 L339.159,119.812 C336.697,119.22 334.199,118.772 331.711,118.44 C329.661,118.166 327.411,117.946 325.053,117.422 C310.22,134.938 292.97,151.232 272.226,160.357 L285.131,169.76 L337.501,133.32 L337.503,133.32 Z" id="Path" fill="#E9E9E9"></path>
                <path d="M336.005,92.257 C330.875,90.187 323.667,87.599 317.343,86.583 C314.07,90.583 311.775,95.386 310.743,100.456 C309.555,106.296 311.016,108.944 313.477,111.299 C319.847,117.397 326.443,117.734 331.712,118.439 C334.199,118.771 336.698,119.219 339.159,119.811 L341.996,96.661 C340.863,94.389 338.356,93.204 336.004,92.256" id="Path" fill="#D4B28F"></path>
                <path d="M45.52,64.286 C44.66,64.058 43.845,63.716 43.11,63.176 C39.976,60.874 39.89,56.226 40.69,52.416 C41.218,49.891 41.995,47.286 42.09,44.744 C38.052,43.6 34.004,42.514 29.855,41.914 C22.332,40.831 14.46,41.339 7.375,38.584 C5.855,37.991 2.4,36.419 0.93,37.924 C-0.14,39.018 0.572,41.754 1.013,43.061 C4.405,53.134 17.24,53.725 24.54,59.736 C25.488,60.516 26.35,61.388 27.17,62.299 C36.673,67.911 41.435,66.745 45.52,64.287" id="Path" fill="#661C3F"></path>
                <path d="M45.147,73.733 C48.422,72.688 50.665,69.618 53.794,68.193 C55.046,67.621 56.371,67.345 57.727,67.259 C56.187,66.185 54.424,65.432 52.575,65.106 C50.261,64.699 47.737,64.876 45.521,64.286 C41.437,66.742 36.674,67.909 27.171,62.296 C29.287,64.646 31.118,67.286 33.351,69.533 C36.451,72.653 40.961,75.07 45.148,73.733" id="Path" fill="#380812"></path>
                <path d="M72.848,170.797 C75.828,170.169 77.763,169.427 79.14,168.577 C78.4,168.065 77.768,167.407 77.312,166.573 C76.139,164.433 76.442,161.819 75.982,159.423 C75.602,157.425 74.648,155.551 73.295,154.038 C63.655,158.366 52.927,160.341 42.32,160.533 C40.053,160.575 37.236,160.705 35.4,162.223 C33.08,164.146 34.657,167.833 36.078,169.915 C36.394,170.378 36.83,170.91 37.343,171.477 C49.081,173.477 61.195,173.251 72.848,170.797" id="Path" fill="#661C3F"></path>
                <path d="M48.937,180.143 C56.19,183.327 60.38,180.773 63.177,179.76 C71.797,176.637 79.877,180.207 87.307,177.032 C90.314,175.747 92.98,173.462 93.589,170.246 L93.512,170.312 C93.927,168.934 94.582,167.677 95.392,166.512 C92.937,167.447 90.564,168.696 88.04,169.446 C85.108,170.316 81.53,170.23 79.14,168.576 C77.762,169.426 75.827,170.17 72.85,170.796 C61.196,173.251 49.08,173.476 37.343,171.476 C39.993,174.406 44.943,178.39 48.937,180.143" id="Path" fill="#380812"></path>
                <path d="M232.863,121.68 C223.925,115.393 215.746,108.024 208.559,99.785 C202.599,92.955 182.039,75.888 172.851,69.08 C159.431,59.137 153.786,57.516 136.971,55.22 C119.227,52.797 101.443,50.37 83.544,49.86 C79.551,49.745 75.544,49.724 71.546,49.61 C71.502,52.09 71.441,55.274 71.368,58.722 C74.536,59.35 77.685,60.219 80.713,61.1 C109.299,69.42 119.418,73.107 131.036,72.205 C136.476,71.783 141.886,70.235 147.306,70.86 C157.879,72.078 165.663,81.005 172.35,89.3 C178.57,97.018 184.79,104.735 191.012,112.452 L178.152,119.77 C192.22,135.264 205.292,147.247 209.322,149.36 C215.238,152.464 227.132,153.46 236.148,152.097 L232.861,121.68 L232.863,121.68 Z" id="Path" fill="#3B3B3B"></path>
                <polyline id="Path" fill="#8895A6" points="225.846 119.656 199.971 77.402 192.251 80.456 199.625 95.349"></polyline>
                <path d="M216.476,96.088 C215.323,97.475 214.074,98.928 212.356,99.476 C210.96,99.922 209.36,99.672 208.163,98.823 C206.41,97.578 205.663,95.288 203.979,93.951 C203.193,93.328 202.099,92.677 202.249,91.685 C202.373,90.861 203.362,90.445 204.187,90.535 C205.013,90.627 205.761,91.055 206.565,91.263 C208.143,91.67 209.797,91.2 211.425,91.105 C213.051,91.012 214.967,91.508 215.578,93.022" id="Path" fill="#DBBF9C"></path>
                <path d="M217.79,92.57 L215.42,87.212 C210.413,75.882 206.98,80.999 191.335,73.96 C190.068,76.434 191.447,79.396 192.88,81.778 C193.878,83.438 194.938,85.105 196.415,86.358 C199.525,88.998 203.997,89.428 207.322,91.791 C208.89,92.908 210.166,94.431 211.852,95.361 C213.538,96.289 215.932,96.418 217.149,94.927" id="Path" fill="#DBBF9C"></path>
                <path d="M172.352,89.3 C165.665,81.006 157.882,72.08 147.307,70.86 C141.887,70.236 136.477,71.783 131.037,72.205 C119.42,73.107 109.301,69.419 80.714,61.1 C77.687,60.22 74.538,59.35 71.369,58.722 C71.295,62.225 71.209,66 71.114,69.588 C85.214,73.214 98.987,78.016 112.854,82.431 C159.789,97.375 152.951,88.993 158.742,96.586 C164.892,104.646 171.629,112.586 178.154,119.771 L191.014,112.453 L172.351,89.303" id="Path" fill="#000000"></path>
                <path d="M71.37,58.722 C71.442,55.274 71.502,52.089 71.547,49.609 C65.947,49.447 60.364,49.099 54.867,48.039 C50.55,47.207 46.327,45.943 42.09,44.743 C41.995,47.285 41.22,49.89 40.69,52.416 C39.89,56.226 39.977,60.873 43.11,63.176 C43.845,63.716 44.66,64.056 45.52,64.286 C47.435,63.136 49.2,61.702 51.236,60.551 C57.296,57.124 64.376,57.335 71.369,58.721" id="Path" fill="#DBBF9C"></path>
                <path d="M57.728,67.26 C60.272,67.097 62.931,67.618 65.448,68.2 C67.343,68.64 69.231,69.103 71.114,69.588 C71.209,66 71.296,62.225 71.369,58.722 C64.376,57.336 57.294,57.125 51.236,60.552 C49.2,61.702 47.434,63.136 45.52,64.287 C47.736,64.877 50.26,64.7 52.575,65.107 C54.425,65.433 56.185,66.187 57.728,67.259" id="Path" fill="#986B47"></path>
                <path d="M115.37,137.74 C118.392,129.58 117.216,126.832 127.94,119.884 C138.415,113.098 149.36,107.044 160.674,101.778 C165.041,99.746 170.447,97.904 174.389,100.674 C178.494,103.559 178.402,109.502 179.012,114.489 C180.609,127.536 190.57,139.163 203.2,142.719 C210.893,144.885 219.705,144.459 225.966,149.432 C230.384,152.94 232.701,158.582 237.096,162.118 C244.036,167.702 254.15,166.618 262.646,163.958 C265.031,163.211 267.373,162.365 269.673,161.432 L233.296,127.44 L182.536,87.232 C169.459,76.874 161.996,75.677 146.362,90.029 C129.77,105.259 113.362,120.689 97.139,136.315 C94.684,138.679 92.223,141.049 89.664,143.297 L101.244,153.583 C107.691,150.3 112.851,144.535 115.369,137.739" id="Path" fill="#3B3B3B"></path>
                <path d="M155.597,120.536 C159.997,117.588 161.765,118.31 164.091,121.049 C174.474,133.274 182.255,147.489 192.035,160.206 C198.885,169.114 207.375,177.664 218.312,180.201 C222.254,181.115 226.345,181.199 230.384,180.956 C247.542,179.926 263.968,173.159 281.126,172.134 L269.674,161.434 C267.374,162.366 265.034,163.211 262.648,163.959 C254.152,166.621 244.038,167.703 237.098,162.119 C232.704,158.581 230.386,152.939 225.968,149.432 C219.706,144.46 210.894,144.885 203.203,142.719 C190.573,139.163 180.613,127.536 179.016,114.489 C178.406,109.501 178.498,103.559 174.392,100.672 C170.448,97.902 165.042,99.745 160.675,101.778 C149.363,107.042 138.417,113.096 127.943,119.882 C117.219,126.83 118.393,129.579 115.373,137.738 C112.855,144.534 107.695,150.298 101.249,153.582 L105.412,157.28 C121.629,144.35 138.372,132.08 155.599,120.534" id="Path" fill="#000000"></path>
                <path d="M84.487,162.233 C88.307,157.613 94.827,156.575 100.267,154.066 C100.597,153.913 100.922,153.749 101.247,153.584 L89.665,143.298 C87.525,145.178 85.32,146.974 82.981,148.598 C79.923,150.72 76.675,152.52 73.296,154.038 C74.649,155.551 75.602,157.425 75.984,159.422 C76.442,161.819 76.14,164.434 77.314,166.572 C77.769,167.406 78.4,168.065 79.141,168.577 C81.891,166.88 82.407,164.75 84.488,162.233" id="Path" fill="#DBBF9C"></path>
                <path d="M88.04,169.446 C90.565,168.696 92.938,167.446 95.393,166.513 C97.145,163.997 99.633,161.91 102.049,159.961 C103.163,159.063 104.287,158.176 105.407,157.283 L101.244,153.585 C100.921,153.75 100.597,153.915 100.267,154.067 C94.827,156.575 88.307,157.614 84.487,162.234 C82.404,164.751 81.889,166.881 79.139,168.578 C81.529,170.231 85.107,170.318 88.039,169.448" id="Path" fill="#986B47"></path>
                <path d="M338.095,119.567 C335.98,119.095 333.842,118.725 331.712,118.44 C329.519,118.146 327.094,117.915 324.552,117.307 L317.864,131.133 C317.864,131.448 306.46,146.455 298.432,156.979 L309.706,166.209 C314.983,160.735 319.921,154.912 324.748,149.029 C332.731,139.302 339.863,134.719 338.095,119.566" id="Path" fill="#FFFFFF"></path>
                <path d="M340.973,147.482 C344.353,143.562 347.843,139.362 348.74,134.259 C349.426,130.359 348.518,126.427 347.46,122.519 C344.468,121.236 341.308,120.282 338.095,119.566 C339.863,134.719 332.731,139.302 324.748,149.03 C319.921,154.913 314.982,160.736 309.706,166.21 L316.676,171.92 C325.176,164.343 333.222,156.475 340.973,147.482" id="Path" fill="#E9E9E9"></path>
                <path d="M246.258,122.514 C244.44,119.624 242.831,116.604 241.446,113.484 C241.058,112.609 240.682,111.718 240.116,110.948 C239.576,110.216 238.881,109.618 238.192,109.025 L231.909,103.623 C231.141,102.963 230.365,102.298 229.469,101.826 C227.101,100.578 224.265,100.846 221.589,100.918 C219.949,100.963 218.309,100.921 216.672,100.794 C216.474,101.039 216.552,101.404 216.677,101.694 C217.467,103.531 219.565,104.411 221.525,104.791 C223.485,105.171 225.567,105.251 227.308,106.231 C228.235,106.751 229.011,107.501 229.765,108.254 C231.162,109.649 232.521,111.081 233.879,112.514 C234.496,113.164 235.117,113.817 235.602,114.569 C236.672,116.229 237.018,118.235 237.492,120.152 C237.966,122.072 238.665,124.06 240.195,125.305" id="Path" fill="#DBBF9C"></path>
                <path d="M240.363,122.784 C245.541,126.204 248.235,132.228 251.056,137.762 C258.753,152.86 269.268,166.51 281.898,177.794 C290.13,185.149 291.051,182.884 298.208,176.962 C302.255,173.612 306.06,169.994 309.706,166.212 L298.432,156.979 C294.072,162.693 290.709,167.087 290.709,167.087 L246.095,122.387 L242.735,121.869 L242.819,121.695 C236.877,113.551 238.735,113.052 234.104,108.977 C230.308,105.637 229.114,105.212 225.134,104.659 C217.669,103.622 217.398,103.599 217.432,104.595 C217.508,106.815 219.582,107.343 220.748,108.105 C223.282,109.765 223.685,112.518 224.655,114.511 C228.427,118.815 235.892,119.831 240.361,122.783" id="Path" fill="#DBBF9C"></path>
                <path d="M233.546,121.414 C235.02,122.624 236.038,124.197 238.822,127.246 L274.222,183.122 L274.156,183.359 C281.653,193.699 287.766,196.199 299.483,186.549 C305.437,181.645 311.151,176.842 316.675,171.919 L309.705,166.209 C306.06,169.993 302.255,173.611 298.207,176.961 C291.052,182.883 290.13,185.148 281.897,177.791 C269.269,166.509 258.753,152.861 251.057,137.761 C248.235,132.226 245.54,126.204 240.363,122.783 C235.893,119.83 228.429,118.815 224.657,114.51 C224.79,114.785 224.933,115.044 225.094,115.284 C226.934,118.022 232.3,120.392 233.546,121.414 M345.39,113.452 C343.716,98.078 357.64,88.177 362.027,77.956 C365.787,69.206 363.13,59.003 355.793,52.899 C357.937,55.859 359.313,59.384 359.665,63.029 C360.338,70.016 357.252,75.676 352.765,80.713 C336.032,99.497 334.435,98.503 337.639,116.488 C337.829,117.56 337.979,118.584 338.094,119.565 C341.307,120.281 344.468,121.235 347.458,122.519 C346.631,119.473 345.714,116.441 345.388,113.451" id="Shape" fill="#986B47" fill-rule="nonzero"></path>
                <path d="M359.665,63.03 C359.315,59.385 357.937,55.86 355.793,52.9 C354.776,52.053 353.67,51.283 352.477,50.61 C347.897,48.02 341.637,46.818 338.334,47.086 C329.334,47.814 323.996,57.268 320.177,62.76 C317.04,67.273 314.914,69.745 313.624,71.273 C312.354,72.776 311.892,73.366 312.074,74.083 C312.401,75.385 314.638,75.213 315.148,76.456 C315.596,77.549 314.542,78.336 311.681,89.001 C311.045,91.381 310.933,93.184 312.435,94.871 C313.135,95.661 314.185,96.424 315.703,97.209 C320.803,99.846 326.509,101.295 332.247,101.409 L324.555,117.309 C327.095,117.916 329.52,118.147 331.713,118.441 C333.843,118.725 335.98,119.097 338.096,119.568 C337.981,118.588 337.831,117.563 337.64,116.488 C334.435,98.506 336.033,99.498 352.765,80.715 C357.252,75.678 360.338,70.017 359.665,63.03" id="Path" fill="#986B47"></path>
                <path d="M314.53,94.31 C317.244,104.41 330.105,107.627 333.627,109.96 C336.897,112.124 337.447,114.895 338.154,119.15 C338.768,115.823 341.064,113.046 341.618,109.71 C342.112,106.738 342.582,103.758 342.762,100.752 C342.792,100.248 342.81,99.722 342.622,99.255 C342.212,98.245 341.022,97.849 339.972,97.559 C335.145,96.226 330.375,94.683 325.68,92.937 L314.53,94.307 L314.53,94.31 Z" id="Path" fill="#986B47"></path>
                <path d="M336.847,101.21 C338.323,95.964 342.929,91.757 352.765,80.714 C357.252,75.677 360.338,70.016 359.665,63.029 C359.315,59.384 357.937,55.859 355.793,52.899 C354.776,52.052 353.67,51.282 352.477,50.609 C347.897,48.019 341.637,46.817 338.334,47.085 C329.334,47.813 323.997,57.267 320.177,62.759 C317.039,67.272 314.915,69.744 313.623,71.272 C312.355,72.775 311.893,73.365 312.073,74.082 C312.401,75.384 314.638,75.212 315.148,76.455 C315.596,77.548 314.542,78.335 311.682,89 C311.044,91.38 310.932,93.183 312.432,94.87 C313.135,95.66 314.185,96.423 315.702,97.208 C322.167,100.551 329.606,101.985 336.847,101.211" id="Path" fill="#D4B28F"></path>
                <path d="M315.944,46.33 L324.051,54.33 C326.631,56.876 332.401,60.718 330.377,64.858 C329.967,65.698 331.221,66.438 331.633,65.594 C333.521,61.73 331.1,59.242 328.459,56.634 C324.629,52.856 320.802,49.077 316.974,45.3 C316.307,44.64 315.277,45.67 315.944,46.33" id="Path" fill="#661C3F"></path>
                <path d="M296.48,27.83 C295.358,29.143 293.5,30.757 293.4,32.632 C293.3,34.5 295.024,35.967 296.306,37.062 C297.544,38.117 299.108,39.467 300.851,39.096 C302.668,38.709 304.259,36.949 305.333,35.55 C305.903,34.807 304.641,34.08 304.077,34.814 C303.3,35.826 302.077,37.174 300.817,37.55 C299.372,37.98 297.967,36.6 296.954,35.694 C296.038,34.876 294.67,33.819 294.892,32.452 C295.105,31.139 296.704,29.804 297.51,28.859 C298.115,28.149 297.09,27.113 296.48,27.829 M307.64,37.296 C306.348,38.898 304.222,41.206 304.75,43.469 C305.167,45.252 307.175,46.749 308.46,47.933 C309.436,48.833 310.56,50.251 312.024,49.849 C313.849,49.347 315.616,47.195 316.726,45.784 C317.3,45.054 316.276,44.017 315.698,44.754 C314.875,45.799 313.932,46.814 312.882,47.634 C311.332,48.846 310.742,48.058 309.489,46.902 C308.766,46.236 308.029,45.566 307.359,44.847 C306.115,43.514 305.912,42.712 306.759,41.029 C307.241,40.067 307.999,39.154 308.669,38.326 C309.251,37.603 308.229,36.566 307.639,37.296" id="Shape" fill="#661C3F" fill-rule="nonzero"></path>
                <path d="M296.63,28.627 C303.222,34.129 309.602,39.873 315.767,45.852 C316.44,46.505 317.469,45.475 316.795,44.822 C310.631,38.842 304.251,33.098 297.66,27.596 C296.945,27 295.91,28.026 296.63,28.626" id="Path" fill="#661C3F"></path>
                <path d="M357.465,57.35 C358.905,54.898 360.033,52.26 360.813,49.525 C361.31,53.271 360.83,57.142 359.433,60.652" id="Path" fill="#380812"></path>
                <path d="M358.694,57.956 C360.046,57.029 361.514,56.246 363.094,55.816 C364.676,55.386 366.381,55.328 367.942,55.824 C364.826,56.977 362.012,58.942 359.852,61.472" id="Path" fill="#380812"></path>
                <polyline id="Path" fill="#E5ECF2" points="179.29 50.53 190.09 0.512 193.314 1.355 216.45 34.935 199.624 95.349 178.73 50.669"></polyline>
                <polyline id="Path" fill="#575560" points="175.505 49.827 190.089 0.512 213.224 34.092 196.398 94.506"></polyline>
                <path d="M192.43,37.47 C192.018,37.49 191.742,37.893 191.547,38.26 C188.725,43.58 190.554,47.66 192.387,46.892 C193.677,46.352 195.405,42.012 195.111,39.702 C194.861,37.739 193.361,36.957 192.547,37.419" id="Path" fill="#2B2A30"></path>
                <polyline id="Path" fill="#E5ECF2" points="196.4 94.506 222.9 121.904 225.846 119.656 197.784 89.336"></polyline>
                <path d="M325.256,40.88 C327.592,48.983 330.412,57.597 337.682,62.37 C342.512,65.542 345.446,64.08 354.669,60.53 C356.509,59.823 358.287,59.284 359.114,57.27 C359.624,56.025 359.634,54.617 359.358,53.3 C357.905,46.39 349.485,42.43 342.153,42.22 C336.243,42.053 328.095,44.43 325.236,40.63" id="Path" fill="#380812"></path>
                <path d="M348.996,98.442 C351.831,94.319 354.666,90.192 357.776,86.272 C360.079,83.367 362.564,80.524 364.03,77.117 C366.696,70.921 365.412,63.217 360.88,58.227 C360.522,57.83 360.134,57.442 359.65,57.217 C356.13,55.58 350.894,62.96 349.087,65.069 C348.642,65.587 348.197,66.119 347.932,66.749 C347.232,68.419 347.95,70.304 348.052,72.111 C348.257,75.715 346.002,78.939 343.849,81.835 C344.209,82.379 344.661,82.863 345.179,83.262 C345.325,83.374 345.494,83.486 345.679,83.472 C345.855,83.455 345.999,83.327 346.126,83.205 C348,81.405 349.711,79.125 352.246,78.569 C352.984,78.406 353.833,78.433 354.399,78.935 C354.946,79.421 355.089,80.225 355.049,80.955 C354.869,84.449 351.624,86.873 349.874,89.901 C348.384,92.479 347.99,95.671 348.808,98.536" id="Path" fill="#380812"></path>
                <path d="M350.605,79.326 C354.03,76.446 357.792,78.851 356.435,82.4 C355.87,83.877 353.735,86.212 352.608,87.114 C351.612,87.911 348.746,89.566 347.475,89.49 C346.825,89.45 346.151,89.014 346.062,88.367" id="Path" fill="#986B47"></path>
            </g>
            <g id="Group-15" transform="translate(359.183275, 65.369119) scale(-1, 1) rotate(48.000000) translate(-359.183275, -65.369119) translate(342.183275, 37.369119)">
                <polyline id="Path" fill="#453F43" points="30.9484324 9 32.3934324 12.076 14.4234324 50.619 9.63843237 35.871"></polyline>
                <path d="M0.649063206,44.360688 C0.551063206,37.937688 1.11406321,27.470688 3.02906321,21.503688 C5.65206321,13.335688 12.0790632,6.88068803 19.2590632,2.20368803 C23.8470632,-0.786311968 26.5540632,-0.826311968 30.3770632,2.65368803 C32.1000632,4.22368803 33.7130632,6.16768803 33.9300632,8.48968803 C34.4020632,13.559688 27.4020632,16.729688 23.2930632,24.391688 C17.4230632,35.339688 19.2350632,45.433688 13.7930632,52.874688 C12.7570632,54.289688 11.2930632,55.640688 9.54306321,55.604688 C8.05606321,55.574688 6.79306321,54.554688 5.70306321,53.541688 C3.21006321,51.225688 0.753063206,47.765688 0.649063206,44.359688" id="Path" fill="#C3C7CD"></path>
                <path d="M25.464595,6.04305791 C24.030595,5.68505791 20.899595,7.63805791 21.797595,8.98805791 C22.167595,9.54305791 23.011595,9.50505791 23.520595,9.93205791 C23.804595,10.1700579 23.973595,10.5460579 24.305595,10.7100579 C25.595595,11.3500579 26.650595,8.54505791 26.588595,7.52205791 C26.548595,6.84205791 26.088595,6.13905791 25.413595,6.05705791" id="Path" fill="#453F43"></path>
            </g>
            <g id="Group-17" transform="translate(248.000000, 68.000000)">
                <path d="M37,0.572778428 C33.5743133,-0.326596846 29.9912189,-0.216350844 26.7032639,1.25746412 C25.6241933,2.08604986 23.6534914,4.36059894 22.7805005,5.63248965 C18.34202,12.0987077 18.6361237,20.5911313 19.5702136,28.6820273 L26.8109638,29 C25.8789451,20.9033016 25.5848414,12.4143595 30.0212507,5.94930184 C30.9491271,4.59733772 33.0037107,2.25315959 34.0351448,1.50464726 C34.9102068,0.86986239 35.9582101,0.543766323 37,0.571617944 L37,0.572778428 Z M38.2872835,30.6116811 C38.2872835,30.6116811 52.3092522,21.5364596 53,17 L52.7127165,26.3883189 C52.0198564,30.9259296 38,40 38,40 L38.2872835,30.6116811 Z" id="Shape" fill="#C3C7CD" fill-rule="nonzero"></path>
                <path d="M41.545,40.895 C41.362,39.628 39.635,28.531 38.339,28.545 L4.857,27 L1.66977543e-13,31.31 C2.56,42.737 8.423,42.13 11.08,42.57 C21.794,44.343 19.32,41.533 22.87,40.163 C23.92,39.757 25.17,39.926 26.076,40.596 C27.891,41.938 28.303,45.544 34.933,45.411 L35.913,48.291 L40.268,44.479 C41.662,43.743 41.785,42.556 41.546,40.897" id="Path" fill="#453F43"></path>
                <path d="M33.483,32.547 C34.78,32.531 36.506,43.627 36.689,44.897 C37.023,47.212 36.665,48.614 33.105,49.141 C23.525,50.557 23.278,46.118 21.219,44.596 C20.314,43.926 19.062,43.758 18.013,44.164 C14.463,45.534 16.938,48.344 6.223,46.57 C3.347,46.094 3.203,45.377 -3.19744231e-14,31 L33.482,32.548 L33.483,32.547 Z" id="Path" fill="#C3C7CD"></path>
            </g>
        </g>
    </g>
</svg>