<?xml version="1.0" encoding="UTF-8"?>
<svg width="623px" height="360px" viewBox="0 0 623 360" version="1.1" xmlns="http://www.w3.org/2000/svg" xmlns:xlink="http://www.w3.org/1999/xlink">
    <!-- Generator: Sketch 52.4 (67378) - http://www.bohemiancoding.com/sketch -->
    <title>318322-P9A6XZ-853 Copy 5</title>
    <desc>Created with Sketch.</desc>
    <defs>
        <path d="M1.22048731,0.0923947721 L40.1809639,0.0923947721 C40.8436953,0.0923947721 41.3809453,0.629644739 41.3809453,1.29237616 L41.3809453,48.6726634 C41.3809453,49.3353948 40.8436953,49.8726447 40.1809639,49.8726447 L1.22048731,49.8726447 C0.557755886,49.8726447 0.0205059194,49.3353948 0.0205059194,48.6726634 L0.0205059194,1.29237616 C0.0205059194,0.629644739 0.557755886,0.0923947721 1.22048731,0.0923947721 Z" id="path-1"></path>
    </defs>
    <g id="illustration" stroke="none" stroke-width="1" fill="none" fill-rule="evenodd">
        <g id="Artboard" transform="translate(-78.000000, -116.000000)">
            <g id="318322-P9A6XZ-853-Copy-5" transform="translate(78.000000, 116.000000)">
                <g id="OBJECTS">
                    <path d="M521.432606,347.2 C494.241335,361.412463 135.204223,365.3349 100.767651,347.2 C62.4935573,327.044195 69.855024,257.903607 79.9743261,218.4 C90.0936281,178.896393 161.548139,30.4 320.697047,30.4 C479.845956,30.4 538.474154,190.00924 546.224647,241.6 C553.97514,293.19076 548.623877,332.987537 521.432606,347.2 Z" id="Shape" fill="#FFFFFF" fill-rule="nonzero"></path>
                    <polygon id="Shape" fill="#A7BACD" fill-rule="nonzero" points="141.628883 313.285923 141.628883 216.271412 195.631222 216.271412 195.631222 296.203156 259.88652 296.203156 259.88652 120.632557 322.767922 120.632557 322.767922 250.734662 354.890445 250.734662 354.890445 159.941399 404.7916 105.366887 404.7916 178.995255 482.714093 178.995255 482.714093 325.728419 141.628883 325.728419"></polygon>
                    <polygon id="Shape" fill="#7F929E" fill-rule="nonzero" points="514.426497 263.413278 514.426497 335.624925 108.32727 335.624925 108.32727 271.554284 141.628883 271.554284 141.628883 299.508836 176.19161 299.508836 176.19161 197.956715 207.145296 197.956715 207.145296 280.177796 214.53768 280.177796 214.53768 142.047612 277.501105 142.047612 277.501105 321.837572 308.38302 321.837572 308.38302 221.466052 372.310223 221.466052 372.310223 297.958657 418.1307 297.958657 418.1307 129.061013 473.096817 129.061013 473.096817 263.413278"></polygon>
                    <polygon id="Rectangle-path" fill="#DAE2F5" fill-rule="nonzero" points="214.53768 153.001525 259.88652 153.001525 259.88652 158.370688 214.53768 158.370688"></polygon>
                    <polygon id="Rectangle-path" fill="#DAE2F5" fill-rule="nonzero" points="214.53768 166.563025 259.88652 166.563025 259.88652 171.932188 214.53768 171.932188"></polygon>
                    <polygon id="Rectangle-path" fill="#DAE2F5" fill-rule="nonzero" points="214.53768 180.13479 259.88652 180.13479 259.88652 185.503953 214.53768 185.503953"></polygon>
                    <polygon id="Rectangle-path" fill="#DAE2F5" fill-rule="nonzero" points="214.53768 193.696289 259.88652 193.696289 259.88652 199.065452 214.53768 199.065452"></polygon>
                    <polygon id="Rectangle-path" fill="#DAE2F5" fill-rule="nonzero" points="214.53768 207.268055 259.88652 207.268055 259.88652 212.637218 214.53768 212.637218"></polygon>
                    <polygon id="Rectangle-path" fill="#DAE2F5" fill-rule="nonzero" points="214.53768 220.83982 259.88652 220.83982 259.88652 226.208983 214.53768 226.208983"></polygon>
                    <polygon id="Rectangle-path" fill="#DAE2F5" fill-rule="nonzero" points="214.53768 234.40132 259.88652 234.40132 259.88652 239.770482 214.53768 239.770482"></polygon>
                    <polygon id="Rectangle-path" fill="#DAE2F5" fill-rule="nonzero" points="214.53768 247.973085 259.88652 247.973085 259.88652 253.342248 214.53768 253.342248"></polygon>
                    <polygon id="Rectangle-path" fill="#DAE2F5" fill-rule="nonzero" points="214.53768 261.54485 259.88652 261.54485 259.88652 266.914013 214.53768 266.914013"></polygon>
                    <polygon id="Rectangle-path" fill="#DAE2F5" fill-rule="nonzero" points="313.714559 227.73863 320.368729 227.73863 320.368729 234.40132 313.714559 234.40132"></polygon>
                    <polygon id="Rectangle-path" fill="#DAE2F5" fill-rule="nonzero" points="325.156862 227.73863 331.811032 227.73863 331.811032 234.40132 325.156862 234.40132"></polygon>
                    <polygon id="Rectangle-path" fill="#DAE2F5" fill-rule="nonzero" points="336.609418 227.73863 343.263588 227.73863 343.263588 234.40132 336.609418 234.40132"></polygon>
                    <polygon id="Rectangle-path" fill="#DAE2F5" fill-rule="nonzero" points="348.061974 227.73863 354.716144 227.73863 354.716144 234.40132 348.061974 234.40132"></polygon>
                    <polygon id="Rectangle-path" fill="#DAE2F5" fill-rule="nonzero" points="359.504277 227.73863 366.158447 227.73863 366.158447 234.40132 359.504277 234.40132"></polygon>
                    <polygon id="Rectangle-path" fill="#DAE2F5" fill-rule="nonzero" points="313.714559 238.51802 320.368729 238.51802 320.368729 245.18071 313.714559 245.18071"></polygon>
                    <polygon id="Rectangle-path" fill="#DAE2F5" fill-rule="nonzero" points="325.156862 238.51802 331.811032 238.51802 331.811032 245.18071 325.156862 245.18071"></polygon>
                    <polygon id="Rectangle-path" fill="#DAE2F5" fill-rule="nonzero" points="336.609418 238.51802 343.263588 238.51802 343.263588 245.18071 336.609418 245.18071"></polygon>
                    <polygon id="Rectangle-path" fill="#DAE2F5" fill-rule="nonzero" points="348.061974 238.51802 354.716144 238.51802 354.716144 245.18071 348.061974 245.18071"></polygon>
                    <polygon id="Rectangle-path" fill="#DAE2F5" fill-rule="nonzero" points="359.504277 238.51802 366.158447 238.51802 366.158447 245.18071 359.504277 245.18071"></polygon>
                    <polygon id="Rectangle-path" fill="#DAE2F5" fill-rule="nonzero" points="313.714559 249.29741 320.368729 249.29741 320.368729 255.9601 313.714559 255.9601"></polygon>
                    <polygon id="Rectangle-path" fill="#DAE2F5" fill-rule="nonzero" points="325.156862 249.29741 331.811032 249.29741 331.811032 255.9601 325.156862 255.9601"></polygon>
                    <polygon id="Rectangle-path" fill="#DAE2F5" fill-rule="nonzero" points="336.609418 249.29741 343.263588 249.29741 343.263588 255.9601 336.609418 255.9601"></polygon>
                    <polygon id="Rectangle-path" fill="#DAE2F5" fill-rule="nonzero" points="348.061974 249.29741 354.716144 249.29741 354.716144 255.9601 348.061974 255.9601"></polygon>
                    <polygon id="Rectangle-path" fill="#DAE2F5" fill-rule="nonzero" points="359.504277 249.29741 366.158447 249.29741 366.158447 255.9601 359.504277 255.9601"></polygon>
                    <polygon id="Rectangle-path" fill="#DAE2F5" fill-rule="nonzero" points="313.714559 260.0768 320.368729 260.0768 320.368729 266.73949 313.714559 266.73949"></polygon>
                    <polygon id="Rectangle-path" fill="#DAE2F5" fill-rule="nonzero" points="325.156862 260.0768 331.811032 260.0768 331.811032 266.73949 325.156862 266.73949"></polygon>
                    <polygon id="Rectangle-path" fill="#DAE2F5" fill-rule="nonzero" points="336.609418 260.0768 343.263588 260.0768 343.263588 266.73949 336.609418 266.73949"></polygon>
                    <polygon id="Rectangle-path" fill="#DAE2F5" fill-rule="nonzero" points="348.061974 260.0768 354.716144 260.0768 354.716144 266.73949 348.061974 266.73949"></polygon>
                    <polygon id="Rectangle-path" fill="#DAE2F5" fill-rule="nonzero" points="359.504277 260.0768 366.158447 260.0768 366.158447 266.73949 359.504277 266.73949"></polygon>
                    <polygon id="Rectangle-path" fill="#DAE2F5" fill-rule="nonzero" points="313.714559 270.85619 320.368729 270.85619 320.368729 277.51888 313.714559 277.51888"></polygon>
                    <polygon id="Rectangle-path" fill="#DAE2F5" fill-rule="nonzero" points="325.156862 270.85619 331.811032 270.85619 331.811032 277.51888 325.156862 277.51888"></polygon>
                    <polygon id="Rectangle-path" fill="#DAE2F5" fill-rule="nonzero" points="336.609418 270.85619 343.263588 270.85619 343.263588 277.51888 336.609418 277.51888"></polygon>
                    <polygon id="Rectangle-path" fill="#DAE2F5" fill-rule="nonzero" points="348.061974 270.85619 354.716144 270.85619 354.716144 277.51888 348.061974 277.51888"></polygon>
                    <polygon id="Rectangle-path" fill="#DAE2F5" fill-rule="nonzero" points="359.504277 270.85619 366.158447 270.85619 366.158447 277.51888 359.504277 277.51888"></polygon>
                    <g id="Group" transform="translate(0.700377, 0.092694)" fill-rule="nonzero">
                        <path d="M530.361503,106.830622 L429.226308,106.830622 C428.850365,105.31262 428.660993,103.754327 428.662395,102.190351 C428.669862,95.0637951 432.568406,88.5117232 438.823958,85.1123609 C445.07951,81.7129986 452.690705,82.010503 458.662555,85.8878067 C466.220429,77.4532605 479.042168,76.3988106 487.873238,83.4855426 C488.763207,79.7442443 491.76806,76.8773034 495.543146,76.1676558 C499.318232,75.4580081 503.15698,77.0384762 505.341578,80.2018117 C507.526176,83.3651473 507.64774,87.5192788 505.65187,90.8052618 C510.527652,92.3638283 514.348256,96.1893228 515.904829,101.071348 C518.517627,99.4971497 521.716354,99.2404502 524.546204,100.377873 C527.376054,101.515295 529.509693,103.915272 530.310238,106.86142 L530.361503,106.830622 Z" id="Shape" fill="#DFDFE7"></path>
                        <path d="M539.142362,164.135307 L480.198097,164.135307 C479.042179,159.608704 480.789633,154.83677 484.593923,152.131219 C488.398212,149.425669 493.473674,149.345254 497.361551,151.928931 C501.768827,147.02083 509.235123,146.40835 514.381464,150.532743 C514.975727,148.428218 516.724485,146.852617 518.877157,146.482199 C521.02983,146.111782 523.203593,147.012422 524.465453,148.797558 C525.727313,150.582694 525.852863,152.934864 524.788218,154.844499 C527.625151,155.750543 529.851065,157.971661 530.765694,160.809095 C532.288908,159.890665 534.154196,159.740888 535.80412,160.404527 C537.454044,161.068165 538.697494,162.46835 539.162868,164.186637 L539.142362,164.135307 Z" id="Shape" fill="#DBDBE4"></path>
                        <path d="M199.534788,106.888208 L124.380593,106.888208 C124.099633,105.760035 123.958447,104.60152 123.960222,103.438803 C123.969015,98.131843 126.879487,93.2558233 131.543324,90.7345553 C136.207162,88.2132873 141.875405,88.4516583 146.311674,91.3556199 C151.930824,85.094832 161.452493,84.3112272 168.01719,89.569321 C168.863918,85.9913727 172.255462,83.6177606 175.902217,84.0508914 C179.548973,84.4840222 182.291808,87.5862241 182.279057,91.2632252 C182.287382,92.5828333 181.932651,93.8792576 181.253761,95.0103465 C184.879316,96.1590347 187.725494,98.993556 188.892216,102.617516 C190.82483,101.471475 193.179705,101.290122 195.264619,102.126764 C197.349534,102.963406 198.927543,104.722963 199.534788,106.888208 Z" id="Shape" fill="#DBDBE4"></path>
                        <path d="M381.008418,52.9787997 C378.171282,52.9770345 375.387686,53.7484983 372.958857,55.2097069 C370.670563,48.1472785 365.377884,42.4470852 358.489401,39.626164 C365.762448,27.5498111 361.834258,11.8846329 349.715545,4.63700927 C337.596831,-2.61061439 321.876703,1.3038441 314.603656,13.380197 C308.593583,3.26573713 296.607871,-1.68492199 285.179609,1.2266905 C273.751346,4.13830298 265.620856,14.2140272 265.219848,25.9618574 C264.824777,25.9618574 264.413245,25.9618574 264.001714,25.9618574 C246.728228,25.9618574 232.725301,39.9158371 232.725301,57.1289432 C232.723049,59.6279521 233.02709,62.1178811 233.630671,64.5434289 L396.004635,64.5434289 C394.193795,57.7604316 388.051818,53.0239248 381.008418,52.9787997 Z" id="Shape" fill="#DBDBE4"></path>
                        <path d="M326.273918,111.0444 C325.250593,111.042081 324.2465,111.322735 323.372331,111.855421 C322.535532,109.297198 320.626078,107.231598 318.143321,106.198807 C320.765084,101.80471 319.332877,96.1145118 314.944398,93.4893932 C310.555919,90.8642745 304.872996,92.2983149 302.251234,96.6924119 C300.076987,93.0325006 295.754395,91.2444689 291.634296,92.3007357 C287.514196,93.3570024 284.581679,97.0050206 284.43159,101.26082 L283.990713,101.26082 C277.761904,101.26082 272.712457,106.316732 272.712457,112.553514 C272.71158,113.460145 272.821768,114.363461 273.040552,115.243229 L331.666975,115.243229 C331.016892,112.788512 328.810091,111.070381 326.273918,111.0444 Z" id="Shape" fill="#D7D6E1"></path>
                        <path d="M107.113516,191.891897 C106.08714,191.890863 105.080089,192.171352 104.201676,192.702918 C103.364876,190.144695 101.455422,188.079095 98.9726661,187.046304 C99.9189635,185.57004 100.420835,183.852224 100.418333,182.098051 C100.444643,177.880039 97.6145992,174.179688 93.5407913,173.105497 C89.4669834,172.031306 85.1837999,173.856024 83.1318434,177.539909 C80.9524828,173.885174 76.6314469,172.101627 72.512968,173.156871 C68.394489,174.212116 65.4601781,177.85464 65.3019465,182.108317 L64.8610692,182.108317 C58.6322606,182.108317 53.5828136,187.164229 53.5828136,193.401011 C53.5813138,194.30768 53.6915107,195.211072 53.9109083,196.090726 L112.59885,196.090726 C111.933576,193.607115 109.681604,191.883309 107.113516,191.891897 Z" id="Shape" fill="#DBDBE4"></path>
                        <path d="M53.5307176,123.091897 C52.5043415,123.090863 51.4972901,123.371352 50.6188771,123.902918 C49.7820777,121.344695 47.8726238,119.279095 45.3898676,118.246304 C46.336165,116.77004 46.8380369,115.052224 46.8355349,113.298051 C46.8618442,109.080039 44.0318007,105.379688 39.9579928,104.305497 C35.884185,103.231306 31.6010014,105.056024 29.5490449,108.739909 C27.3696843,105.085174 23.0486485,103.301627 18.9301695,104.356871 C14.8116905,105.412116 11.8773796,109.05464 11.719148,113.308317 L11.2782708,113.308317 C5.04946215,113.308317 1.51035267e-05,118.364229 1.51035267e-05,124.601011 C-0.00148464249,125.50768 0.108712236,126.411072 0.328109813,127.290726 L59.016051,127.290726 C58.350778,124.807115 56.0988054,123.083309 53.5307176,123.091897 Z" id="Shape-Copy" fill="#DBDBE4"></path>
                        <path d="M616.549973,134.291897 C615.523597,134.290863 614.516546,134.571352 613.638133,135.102918 C612.801333,132.544695 610.891879,130.479095 608.409123,129.446304 C609.35542,127.97004 609.857292,126.252224 609.85479,124.498051 C609.8811,120.280039 607.051056,116.579688 602.977248,115.505497 C598.90344,114.431306 594.620257,116.256024 592.5683,119.939909 C590.38894,116.285174 586.067904,114.501627 581.949425,115.556871 C577.830946,116.612116 574.896635,120.25464 574.738403,124.508317 L574.297526,124.508317 C568.068718,124.508317 563.019271,129.564229 563.019271,135.801011 C563.017771,136.70768 563.127968,137.611072 563.347365,138.490726 L622.035306,138.490726 C621.370033,136.007115 619.118061,134.283309 616.549973,134.291897 Z" id="Shape-Copy-2" fill="#DBDBE4"></path>
                    </g>
                    <path d="M157.736283,266.903747 L157.736283,306.335783 L139.619303,306.335783 L139.619303,266.903747 C139.619303,263.467847 142.40109,260.682499 145.832597,260.682499 L151.481978,260.682499 C153.13694,260.671561 154.727872,261.32218 155.901976,262.490078 C157.076079,263.657976 157.736319,265.24663 157.736283,266.903747 Z" id="Shape" fill="#565656" fill-rule="nonzero"></path>
                    <path d="M157.736283,266.903747 L157.736283,306.335783 L148.68292,306.335783 L148.68292,260.682363 L151.481978,260.682499 C153.13694,260.671561 154.727872,261.32218 155.901976,262.490078 C157.076079,263.657976 157.736319,265.24663 157.736283,266.903747 Z" id="Shape" fill="#3A3A3A" fill-rule="nonzero"></path>
                    <path d="M151.215401,260.682499 L145.935126,260.682499 L145.935126,107.255847 C145.760218,99.0111318 150.053048,91.3166352 157.156328,87.1428913 C164.259608,82.9691473 173.062015,82.9691473 180.165295,87.1428913 C187.268575,91.3166352 191.561405,99.0111318 191.386497,107.255847 L191.386497,108.364584 L186.095969,108.364584 L186.095969,107.255847 C186.095969,97.6171827 178.292279,89.8035013 168.665938,89.8035013 C159.039597,89.8035013 151.235907,97.6171827 151.235907,107.255847 L151.215401,260.682499 Z" id="Shape" fill="#606060" fill-rule="nonzero"></path>
                    <path d="M182.948311,89.5776474 C175.979046,84.9181931 167.013462,84.4802486 159.62433,88.4383342 C152.235198,92.3964199 147.623452,100.107239 147.626865,108.498044 L147.626865,260.682499 L145.935121,260.682499 L145.935126,107.255847 C145.929284,98.4850777 150.961694,90.4928393 158.867841,86.7167135 C166.773988,82.9405877 176.14424,84.0538413 182.948311,89.5776474 Z" id="Shape" fill="#7A7779" fill-rule="nonzero"></path>
                    <ellipse id="Oval" fill="#F7B935" fill-rule="nonzero" cx="189.510205" cy="124.851918" rx="4.21396643" ry="4.21936126"></ellipse>
                    <path d="M188.864269,105.366887 C191.191578,105.366887 193.078235,107.25596 193.078235,109.586249 L193.078235,113.56949 L184.660543,113.56949 L184.660555,109.596515 C184.657833,108.47747 185.099194,107.403175 185.887544,106.609965 C186.675894,105.816756 187.746654,105.369607 188.864269,105.366887 Z" id="Shape" fill="#606060" fill-rule="nonzero"></path>
                    <path d="M193.078235,109.596515 L193.078235,113.579756 L192.165722,113.579756 L192.165722,109.596515 C192.166659,108.476903 191.724212,107.402595 190.935366,106.609084 C190.248775,105.927619 189.353138,105.497308 188.392632,105.387407 L188.843763,105.38742 C189.962211,105.384685 191.035638,105.828345 191.826502,106.620222 C192.617367,107.4121 193.06046,108.4869 193.057729,109.606781 L193.078235,109.596515 Z" id="Shape" fill="#515151" fill-rule="nonzero"></path>
                    <path d="M205.586846,124.851918 L172.141691,124.851918 C173.992204,117.104803 180.908842,111.640361 188.864269,111.640361 C196.819695,111.640361 203.736333,117.104803 205.586846,124.851918 Z" id="Shape" fill="#606060" fill-rule="nonzero"></path>
                    <path d="M199.035205,124.851918 L172.141691,124.851918 C173.621515,118.61475 179.185892,114.211771 185.588448,114.211771 C191.991004,114.211771 197.555381,118.61475 199.035205,124.851918 Z" id="Shape" fill="#7A7779" fill-rule="nonzero"></path>
                    <path d="M205.586846,124.851918 L203.772072,124.851918 C202.014237,117.420282 195.569152,112.041805 187.951755,111.649729 C188.259344,111.649732 188.55668,111.649732 188.864269,111.649732 C196.818235,111.644945 203.735984,117.106388 205.586846,124.851918 Z" id="Shape" fill="#515151" fill-rule="nonzero"></path>
                    <path d="M205.750893,126.966732 L171.987897,126.966732 C171.421642,126.966732 170.962601,126.507104 170.962601,125.940123 C170.962601,125.373143 171.421642,124.913515 171.987897,124.913515 L205.761146,124.913515 C206.327401,124.913515 206.786442,125.373143 206.786442,125.940123 C206.786456,126.214185 206.677028,126.476875 206.482524,126.669699 C206.28802,126.862523 206.024591,126.969472 205.750893,126.966732 Z" id="Shape" fill="#515151" fill-rule="nonzero"></path>
                    <path d="M200.450113,126.966732 L171.987897,126.966732 C171.421642,126.966732 170.962601,126.507104 170.962601,125.940123 C170.962601,125.373143 171.421642,124.913515 171.987897,124.913515 L200.460366,124.913515 C201.026621,124.913515 201.485662,125.373143 201.485662,125.940123 C201.485676,126.214185 201.376247,126.476875 201.181744,126.669699 C200.98724,126.862523 200.723811,126.969472 200.450113,126.966732 Z" id="Shape" fill="#606060" fill-rule="nonzero"></path>
                    <path d="M186.065211,126.648483 L171.834103,126.648483 C171.53965,126.648483 171.300949,126.409476 171.300949,126.114647 C171.300922,125.97399 171.357418,125.839238 171.45771,125.740749 C171.558002,125.64226 171.693653,125.588318 171.834103,125.591076 L186.065211,125.591076 C186.20566,125.588318 186.341312,125.64226 186.441603,125.740749 C186.541895,125.839238 186.598392,125.97399 186.598365,126.114647 C186.598365,126.256229 186.542193,126.392012 186.442207,126.492126 C186.342222,126.59224 186.206612,126.648483 186.065211,126.648483 Z" id="Shape" fill="#7A7779" fill-rule="nonzero"></path>
                    <path d="M186.741906,287.682305 C185.707785,287.680549 184.676502,287.790694 183.666018,288.01082 C181.993421,282.719805 178.103463,278.419859 173.009889,276.231569 C167.916315,274.043279 162.123693,274.183418 157.141611,276.615464 C157.172249,274.318957 156.166412,272.131197 154.404071,270.661135 C152.588167,272.967393 152.08464,276.046721 153.071186,278.812407 C150.840068,277.133769 147.87224,276.807087 145.330202,277.960322 C146.360472,280.017224 148.152065,281.590098 150.323393,282.34394 C149.689454,283.197994 149.123787,284.100787 148.631655,285.043921 C148.247994,284.899198 147.842015,284.822762 147.432059,284.818067 C145.603204,284.820887 144.095289,286.254114 143.997317,288.082682 C139.700039,287.119109 135.198303,288.16347 131.76211,290.921135 C128.325918,293.678799 126.327805,297.850796 126.331467,302.260147 C126.335771,303.476422 126.49425,304.687231 126.803104,305.863543 L200.839726,305.863543 C201.148579,304.687231 201.307058,303.476422 201.311362,302.260147 C201.322308,298.388732 199.790502,294.672871 197.055526,291.93632 C194.32055,289.199769 190.608362,287.668619 186.741906,287.682305 Z" id="Shape" fill="#A5C437" fill-rule="nonzero"></path>
                    <path d="M212.32304,302.937708 C212.317679,303.911407 212.190228,304.880578 211.943681,305.822478 L152.507274,305.822478 C152.255739,304.881564 152.128204,303.911747 152.127914,302.937708 C152.121299,300.893191 152.65926,298.883883 153.686364,297.116838 C156.704369,291.844869 163.269176,289.79102 168.747962,292.404704 C170.438811,285.775124 176.310926,281.068836 183.141595,280.868728 C189.972265,280.66862 196.109142,285.023097 198.184209,291.542353 C199.010078,291.369822 199.852674,291.290619 200.696184,291.306233 C207.106518,291.323129 212.300511,296.519185 212.32304,302.937708 Z" id="Shape" fill="#83A127" fill-rule="nonzero"></path>
                    <path d="M177.996131,304.005381 C177.991642,304.61843 177.912451,305.22864 177.760313,305.822478 L140.316504,305.822478 C140.164367,305.22864 140.085176,304.61843 140.080686,304.005381 C140.076237,301.485021 141.363519,299.138621 143.490299,297.790492 C145.61708,296.442362 148.285911,296.281049 150.559211,297.363224 C151.408642,294.002563 153.993083,291.356322 157.329625,290.430912 C160.666167,289.505503 164.242076,290.443135 166.69737,292.88721 C167.809424,293.980947 168.63672,295.330989 169.106815,296.819121 C169.616013,296.712137 170.13473,296.657103 170.655012,296.654864 C174.707059,296.660518 177.990484,299.948147 177.996131,304.005381 Z" id="Shape" fill="#C9E94D" fill-rule="nonzero"></path>
                    <path d="M139.496268,290.700534 C138.162729,292.032317 137.477286,293.881259 137.619976,295.761714 C136.474,294.287397 134.72786,293.405674 132.862603,293.35945 C132.862603,293.35945 132.862603,298.84154 139.137414,299.519102 C139.137414,299.519102 143.084804,295.238144 139.496268,290.700534 Z" id="Shape" fill="#C8E94B" fill-rule="nonzero"></path>
                    <path d="M169.998823,271.80067 C168.816841,272.247731 167.888334,273.188673 167.456089,274.377458 C167.166125,273.152929 166.341647,272.123839 165.210691,271.574816 C164.357923,273.690924 165.290663,276.106582 167.343306,277.09797 C169.404493,276.221458 170.528483,273.979292 169.998823,271.80067 Z" id="Shape" fill="#C8E94B" fill-rule="nonzero"></path>
                    <path d="M196.348929,282.590326 C195.128193,282.263394 193.825797,282.484485 192.780899,283.196025 C193.258976,282.033445 193.187394,280.716904 192.586093,279.613161 C190.659183,280.837274 190.016787,283.351671 191.11992,285.351903 C193.302767,285.834917 195.514408,284.666892 196.348929,282.590326 Z" id="Shape" fill="#C8E94B" fill-rule="nonzero"></path>
                    <path d="M182.804769,287.127936 C181.909748,288.022377 181.449172,289.263398 181.543655,290.526011 C180.777576,289.526935 179.602253,288.927206 178.344732,288.893703 C178.46225,291.158615 180.30445,292.949449 182.568951,293.000137 C184.057308,291.358152 184.156655,288.884273 182.804769,287.127936 Z" id="Shape" fill="#A5C437" fill-rule="nonzero"></path>
                    <path d="M177.114377,294.273132 C175.855145,294.387471 174.708871,295.047611 173.976971,296.079963 C174.012907,294.824343 173.490944,293.617403 172.55181,292.784549 C171.165985,294.600065 171.431036,297.182002 173.156734,298.677283 C175.374571,298.376762 177.049286,296.513103 177.114377,294.273132 Z" id="Shape" fill="#A5C437" fill-rule="nonzero"></path>
                    <path d="M202.398175,289.899779 C201.67955,290.051869 201.062272,290.508865 200.706437,291.152242 C200.655985,290.425453 200.278856,289.760857 199.681141,289.345411 C199.001763,290.480467 199.325727,291.949183 200.419354,292.692155 C201.671911,292.370721 202.508824,291.189726 202.398175,289.899779 Z" id="Shape" fill="#A5C437" fill-rule="nonzero"></path>
                    <path d="M154.281036,284.2329 C153.66716,285.339483 153.566063,286.659181 154.004206,287.846562 C152.980551,287.104143 151.675989,286.866303 150.456682,287.199799 C151.176547,289.364077 153.452323,290.595558 155.654932,290.012706 C156.676967,288.009736 156.09467,285.560087 154.281036,284.2329 Z" id="Shape" fill="#C8E94B" fill-rule="nonzero"></path>
                    <path d="M461.12136,303.80006 C461.121052,304.490098 461.048891,305.178224 460.906048,305.853277 L387.197521,305.853277 C383.390908,299.271953 384.8476,290.904624 390.653644,286.001082 C396.459688,281.09754 404.942288,281.070561 410.779328,285.93707 C415.110699,278.0403 424.18691,274.025865 432.933945,276.138017 C441.68098,278.25017 447.93199,285.96568 448.192378,294.971226 C451.107681,293.843719 454.39026,294.223268 456.972188,295.986393 C459.554115,297.749518 461.1054,300.670877 461.12136,303.80006 Z" id="Shape" fill="#A6C437" fill-rule="nonzero"></path>
                    <path d="M474.173378,294.283398 C472.98732,294.283269 471.811784,294.50614 470.707877,294.940427 C470.44749,285.934881 464.196479,278.219372 455.449444,276.107219 C446.702409,273.995066 437.626199,278.009501 433.294827,285.906272 C430.494914,283.595865 426.977651,282.336017 423.349457,282.34394 C422.566747,282.347737 421.78539,282.409502 421.011782,282.52873 C421.822535,278.916133 420.627604,275.1463 417.884629,272.663021 C416.097602,274.890243 415.182663,277.693322 415.311136,280.547375 C413.237888,278.647242 410.489749,277.659752 407.682934,277.80633 C407.682934,277.80633 408.195582,283.668265 413.086244,286.183456 C407.430331,291.090913 406.034058,299.320111 409.754032,305.822478 L483.462559,305.822478 C483.605402,305.147425 483.677563,304.4593 483.677871,303.769261 C483.660922,298.525386 479.410576,294.283371 474.173378,294.283398 Z" id="Shape" fill="#C8E94B" fill-rule="nonzero"></path>
                    <path d="M450.099428,304.652145 C450.097344,305.056103 450.052667,305.458713 449.96614,305.853277 L406.14499,305.853277 C403.898723,301.953187 404.757372,297.00292 408.185461,294.089599 C411.613549,291.176277 416.631307,291.132548 420.109521,293.985681 C422.688506,289.295619 428.082423,286.912854 433.280691,288.167312 C438.478959,289.421771 442.196522,294.00334 442.358444,299.354844 C444.097206,298.672743 446.060271,298.895065 447.602948,299.948797 C449.145625,301.002529 450.068567,302.751507 450.068669,304.621346 L450.099428,304.652145 Z" id="Shape" fill="#83A127" fill-rule="nonzero"></path>
                    <path d="M391.216681,295.084153 C391.421328,296.057569 391.877378,296.960218 392.539313,297.702005 C391.578291,297.799905 390.661171,298.154459 389.883796,298.728613 C391.715668,300.80115 394.858704,301.046376 396.989097,299.282982 C396.989097,299.282982 395.758742,294.806968 391.216681,295.084153 Z" id="Shape" fill="#83A127" fill-rule="nonzero"></path>
                    <path d="M403.704786,285.351903 C403.29745,285.916429 403.046321,286.5787 402.976826,287.271661 C402.479555,286.819043 401.870853,286.507216 401.213317,286.368246 C401.018066,288.293182 402.37592,290.028929 404.289205,290.300157 C405.260263,288.713794 405.018609,286.667716 403.704786,285.351903 Z" id="Shape" fill="#83A127" fill-rule="nonzero"></path>
                    <path d="M434.248353,279.582363 C433.292521,279.850236 432.423104,280.363353 431.726125,281.070946 C431.56456,280.12366 431.158044,279.235259 430.547034,278.494158 C428.570153,280.467674 428.533691,283.66218 430.465011,285.680418 C430.465011,285.680418 434.822518,284.119973 434.248353,279.582363 Z" id="Shape" fill="#83A127" fill-rule="nonzero"></path>
                    <path d="M447.95656,287.938957 C447.262561,288.652749 446.770689,289.538544 446.531398,290.505478 C445.911924,289.766484 445.109286,289.203564 444.203977,288.873171 C443.543967,291.543765 445.104103,294.260518 447.741248,295.032822 C447.741248,295.032822 450.724859,291.542353 447.95656,287.938957 Z" id="Shape" fill="#A6C437" fill-rule="nonzero"></path>
                    <path d="M458.260784,283.339751 C457.579939,283.6165 456.980263,284.061534 456.517781,284.633277 C456.340042,283.954443 455.986342,283.334676 455.492485,282.836712 C454.228389,284.431896 454.445477,286.741405 455.984627,288.072416 C457.7399,287.206557 458.679128,285.253681 458.260784,283.339751 Z" id="Shape" fill="#A6C437" fill-rule="nonzero"></path>
                    <path d="M473.804271,292.784549 C473.072275,292.757921 472.346513,292.928073 471.702414,293.277322 C471.793923,292.58135 471.702022,291.873516 471.435837,291.224104 C469.641725,292.183565 468.922579,294.38905 469.805617,296.223688 C471.772592,296.141578 473.426475,294.719116 473.804271,292.784549 Z" id="Shape" fill="#A6C437" fill-rule="nonzero"></path>
                    <path d="M408.441653,155.793901 C408.388977,155.781958 408.343617,155.748655 408.316404,155.701944 C408.28919,155.655232 408.282565,155.599304 408.298112,155.547515 L408.903036,153.494298 C408.917353,153.440795 408.952651,153.395354 409.000917,153.368291 C409.049182,153.341228 409.106321,153.334838 409.15936,153.350572 C409.212794,153.364907 409.258177,153.40025 409.285206,153.448578 C409.312234,153.496905 409.318616,153.554117 409.302902,153.607224 L408.687724,155.660442 C408.673502,155.711295 408.639293,155.754201 408.592918,155.779353 C408.546542,155.804505 408.491963,155.809754 408.441653,155.793901 Z" id="Shape" fill="#F7B935" fill-rule="nonzero"></path>
                    <polygon id="Shape" fill="#F7B935" fill-rule="nonzero" points="402.761514 145.989789 401.736218 147.745289 403.602256 147.149857"></polygon>
                    <path d="M407.87774,144.347215 C408.255586,145.781103 407.403064,147.250679 405.971924,147.63246 C404.540784,148.014242 403.071038,147.164171 402.686299,145.732123 C402.301559,144.300074 403.147,142.826403 404.576287,142.437723 C406.01373,142.058549 407.487596,142.911003 407.87774,144.347215 Z" id="Shape" fill="#DB5C45" fill-rule="nonzero"></path>
                    <path d="M410.215415,146.051385 C407.139527,143.361671 405.088935,146.472295 405.088935,146.492827 C402.67949,148.453649 406.852444,158.81213 418.02817,152.652478 C417.987159,152.631946 414.275587,149.562387 410.215415,146.051385 Z" id="Shape" fill="#DB5C45" fill-rule="nonzero"></path>
                    <path d="M409.343914,145.38409 C408.093053,145.106905 404.68907,146.112982 407.293322,150.065425 C409.672008,153.740684 415.711002,151.728531 415.711002,151.728531 C415.711002,151.728531 412.82992,146.154046 409.343914,145.38409 Z" id="Shape" fill="#C64938" fill-rule="nonzero"></path>
                    <path d="M410.082127,155.896562 C409.968876,155.896562 409.877068,155.804636 409.877068,155.69124 L409.877068,153.545628 C409.877068,153.432232 409.968876,153.340306 410.082127,153.340306 C410.195378,153.340306 410.287186,153.432232 410.287186,153.545628 L410.287186,155.69124 C410.287186,155.745695 410.265582,155.797919 410.227125,155.836424 C410.188669,155.87493 410.136512,155.896562 410.082127,155.896562 Z" id="Shape" fill="#F7B935" fill-rule="nonzero"></path>
                    <path d="M399.255001,144.901584 C399.255001,146.540157 397.928374,147.868483 396.291896,147.868483 C394.655418,147.868483 393.328791,146.540157 393.328791,144.901584 C393.328791,143.263011 394.655418,141.934685 396.291896,141.934685 C397.928374,141.934685 399.255001,143.263011 399.255001,144.901584 Z" id="Shape" fill="#4F9EB6" fill-rule="nonzero"></path>
                    <path d="M393.185249,147.50917 C394.49565,150.216586 394.800949,153.302594 394.046498,156.21481 C394.046498,156.21481 388.8585,150.979107 392.744372,147.427041 C392.808708,147.365797 392.898475,147.339161 392.985749,147.355419 C393.073023,147.371677 393.147216,147.428856 393.185249,147.50917 Z" id="Shape" fill="#0C2C44" fill-rule="nonzero"></path>
                    <path d="M399.28576,147.468105 C397.97433,150.171573 397.668951,153.254759 398.424512,156.16348 C398.424512,156.16348 403.612509,150.927776 399.726637,147.37571 C399.660875,147.315113 399.569941,147.290032 399.482464,147.308365 C399.394988,147.326697 399.321732,147.386187 399.28576,147.468105 Z" id="Shape" fill="#0C2C44" fill-rule="nonzero"></path>
                    <path d="M400.280297,149.120945 C400.280297,153.227379 396.291896,157.939513 396.291896,157.939513 C396.291896,157.939513 392.303495,153.596958 392.303495,149.120945 C392.303495,147.478371 394.651422,146.154046 396.291896,146.154046 C397.932369,146.154046 400.280297,147.478371 400.280297,149.120945 Z" id="Shape" fill="#4F9EB6" fill-rule="nonzero"></path>
                    <polygon id="Shape" fill="#F7B935" fill-rule="nonzero" points="398.516788 145.230098 397.942622 146.410698 399.716384 146.56469"></polygon>
                    <polygon id="Shape" fill="#575355" fill-rule="nonzero" points="207.452884 161.522377 207.452884 305.832744 203.587519 305.832744 203.587519 303.101966 159.233215 303.101966 159.233215 305.832744 155.367849 305.832744 155.367849 161.522377"></polygon>
                    <polygon id="Shape" fill="#494748" fill-rule="nonzero" points="207.452884 158.370688 207.452884 305.832744 203.587519 305.832744 203.587519 303.101966 181.082272 303.101966 181.082272 158.370688"></polygon>
                    <path d="M427.204569,161.522377 L145.432731,161.522377 C144.592604,161.530597 143.78406,161.202178 143.18709,160.610228 C142.59012,160.018279 142.254274,159.211932 142.254314,158.370688 C142.254314,156.630059 143.663569,155.219 145.401972,155.219 L427.204569,155.219 C428.940637,155.224635 430.346601,156.632398 430.352228,158.370688 C430.346601,160.108978 428.940637,161.516742 427.204569,161.522377 Z" id="Shape" fill="#3A3A3A" fill-rule="nonzero"></path>
                    <path d="M361.985493,161.522377 L163.877806,161.522377 C162.141738,161.516742 160.735775,160.108978 160.730147,158.370688 C160.735775,156.632398 162.141738,155.224635 163.877806,155.219 L361.985493,155.219 C363.72156,155.224635 365.127524,156.632398 365.133151,158.370688 C365.127524,160.108978 363.72156,161.516742 361.985493,161.522377 Z" id="Shape" fill="#515151" fill-rule="nonzero"></path>
                    <path d="M412.317272,159.900335 L369.511165,159.900335 C369.094282,159.90309 368.693675,159.73849 368.398888,159.443325 C368.1041,159.14816 367.939711,158.747041 367.942462,158.329624 C367.939711,157.912207 368.1041,157.511087 368.398888,157.215923 C368.693675,156.920758 369.094282,156.756157 369.511165,156.758913 L412.317272,156.758913 C412.735091,156.756178 413.136736,156.920456 413.433146,157.215318 C413.729556,157.51018 413.896237,157.911261 413.896228,158.329624 C413.896237,158.747987 413.729556,159.149067 413.433146,159.44393 C413.136736,159.738792 412.735091,159.903069 412.317272,159.900335 Z" id="Shape" fill="#4F4F4F" fill-rule="nonzero"></path>
                    <polygon id="Rectangle-path" fill="#575355" fill-rule="nonzero" points="411.045905 161.522377 419.279032 161.522377 419.279032 305.832744 411.045905 305.832744"></polygon>
                    <polygon id="Rectangle-path" fill="#424041" fill-rule="nonzero" points="415.157342 161.522377 419.268779 161.522377 419.268779 305.832744 415.157342 305.832744"></polygon>
                    <polygon id="Rectangle-path" fill="#575355" fill-rule="nonzero" points="207.452884 166.450098 411.045905 166.450098 411.045905 168.955023 207.452884 168.955023"></polygon>
                    <polygon id="Rectangle-path" fill="#424041" fill-rule="nonzero" points="207.452884 167.70256 411.045905 167.70256 411.045905 168.955023 207.452884 168.955023"></polygon>
                    <polygon id="Rectangle-path" fill="#575355" fill-rule="nonzero" points="207.452884 166.450098 411.045905 166.450098 411.045905 168.955023 207.452884 168.955023"></polygon>
                    <polygon id="Rectangle-path" fill="#424041" fill-rule="nonzero" points="207.452884 167.70256 411.045905 167.70256 411.045905 168.955023 207.452884 168.955023"></polygon>
                    <polygon id="Rectangle-path" fill="#575355" fill-rule="nonzero" points="207.452884 172.743208 411.045905 172.743208 411.045905 175.248133 207.452884 175.248133"></polygon>
                    <polygon id="Rectangle-path" fill="#FFFFFF" fill-rule="nonzero" points="207.452884 270.250491 411.045905 270.250491 411.045905 278.309368 207.452884 278.309368"></polygon>
                    <polygon id="Rectangle-path" fill="#575355" fill-rule="nonzero" points="207.452884 270.250491 411.045905 270.250491 411.045905 274.285063 207.452884 274.285063"></polygon>
                    <polygon id="Rectangle-path" fill="#FFFFFF" fill-rule="nonzero" points="273.143597 274.285063 277.357564 274.285063 277.357564 305.832744 273.143597 305.832744"></polygon>
                    <polygon id="Rectangle-path" fill="#FFFFFF" fill-rule="nonzero" points="343.96079 274.285063 348.174756 274.285063 348.174756 305.832744 343.96079 305.832744"></polygon>
                    <path d="M161.930609,182.834771 L200.890125,182.834771 C202.379854,182.834771 203.587519,184.042435 203.587519,185.532165 L203.587519,233.521023 C203.587519,235.010752 202.379854,236.218417 200.890125,236.218417 L161.930609,236.218417 C160.44088,236.218417 159.233215,235.010752 159.233215,233.521023 L159.233215,185.532165 C159.233215,184.042435 160.44088,182.834771 161.930609,182.834771 Z" id="Rectangle-path" fill="#EDEDED" fill-rule="nonzero"></path>
                    <path d="M202.685258,241.525983 L160.135476,241.525983 C159.895341,241.528763 159.664231,241.434475 159.494418,241.264445 C159.324606,241.094416 159.230439,240.86301 159.233215,240.622568 C159.233199,240.3839 159.328585,240.155154 159.498093,239.987358 C159.667601,239.819562 159.897129,239.726675 160.135476,239.729418 L202.685258,239.729418 C202.923605,239.726675 203.153133,239.819562 203.322641,239.987358 C203.492149,240.155154 203.587534,240.3839 203.587519,240.622568 C203.590295,240.86301 203.496128,241.094416 203.326315,241.264445 C203.156503,241.434475 202.925393,241.528763 202.685258,241.525983 Z" id="Shape" fill="#FFFFFF" fill-rule="nonzero"></path>
                    <path d="M202.685258,247.028605 L160.135476,247.028605 C159.637171,247.028605 159.233215,246.624132 159.233215,246.12519 C159.233199,245.886522 159.328585,245.657776 159.498093,245.48998 C159.667601,245.322184 159.897129,245.229297 160.135476,245.23204 L202.685258,245.23204 C202.923605,245.229297 203.153133,245.322184 203.322641,245.48998 C203.492149,245.657776 203.587534,245.886522 203.587519,246.12519 C203.587519,246.624132 203.183563,247.028605 202.685258,247.028605 Z" id="Shape" fill="#FFFFFF" fill-rule="nonzero"></path>
                    <path d="M202.685258,252.531227 L160.135476,252.531227 C159.637171,252.531227 159.233215,252.126754 159.233215,251.627812 C159.233199,251.389144 159.328585,251.160398 159.498093,250.992602 C159.667601,250.824806 159.897129,250.731919 160.135476,250.734662 L202.685258,250.734662 C202.923605,250.731919 203.153133,250.824806 203.322641,250.992602 C203.492149,251.160398 203.587534,251.389144 203.587519,251.627812 C203.587519,252.126754 203.183563,252.531227 202.685258,252.531227 Z" id="Shape" fill="#FFFFFF" fill-rule="nonzero"></path>
                    <g id="Group-2" transform="translate(160.709641, 184.538941)">
                        <mask id="mask-2" fill="white">
                            <use xlink:href="#path-1"></use>
                        </mask>
                        <use id="Mask" fill="#FFFFFF" fill-rule="nonzero" xlink:href="#path-1"></use>
                        <g id="Group" mask="url(#mask-2)" fill-rule="nonzero">
                            <g transform="translate(-27.682991, -22.585389)" id="Rectangle-path">
                                <polygon fill="#C9E94D" transform="translate(44.966910, 17.579332) rotate(34.280000) translate(-44.966910, -17.579332) " points="43.09418 8.37644304 46.8368914 8.37700217 46.8396406 26.78222 43.0969292 26.7816608"></polygon>
                                <polygon fill="#EFB259" transform="translate(50.965547, 21.680297) rotate(34.280000) translate(-50.965547, -21.680297) " points="48.2058449 12.4772764 53.722499 12.4781006 53.7252482 30.8833184 48.2085942 30.8824942"></polygon>
                                <polygon fill="#EFB259" transform="translate(36.676722, 11.914772) rotate(34.280000) translate(-36.676722, -11.914772) " points="30.4665475 2.71123509 42.8841462 2.71309017 42.8868955 21.118308 30.4692968 21.1164529"></polygon>
                                <polygon fill="#EFB259" transform="translate(57.013044, 25.797935) rotate(34.280000) translate(-57.013044, -25.797935) " points="54.2533423 16.5949136 59.7699963 16.5957378 59.7727456 35.0009556 54.2560915 35.0001314"></polygon>
                                <polygon fill="#EFB259" transform="translate(32.498081, 48.821463) rotate(34.280000) translate(-32.498081, -48.821463) " points="29.7364628 26.7871412 35.2531169 26.7879654 35.2596994 70.8557847 29.7430454 70.8549605"></polygon>
                                <polygon fill="#C9E94D" transform="translate(27.776864, 30.065203) rotate(34.280000) translate(-27.776864, -30.065203) " points="18.7160765 20.8612406 36.8349013 20.8639474 36.8376505 39.2691652 18.7188257 39.2664584"></polygon>
                                <polygon fill="#C9E94D" transform="translate(14.737488, 49.211606) rotate(34.280000) translate(-14.737488, -49.211606) " points="5.67632867 37.5183716 23.7951535 37.5210784 23.7986464 60.9048409 5.67982158 60.9021341"></polygon>
                                <polygon fill="#EFB259" transform="translate(45.758906, 42.333788) rotate(34.280000) translate(-45.758906, -42.333788) " points="42.9992045 33.1307672 48.5158586 33.1315914 48.5186078 51.5368092 43.0019537 51.535985"></polygon>
                                <polygon fill="#EFB259" transform="translate(37.670405, 54.212080) rotate(34.280000) translate(-37.670405, -54.212080) " points="34.9115471 50.6599635 40.4282012 50.6607876 40.4292623 57.7641957 34.9126082 57.7633716"></polygon>
                                <polygon fill="#EFB259" transform="translate(32.823096, 61.315676) rotate(34.280000) translate(-32.823096, -61.315676) " points="30.0642382 57.7635603 35.5808923 57.7643845 35.5819534 64.8677926 30.0652993 64.8669684"></polygon>
                                <polygon fill="#EFB259" transform="translate(28.059193, 68.317566) rotate(34.280000) translate(-28.059193, -68.317566) " points="25.3003545 64.8937627 30.8170086 64.8945868 30.8180313 71.7413689 25.3013773 71.7405448"></polygon>
                                <polygon fill="#BCDD33" transform="translate(26.653079, 24.336432) rotate(34.280000) translate(-26.653079, -24.336432) " points="23.2841353 20.9638631 30.0210159 20.9648695 30.0220233 27.7090012 23.2851427 27.7079948"></polygon>
                                <polygon fill="#BCDD33" transform="translate(33.514545, 29.027890) rotate(34.280000) translate(-33.514545, -29.027890) " points="30.1456006 25.6553208 36.8824812 25.6563272 36.8834885 32.4004589 30.146608 32.3994525"></polygon>
                                <polygon fill="#BCDD33" transform="translate(22.039182, 31.102516) rotate(34.280000) translate(-22.039182, -31.102516) " points="18.6702385 27.7299469 25.407119 27.7309534 25.4081264 34.475085 18.6712459 34.4740786"></polygon>
                                <polygon fill="#BCDD33" transform="translate(28.900648, 35.793974) rotate(34.280000) translate(-28.900648, -35.793974) " points="25.5317037 32.4214046 32.2685843 32.422411 32.2695917 39.1665427 25.5327111 39.1655363"></polygon>
                                <polygon fill="#D3923D" transform="translate(37.247354, 16.152623) rotate(34.280000) translate(-37.247354, -16.152623) " points="35.0266251 11.2199396 39.4666088 11.2206029 39.4680823 21.0853069 35.0280987 21.0846436"></polygon>
                                <polygon fill="#D3923D" transform="translate(31.043384, 15.210423) rotate(34.280000) translate(-31.043384, -15.210423) " points="28.8230606 12.9877104 33.2630443 12.9883737 33.2637082 17.4331363 28.8237245 17.432473"></polygon>
                                <polygon fill="#D3923D" transform="translate(39.771089, 7.411597) rotate(34.280000) translate(-39.771089, -7.411597) " points="34.7205701 4.58282389 44.8207639 4.58433276 44.8216087 10.2403701 34.7214149 10.2388613"></polygon>
                                <polygon fill="#D3923D" transform="translate(34.102568, 10.731884) rotate(34.280000) translate(-34.102568, -10.731884) " points="31.8822439 8.50917078 36.3222275 8.50983407 36.3228915 12.9545967 31.8829078 12.9539334"></polygon>
                                <polygon fill="#C9E94D" transform="translate(74.772291, 37.904463) rotate(34.280000) translate(-74.772291, -37.904463) " points="72.8995602 28.7015746 76.6422716 28.7021337 76.6450209 47.1073515 72.9023095 47.1067924"></polygon>
                                <polygon fill="#EFB259" transform="translate(80.762455, 41.999647) rotate(34.280000) translate(-80.762455, -41.999647) " points="78.0027532 32.7966257 83.5194073 32.7974498 83.5221565 51.2026676 78.0055024 51.2018435"></polygon>
                                <polygon fill="#EFB259" transform="translate(66.466074, 32.248386) rotate(34.280000) translate(-66.466074, -32.248386) " points="60.2559 23.0448494 72.6734987 23.0467045 72.6762479 41.4519223 60.2586492 41.4500672"></polygon>
                                <polygon fill="#EFB259" transform="translate(86.802396, 46.131549) rotate(34.280000) translate(-86.802396, -46.131549) " points="84.0426947 36.928528 89.5593488 36.9293521 89.562098 55.3345699 84.0454439 55.3337458"></polygon>
                                <polygon fill="#EFB259" transform="translate(69.498064, 58.545766) rotate(34.280000) translate(-69.498064, -58.545766) " points="66.7383625 49.3427454 72.2550165 49.3435695 72.2577658 67.7487873 66.7411117 67.7479632"></polygon>
                                <polygon fill="#C9E94D" transform="translate(50.344416, 61.008613) rotate(34.280000) translate(-50.344416, -61.008613) " points="41.2817126 38.97335 59.4005374 38.9760568 59.40712 83.0438761 41.2882952 83.0411693"></polygon>
                                <polygon fill="#EFB259" transform="translate(75.539787, 62.671886) rotate(34.280000) translate(-75.539787, -62.671886) " points="72.780085 53.4688654 78.296739 53.4696896 78.2994883 71.8749074 72.7828342 71.8740832"></polygon>
                                <polygon fill="#BCDD33" transform="translate(56.433960, 44.674530) rotate(34.280000) translate(-56.433960, -44.674530) " points="53.0650158 41.3019613 59.8018963 41.3029677 59.8029037 48.0470994 53.0660232 48.046093"></polygon>
                                <polygon fill="#BCDD33" transform="translate(63.301200, 49.357505) rotate(34.280000) translate(-63.301200, -49.357505) " points="59.9322559 45.9849361 66.6691365 45.9859426 66.6701439 52.7300743 59.9332633 52.7290678"></polygon>
                                <polygon fill="#BCDD33" transform="translate(51.828535, 51.446396) rotate(34.280000) translate(-51.828535, -51.446396) " points="48.4595909 48.0738274 55.1964714 48.0748338 55.1974788 54.8189655 48.4605983 54.817959"></polygon>
                                <polygon fill="#BCDD33" transform="translate(58.700253, 56.127588) rotate(34.280000) translate(-58.700253, -56.127588) " points="55.3313091 52.755019 62.0681897 52.7560254 62.0691971 59.5001571 55.3323165 59.4991506"></polygon>
                                <polygon fill="#BCDD33" transform="translate(46.991479, 58.549993) rotate(34.280000) translate(-46.991479, -58.549993) " points="43.622535 55.1774242 50.3594155 55.1784307 50.3604229 61.9225623 43.6235424 61.9215559"></polygon>
                                <polygon fill="#BCDD33" transform="translate(53.863197, 63.231185) rotate(34.280000) translate(-53.863197, -63.231185) " points="50.4942532 59.8586158 57.2311337 59.8596223 57.2321411 66.6037539 50.4952606 66.6027475"></polygon>
                                <polygon fill="#BCDD33" transform="translate(42.148648, 65.662073) rotate(34.280000) translate(-42.148648, -65.662073) " points="38.7797042 62.2895039 45.5165847 62.2905103 45.5175921 69.034642 38.7807116 69.0336356"></polygon>
                                <polygon fill="#BCDD33" transform="translate(49.020366, 70.353531) rotate(34.280000) translate(-49.020366, -70.353531) " points="45.6514224 66.9809616 52.3883029 66.981968 52.3893103 73.7260997 45.6524298 73.7250933"></polygon>
                                <polygon fill="#BCDD33" transform="translate(37.311592, 72.765670) rotate(34.280000) translate(-37.311592, -72.765670) " points="33.9426482 69.3931008 40.6795288 69.3941072 40.6805362 76.1382389 33.9436556 76.1372324"></polygon>
                                <polygon fill="#BCDD33" transform="translate(44.183310, 77.457127) rotate(34.280000) translate(-44.183310, -77.457127) " points="40.8143665 74.0845584 47.551247 74.0855649 47.5522544 80.8296965 40.8153739 80.8286901"></polygon>
                                <polygon fill="#D3923D" transform="translate(67.034009, 36.482239) rotate(34.280000) translate(-67.034009, -36.482239) " points="64.8132805 31.549555 69.2532641 31.5502183 69.2547377 41.4149223 64.814754 41.414259"></polygon>
                                <polygon fill="#D3923D" transform="translate(60.830040, 35.540039) rotate(34.280000) translate(-60.830040, -35.540039) " points="58.6097159 33.3173258 63.0496996 33.3179891 63.0503635 37.7627516 58.6103798 37.7620883"></polygon>
                                <polygon fill="#D3923D" transform="translate(69.570695, 27.745211) rotate(34.280000) translate(-69.570695, -27.745211) " points="64.5201755 24.9164382 74.6203693 24.9179471 74.6212141 30.5739845 64.5210203 30.5724756"></polygon>
                                <polygon fill="#D3923D" transform="translate(63.878970, 31.051233) rotate(34.280000) translate(-63.878970, -31.051233) " points="61.6586462 28.8285201 66.0986299 28.8291834 66.0992938 33.2739459 61.6593102 33.2732826"></polygon>
                                <polygon fill="#EFB259" transform="translate(59.556290, 79.675162) rotate(34.280000) translate(-59.556290, -79.675162) " points="53.1458042 68.0695764 65.9633091 68.0714912 65.9667759 91.280748 53.1492711 91.2788332"></polygon>
                                <polygon fill="#D3923D" transform="translate(58.949731, 85.781714) rotate(34.280000) translate(-58.949731, -85.781714) " points="56.6623275 80.6899119 61.2356132 80.6905951 61.2371343 90.8735154 56.6638485 90.8728322"></polygon>
                                <polygon fill="#D3923D" transform="translate(52.556629, 84.798381) rotate(34.280000) translate(-52.556629, -84.798381) " points="50.2696439 82.5089349 54.8429297 82.5096182 54.8436135 87.0878263 50.2703278 87.0871431"></polygon>
                                <polygon fill="#D3923D" transform="translate(62.660427, 75.140272) rotate(34.280000) translate(-62.660427, -75.140272) " points="57.4506651 70.2687322 67.8687331 70.2702886 67.8701882 80.0118121 57.4521203 80.0102557"></polygon>
                                <polygon fill="#D3923D" transform="translate(55.701137, 80.170993) rotate(34.280000) translate(-55.701137, -80.170993) " points="53.4141522 77.8815474 57.9874379 77.8822307 57.9881217 82.4604388 53.414836 82.4597556"></polygon>
                            </g>
                        </g>
                    </g>
                    <path d="M179.082945,210.563468 C179.08903,207.686977 176.912022,205.276366 174.053089,204.993884 C171.194155,204.711401 168.588568,206.649459 168.033021,209.47166 C167.477474,212.29386 169.153711,215.076949 171.905873,215.901833 L173.515588,218.694208 L175.125303,215.901833 C177.475904,215.190961 179.083815,213.02209 179.082945,210.563468 Z" id="Shape" fill="#F26B0F" fill-rule="nonzero"></path>
                    <ellipse id="Oval" fill="#FFFFFF" fill-rule="nonzero" cx="173.505335" cy="210.563468" rx="2.79905799" ry="2.80264142"></ellipse>
                    <polygon id="Rectangle-path" fill="#FFFFFF" fill-rule="nonzero" style="mix-blend-mode: soft-light;" points="214.896595 173.831413 411.68165 173.831413 411.68165 264.788934 214.896595 264.788934"></polygon>
                    <polygon id="Shape" fill="#FFFFFF" fill-rule="nonzero" opacity="0.7" points="327.648331 264.788934 299.278391 264.788934 261.393705 173.831413 289.763645 173.831413"></polygon>
                    <polyline id="Shape" fill="#FFFFFF" fill-rule="nonzero" opacity="0.4" points="286.800539 264.788934 280.39244 264.788934 242.507754 173.831413 248.926106 173.831413"></polyline>
                    <polygon id="Shape" fill="#FFFFFF" fill-rule="nonzero" opacity="0.5" points="344.30939 264.788934 333.88213 264.788934 295.997444 173.831413 306.434957 173.831413"></polygon>
                    <polygon id="Rectangle-path" fill="#232323" fill-rule="nonzero" points="411.045905 161.522377 419.279032 161.522377 419.279032 164.314752 411.045905 164.314752"></polygon>
                    <polygon id="Rectangle-path" fill="#232323" fill-rule="nonzero" points="155.367849 161.522377 207.452884 161.522377 207.452884 164.314752 155.367849 164.314752"></polygon>
                    <polygon id="Rectangle-path" fill="#424041" fill-rule="nonzero" points="207.452884 173.995671 411.045905 173.995671 411.045905 175.248133 207.452884 175.248133"></polygon>
                    <polygon id="Rectangle-path" fill="#575355" fill-rule="nonzero" points="207.452884 172.743208 411.045905 172.743208 411.045905 175.248133 207.452884 175.248133"></polygon>
                    <polygon id="Rectangle-path" fill="#424041" fill-rule="nonzero" points="207.452884 173.995671 411.045905 173.995671 411.045905 175.248133 207.452884 175.248133"></polygon>
                    <polygon id="Rectangle-path" fill="#575355" fill-rule="nonzero" points="207.452884 263.413278 411.045905 263.413278 411.045905 265.918203 207.452884 265.918203"></polygon>
                    <polygon id="Rectangle-path" fill="#424041" fill-rule="nonzero" points="207.452884 264.66574 411.045905 264.66574 411.045905 265.918203 207.452884 265.918203"></polygon>
                    <path d="M445.301043,138.782997 L445.301058,300.206929 L440.912753,300.206929 L440.912776,138.782997 C440.910049,138.198555 441.140011,137.637113 441.551787,137.222883 C441.963563,136.808653 442.523209,136.575782 443.10691,136.575788 C443.688848,136.574105 444.246923,136.807242 444.655107,137.222552 C445.070473,137.635073 445.303168,138.197215 445.301043,138.782997 Z" id="Shape" fill="#7A7779" fill-rule="nonzero"></path>
                    <path d="M445.301043,138.782997 L445.301058,300.206929 L443.10691,300.206929 L443.10691,136.57577 C443.688848,136.574105 444.246923,136.807242 444.655107,137.222552 C445.070473,137.635073 445.303168,138.197215 445.301043,138.782997 Z" id="Shape" fill="#424041" fill-rule="nonzero"></path>
                    <path d="M451.811673,305.832744 L434.381641,305.832744 C434.381636,302.729697 436.890936,300.212592 439.99001,300.206929 L446.141786,300.206929 C447.6408,300.193234 449.083123,300.779901 450.147933,301.836434 C451.212743,302.892967 451.811735,304.331749 451.811673,305.832744 Z" id="Shape" fill="#575355" fill-rule="nonzero"></path>
                    <path d="M451.811673,305.832744 L436.97564,305.832744 C436.975635,302.729697 439.484935,300.212592 442.584009,300.206929 L446.193051,300.206929 C449.29613,300.206929 451.811673,302.725693 451.811673,305.832744 Z" id="Shape" fill="#444143" fill-rule="nonzero"></path>
                    <path d="M455.022768,149.120945 L494.790161,149.120945 C498.092489,149.120945 500.769555,151.798011 500.769555,155.100339 L500.769555,202.900436 C500.769555,206.202764 498.092489,208.87983 494.790161,208.87983 L455.022768,208.87983 C451.72044,208.87983 449.043374,206.202764 449.043374,202.900436 L449.043374,155.100339 C449.043374,151.798011 451.72044,149.120945 455.022768,149.120945 Z" id="Rectangle-path" fill="#FFFFFF" fill-rule="nonzero"></path>
                    <path d="M451.422824,219.340972 L498.390105,219.340972 C499.704239,219.340972 500.769555,220.406288 500.769555,221.720422 L500.769555,234.48573 C500.769555,235.799864 499.704239,236.86518 498.390105,236.86518 L451.422824,236.86518 C450.10869,236.86518 449.043374,235.799864 449.043374,234.48573 L449.043374,221.720422 C449.043374,220.406288 450.10869,219.340972 451.422824,219.340972 Z" id="Rectangle-path" fill="#FFFFFF" fill-rule="nonzero"></path>
                    <path d="M454.509179,151.697733 L495.293497,151.697733 C496.975815,151.697733 498.339604,153.061521 498.339604,154.743839 L498.339604,203.380129 C498.339604,205.062447 496.975815,206.426236 495.293497,206.426236 L454.509179,206.426236 C452.82686,206.426236 451.463072,205.062447 451.463072,203.380129 L451.463072,154.743839 C451.463072,153.061521 452.82686,151.697733 454.509179,151.697733 Z" id="Rectangle-path" fill="#8F1ABC" fill-rule="nonzero"></path>
                    <path d="M452.67331,221.466052 L497.129366,221.466052 C497.797762,221.466052 498.339604,222.007893 498.339604,222.676289 L498.339604,233.365605 C498.339604,234.034001 497.797762,234.575843 497.129366,234.575843 L452.67331,234.575843 C452.004914,234.575843 451.463072,234.034001 451.463072,233.365605 L451.463072,222.676289 C451.463072,222.007893 452.004914,221.466052 452.67331,221.466052 Z" id="Rectangle-path" fill="#8F1ABC" fill-rule="nonzero"></path>
                    <polygon id="Rectangle-path" fill="#575355" fill-rule="nonzero" points="445.301043 154.623567 449.043374 154.623567 449.043374 162.11781 445.301043 162.11781"></polygon>
                    <polygon id="Rectangle-path" fill="#575355" fill-rule="nonzero" points="445.301043 190.267417 449.043374 190.267417 449.043374 197.761659 445.301043 197.761659"></polygon>
                    <polygon id="Rectangle-path" fill="#575355" fill-rule="nonzero" points="445.301043 224.925722 449.043374 224.925722 449.043374 232.419965 445.301043 232.419965"></polygon>
                    <path d="M484.467349,165.423489 C483.65323,164.604516 482.545486,164.146063 481.391461,164.150495 L468.421467,164.150495 C466.014882,164.150495 464.063959,166.103915 464.063959,168.513581 L485.728531,168.513581 C485.734926,167.356672 485.281146,166.244781 484.467349,165.423489 Z M467.396171,167.199522 C466.914854,167.199522 466.52467,166.808838 466.52467,166.326905 C466.52467,165.844972 466.914854,165.454287 467.396171,165.454287 C467.877488,165.454287 468.267673,165.844972 468.267673,166.326905 C468.267673,166.558337 468.175854,166.780291 468.012416,166.943938 C467.848978,167.107586 467.627308,167.199522 467.396171,167.199522 Z M479.463905,167.363779 C479.463905,167.63593 479.243565,167.856552 478.971763,167.856552 L470.707877,167.856552 C470.576507,167.859381 470.44968,167.808374 470.356766,167.71534 C470.263852,167.622307 470.212909,167.495318 470.215735,167.363779 L470.215735,165.310562 C470.215706,165.180795 470.267881,165.056486 470.360483,164.965697 C470.453084,164.874909 470.578305,164.825295 470.707877,164.828056 L478.971763,164.828056 C479.239611,164.827998 479.458325,165.042429 479.463905,165.310562 L479.463905,167.363779 Z M482.273216,167.199522 C481.919823,167.203685 481.598909,166.993739 481.46078,166.668016 C481.322652,166.342293 481.394662,165.965293 481.643083,165.713593 C481.891503,165.461893 482.267142,165.385335 482.594061,165.519776 C482.920979,165.654217 483.13444,165.973035 483.134464,166.326905 C483.134498,166.804857 482.750524,167.193899 482.273216,167.199522 Z" id="Shape" fill="#FFFFFF" fill-rule="nonzero"></path>
                    <path d="M487.297166,170.238283 C486.730911,170.238283 486.27187,170.697912 486.27187,171.264892 L486.27187,172.291501 L485.728463,172.291501 L485.728463,168.934491 L464.063959,168.934491 L464.063959,172.342831 L463.551311,172.342831 L463.551311,171.316222 C463.551311,170.749242 463.092271,170.289614 462.526016,170.289614 C461.95976,170.289614 461.50072,170.749242 461.50072,171.316222 L461.50072,173.821147 C461.50072,174.388128 461.95976,174.847756 462.526016,174.847756 C463.092271,174.847756 463.551311,174.388128 463.551311,173.821147 L463.551311,172.794539 L464.063959,172.794539 L464.063959,184.087233 C464.114018,186.0525 465.719862,187.619406 467.683254,187.618767 L482.129674,187.618767 C484.128556,187.618767 485.748969,185.996279 485.748969,183.994838 L485.748969,172.702144 L486.251364,172.702144 L486.251364,173.728753 C486.251364,174.295733 486.710405,174.755361 487.27666,174.755361 C487.842916,174.755361 488.301956,174.295733 488.301956,173.728753 L488.301956,171.223828 C488.280346,170.680804 487.839826,170.248722 487.297166,170.238283 Z M475.29095,170.238283 C475.288193,170.108546 475.337743,169.983164 475.428416,169.890444 C475.519088,169.797724 475.643238,169.745482 475.772839,169.745511 L484.385326,169.745511 C484.657128,169.745511 484.877468,169.966133 484.877468,170.238283 L484.877468,175.935961 C484.877468,176.208112 484.657128,176.428733 484.385326,176.428733 L475.772839,176.428733 C475.643238,176.428763 475.519088,176.37652 475.428416,176.2838 C475.337743,176.19108 475.288193,176.065699 475.29095,175.935961 L475.29095,170.238283 Z M464.894449,170.238283 C464.894449,169.966133 465.114789,169.745511 465.386591,169.745511 L473.999077,169.745511 C474.130448,169.742682 474.257275,169.793689 474.350189,169.886722 C474.443103,169.979756 474.494046,170.106745 474.491219,170.238283 L474.491219,175.935961 C474.494046,176.067499 474.443103,176.194489 474.350189,176.287522 C474.257275,176.380555 474.130448,176.431563 473.999077,176.428733 L465.386591,176.428733 C465.256067,176.428733 465.130889,176.376816 465.038594,176.284404 C464.9463,176.191991 464.894449,176.066652 464.894449,175.935961 L464.894449,170.238283 Z M467.396171,185.103576 C466.626064,185.103576 466.001769,184.478481 466.001769,183.707388 C466.001769,182.936295 466.626064,182.3112 467.396171,182.3112 C468.166279,182.3112 468.790574,182.936295 468.790574,183.707388 C468.779365,184.470451 468.158341,185.083126 467.396171,185.083043 L467.396171,185.103576 Z M478.479621,183.317277 L471.302549,183.317277 C471.06066,183.282042 470.881256,183.074386 470.881256,182.829638 C470.881256,182.58489 471.06066,182.377233 471.302549,182.341999 L478.479621,182.341999 C478.670484,182.314197 478.859974,182.400591 478.964339,182.562995 C479.068703,182.725399 479.068703,182.933876 478.964339,183.09628 C478.859974,183.258684 478.670484,183.345078 478.479621,183.317277 Z M482.273216,185.103576 C481.748382,185.148762 481.242913,184.893951 480.966594,184.444896 C480.690274,183.995841 480.690274,183.429201 480.966594,182.980146 C481.242913,182.531091 481.748382,182.27628 482.273216,182.321466 C482.994357,182.383554 483.548159,182.987792 483.548159,183.712521 C483.548159,184.43725 482.994357,185.041488 482.273216,185.103576 Z M484.405831,181.684969 L465.396844,181.684969 C465.154955,181.649735 464.975552,181.442078 464.975552,181.19733 C464.975552,180.952582 465.154955,180.744925 465.396844,180.709691 L484.405831,180.709691 C484.596695,180.681889 484.786185,180.768283 484.890549,180.930687 C484.994914,181.093092 484.994914,181.301568 484.890549,181.463973 C484.786185,181.626377 484.596695,181.712771 484.405831,181.684969 Z M484.405831,180.042395 L465.396844,180.042395 C465.130704,180.042395 464.914955,179.82637 464.914955,179.559889 C464.914955,179.293409 465.130704,179.077383 465.396844,179.077383 L484.405831,179.077383 C484.671971,179.077383 484.887721,179.293409 484.887721,179.559889 C484.887721,179.82637 484.671971,180.042395 484.405831,180.042395 Z" id="Shape" fill="#FFFFFF" fill-rule="nonzero"></path>
                    <path d="M467.396171,187.885685 L471.292296,187.885685 L471.292296,188.819899 C471.292296,189.823454 470.479794,190.636996 469.477522,190.636996 L469.221198,190.636996 C468.218926,190.636996 467.406424,189.823454 467.406424,188.819899 L467.406424,187.885685 L467.396171,187.885685 Z" id="Shape" fill="#FFFFFF" fill-rule="nonzero"></path>
                    <path d="M478.377091,187.885685 L482.273216,187.885685 L482.273216,188.819899 C482.273216,189.823454 481.460714,190.636996 480.458442,190.636996 L480.202118,190.636996 C479.199846,190.636996 478.387344,189.823454 478.387344,188.819899 L478.387344,187.885685 L478.377091,187.885685 Z" id="Shape" fill="#FFFFFF" fill-rule="nonzero"></path>
                    <path d="M492.731235,197.956715 L457.081694,197.956715 C456.611702,197.956715 456.230698,197.575224 456.230698,197.10463 C456.236313,196.63805 456.615677,196.262777 457.081694,196.262811 L492.731235,196.262811 C493.195564,196.262811 493.571977,196.639706 493.571977,197.10463 C493.572011,197.571243 493.197218,197.951093 492.731235,197.956715 Z" id="Shape" fill="#FFFFFF" fill-rule="nonzero" opacity="0.6"></path>
                    <path d="M492.731235,201.149468 L457.081694,201.149468 C456.615677,201.149502 456.236313,200.774228 456.230698,200.307649 C456.230698,199.837055 456.611702,199.455564 457.081694,199.455564 L492.731235,199.455564 C493.197218,199.461185 493.572011,199.841035 493.571977,200.307649 C493.571977,200.530913 493.483399,200.745033 493.32573,200.902905 C493.16806,201.060776 492.954214,201.149468 492.731235,201.149468 Z" id="Shape" fill="#FFFFFF" fill-rule="nonzero" opacity="0.6"></path>
                    <path d="M467.652495,227.338253 L457.081694,227.338253 C456.611702,227.338253 456.230698,226.956761 456.230698,226.486167 C456.236313,226.019588 456.615677,225.644315 457.081694,225.644348 L467.652495,225.644348 C468.118512,225.644315 468.497876,226.019588 468.503491,226.486167 C468.503491,226.956761 468.122487,227.338253 467.652495,227.338253 Z" id="Shape" fill="#FFFFFF" fill-rule="nonzero" opacity="0.6"></path>
                    <path d="M492.731235,227.338253 L470.349024,227.338253 C469.883041,227.332631 469.508247,226.952781 469.508281,226.486167 C469.497048,226.255877 469.580642,226.031052 469.739546,225.864184 C469.898449,225.697316 470.118754,225.60301 470.349024,225.603284 L492.710729,225.603284 C493.175058,225.603284 493.551472,225.980179 493.551472,226.445103 C493.562586,226.672866 493.482061,226.895586 493.327907,227.063442 C493.173754,227.231298 492.958838,227.330282 492.731235,227.338253 Z" id="Shape" fill="#FFFFFF" fill-rule="nonzero" opacity="0.6"></path>
                    <path d="M492.731235,230.541271 L457.081694,230.541271 C456.611702,230.541271 456.230698,230.15978 456.230698,229.689186 C456.230682,229.464132 456.320666,229.248441 456.48056,229.090271 C456.640454,228.932101 456.856944,228.844623 457.081694,228.847367 L492.731235,228.847367 C493.195564,228.847367 493.571977,229.224262 493.571977,229.689186 C493.572011,230.1558 493.197218,230.535649 492.731235,230.541271 Z" id="Shape" fill="#FFFFFF" fill-rule="nonzero" opacity="0.6"></path>
                    <rect id="Rectangle-2" fill="#8E8C90" fill-rule="nonzero" x="93.5699615" y="312.8" width="432.661104" height="33.6" rx="16.8"></rect>
                    <path d="M507.341702,312.526232 L507.341702,312.865013 C507.341702,317.820421 503.329687,321.837572 498.380616,321.837572 L120.374498,321.837572 C115.425426,321.837572 111.413411,317.820421 111.413411,312.865013 L111.413411,312.536499 C111.751121,312.469591 112.094453,312.435214 112.438707,312.433838 L506.234383,312.433838 C506.605682,312.426379 506.976757,312.457342 507.341702,312.526232 Z" id="Shape" fill="#575355" fill-rule="nonzero"></path>
                    <path d="M497.734679,319.024665 L121.020434,319.024665 C117.379413,319.024665 114.427781,316.069255 114.427781,312.423572 C114.427781,308.777888 117.379413,305.822478 121.020434,305.822478 L497.734679,305.822478 C501.375701,305.822478 504.327332,308.777888 504.327332,312.423572 C504.327332,314.17429 503.632751,315.853304 502.396389,317.091249 C501.160026,318.329194 499.483159,319.024665 497.734679,319.024665 Z" id="Shape" fill="#7C797B" fill-rule="nonzero"></path>
                    <path d="M135.989756,333.931021 L133.180445,333.931021 C132.63362,333.931706 132.182489,333.502583 132.155149,332.955743 C132.155149,332.388763 132.614189,331.929135 133.180445,331.929135 L135.989756,331.929135 C136.556011,331.929135 137.015051,332.388763 137.015051,332.955743 C136.987711,333.502583 136.53658,333.931706 135.989756,333.931021 Z" id="Shape" fill="#6D6A6C" fill-rule="nonzero"></path>
                    <path d="M192.381034,340.244664 L189.581976,340.244664 C189.322807,340.24744 189.073444,340.145579 188.890174,339.962074 C188.706903,339.778568 188.605172,339.528887 188.607945,339.269386 C188.607261,338.721861 189.035835,338.270153 189.581976,338.242777 L192.381034,338.242777 C192.947289,338.242777 193.40633,338.702406 193.40633,339.269386 C193.409734,339.53814 193.301044,339.796139 193.106431,339.981258 C192.911818,340.166377 192.648917,340.261842 192.381034,340.244664 Z" id="Shape" fill="#6D6A6C" fill-rule="nonzero"></path>
                    <path d="M175.197073,327.678975 L172.387762,327.678975 C171.840938,327.67966 171.389807,327.250537 171.362466,326.703697 C171.362466,326.136717 171.821507,325.677088 172.387762,325.677088 L175.197073,325.677088 C175.763329,325.677088 176.222369,326.136717 176.222369,326.703697 C176.195028,327.250537 175.743898,327.67966 175.197073,327.678975 Z" id="Shape" fill="#6D6A6C" fill-rule="nonzero"></path>
                    <path d="M259.189319,328.654253 L256.380008,328.654253 C255.853099,328.628472 255.431725,328.206559 255.405977,327.678975 C255.431725,327.151391 255.853099,326.729478 256.380008,326.703697 L259.189319,326.703697 C259.716228,326.729478 260.137602,327.151391 260.16335,327.678975 C260.137602,328.206559 259.716228,328.628472 259.189319,328.654253 Z" id="Shape" fill="#6D6A6C" fill-rule="nonzero"></path>
                    <path d="M271.226294,339.197523 L268.427236,339.197523 C267.880411,339.198208 267.429281,338.769085 267.40194,338.222245 C267.429281,337.675405 267.880411,337.246282 268.427236,337.246967 L271.226294,337.246967 C271.494177,337.229789 271.757078,337.325254 271.951691,337.510373 C272.146304,337.695492 272.254994,337.953491 272.25159,338.222245 C272.224249,338.769085 271.773118,339.198208 271.226294,339.197523 Z" id="Shape" fill="#6D6A6C" fill-rule="nonzero"></path>
                    <path d="M361.606133,330.604809 L358.796822,330.604809 C358.269913,330.579028 357.848539,330.157115 357.822791,329.629531 C357.848539,329.101948 358.269913,328.680034 358.796822,328.654253 L361.606133,328.654253 C362.133042,328.680034 362.554416,329.101948 362.580165,329.629531 C362.554416,330.157115 362.133042,330.579028 361.606133,330.604809 Z" id="Shape" fill="#6D6A6C" fill-rule="nonzero"></path>
                    <path d="M427.286593,341.065951 L424.477282,341.065951 C423.931141,341.038575 423.502567,340.586867 423.503251,340.039342 C423.528999,339.511759 423.950373,339.089845 424.477282,339.064064 L427.286593,339.064064 C427.813502,339.089845 428.234876,339.511759 428.260624,340.039342 C428.27778,340.307568 428.182437,340.570806 427.997555,340.765668 C427.812673,340.96053 427.555003,341.06936 427.286593,341.065951 Z" id="Shape" fill="#6D6A6C" fill-rule="nonzero"></path>
                    <path d="M444.962696,337.575482 L442.153385,337.575482 C441.626476,337.549701 441.205102,337.127787 441.179353,336.600204 C441.205102,336.07262 441.626476,335.650707 442.153385,335.624925 L444.962696,335.624925 C445.489605,335.650707 445.910979,336.07262 445.936727,336.600204 C445.910979,337.127787 445.489605,337.549701 444.962696,337.575482 Z" id="Shape" fill="#6D6A6C" fill-rule="nonzero"></path>
                    <path d="M484.877468,324.70181 L482.07841,324.70181 C481.551501,324.676029 481.130127,324.254116 481.104378,323.726532 C481.101606,323.467031 481.203337,323.217349 481.386607,323.033844 C481.569878,322.850339 481.819241,322.748478 482.07841,322.751254 L484.877468,322.751254 C485.136637,322.748478 485.385999,322.850339 485.56927,323.033844 C485.75254,323.217349 485.854271,323.467031 485.851499,323.726532 C485.825751,324.254116 485.404377,324.676029 484.877468,324.70181 Z" id="Shape" fill="#6D6A6C" fill-rule="nonzero"></path>
                    <path d="M180.333806,312.433838 L214.681221,312.433838 C215.38904,312.433838 215.962841,313.008373 215.962841,313.717098 L215.962841,319.024665 L179.052186,319.024665 L179.052186,313.706832 C179.057817,313.002119 179.629972,312.433815 180.333806,312.433838 Z" id="Shape" fill="#575355" fill-rule="nonzero"></path>
                    <path d="M183.501971,319.024665 L182.056303,319.024665 L182.056303,313.994283 C182.056303,313.597397 182.377632,313.275657 182.774011,313.275657 C182.966129,313.272908 183.151325,313.347405 183.288147,313.482473 C183.424969,313.617541 183.50199,313.801899 183.501971,313.994283 L183.501971,319.024665 Z" id="Shape" fill="#C6C6C6" fill-rule="nonzero"></path>
                    <path d="M188.392632,319.024665 L186.946965,319.024665 L186.946965,313.994283 C186.946965,313.597397 187.268294,313.275657 187.664672,313.275657 C187.85679,313.272908 188.041987,313.347405 188.178809,313.482473 C188.315631,313.617541 188.392652,313.801899 188.392632,313.994283 L188.392632,319.024665 Z" id="Shape" fill="#C6C6C6" fill-rule="nonzero"></path>
                    <path d="M193.324306,319.024665 L191.878639,319.024665 L191.878639,313.994283 C191.878639,313.597397 192.199967,313.275657 192.596346,313.275657 C192.788464,313.272908 192.973661,313.347405 193.110483,313.482473 C193.247304,313.617541 193.324326,313.801899 193.324306,313.994283 L193.324306,319.024665 Z" id="Shape" fill="#C6C6C6" fill-rule="nonzero"></path>
                    <path d="M198.235474,319.024665 L196.779553,319.024665 L196.779553,313.994283 C196.779534,313.801899 196.856555,313.617541 196.993377,313.482473 C197.130199,313.347405 197.315396,313.272908 197.507514,313.275657 C197.699632,313.272908 197.884828,313.347405 198.02165,313.482473 C198.158472,313.617541 198.235493,313.801899 198.235474,313.994283 L198.235474,319.024665 Z" id="Shape" fill="#C6C6C6" fill-rule="nonzero"></path>
                    <path d="M203.0031,319.024665 L201.72148,319.024665 L201.72148,313.994283 C201.665256,313.816264 201.702303,313.621866 201.820044,313.477086 C201.937786,313.332305 202.120404,313.256594 202.305899,313.275657 C202.498017,313.272908 202.683213,313.347405 202.820035,313.482473 C202.956857,313.617541 203.033878,313.801899 203.033859,313.994283 L203.0031,319.024665 Z" id="Shape" fill="#C6C6C6" fill-rule="nonzero"></path>
                    <path d="M208.057809,319.024665 L206.458347,319.024665 L206.458347,313.994283 C206.458328,313.801899 206.535349,313.617541 206.672171,313.482473 C206.808993,313.347405 206.99419,313.272908 207.186308,313.275657 C207.594226,313.319065 207.937042,313.601745 208.057809,313.994283 L208.057809,319.024665 Z" id="Shape" fill="#C6C6C6" fill-rule="nonzero"></path>
                    <path d="M212.999736,319.024665 L211.543815,319.024665 L211.543815,313.994283 C211.543796,313.801899 211.620817,313.617541 211.757639,313.482473 C211.894461,313.347405 212.079658,313.272908 212.271776,313.275657 C212.463894,313.272908 212.64909,313.347405 212.785912,313.482473 C212.922734,313.617541 212.999755,313.801899 212.999736,313.994283 L212.999736,319.024665 Z" id="Shape" fill="#C6C6C6" fill-rule="nonzero"></path>
                    <path d="M309.213509,232.573956 L309.039209,232.019588" id="Shape"></path>
                    <path d="M309.992734,235.078881 L309.828687,234.534779" id="Shape"></path>
                    <path d="M310.771959,237.583806 L310.607912,237.039704" id="Shape"></path>
                    <path d="M311.551184,240.109263 L311.376884,239.554895" id="Shape"></path>
                    <path d="M313.109634,245.129379 L312.945587,244.575011" id="Shape"></path>
                    <path d="M314.678337,250.159761 L314.504037,249.605393" id="Shape"></path>
                    <path d="M315.447309,252.664686 L315.283261,252.120584" id="Shape"></path>
                    <path d="M316.236787,255.190143 L316.062486,254.635775" id="Shape"></path>
                    <path d="M317.016012,257.695068 L316.841711,257.150966" id="Shape"></path>
                    <path d="M332.959364,241.443854 L332.959364,240.920284" id="Shape"></path>
                    <path d="M332.959364,246.207318 L332.959364,245.694014" id="Shape"></path>
                    <path d="M332.959364,255.754778 L332.959364,255.241474" id="Shape"></path>
                    <path d="M332.959364,258.146776 L332.959364,257.623206" id="Shape"></path>
                    <path d="M496.914442,266.811352 L496.914442,305.822478 L489.583576,305.822478 L489.583576,303.625536 L463.397517,303.625536 L463.397517,305.812212 L456.066651,305.812212 L456.066651,266.801086 C456.066651,255.50684 465.21074,246.351043 476.490547,246.351043 C487.770353,246.351043 496.914442,255.50684 496.914442,266.801086 L496.914442,266.811352 Z" id="Shape" fill="#F26B0F" fill-rule="nonzero"></path>
                    <path d="M463.82903,266.03113 L489.152063,266.03113 C490.681443,266.03113 491.921251,267.270938 491.921251,268.800318 L491.921251,268.805628 C491.921251,270.335009 490.681443,271.574816 489.152063,271.574816 L463.82903,271.574816 C462.29965,271.574816 461.059842,270.335009 461.059842,268.805628 L461.059842,268.800318 C461.059842,267.270938 462.29965,266.03113 463.82903,266.03113 Z" id="Rectangle-path" fill="#C65509" fill-rule="nonzero"></path>
                    <path d="M489.091434,271.071778 L463.971683,271.071778 C463.368953,271.074509 462.789974,270.836681 462.362815,270.410901 C461.935655,269.985121 461.69552,269.40648 461.695526,268.802973 C461.692784,268.197688 461.931712,267.616402 462.35917,267.188396 C462.786628,266.760391 463.367172,266.521157 463.971683,266.523902 L489.091434,266.523902 C489.695945,266.521157 490.276488,266.760391 490.703946,267.188396 C491.131404,267.616402 491.370333,268.197688 491.367591,268.802973 C491.367597,269.40648 491.127462,269.985121 490.700302,270.410901 C490.273143,270.836681 489.694164,271.074509 489.091434,271.071778 Z" id="Shape" fill="#AA4A09" fill-rule="nonzero"></path>
                    <path d="M486.169341,280.013539 L466.8015,280.013539 C466.235244,280.013539 465.776204,279.55391 465.776204,278.98693 C465.776204,278.41995 466.235244,277.960322 466.8015,277.960322 L486.169341,277.960322 C486.450034,277.946251 486.724191,278.048167 486.927707,278.24224 C487.131222,278.436312 487.246253,278.705525 487.245901,278.98693 C487.246253,279.268335 487.131222,279.537548 486.927707,279.73162 C486.724191,279.925693 486.450034,280.027609 486.169341,280.013539 Z" id="Shape" fill="#C65509" fill-rule="nonzero"></path>
                    <path d="M486.169341,283.70933 L466.8015,283.70933 C466.520455,283.709682 466.251586,283.594504 466.057762,283.390728 C465.863937,283.186952 465.762151,282.912444 465.776204,282.631391 C465.776204,282.06441 466.235244,281.604782 466.8015,281.604782 L486.169341,281.604782 C486.450034,281.590712 486.724191,281.692628 486.927707,281.8867 C487.131222,282.080773 487.246253,282.349986 487.245901,282.631391 C487.260794,282.921593 487.152162,283.204521 486.94695,283.409996 C486.741738,283.61547 486.459172,283.724242 486.169341,283.70933 Z" id="Shape" fill="#C65509" fill-rule="nonzero"></path>
                    <path d="M486.169341,287.394854 L466.8015,287.394854 C466.520455,287.395206 466.251586,287.280029 466.057762,287.076253 C465.863937,286.872476 465.762151,286.597969 465.776204,286.316915 C465.776204,285.749935 466.235244,285.290307 466.8015,285.290307 L486.169341,285.290307 C486.450034,285.276236 486.724191,285.378153 486.927707,285.572225 C487.131222,285.766298 487.246253,286.03551 487.245901,286.316915 C487.260794,286.607118 487.152162,286.890046 486.94695,287.09552 C486.741738,287.300995 486.459172,287.409767 486.169341,287.394854 Z" id="Shape" fill="#C65509" fill-rule="nonzero"></path>
                    <path d="M481.545256,255.847173 L481.545256,256.288614 L476.5008,258.814072 L471.435837,256.237284 L471.435837,255.847173 C471.435837,255.501315 471.715852,255.220942 472.061268,255.220942 L480.940331,255.220942 C481.103494,255.223642 481.2589,255.291142 481.37235,255.408588 C481.4858,255.526034 481.547998,255.683802 481.545256,255.847173 Z" id="Shape" fill="#FFFFFF" fill-rule="nonzero"></path>
                    <path d="M476.5008,259.13232 L481.555509,256.617129 L481.555509,261.052078 C481.555509,261.392266 481.280084,261.668043 480.940331,261.668043 L472.061268,261.668043 C471.896344,261.670796 471.737224,261.607117 471.619629,261.491302 C471.502033,261.375486 471.435815,261.217237 471.435837,261.052078 L471.435837,256.555533 L476.5008,259.13232 Z" id="Shape" fill="#FFFFFF" fill-rule="nonzero"></path>
                    <path d="M466.114551,249.215281 C461.699956,253.195533 459.146475,258.841225 459.070768,264.788934 L459.070768,305.853277 L456.066637,305.853277 L456.066651,266.842151 C456.058085,259.598406 459.8811,252.891752 466.114551,249.215281 Z" id="Shape" fill="#F48337" fill-rule="nonzero"></path>
                    <path d="M486.897301,249.215281 C491.308097,253.197354 493.85775,258.842799 493.930831,264.788934 L493.930831,305.853277 L496.934971,305.853277 L496.934948,266.842151 C496.945653,259.600501 493.126811,252.894327 486.897301,249.215281 Z" id="Shape" fill="#DD600B" fill-rule="nonzero"></path>
                </g>
            </g>
        </g>
    </g>
</svg>