<?xml version="1.0" encoding="UTF-8" standalone="no"?>
<svg width="662px" height="400px" viewBox="0 0 662 400" version="1.1" xmlns="http://www.w3.org/2000/svg" xmlns:xlink="http://www.w3.org/1999/xlink">
    <!-- Generator: Sketch 3.8.3 (29802) - http://www.bohemiancoding.com/sketch -->
    <title>banner</title>
    <desc>Created with Sketch.</desc>
    <defs>
        <filter x="-50%" y="-50%" width="200%" height="200%" filterUnits="objectBoundingBox" id="filter-1">
            <feOffset dx="0" dy="4" in="SourceAlpha" result="shadowOffsetOuter1"></feOffset>
            <feColorMatrix values="0 0 0 0 0   0 0 0 0 0   0 0 0 0 0  0 0 0 0.1 0" type="matrix" in="shadowOffsetOuter1" result="shadowMatrixOuter1"></feColorMatrix>
            <feMerge>
                <feMergeNode in="shadowMatrixOuter1"></feMergeNode>
                <feMergeNode in="SourceGraphic"></feMergeNode>
            </feMerge>
        </filter>
        <path d="M0,4.00002553 C0,1.79087243 1.78927688,0 3.99856749,0 L348.001433,0 C350.20978,0 352,1.79642476 352,4.00002553 L352,35.9999745 C352,38.2091276 350.210723,40 348.001433,40 L3.99856749,40 C1.79021964,40 0,38.2035752 0,35.9999745 L0,4.00002553 Z M341,24 C343.209139,24 345,22.209139 345,20 C345,17.790861 343.209139,16 341,16 C338.790861,16 337,17.790861 337,20 C337,22.209139 338.790861,24 341,24 Z" id="path-2"></path>
        <filter x="-50%" y="-50%" width="200%" height="200%" filterUnits="objectBoundingBox" id="filter-4">
            <feOffset dx="0" dy="4" in="SourceAlpha" result="shadowOffsetOuter1"></feOffset>
            <feColorMatrix values="0 0 0 0 0   0 0 0 0 0   0 0 0 0 0  0 0 0 0.1 0" type="matrix" in="shadowOffsetOuter1" result="shadowMatrixOuter1"></feColorMatrix>
            <feMerge>
                <feMergeNode in="shadowMatrixOuter1"></feMergeNode>
                <feMergeNode in="SourceGraphic"></feMergeNode>
            </feMerge>
        </filter>
        <path d="M61.9022811,0.318799702 C56.2439515,0.886176821 52.9001865,1.30044682 52.9001865,1.30044682 C44.119018,2.20694359 39.8007335,9.5954181 43.2556133,17.7312784 L67.7443867,75.3996343 C71.2038196,83.5462165 81.1636666,90.1309125 90.0004971,90.1309125 L150.999507,90.1309125 C159.837646,90.1309125 169.800737,83.5354946 173.255616,75.3996343 L197.744385,17.7312784 C201.203817,9.58469617 196.881305,2.21338969 188.099954,1.24305646 C188.099954,1.24305646 185.413461,0.892821699 180.7247,0.396777513 C168.346079,7.44491649 146.396146,12.1309125 121.381687,12.1309125 C96.2750928,12.1309125 74.2556395,7.41033281 61.9022811,0.318799702 Z" id="path-5"></path>
        <mask id="mask-6" maskContentUnits="userSpaceOnUse" maskUnits="objectBoundingBox" x="0" y="0" width="156.872405" height="89.8121128" fill="white">
            <use xlink:href="#path-5"></use>
        </mask>
        <path d="M61.4094316,0.30464808 C44.4733918,1.72128812 31.851144,3.08437063 31.851144,3.08437063 C14.2657318,4.75086021 0,20.5027087 0,38.1744437 L0,291.990966 C0,299.737769 6.26377897,306 13.9905419,306 L228.009458,306 C235.728656,306 242,299.727942 242,291.990966 L242,38.1744437 C242,20.5118141 227.743396,4.77965 210.156983,3.05600917 C210.156983,3.05600917 197.587143,1.67728192 180.583593,0.255171357 C180.858576,2.19719779 181,4.17330432 181,6.17693697 C181,33.7911745 154.137085,56.176937 121,56.176937 C87.862915,56.176937 61,33.7911745 61,6.17693697 C61,4.1903172 61.1390326,2.2307581 61.4094316,0.30464808 Z" id="path-7"></path>
        <rect id="path-9" x="0" y="0" width="72" height="10" rx="2"></rect>
        <filter x="-50%" y="-50%" width="200%" height="200%" filterUnits="objectBoundingBox" id="filter-10">
            <feOffset dx="0" dy="2" in="SourceAlpha" result="shadowOffsetOuter1"></feOffset>
            <feColorMatrix values="0 0 0 0 0   0 0 0 0 0   0 0 0 0 0  0 0 0 0.1 0" type="matrix" in="shadowOffsetOuter1"></feColorMatrix>
        </filter>
        <rect id="path-11" x="0" y="0" width="142" height="200" rx="1"></rect>
        <filter x="-50%" y="-50%" width="200%" height="200%" filterUnits="objectBoundingBox" id="filter-12">
            <feOffset dx="0" dy="4" in="SourceAlpha" result="shadowOffsetOuter1"></feOffset>
            <feColorMatrix values="0 0 0 0 0   0 0 0 0 0   0 0 0 0 0  0 0 0 0.1 0" type="matrix" in="shadowOffsetOuter1"></feColorMatrix>
        </filter>
        <filter x="-50%" y="-50%" width="200%" height="200%" filterUnits="objectBoundingBox" id="filter-13">
            <feOffset dx="0" dy="4" in="SourceAlpha" result="shadowOffsetOuter1"></feOffset>
            <feColorMatrix values="0 0 0 0 0   0 0 0 0 0   0 0 0 0 0  0 0 0 0.1 0" type="matrix" in="shadowOffsetOuter1" result="shadowMatrixOuter1"></feColorMatrix>
            <feMerge>
                <feMergeNode in="shadowMatrixOuter1"></feMergeNode>
                <feMergeNode in="SourceGraphic"></feMergeNode>
            </feMerge>
        </filter>
        <rect id="path-14" x="0" y="2" width="160" height="250" rx="16"></rect>
        <filter x="-50%" y="-50%" width="200%" height="200%" filterUnits="objectBoundingBox" id="filter-16">
            <feOffset dx="0" dy="4" in="SourceAlpha" result="shadowOffsetOuter1"></feOffset>
            <feColorMatrix values="0 0 0 0 0   0 0 0 0 0   0 0 0 0 0  0 0 0 0.1 0" type="matrix" in="shadowOffsetOuter1" result="shadowMatrixOuter1"></feColorMatrix>
            <feMerge>
                <feMergeNode in="shadowMatrixOuter1"></feMergeNode>
                <feMergeNode in="SourceGraphic"></feMergeNode>
            </feMerge>
        </filter>
        <rect id="path-17" x="0" y="0" width="32" height="80" rx="6"></rect>
        <path d="M4.26325641e-14,21 L14,21 L14,199.008625 C14,202.31757 11.3172241,205 8.00181488,205 L5.99818512,205 C2.68547895,205 4.26325641e-14,202.310117 4.26325641e-14,199.008625 L4.26325641e-14,21 Z M5.83623454,1.82380069 C6.47896445,-0.288026115 7.52041887,-0.290052256 8.16376546,1.82380085 L14,21.0000003 L-1.42108547e-14,20.9999993 L5.83623454,1.82380069 Z" id="path-19"></path>
        <path d="M0,26.0008652 C0,14.9546924 8.7636727,4.14265255 19.5997552,2.04388744 C19.5997552,2.04388744 27,0 35,0 C43,0 50.4002448,2.04388744 50.4002448,2.04388744 C61.2248907,4.22878808 70,14.9459329 70,26.0008652 L70,105.999135 C70,117.045308 61.2363273,127.857347 50.4002448,129.956113 C50.4002448,129.956113 43,132 35,132 C27,132 19.5997552,129.956113 19.5997552,129.956113 C8.77510932,127.771212 0,117.054067 0,105.999135 L0,26.0008652 Z" id="path-21"></path>
        <filter x="-50%" y="-50%" width="200%" height="200%" filterUnits="objectBoundingBox" id="filter-22">
            <feOffset dx="0" dy="4" in="SourceAlpha" result="shadowOffsetOuter1"></feOffset>
            <feColorMatrix values="0 0 0 0 0   0 0 0 0 0   0 0 0 0 0  0 0 0 0.1 0" type="matrix" in="shadowOffsetOuter1"></feColorMatrix>
        </filter>
        <filter x="-50%" y="-50%" width="200%" height="200%" filterUnits="objectBoundingBox" id="filter-23">
            <feOffset dx="0" dy="-8" in="SourceAlpha" result="shadowOffsetInner1"></feOffset>
            <feComposite in="shadowOffsetInner1" in2="SourceAlpha" operator="arithmetic" k2="-1" k3="1" result="shadowInnerInner1"></feComposite>
            <feColorMatrix values="0 0 0 0 0.921568627   0 0 0 0 0.925490196   0 0 0 0 0.937254902  0 0 0 1 0" type="matrix" in="shadowInnerInner1"></feColorMatrix>
        </filter>
        <filter x="-50%" y="-50%" width="200%" height="200%" filterUnits="objectBoundingBox" id="filter-24">
            <feOffset dx="0" dy="4" in="SourceAlpha" result="shadowOffsetOuter1"></feOffset>
            <feColorMatrix values="0 0 0 0 0   0 0 0 0 0   0 0 0 0 0  0 0 0 0.1 0" type="matrix" in="shadowOffsetOuter1" result="shadowMatrixOuter1"></feColorMatrix>
            <feMerge>
                <feMergeNode in="shadowMatrixOuter1"></feMergeNode>
                <feMergeNode in="SourceGraphic"></feMergeNode>
            </feMerge>
        </filter>
        <path d="M353,92 L323.005323,92 C319.688675,92 317,94.6930342 317,98 L317,98 C317,101.313708 319.69118,104 322.995258,104 L355.996319,104 C357.655206,104 359,102.657566 359,101.007333 L359,101.076659 C359,99.4238548 357.656688,98.083992 355.997642,98.083992 L325,98.083992" id="path-25"></path>
        <filter x="-50%" y="-50%" width="200%" height="200%" filterUnits="objectBoundingBox" id="filter-26">
            <feMorphology radius="1.5" operator="dilate" in="SourceAlpha" result="shadowSpreadOuter1"></feMorphology>
            <feOffset dx="0" dy="3" in="shadowSpreadOuter1" result="shadowOffsetOuter1"></feOffset>
            <feMorphology radius="1.5" operator="erode" in="SourceAlpha" result="shadowInner"></feMorphology>
            <feOffset dx="0" dy="3" in="shadowInner" result="shadowInner"></feOffset>
            <feComposite in="shadowOffsetOuter1" in2="shadowInner" operator="out" result="shadowOffsetOuter1"></feComposite>
            <feColorMatrix values="0 0 0 0 0   0 0 0 0 0   0 0 0 0 0  0 0 0 0.1 0" type="matrix" in="shadowOffsetOuter1"></feColorMatrix>
        </filter>
    </defs>
    <g id="Page-1" stroke="none" stroke-width="1" fill="none" fill-rule="evenodd">
        <g id="banner">
            <g id="Ruler" filter="url(#filter-1)" transform="translate(268.000000, 20.000000)">
                <mask id="mask-3" fill="white">
                    <use xlink:href="#path-2"></use>
                </mask>
                <use id="Mask" fill="#FFD220" xlink:href="#path-2"></use>
                <rect id="Rectangle-94" fill="#FFBB0F" mask="url(#mask-3)" x="0" y="20" width="352" height="20"></rect>
                <g id="12-Inches" mask="url(#mask-3)" stroke-linecap="round" stroke="#FFFFFF" stroke-width="2">
                    <g transform="translate(4.000000, 0.000000)">
                        <path d="M1,0 L1,10" id="Medium-Line"></path>
                        <path d="M7,0 L7,6" id="Short-Line"></path>
                        <path d="M13,0 L13,10" id="Medium-Line"></path>
                        <path d="M19,0 L19,6" id="Short-Line"></path>
                        <path d="M25,0 L25,12" id="Medium-Long-Line"></path>
                        <path d="M31,0 L31,6" id="Short-Line"></path>
                        <path d="M37,0 L37,10" id="Medium-Line"></path>
                        <path d="M43,0 L43,6" id="Short-Line"></path>
                        <path d="M49,0 L49,10" id="Medium-Line"></path>
                        <path d="M55,0 L55,6" id="Short-Line"></path>
                        <path d="M61,0 L61,16" id="Long-Line"></path>
                    </g>
                </g>
                <g id="12-Inches" mask="url(#mask-3)" stroke-linecap="round" stroke="#FFFFFF" stroke-width="2">
                    <g transform="translate(70.000000, 0.000000)">
                        <path d="M1,0 L1,6" id="Short-Line"></path>
                        <path d="M7,0 L7,10" id="Medium-Line"></path>
                        <path d="M13,0 L13,6" id="Short-Line"></path>
                        <path d="M19,0 L19,10" id="Medium-Line"></path>
                        <path d="M25,0 L25,6" id="Short-Line"></path>
                        <path d="M31,0 L31,12" id="Medium-Long-Line"></path>
                        <path d="M37,0 L37,6" id="Short-Line"></path>
                        <path d="M43,0 L43,10" id="Medium-Line"></path>
                        <path d="M49,0 L49,6" id="Short-Line"></path>
                        <path d="M55,0 L55,10" id="Medium-Line"></path>
                        <path d="M61,0 L61,6" id="Short-Line"></path>
                        <path d="M67,0 L67,16" id="Long-Line"></path>
                    </g>
                </g>
                <g id="12-Inches" mask="url(#mask-3)" stroke-linecap="round" stroke="#FFFFFF" stroke-width="2">
                    <g transform="translate(142.000000, 0.000000)">
                        <path d="M1,0 L1,6" id="Short-Line"></path>
                        <path d="M7,0 L7,10" id="Medium-Line"></path>
                        <path d="M13,0 L13,6" id="Short-Line"></path>
                        <path d="M19,0 L19,10" id="Medium-Line"></path>
                        <path d="M25,0 L25,6" id="Short-Line"></path>
                        <path d="M31,0 L31,12" id="Medium-Long-Line"></path>
                        <path d="M37,0 L37,6" id="Short-Line"></path>
                        <path d="M43,0 L43,10" id="Medium-Line"></path>
                        <path d="M49,0 L49,6" id="Short-Line"></path>
                        <path d="M55,0 L55,10" id="Medium-Line"></path>
                        <path d="M61,0 L61,6" id="Short-Line"></path>
                        <path d="M67,0 L67,16" id="Long-Line"></path>
                    </g>
                </g>
                <g id="12-Inches" mask="url(#mask-3)" stroke-linecap="round" stroke="#FFFFFF" stroke-width="2">
                    <g transform="translate(214.000000, 0.000000)">
                        <path d="M1,0 L1,6" id="Short-Line"></path>
                        <path d="M7,0 L7,10" id="Medium-Line"></path>
                        <path d="M13,0 L13,6" id="Short-Line"></path>
                        <path d="M19,0 L19,10" id="Medium-Line"></path>
                        <path d="M25,0 L25,6" id="Short-Line"></path>
                        <path d="M31,0 L31,12" id="Medium-Long-Line"></path>
                        <path d="M37,0 L37,6" id="Short-Line"></path>
                        <path d="M43,0 L43,10" id="Medium-Line"></path>
                        <path d="M49,0 L49,6" id="Short-Line"></path>
                        <path d="M55,0 L55,10" id="Medium-Line"></path>
                        <path d="M61,0 L61,6" id="Short-Line"></path>
                        <path d="M67,0 L67,16" id="Long-Line"></path>
                    </g>
                </g>
                <g id="12-Inches" mask="url(#mask-3)" stroke-linecap="round" stroke="#FFFFFF" stroke-width="2">
                    <g transform="translate(286.000000, 0.000000)">
                        <path d="M1,0 L1,6" id="Short-Line"></path>
                        <path d="M7,0 L7,10" id="Medium-Line"></path>
                        <path d="M13,0 L13,6" id="Short-Line"></path>
                        <path d="M19,0 L19,10" id="Medium-Line"></path>
                        <path d="M25,0 L25,6" id="Short-Line"></path>
                        <path d="M31,0 L31,12" id="Medium-Long-Line"></path>
                        <path d="M37,0 L37,6" id="Short-Line"></path>
                        <path d="M43,0 L43,10" id="Medium-Line"></path>
                        <path d="M49,0 L49,6" id="Short-Line"></path>
                        <path d="M55,0 L55,10" id="Medium-Line"></path>
                        <path d="M61,0 L61,6" id="Short-Line"></path>
                    </g>
                </g>
            </g>
            <g id="T-Shirt" filter="url(#filter-4)" transform="translate(0.000000, 50.000000)">
                <use id="Rectangle-75-Copy" stroke="#E9EAF0" mask="url(#mask-6)" stroke-width="8" stroke-linecap="square" fill="#C5C8D7" xlink:href="#path-5"></use>
                <mask id="mask-8" fill="white">
                    <use xlink:href="#path-7"></use>
                </mask>
                <use id="Mask" fill="#E9EBF0" xlink:href="#path-7"></use>
                <g id="Gray-Flecks" mask="url(#mask-8)">
                    <g transform="translate(7.000000, 19.000000)">
                        <path d="M22.5,50.5 L25.3849956,53.3849956" id="Line" stroke="#C5C8D6" stroke-width="2" stroke-linecap="round" stroke-linejoin="round" fill="#E9EBF0"></path>
                        <path d="M102.5,130.5 L105.384996,133.384996" id="Line-Copy" stroke="#C5C8D6" stroke-width="2" stroke-linecap="round" stroke-linejoin="round" fill="#E9EBF0"></path>
                        <path d="M44.7999992,116 L45.8056423,119.92316" id="Line-Copy-5" stroke="#C5C8D6" stroke-width="2" stroke-linecap="round" stroke-linejoin="round" fill="#E9EBF0"></path>
                        <path d="M184.799999,186 L182.805642,189.92316" id="Line-Copy-11" stroke="#C5C8D6" stroke-width="2" stroke-linecap="round" stroke-linejoin="round" fill="#E9EBF0"></path>
                        <path d="M34.7999992,6 L32.8056423,9.9231599" id="Line-Copy-12" stroke="#C5C8D6" stroke-width="2" stroke-linecap="round" stroke-linejoin="round" fill="#E9EBF0"></path>
                        <path d="M14.7999992,269 L12.8056423,272.92316" id="Line-Copy-13" stroke="#C5C8D6" stroke-width="2" stroke-linecap="round" stroke-linejoin="round" fill="#E9EBF0"></path>
                        <path d="M64.7999992,226 L65.8056423,229.92316" id="Line-Copy-9" stroke="#C5C8D6" stroke-width="2" stroke-linecap="round" stroke-linejoin="round" fill="#E9EBF0"></path>
                        <path d="M227.799999,36 L228.805642,39.9231599" id="Line-Copy-6" stroke="#C5C8D6" stroke-width="2" stroke-linecap="round" stroke-linejoin="round" fill="#E9EBF0"></path>
                        <path d="M70.0000001,199 L67.7675267,203.044807" id="Line-Copy-2" stroke="#C5C8D6" stroke-width="2" stroke-linecap="round" stroke-linejoin="round" fill="#E9EBF0"></path>
                        <path d="M195,279 L197.767527,283.044807" id="Line-Copy-15" stroke="#C5C8D6" stroke-width="2" stroke-linecap="round" stroke-linejoin="round" fill="#E9EBF0"></path>
                        <path d="M180,59 L177.767527,63.0448067" id="Line-Copy-3" stroke="#C5C8D6" stroke-width="2" stroke-linecap="round" stroke-linejoin="round" fill="#E9EBF0"></path>
                        <path d="M150,249 L154.250935,250.5941" id="Line-Copy-4" stroke="#C5C8D6" stroke-width="2" stroke-linecap="round" stroke-linejoin="round" fill="#E9EBF0"></path>
                        <path d="M219,99 L223.250935,100.5941" id="Line-Copy-10" stroke="#C5C8D6" stroke-width="2" stroke-linecap="round" stroke-linejoin="round" fill="#E9EBF0"></path>
                        <path d="M1.1172483e-07,159 L4.25093454,160.5941" id="Line-Copy-7" stroke="#C5C8D6" stroke-width="2" stroke-linecap="round" stroke-linejoin="round" fill="#E9EBF0"></path>
                        <path d="M140,69 L144.250935,70.5941004" id="Line-Copy-14" stroke="#C5C8D6" stroke-width="2" stroke-linecap="round" stroke-linejoin="round" fill="#E9EBF0"></path>
                        <path d="M82.0000001,68 L85.3146054,69.242977" id="Line-Copy-8" stroke="#C5C8D6" stroke-width="2" stroke-linecap="round" stroke-linejoin="round" fill="#E9EBF0"></path>
                        <circle id="Oval-235" stroke="none" fill="#C5C8D6" cx="56.5" cy="90.5" r="1.5"></circle>
                        <circle id="Oval-235-Copy-11" stroke="none" fill="#C5C8D6" cx="76.5" cy="150.5" r="1.5"></circle>
                        <circle id="Oval-235-Copy-13" stroke="none" fill="#C5C8D6" cx="106.5" cy="90.5" r="1.5"></circle>
                        <circle id="Oval-235-Copy-12" stroke="none" fill="#C5C8D6" cx="106.5" cy="220.5" r="1.5"></circle>
                        <circle id="Oval-235-Copy-10" stroke="none" fill="#C5C8D6" cx="16.5" cy="1.5" r="1.5"></circle>
                        <circle id="Oval-235-Copy" stroke="none" fill="#C5C8D6" cx="146.5" cy="60.5" r="1.5"></circle>
                        <circle id="Oval-235-Copy-2" stroke="none" fill="#C5C8D6" cx="206.5" cy="20.5" r="1.5"></circle>
                        <circle id="Oval-235-Copy-3" stroke="none" fill="#C5C8D6" cx="226.5" cy="190.5" r="1.5"></circle>
                        <circle id="Oval-235-Copy-4" stroke="none" fill="#C5C8D6" cx="186.5" cy="240.5" r="1.5"></circle>
                        <circle id="Oval-235-Copy-5" stroke="none" fill="#C5C8D6" cx="116.5" cy="200.5" r="1.5"></circle>
                        <circle id="Oval-235-Copy-6" stroke="none" fill="#C5C8D6" cx="26.5" cy="180.5" r="1.5"></circle>
                        <circle id="Oval-235-Copy-7" stroke="none" fill="#C5C8D6" cx="6.5" cy="250.5" r="1.5"></circle>
                        <circle id="Oval-235-Copy-8" stroke="none" fill="#C5C8D6" cx="76.5" cy="280.5" r="1.5"></circle>
                        <circle id="Oval-235-Copy-9" stroke="none" fill="#C5C8D6" cx="6.5" cy="70.5" r="1.5"></circle>
                    </g>
                </g>
                <g id="White-Flecks" mask="url(#mask-8)">
                    <g transform="translate(7.000000, 28.000000)">
                        <path d="M172.5,81.5 L175.384996,84.3849956" id="Line" stroke="#FFFFFF" stroke-width="2" stroke-linecap="round" stroke-linejoin="round" fill="#E9EBF0"></path>
                        <path d="M0.5,213.5 L5.38499561,214.384996" id="Line-Copy-16" stroke="#FFFFFF" stroke-width="2" stroke-linecap="round" stroke-linejoin="round" fill="#E9EBF0"></path>
                        <path d="M32.5,191.5 L35.3849956,194.384996" id="Line-Copy" stroke="#FFFFFF" stroke-width="2" stroke-linecap="round" stroke-linejoin="round" fill="#E9EBF0"></path>
                        <path d="M134.799999,177 L135.805642,180.92316" id="Line-Copy-5" stroke="#FFFFFF" stroke-width="2" stroke-linecap="round" stroke-linejoin="round" fill="#E9EBF0"></path>
                        <path d="M64.7999992,97 L62.8056423,100.92316" id="Line-Copy-11" stroke="#FFFFFF" stroke-width="2" stroke-linecap="round" stroke-linejoin="round" fill="#E9EBF0"></path>
                        <path d="M54.7999992,137 L52.8056423,140.92316" id="Line-Copy-12" stroke="#FFFFFF" stroke-width="2" stroke-linecap="round" stroke-linejoin="round" fill="#E9EBF0"></path>
                        <path d="M54.7999992,250 L52.8056423,253.92316" id="Line-Copy-13" stroke="#FFFFFF" stroke-width="2" stroke-linecap="round" stroke-linejoin="round" fill="#E9EBF0"></path>
                        <path d="M114.799999,147 L115.805642,150.92316" id="Line-Copy-9" stroke="#FFFFFF" stroke-width="2" stroke-linecap="round" stroke-linejoin="round" fill="#E9EBF0"></path>
                        <path d="M37.7999992,27 L38.8056423,30.9231599" id="Line-Copy-6" stroke="#FFFFFF" stroke-width="2" stroke-linecap="round" stroke-linejoin="round" fill="#E9EBF0"></path>
                        <path d="M130,120 L127.767527,124.044807" id="Line-Copy-2" stroke="#FFFFFF" stroke-width="2" stroke-linecap="round" stroke-linejoin="round" fill="#E9EBF0"></path>
                        <path d="M170,260 L167.767527,264.044807" id="Line-Copy-3" stroke="#FFFFFF" stroke-width="2" stroke-linecap="round" stroke-linejoin="round" fill="#E9EBF0"></path>
                        <path d="M90.0000001,200 L94.2509345,201.5941" id="Line-Copy-4" stroke="#FFFFFF" stroke-width="2" stroke-linecap="round" stroke-linejoin="round" fill="#E9EBF0"></path>
                        <path d="M209,250 L213.250935,251.5941" id="Line-Copy-10" stroke="#FFFFFF" stroke-width="2" stroke-linecap="round" stroke-linejoin="round" fill="#E9EBF0"></path>
                        <path d="M30.0000001,70 L34.2509345,71.5941004" id="Line-Copy-7" stroke="#FFFFFF" stroke-width="2" stroke-linecap="round" stroke-linejoin="round" fill="#E9EBF0"></path>
                        <path d="M226,133 L230.250935,131.5941" id="Line-Copy-17" stroke="#FFFFFF" stroke-width="2" stroke-linecap="round" stroke-linejoin="round" fill="#E9EBF0"></path>
                        <path d="M200,0 L204.250935,1.59410042" id="Line-Copy-14" stroke="#FFFFFF" stroke-width="2" stroke-linecap="round" stroke-linejoin="round" fill="#E9EBF0"></path>
                        <path d="M102,259 L105.314605,260.242977" id="Line-Copy-8" stroke="#FFFFFF" stroke-width="2" stroke-linecap="round" stroke-linejoin="round" fill="#E9EBF0"></path>
                        <circle id="Oval-235" stroke="none" fill="#FFFFFF" cx="66.5" cy="81.5" r="1.5"></circle>
                        <circle id="Oval-235-Copy-11" stroke="none" fill="#FFFFFF" cx="86.5" cy="151.5" r="1.5"></circle>
                        <circle id="Oval-235-Copy-12" stroke="none" fill="#FFFFFF" cx="136.5" cy="270.5" r="1.5"></circle>
                        <circle id="Oval-235-Copy-14" stroke="none" fill="#FFFFFF" cx="156.5" cy="210.5" r="1.5"></circle>
                        <circle id="Oval-235-Copy-10" stroke="none" fill="#FFFFFF" cx="26.5" cy="2.5" r="1.5"></circle>
                        <circle id="Oval-235-Copy" stroke="none" fill="#FFFFFF" cx="126.5" cy="71.5" r="1.5"></circle>
                        <circle id="Oval-235-Copy-2" stroke="none" fill="#FFFFFF" cx="186.5" cy="31.5" r="1.5"></circle>
                        <circle id="Oval-235-Copy-3" stroke="none" fill="#FFFFFF" cx="206.5" cy="171.5" r="1.5"></circle>
                        <circle id="Oval-235-Copy-4" stroke="none" fill="#FFFFFF" cx="196.5" cy="221.5" r="1.5"></circle>
                        <circle id="Oval-235-Copy-5" stroke="none" fill="#FFFFFF" cx="116.5" cy="161.5" r="1.5"></circle>
                        <circle id="Oval-235-Copy-6" stroke="none" fill="#FFFFFF" cx="36.5" cy="141.5" r="1.5"></circle>
                        <circle id="Oval-235-Copy-7" stroke="none" fill="#FFFFFF" cx="16.5" cy="251.5" r="1.5"></circle>
                        <circle id="Oval-235-Copy-8" stroke="none" fill="#FFFFFF" cx="86.5" cy="221.5" r="1.5"></circle>
                        <circle id="Oval-235-Copy-9" stroke="none" fill="#FFFFFF" cx="16.5" cy="121.5" r="1.5"></circle>
                    </g>
                </g>
                <ellipse id="Ringer" fill="#FFFFFF" mask="url(#mask-8)" cx="121" cy="4.5" rx="73.3491797" ry="64.8434245"></ellipse>
                <g id="Pocket" mask="url(#mask-8)">
                    <g transform="translate(143.000000, 122.000000)">
                        <path d="M2,4.9998408 C2,2.79078973 3.7838823,1 5.9998408,1 L66.0001592,1 C68.2092103,1 70,2.7838823 70,4.9998408 L70,65.9903842 C70,67.6525491 68.7252626,69.4361176 67.1574066,69.9679282 C67.1574066,69.9679282 41,79 36,79 C31,79 4.81570405,69.958842 4.81570405,69.958842 C3.26063364,69.4292882 2,67.6569598 2,65.9903842 L2,4.9998408 Z" id="Pocket" stroke="none" fill="#C5C8D7" fill-rule="evenodd"></path>
                        <polyline id="Rectangle-338" stroke="#A6AABF" stroke-width="2" stroke-linecap="round" stroke-dasharray="4" fill="none" points="66 3.30000305 66 66 36 75 6 66 6 5"></polyline>
                        <g id="Rectangle-90" stroke="none" fill="none">
                            <use fill="black" fill-opacity="1" filter="url(#filter-10)" xlink:href="#path-9"></use>
                            <use fill="#4D516E" fill-rule="evenodd" xlink:href="#path-9"></use>
                        </g>
                    </g>
                </g>
                <rect id="Shadow" fill-opacity="0.08" fill="#40445E" mask="url(#mask-8)" x="0" y="281" width="242" height="25"></rect>
            </g>
            <g id="Paper" transform="translate(420.000000, 84.000000)">
                <g id="Rectangle-75-Copy-2">
                    <use fill="black" fill-opacity="1" filter="url(#filter-12)" xlink:href="#path-11"></use>
                    <use fill="#FFFFFF" fill-rule="evenodd" xlink:href="#path-11"></use>
                </g>
                <rect id="Rectangle-16" fill="#E9EBF0" x="32" y="44" width="60" height="6" rx="2"></rect>
                <rect id="Rectangle-16-Copy" fill="#E9EBF0" x="32" y="54" width="80" height="6" rx="2"></rect>
                <rect id="Rectangle-16-Copy-2" fill="#E9EBF0" x="32" y="64" width="74" height="6" rx="2"></rect>
                <rect id="Rectangle-16-Copy-3" fill="#E9EBF0" x="32" y="74" width="84" height="6" rx="2"></rect>
                <rect id="Rectangle-16-Copy-4" fill="#E9EBF0" x="32" y="84" width="64" height="6" rx="2"></rect>
                <rect id="Rectangle-16-Copy-9" fill="#E9EBF0" x="32" y="106" width="89" height="6" rx="2"></rect>
                <rect id="Rectangle-16-Copy-8" fill="#E9EBF0" x="32" y="116" width="80" height="6" rx="2"></rect>
                <rect id="Rectangle-16-Copy-7" fill="#E9EBF0" x="32" y="126" width="86" height="6" rx="2"></rect>
                <rect id="Rectangle-16-Copy-6" fill="#E9EBF0" x="32" y="136" width="78" height="6" rx="2"></rect>
                <rect id="Rectangle-16-Copy-5" fill="#E9EBF0" x="32" y="146" width="64" height="6" rx="2"></rect>
            </g>
            <g id="Moleskine" filter="url(#filter-13)" transform="translate(276.000000, 126.000000)">
                <mask id="mask-15" fill="white">
                    <use xlink:href="#path-14"></use>
                </mask>
                <use id="Mask" fill="#40445E" xlink:href="#path-14"></use>
                <rect id="Rectangle-65" fill="#272B43" mask="url(#mask-15)" x="0" y="2" width="20" height="250"></rect>
                <rect id="Rectangle-66" fill="#FFD220" x="120" y="0" width="20" height="254" rx="2"></rect>
                <g id="Strap-Lines" transform="translate(121.000000, 2.000000)" stroke="#FFBB0F" stroke-width="2" stroke-linecap="square">
                    <path d="M0,1 L18,1" id="Line"></path>
                    <path d="M0,5 L18,5" id="Line"></path>
                    <path d="M0,9 L18,9" id="Line"></path>
                    <path d="M0,13 L18,13" id="Line"></path>
                    <path d="M0,17 L18,17" id="Line"></path>
                    <path d="M0,21 L18,21" id="Line"></path>
                    <path d="M0,25 L18,25" id="Line"></path>
                    <path d="M0,29 L18,29" id="Line"></path>
                    <path d="M0,33 L18,33" id="Line"></path>
                    <path d="M0,37 L18,37" id="Line"></path>
                    <path d="M0,41 L18,41" id="Line"></path>
                    <path d="M0,45 L18,45" id="Line"></path>
                    <path d="M0,49 L18,49" id="Line"></path>
                    <path d="M0,53 L18,53" id="Line"></path>
                    <path d="M0,57 L18,57" id="Line"></path>
                    <path d="M0,61 L18,61" id="Line"></path>
                    <path d="M0,65 L18,65" id="Line"></path>
                    <path d="M0,69 L18,69" id="Line"></path>
                    <path d="M0,73 L18,73" id="Line"></path>
                    <path d="M0,77 L18,77" id="Line"></path>
                    <path d="M0,81 L18,81" id="Line"></path>
                    <path d="M0,85 L18,85" id="Line"></path>
                    <path d="M0,89 L18,89" id="Line"></path>
                    <path d="M0,93 L18,93" id="Line"></path>
                    <path d="M0,97 L18,97" id="Line"></path>
                    <path d="M0,101 L18,101" id="Line"></path>
                    <path d="M0,105 L18,105" id="Line"></path>
                    <path d="M0,109 L18,109" id="Line"></path>
                    <path d="M0,113 L18,113" id="Line"></path>
                    <path d="M0,117 L18,117" id="Line"></path>
                    <path d="M0,121 L18,121" id="Line"></path>
                    <path d="M0,125 L18,125" id="Line"></path>
                    <path d="M0,129 L18,129" id="Line"></path>
                    <path d="M0,133 L18,133" id="Line"></path>
                    <path d="M0,137 L18,137" id="Line"></path>
                    <path d="M0,141 L18,141" id="Line"></path>
                    <path d="M0,145 L18,145" id="Line"></path>
                    <path d="M0,149 L18,149" id="Line"></path>
                    <path d="M0,153 L18,153" id="Line"></path>
                    <path d="M0,157 L18,157" id="Line"></path>
                    <path d="M0,161 L18,161" id="Line"></path>
                    <path d="M0,165 L18,165" id="Line"></path>
                    <path d="M0,169 L18,169" id="Line"></path>
                    <path d="M0,173 L18,173" id="Line"></path>
                    <path d="M0,177 L18,177" id="Line"></path>
                    <path d="M0,181 L18,181" id="Line"></path>
                    <path d="M0,185 L18,185" id="Line"></path>
                    <path d="M0,189 L18,189" id="Line"></path>
                    <path d="M0,193 L18,193" id="Line"></path>
                    <path d="M0,197 L18,197" id="Line"></path>
                    <path d="M0,201 L18,201" id="Line"></path>
                    <path d="M0,205 L18,205" id="Line"></path>
                    <path d="M0,209 L18,209" id="Line"></path>
                    <path d="M0,213 L18,213" id="Line"></path>
                    <path d="M0,217 L18,217" id="Line"></path>
                    <path d="M0,221 L18,221" id="Line"></path>
                    <path d="M0,225 L18,225" id="Line"></path>
                    <path d="M0,229 L18,229" id="Line"></path>
                    <path d="M0,233 L18,233" id="Line"></path>
                    <path d="M0,237 L18,237" id="Line"></path>
                    <path d="M0,241 L18,241" id="Line"></path>
                    <path d="M0,245 L18,245" id="Line"></path>
                    <path d="M0,249 L18,249" id="Line"></path>
                </g>
            </g>
            <g id="Eraser" filter="url(#filter-16)" transform="translate(310.000000, 160.000000)">
                <mask id="mask-18" fill="white">
                    <use xlink:href="#path-17"></use>
                </mask>
                <use id="Mask" fill="#FF7A7A" xlink:href="#path-17"></use>
                <rect id="Rectangle-97" fill="#FF5A5A" mask="url(#mask-18)" x="0" y="66" width="32" height="14"></rect>
            </g>
            <g id="Pencil" transform="translate(438.000000, 98.000000)">
                <g transform="translate(102.500000, 8.000000) rotate(-270.000000) translate(-102.500000, -8.000000) translate(94.500000, -94.500000)">
                    <path d="M4,21 L18,21 L18,199.008625 C18,202.31757 15.3172241,205 12.0018149,205 L9.99818512,205 C6.68547895,205 4,202.310117 4,199.008625 L4,21 Z M9.83623454,1.82380069 C10.4789645,-0.288026115 11.5204189,-0.290052256 12.1637655,1.82380085 L18,21.0000003 L4,20.9999993 L9.83623454,1.82380069 Z" id="Mask-Copy" fill-opacity="0.1" fill="#000000"></path>
                    <mask id="mask-20" fill="white">
                        <use xlink:href="#path-19"></use>
                    </mask>
                    <use id="Mask" fill="#FFD220" xlink:href="#path-19"></use>
                    <rect id="Rectangle-79" fill-opacity="0.5" fill="#000000" style="mix-blend-mode: overlay;" mask="url(#mask-20)" x="7" y="21" width="7" height="168"></rect>
                    <rect id="Rectangle-77" fill="#FF7A7A" mask="url(#mask-20)" x="-8.95283847e-13" y="189.238866" width="14" height="16.7611336"></rect>
                    <rect id="Rectangle-78-Copy-2" fill="#474B66" mask="url(#mask-20)" x="-8.95283847e-13" y="189" width="14" height="6"></rect>
                    <rect id="Rectangle-79" fill-opacity="0.1" fill="#40445E" mask="url(#mask-20)" x="7" y="189" width="7" height="16"></rect>
                    <rect id="Rectangle-91" fill="#FFFFFF" mask="url(#mask-20)" x="-1.07692308" y="9" width="18" height="12"></rect>
                    <rect id="Rectangle-80" fill="#474B66" mask="url(#mask-20)" x="2.625" y="-1.16194332" width="10.5" height="10.0566802"></rect>
                    <rect id="Rectangle-79" fill-opacity="0.1" fill="#40445E" mask="url(#mask-20)" x="7" y="0.239170713" width="7" height="20.7608293"></rect>
                </g>
            </g>
            <g id="Apple-Mouse" transform="translate(592.000000, 148.000000)">
                <g id="Rectangle-91">
                    <use fill="black" fill-opacity="1" filter="url(#filter-22)" xlink:href="#path-21"></use>
                    <use fill="#FFFFFF" fill-rule="evenodd" xlink:href="#path-21"></use>
                    <use fill="black" fill-opacity="1" filter="url(#filter-23)" xlink:href="#path-21"></use>
                </g>
                <path d="M42.96875,97.1289062 C41.4778571,98.183599 40.7324219,99.4531176 40.7324219,100.9375 C40.7324219,102.714853 41.6536366,104.078771 43.4960938,105.029297 C43.0012996,106.461596 42.2851609,107.708328 41.3476562,108.769531 C40.4101516,109.830734 39.5540403,110.361328 38.7792969,110.361328 C38.4147117,110.361328 37.9166698,110.240887 37.2851562,110 L36.9824219,109.882812 C36.3639292,109.641926 35.8170597,109.521484 35.3417969,109.521484 C34.8925759,109.521484 34.4010443,109.615884 33.8671875,109.804688 L33.4863281,109.941406 L33.0078125,110.136719 C32.6302064,110.286459 32.2493509,110.361328 31.8652344,110.361328 C30.9602819,110.361328 29.960943,109.615893 28.8671875,108.125 C27.2916588,105.989573 26.5039062,103.662122 26.5039062,101.142578 C26.5039062,99.3522046 26.9954378,97.9101617 27.9785156,96.8164062 C28.9615935,95.7226508 30.2636638,95.1757812 31.8847656,95.1757812 C32.4902374,95.1757812 33.056638,95.2864572 33.5839844,95.5078125 L33.9453125,95.6542969 L34.3261719,95.8105469 C34.6647152,95.9537768 34.93815,96.0253906 35.1464844,96.0253906 C35.4134128,96.0253906 35.7096338,95.9635423 36.0351562,95.8398438 L36.5332031,95.6445312 L36.9042969,95.5078125 C37.4967478,95.2929677 38.1510381,95.1855469 38.8671875,95.1855469 C40.5664147,95.1855469 41.9335886,95.8333269 42.96875,97.1289062 L42.96875,97.1289062 Z M38.9453125,90.6640625 C38.9648438,90.8919282 38.9746094,91.0677077 38.9746094,91.1914062 C38.9746094,92.317714 38.5644572,93.3056598 37.7441406,94.1552734 C36.923824,95.0048871 35.9700575,95.4296875 34.8828125,95.4296875 C34.8502603,95.17578 34.8339844,94.9934901 34.8339844,94.8828125 C34.8339844,93.9257765 35.2148399,93.0273479 35.9765625,92.1875 C36.7382851,91.3476521 37.6204377,90.8561205 38.6230469,90.7128906 C38.6946618,90.6998697 38.8020826,90.6835938 38.9453125,90.6640625 L38.9453125,90.6640625 Z" id="" fill="#E9EBF0"></path>
            </g>
            <g id="Stickynote" filter="url(#filter-24)" transform="translate(476.000000, 254.000000)">
                <rect id="Rectangle-66-Copy" fill="#FFD220" x="0" y="0" width="100" height="100" rx="2"></rect>
                <g id="Kitty" transform="translate(13.000000, 14.000000)" stroke="#474B66" stroke-width="2" stroke-linecap="round" stroke-linejoin="round">
                    <path d="M3.78639745,25.6996103 C3.78639745,25.6996103 -0.839532412,8.22387531 0.702444208,8.22387531 C2.24442083,8.22387531 7.3843429,11.3078286 7.3843429,11.3078286 L18.1781792,7.1958909 C18.1781792,7.1958909 19.7201565,0 21.2621325,0 C22.8041085,0 30,16.4477506 30,16.4477506" id="Path-14"></path>
                    <path d="M8,17 C8,19 9,18 9,18" id="Path-15"></path>
                    <path d="M21,12 C21,14 22,13 22,13" id="Path-15-Copy"></path>
                    <path d="M15,20 C15,20 16,21 17,20 C18,19 18,18 18,18" id="Path-17"></path>
                </g>
                <path d="M69,71 C69,71 68,85 70,86 C72,87 75,77 77,77 C79,77 78,86 80,86 C82,86 84,82 85,82 C86,82 90,86 90,86" id="Path-18" stroke="#474B66" stroke-width="2" stroke-linecap="round" stroke-linejoin="round"></path>
            </g>
            <g id="Paperclip">
                <use fill="black" fill-opacity="1" filter="url(#filter-26)" xlink:href="#path-25"></use>
                <use stroke="#E7E8F3" stroke-width="3" stroke-linecap="round" xlink:href="#path-25"></use>
            </g>
        </g>
    </g>
</svg>