<?xml version="1.0" encoding="UTF-8" standalone="no"?>
<svg width="300px" height="300px" viewBox="0 0 300 300" version="1.1" xmlns="http://www.w3.org/2000/svg" xmlns:xlink="http://www.w3.org/1999/xlink">
    <!-- Generator: Sketch 3.8.3 (29802) - http://www.bohemiancoding.com/sketch -->
    <title>preview</title>
    <desc>Created with Sketch.</desc>
    <defs>
        <rect id="path-1" x="0" y="0" width="142" height="200" rx="1"></rect>
        <filter x="-50%" y="-50%" width="200%" height="200%" filterUnits="objectBoundingBox" id="filter-2">
            <feOffset dx="0" dy="4" in="SourceAlpha" result="shadowOffsetOuter1"></feOffset>
            <feColorMatrix values="0 0 0 0 0   0 0 0 0 0   0 0 0 0 0  0 0 0 0.1 0" type="matrix" in="shadowOffsetOuter1"></feColorMatrix>
        </filter>
        <path d="M0,5.99943435 C0,2.68603825 2.68697795,-4.5995694e-14 6.00017566,-2.71439535e-14 L25.9998243,8.66519076e-14 C29.3136299,1.05507106e-13 32,2.69107868 32,5.99943435 L32,66.0005656 C32,69.3139617 29.3130221,72 25.9998243,72 L6.00017566,72 C2.68637015,72 0,69.3089213 0,66.0005656 L0,5.99943435 Z" id="path-3"></path>
        <rect id="path-5" x="-4" y="-8" width="32" height="80" rx="6"></rect>
        <path d="M4.26325641e-14,21 L14,21 L14,199.008625 C14,202.31757 11.3172241,205 8.00181488,205 L5.99818512,205 C2.68547895,205 4.26325641e-14,202.310117 4.26325641e-14,199.008625 L4.26325641e-14,21 Z M5.83623454,1.82380069 C6.47896445,-0.288026115 7.52041887,-0.290052256 8.16376546,1.82380085 L14,21.0000003 L-1.42108547e-14,20.9999993 L5.83623454,1.82380069 Z" id="path-7"></path>
        <filter x="-50%" y="-50%" width="200%" height="200%" filterUnits="objectBoundingBox" id="filter-9">
            <feOffset dx="0" dy="4" in="SourceAlpha" result="shadowOffsetOuter1"></feOffset>
            <feColorMatrix values="0 0 0 0 0   0 0 0 0 0   0 0 0 0 0  0 0 0 0.1 0" type="matrix" in="shadowOffsetOuter1" result="shadowMatrixOuter1"></feColorMatrix>
            <feMerge>
                <feMergeNode in="shadowMatrixOuter1"></feMergeNode>
                <feMergeNode in="SourceGraphic"></feMergeNode>
            </feMerge>
        </filter>
        <path d="M52,226 L22.0053227,226 C18.6886745,226 16,228.693034 16,232 L16,232 C16,235.313708 18.6911804,238 21.9952583,238 L54.9963188,238 C56.6552061,238 58,236.657566 58,235.007333 L58,235.076659 C58,233.423855 56.6566876,232.083992 54.9976416,232.083992 L24,232.083992" id="path-10"></path>
        <filter x="-50%" y="-50%" width="200%" height="200%" filterUnits="objectBoundingBox" id="filter-11">
            <feMorphology radius="1.5" operator="dilate" in="SourceAlpha" result="shadowSpreadOuter1"></feMorphology>
            <feOffset dx="0" dy="3" in="shadowSpreadOuter1" result="shadowOffsetOuter1"></feOffset>
            <feMorphology radius="1.5" operator="erode" in="SourceAlpha" result="shadowInner"></feMorphology>
            <feOffset dx="0" dy="3" in="shadowInner" result="shadowInner"></feOffset>
            <feComposite in="shadowOffsetOuter1" in2="shadowInner" operator="out" result="shadowOffsetOuter1"></feComposite>
            <feColorMatrix values="0 0 0 0 0   0 0 0 0 0   0 0 0 0 0  0 0 0 0.1 0" type="matrix" in="shadowOffsetOuter1"></feColorMatrix>
        </filter>
    </defs>
    <g id="Page-1" stroke="none" stroke-width="1" fill="none" fill-rule="evenodd">
        <g id="preview">
            <g id="Misc-Artwork" transform="translate(42.000000, 32.000000)">
                <g id="Paper">
                    <g id="Rectangle-75-Copy-2">
                        <use fill="black" fill-opacity="1" filter="url(#filter-2)" xlink:href="#path-1"></use>
                        <use fill="#FFFFFF" fill-rule="evenodd" xlink:href="#path-1"></use>
                    </g>
                    <rect id="Rectangle-16" fill="#E9EBF0" x="32" y="44" width="60" height="6" rx="2"></rect>
                    <rect id="Rectangle-16-Copy" fill="#E9EBF0" x="32" y="54" width="80" height="6" rx="2"></rect>
                    <rect id="Rectangle-16-Copy-2" fill="#E9EBF0" x="32" y="64" width="74" height="6" rx="2"></rect>
                    <rect id="Rectangle-16-Copy-3" fill="#E9EBF0" x="32" y="74" width="84" height="6" rx="2"></rect>
                    <rect id="Rectangle-16-Copy-4" fill="#E9EBF0" x="32" y="84" width="64" height="6" rx="2"></rect>
                    <rect id="Rectangle-16-Copy-9" fill="#E9EBF0" x="32" y="106" width="89" height="6" rx="2"></rect>
                    <rect id="Rectangle-16-Copy-8" fill="#E9EBF0" x="32" y="116" width="80" height="6" rx="2"></rect>
                    <rect id="Rectangle-16-Copy-7" fill="#E9EBF0" x="32" y="126" width="86" height="6" rx="2"></rect>
                    <rect id="Rectangle-16-Copy-6" fill="#E9EBF0" x="32" y="136" width="78" height="6" rx="2"></rect>
                    <rect id="Rectangle-16-Copy-5" fill="#E9EBF0" x="32" y="146" width="64" height="6" rx="2"></rect>
                    <rect id="Rectangle-16" fill="#E9EBF0" x="32" y="18" width="70" height="12" rx="2"></rect>
                </g>
                <g id="Eraser" transform="translate(122.000000, 214.000000) rotate(90.000000) translate(-122.000000, -214.000000) translate(106.000000, 178.000000)">
                    <mask id="mask-4" fill="white">
                        <use xlink:href="#path-3"></use>
                    </mask>
                    <use id="Mask-Copy" fill-opacity="0.1" fill="#000000" xlink:href="#path-3"></use>
                    <mask id="mask-6" fill="white">
                        <use xlink:href="#path-5"></use>
                    </mask>
                    <use id="Mask" fill="#FF7A7A" xlink:href="#path-5"></use>
                    <rect id="Rectangle-97" fill="#FF5A5A" mask="url(#mask-6)" x="-4" y="58" width="32" height="14"></rect>
                </g>
                <g id="Pencil" transform="translate(18.000000, 168.000000)">
                    <g transform="translate(102.500000, 8.000000) rotate(-270.000000) translate(-102.500000, -8.000000) translate(94.500000, -94.500000)">
                        <path d="M4,21 L18,21 L18,199.008625 C18,202.31757 15.3172241,205 12.0018149,205 L9.99818512,205 C6.68547895,205 4,202.310117 4,199.008625 L4,21 Z M9.83623454,1.82380069 C10.4789645,-0.288026115 11.5204189,-0.290052256 12.1637655,1.82380085 L18,21.0000003 L4,20.9999993 L9.83623454,1.82380069 Z" id="Mask-Copy" fill-opacity="0.1" fill="#000000"></path>
                        <mask id="mask-8" fill="white">
                            <use xlink:href="#path-7"></use>
                        </mask>
                        <use id="Mask" fill="#FFD220" xlink:href="#path-7"></use>
                        <rect id="Rectangle-79" fill-opacity="0.5" fill="#000000" style="mix-blend-mode: overlay;" mask="url(#mask-8)" x="7" y="21" width="7" height="168"></rect>
                        <rect id="Rectangle-77" fill="#FF7A7A" mask="url(#mask-8)" x="-8.95283847e-13" y="189.238866" width="14" height="16.7611336"></rect>
                        <rect id="Rectangle-78-Copy-2" fill="#474B66" mask="url(#mask-8)" x="-8.95283847e-13" y="189" width="14" height="6"></rect>
                        <rect id="Rectangle-79" fill-opacity="0.1" fill="#40445E" mask="url(#mask-8)" x="7" y="189" width="7" height="16"></rect>
                        <rect id="Rectangle-91" fill="#FFFFFF" mask="url(#mask-8)" x="-1.07692308" y="9" width="18" height="12"></rect>
                        <rect id="Rectangle-80" fill="#474B66" mask="url(#mask-8)" x="2.625" y="-1.16194332" width="10.5" height="10.0566802"></rect>
                        <rect id="Rectangle-79" fill-opacity="0.1" fill="#40445E" mask="url(#mask-8)" x="7" y="0.239170713" width="7" height="20.7608293"></rect>
                    </g>
                </g>
                <g id="Stickynote" filter="url(#filter-9)" transform="translate(126.000000, 24.000000)">
                    <rect id="Rectangle-66-Copy" fill="#FFD220" x="0" y="0" width="100" height="100" rx="2"></rect>
                    <g id="Kitty" transform="translate(13.000000, 14.000000)" stroke="#474B66" stroke-width="2" stroke-linecap="round" stroke-linejoin="round">
                        <path d="M3.78639745,25.6996103 C3.78639745,25.6996103 -0.839532412,8.22387531 0.702444208,8.22387531 C2.24442083,8.22387531 7.3843429,11.3078286 7.3843429,11.3078286 L18.1781792,7.1958909 C18.1781792,7.1958909 19.7201565,0 21.2621325,0 C22.8041085,0 30,16.4477506 30,16.4477506" id="Path-14"></path>
                        <path d="M8,17 C8,19 9,18 9,18" id="Path-15"></path>
                        <path d="M21,12 C21,14 22,13 22,13" id="Path-15-Copy"></path>
                        <path d="M15,20 C15,20 16,21 17,20 C18,19 18,18 18,18" id="Path-17"></path>
                    </g>
                    <path d="M69,71 C69,71 68,85 70,86 C72,87 75,77 77,77 C79,77 78,86 80,86 C82,86 84,82 85,82 C86,82 90,86 90,86" id="Path-18" stroke="#474B66" stroke-width="2" stroke-linecap="round" stroke-linejoin="round"></path>
                </g>
                <g id="Paperclip">
                    <use fill="black" fill-opacity="1" filter="url(#filter-11)" xlink:href="#path-10"></use>
                    <use stroke="#E7E8F3" stroke-width="3" stroke-linecap="round" xlink:href="#path-10"></use>
                </g>
            </g>
        </g>
    </g>
</svg>