<?xml version="1.0" encoding="UTF-8"?>
<svg width="1365px" height="398px" viewBox="0 0 1365 398" version="1.1" xmlns="http://www.w3.org/2000/svg" xmlns:xlink="http://www.w3.org/1999/xlink">
    <!-- Generator: Sketch 50.2 (55047) - http://www.bohemiancoding.com/sketch -->
    <title>Group 5</title>
    <desc>Created with Sketch.</desc>
    <defs>
        <path d="M11,22 C17.0751322,22 22,17.0751322 22,11 C22,4.9248678 17.0751322,0 11,0 C4.9248678,0 0,4.9248678 0,11 C0,17.0751322 4.9248678,22 11,22 Z M7.5,10 C8.8807119,10 10,8.8807119 10,7.5 C10,6.1192881 8.8807119,5 7.5,5 C6.1192881,5 5,6.1192881 5,7.5 C5,8.8807119 6.1192881,10 7.5,10 Z M14.5,16 C15.3284271,16 16,15.3284271 16,14.5 C16,13.6715729 15.3284271,13 14.5,13 C13.6715729,13 13,13.6715729 13,14.5 C13,15.3284271 13.6715729,16 14.5,16 Z" id="path-1"></path>
    </defs>
    <g id="mmjp" stroke="none" stroke-width="1" fill="none" fill-rule="evenodd">
        <g id="Group-5" transform="translate(0.000000, -4.000000)">
            <g id="sports" transform="translate(28.000000, 18.000000)">
                <circle id="Oval-23" fill="#303030" cx="30" cy="30" r="30"></circle>
                <path d="M25.0600697,56.6944113 L19.7977277,44.0422232 L6.1381636,42.9471424 C4.58271385,40.0864709 3.52668882,36.9149196 3.08714048,33.5495404 L13.4923766,24.636348 L10.3142404,11.3128743 C12.5872546,8.919166 15.292266,6.93963834 18.304364,5.49920171 L30,12.6428576 L41.6956412,5.49920423 C44.707734,6.93963834 47.4127454,8.919166 49.6857596,11.3128743 L46.5076234,24.636348 L56.9128595,33.5495404 C56.4733112,36.9149196 55.4172862,40.0864709 53.8618364,42.9471424 L40.2022723,44.0422232 L34.9399303,56.6944113 C33.3380838,56.9889502 31.6870153,57.1428571 30,57.1428571 C28.3129847,57.1428571 26.6619162,56.9889502 25.0600697,56.6944113 Z" id="Combined-Shape" fill="#FFFFFF"></path>
                <polygon id="Polygon-2" fill="#303030" points="30 20 40 27.6393202 36.1803399 40 23.8196601 40 20 27.6393202"></polygon>
            </g>
            <g id="popcorn" transform="translate(254.000000, 122.000000)">
                <path d="M0,20 L38.2352941,20 L34.4278534,54.5207958 C34.0838821,57.6394692 31.4486843,60 28.3110993,60 L9.92419481,60 C6.78660978,60 4.15141204,57.6394692 3.80744072,54.5207958 L0,20 Z" id="Rectangle-11" fill="#EC4239"></path>
                <rect id="Rectangle-12" fill="#FFFFFF" x="7.64705882" y="20" width="4.58823529" height="40"></rect>
                <rect id="Rectangle-12-Copy" fill="#FFFFFF" x="16.8235294" y="20" width="4.58823529" height="40"></rect>
                <rect id="Rectangle-12-Copy-2" fill="#FFFFFF" x="26" y="20" width="4.58823529" height="40"></rect>
                <g fill="#FFD26D">
                    <ellipse id="Oval-4" cx="16.0588235" cy="3.84615385" rx="3.82352941" ry="3.84615385"></ellipse>
                    <ellipse id="Oval-4-Copy-2" cx="11.4705882" cy="6.92307692" rx="3.82352941" ry="3.84615385"></ellipse>
                    <ellipse id="Oval-4-Copy-10" cx="6.88235294" cy="11.5384615" rx="3.82352941" ry="3.84615385"></ellipse>
                    <ellipse id="Oval-6" cx="4.58823529" cy="15.3846154" rx="3.05882353" ry="3.07692308"></ellipse>
                    <ellipse id="Oval-4-Copy-3" cx="22.1764706" cy="6.92307692" rx="3.82352941" ry="3.84615385"></ellipse>
                    <ellipse id="Oval-4-Copy-4" cx="26.7647059" cy="10" rx="3.82352941" ry="3.84615385"></ellipse>
                    <ellipse id="Oval-4-Copy-5" cx="29.8235294" cy="11.5384615" rx="3.82352941" ry="3.84615385"></ellipse>
                    <ellipse id="Oval-4-Copy-6" cx="32.8823529" cy="16.1538462" rx="3.82352941" ry="3.84615385"></ellipse>
                    <path d="M3.07692308,16.9230769 L35.158371,16.9230769 C36.8577087,16.9230769 38.2352941,18.3006623 38.2352941,20 L0,20 L-8.8817842e-16,20 C-1.09628727e-15,18.3006623 1.37758539,16.9230769 3.07692308,16.9230769 Z" id="Rectangle-13"></path>
                    <rect id="Rectangle-14" x="9.17647059" y="7.69230769" width="19.8823529" height="10.7692308"></rect>
                    <rect id="Rectangle-17" x="12.2352941" y="6.15384615" width="9.17647059" height="4.61538462"></rect>
                    <rect id="Rectangle-15" x="4.58823529" y="12.3076923" width="27.5294118" height="7.69230769"></rect>
                </g>
                <g id="popcorn-off" transform="translate(39.764706, 49.230769)" fill="#FFD26D">
                    <ellipse id="Oval-5" cx="6.11764706" cy="3.07692308" rx="3.05882353" ry="3.07692308"></ellipse>
                    <ellipse id="Oval-5-Copy-3" cx="6.11764706" cy="7.69230769" rx="3.05882353" ry="3.07692308"></ellipse>
                    <ellipse id="Oval-5-Copy-4" cx="4.58823529" cy="4.61538462" rx="3.05882353" ry="3.07692308"></ellipse>
                    <ellipse id="Oval-5-Copy-5" cx="7.64705882" cy="4.61538462" rx="3.05882353" ry="3.07692308"></ellipse>
                    <ellipse id="Oval-5-Copy" cx="3.05882353" cy="7.69230769" rx="3.05882353" ry="3.07692308"></ellipse>
                    <ellipse id="Oval-5-Copy-2" cx="9.17647059" cy="7.69230769" rx="3.05882353" ry="3.07692308"></ellipse>
                </g>
            </g>
            <g id="food" transform="translate(9.000000, 165.000000)">
                <polyline id="Path-2" stroke="#999999" stroke-width="4.5" stroke-linejoin="round" points="30 4.5 40.5 0 45 16.5"></polyline>
                <polygon id="Rectangle-16" fill="#59C5EF" points="31.5 13.5 66 13.5 63 58.5 34.5 58.5"></polygon>
                <circle id="Oval-7" fill="#F8B517" cx="14.25" cy="45.75" r="14.25"></circle>
                <path d="M11.498291,18.884385 C14.2416785,21.0835665 15.998291,24.4628645 15.998291,28.2524414 C15.998291,32.0420183 14.2416785,35.4213163 11.498291,37.6204978 C8.75490356,35.4213163 6.99829102,32.0420183 6.99829102,28.2524414 C6.99829102,24.4628645 8.75490356,21.0835665 11.498291,18.884385 Z" id="Combined-Shape" fill="#51B748" transform="translate(11.498291, 28.252441) rotate(-30.000000) translate(-11.498291, -28.252441) "></path>
            </g>
            <g id="balloon" transform="translate(128.000000, 227.000000)">
                <ellipse id="Oval-9" fill="#FF3B30" transform="translate(35.302924, 27.685943) rotate(-345.000000) translate(-35.302924, -27.685943) " cx="35.3029243" cy="27.6859428" rx="20.4545455" ry="23.1818182"></ellipse>
                <path d="M0,58.6363636 C6.39026989,58.9160156 11.1629972,58.6887429 14.3181818,57.9545455 C17.4733665,57.220348 20.8209783,55.5244585 24.3610174,52.8668768" id="Path-3" stroke="#999999" stroke-width="2" stroke-linecap="round"></path>
                <path d="M20.0800889,47.4444049 L28.2582021,47.4444049 L30.5308923,51.2339379 C31.0989993,52.1812119 30.7916237,53.409671 29.8443497,53.9777781 C29.533598,54.1641447 29.1780531,54.2625867 28.8157009,54.2625867 L20.3076203,54.2625867 C19.2030508,54.2625867 18.3076203,53.3671562 18.3076203,52.2625867 C18.3076203,52.0082529 18.3561306,51.7562531 18.450551,51.5200953 L20.0800889,47.4444049 Z" id="Rectangle-19" fill="#FF3B30" transform="translate(24.456734, 50.853496) rotate(-330.000000) translate(-24.456734, -50.853496) "></path>
            </g>
            <g id="edit-tools" transform="translate(597.000000, 80.000000)" fill-rule="nonzero">
                <path d="M1.46210526,2.35441406 C3.4097076,0.401132813 6.56877193,0.401132813 8.51637427,2.35441406 L45.560117,39.46875 L38.5039766,46.5367969 L1.46210526,9.42246094 C-0.487368421,7.47105469 -0.487368421,4.30582031 1.46210526,2.35441406 Z" id="Shape" fill="#ED5564"></path>
                <path d="M3.43894737,6.10359375 C3.92678363,5.61480469 4.71602339,5.61480469 5.20385965,6.10359375 L42.9674854,43.9409766 C43.4533333,44.4278906 43.4533333,45.2187891 42.9674854,45.7075781 C42.7225731,45.9509766 42.4046784,46.0736719 42.0850292,46.0736719 C41.7652632,46.0736719 41.4472515,45.9509766 41.2024561,45.7075781 L3.43894737,7.87007812 C2.95298246,7.38128906 2.95298246,6.59050781 3.43894737,6.10359375 Z" id="Shape" fill="#DA4453"></path>
                <path d="M37.1739181,47.6224219 C37.1739181,58.2675 52.8391813,59.1114844 58.0208187,59.1114844 C63.2004678,59.1114844 55.9361404,52.8140625 55.9361404,47.6224219 C55.9361404,42.4306641 51.7356725,38.2239844 46.5540351,38.2239844 C41.3723977,38.2239844 37.1739181,42.4306641 37.1739181,47.6224219 Z" id="Shape" fill="#656D78"></path>
                <path d="M58.0208187,59.1114844 C52.8391813,59.1114844 37.1739181,58.2675 37.1739181,47.6224219 C37.1739181,46.1835937 37.4973099,44.8196484 38.0729825,43.6005469 C38.0748538,43.6005469 38.8640936,57.0758203 59.8095906,57.3943359 C60.0670175,58.4560547 59.6907602,59.1114844 58.0208187,59.1114844 Z" id="Shape" fill="#434A54"></path>
                <path d="M57.6845614,2.20253906 C54.7612865,-0.7246875 50.0237427,-0.7246875 47.1003509,2.20253906 L0.00771929825,49.3889063 L0.00771929825,59.9937891 L10.5900585,59.9937891 L57.6845614,12.8073047 C60.6078363,9.87832031 60.6078363,5.13152344 57.6845614,2.20253906 Z" id="Shape" fill="#F6BB42"></path>
                <path d="M55.9215205,14.5739063 L57.6845614,12.8073047 C60.6078363,9.87832031 60.6078363,5.13152344 57.6845614,2.20253906 C54.7612865,-0.7246875 50.0237427,-0.7246875 47.1003509,2.20253906 L45.3373099,3.97089844 L55.9215205,14.5739063 Z" id="Shape" fill="#EC87C0"></path>
                <path d="M49.7550877,8.39730469 L8.83426901,49.3962891 C8.34830409,49.8850781 8.34830409,50.6759766 8.83426901,51.1647656 C9.32210526,51.6516797 10.111345,51.6516797 10.5991813,51.1647656 L51.5182456,10.1640234 L49.7550877,8.39730469 Z" id="Shape" fill="#FFCE54"></path>
                <polygon id="Shape" fill="#FFE5AB" points="0.00771929825 49.3889062 0.00771929825 59.9937891 10.5901754 59.9937891"></polygon>
                <polygon id="Shape" fill="#E6E9ED" points="48.8726316 21.6512109 38.2884211 11.0480859 45.3444444 3.97816406 55.9288889 14.5830469"></polygon>
                <g id="Group" transform="translate(40.818713, 6.562500)" fill="#CCD1D9">
                    <path d="M3.6451462,1.83480469 L1.88023392,0.0664453125 C1.87836257,0.0645703125 1.87473684,0.0628125 1.87298246,0.0591796875 L0.10994152,1.82566406 C0.111812865,1.82929687 0.113567251,1.83117187 0.117192982,1.83480469 L1.88023392,3.60140625 C2.36807018,4.09019531 3.1574269,4.09019531 3.6451462,3.60140625 C4.13122807,3.11449219 4.13122807,2.32183594 3.6451462,1.83480469 Z" id="Shape"></path>
                    <path d="M8.92,10.6549219 L10.6849123,12.4232813 C10.6867836,12.4251563 10.6904094,12.4269141 10.6921637,12.4305469 L12.4553216,10.6640625 C12.4534503,10.6604297 12.4516959,10.6585547 12.4480702,10.6549219 L10.6849123,8.88832031 C10.197193,8.39953125 9.40783626,8.39953125 8.92,8.88832031 C8.43391813,9.37523438 8.43391813,10.1680078 8.92,10.6549219 Z" id="Shape"></path>
                </g>
                <polygon id="Shape" fill="#656D78" points="0.00771929825 56.4588281 0.00771929825 59.9937891 3.53590643 59.9937891"></polygon>
            </g>
            <g id="compass" transform="translate(722.000000, 12.000000)">
                <ellipse id="Oval" fill="#1081E0" fill-rule="nonzero" cx="25.5" cy="34.7368421" rx="25.5" ry="25.2631579"></ellipse>
                <ellipse id="Oval" stroke="#1081E0" stroke-width="4.28571429" fill="#FFFFFF" fill-rule="nonzero" stroke-linecap="round" cx="25.5" cy="3.15789474" rx="3.1875" ry="3.15789474"></ellipse>
                <path d="M25.5,6.31578947 L25.5,9.32918233" id="Shape" stroke="#1081E0" stroke-width="4.28571429" stroke-linecap="round"></path>
                <polygon id="Shape" fill="#FFFFFF" fill-rule="nonzero" points="11.9765 48.1347368 20.9918125 30.2705263 30.0081875 39.2031579"></polygon>
                <polygon id="Shape" fill="#D75A4A" fill-rule="nonzero" points="39.0235 21.3389474 20.9918125 30.2705263 30.0081875 39.2031579"></polygon>
            </g>
            <g id="bike" transform="translate(1289.000000, 178.000000)">
                <ellipse id="Oval-10" stroke="#686868" stroke-width="5.35714286" cx="59.6463415" cy="36.6071429" rx="13.3536585" ry="13.3928571"></ellipse>
                <ellipse id="Oval-10-Copy" stroke="#686868" stroke-width="5.35714286" cx="13.3536585" cy="36.6071429" rx="13.3536585" ry="13.3928571"></ellipse>
                <path d="M23.1463415,12.5 L37.3902439,37.5" id="Path-5" stroke="#5BC4EF" stroke-width="5.35714286"></path>
                <g id="frame" transform="translate(14.243902, 3.571429)">
                    <rect id="Rectangle-20" fill="#5BC4EF" x="7.12195122" y="5.35714286" width="28.4878049" height="5.35714286"></rect>
                    <polyline id="Path-4" stroke="#5BC4EF" stroke-width="5.35714286" stroke-linecap="round" stroke-linejoin="round" points="42.7317073 3.57142857 37.3902439 3.57142857 23.1463415 33.9285714 0 33.9285714 8.90243902 8.92857143 5.34146341 0"></polyline>
                    <path d="M33.8292683,8.92857143 L44.5121951,33.9285714" id="Path-6" stroke="#5BC4EF" stroke-width="5.35714286" stroke-linecap="round"></path>
                </g>
                <rect id="Rectangle-18" fill="#676766" x="12.4634146" y="0" width="14.2439024" height="5.35714286" rx="2.67857143"></rect>
                <rect id="Rectangle-21" fill="#676766" transform="translate(59.080112, 5.682108) rotate(-315.000000) translate(-59.080112, -5.682108) " x="56.4093799" y="0.324965206" width="5.34146341" height="10.7142857" rx="2.67073171"></rect>
            </g>
            <polygon id="Star-2" fill="#404040" points="8.5 126.75 3.50382536 129.376644 4.45800981 123.813322 0.416019611 119.873356 6.00191268 119.061678 8.5 114 10.9980873 119.061678 16.5839804 119.873356 12.5419902 123.813322 13.4961746 129.376644"></polygon>
            <g id="book" transform="translate(219.000000, 17.000000)">
                <path d="M3.33333333,8.33333333 L66.6666667,8.33333333 C68.5076158,8.33333333 70,9.8257175 70,11.6666667 L70,51.6666667 C70,54.4280904 67.7614237,56.6666667 65,56.6666667 L5,56.6666667 C2.23857625,56.6666667 -3.2145368e-15,54.4280904 -3.55271368e-15,51.6666667 L0,11.6666667 C-2.2545125e-16,9.8257175 1.49238417,8.33333333 3.33333333,8.33333333 Z" id="Rectangle-27" fill="#5BC4EF"></path>
                <g id="Group" transform="translate(3.333333, 0.000000)">
                    <path d="M31.9015727,11.2987771 C33.9661349,7.83341515 37.6477341,5.4614006 42.9463704,4.18273343 C48.4523195,2.85403753 54.1368627,3.08417663 60,4.87315072 L60,48.3333333 C60,49.2538079 59.2538079,50 58.3333333,50 L31.6666667,50 L31.6666667,12.1517786 L31.666735,12.1517786 C31.666735,11.8514802 31.7478734,11.5567609 31.9015727,11.2987771 Z M31.4317606,11.2987771 C31.5854599,11.5567609 31.6665984,11.8514802 31.6665984,12.1517786 L31.6666667,12.1517786 L31.6666667,50 L5,50 C4.07952542,50 3.33333333,49.2538079 3.33333333,48.3333333 L3.33333333,4.87315072 C9.19647067,3.08417663 14.8810139,2.85403753 20.3869629,4.18273343 C25.6855992,5.4614006 29.3671984,7.83341515 31.4317606,11.2987771 Z" id="Combined-Shape" fill="#FFFFFF"></path>
                    <path d="M34.1666667,47.5 L57.5,47.5 L57.5,6.77333142 C52.689215,5.57400278 48.0440415,5.52432737 43.5328357,6.61297179 C38.9495865,7.71900171 35.8788476,9.65543016 34.1666667,12.3863262 L34.1666667,47.5 Z M42.3599052,1.75249506 C48.3095478,0.316727023 54.4476834,0.565229839 60.7295988,2.48198247 L60.7295988,2.48198247 C61.7814093,2.80291333 62.5,3.77346807 62.5,4.87315072 L62.5,48.3333333 C62.5,50.6345198 60.6345198,52.5 58.3333333,52.5 L29.1666667,52.5 L29.1666667,50 L29.1666667,12.15121 C29.1668374,11.4006571 29.3696753,10.664048 29.7538437,10.0192224 C32.1955677,5.92079537 36.4525735,3.17805264 42.3599052,1.75249506 Z M19.8004976,6.61297179 C15.2892918,5.52432737 10.6441183,5.57400278 5.83333379,6.77333602 L5.83333333,47.5 L29.1666622,47.5 L29.1665988,12.3862179 C27.4544046,9.65537898 24.3836863,7.7189871 19.8004976,6.61297179 Z M34.1665984,12.1517741 L34.1666712,52.5 L5,52.5 C2.69881354,52.5 0.833333333,50.6345198 0.833333333,48.3333333 L0.833333333,4.87315072 C0.833333333,3.77346807 1.55192404,2.80291333 2.60373452,2.48198247 C8.88564994,0.565229839 15.0237856,0.316727023 20.9734281,1.75249506 C26.8807598,3.17805264 31.1377656,5.92079537 33.5794896,10.0192224 C33.9637473,10.6641978 34.1665984,11.4010141 34.1665984,12.1517741 Z" id="Combined-Shape-Copy" fill="#979797" fill-rule="nonzero"></path>
                    <path d="M28.3333333,50 L35,50 L35,51.6666667 C35,53.5076158 33.5076158,55 31.6666667,55 L31.6666667,55 C29.8257175,55 28.3333333,53.5076158 28.3333333,51.6666667 L28.3333333,50 Z" id="Rectangle-29" fill="#979797"></path>
                </g>
                <rect id="Rectangle-31" fill="#D8D8D8" x="13.3333333" y="15" width="15" height="5"></rect>
                <rect id="Rectangle-31-Copy" fill="#D8D8D8" x="13.3333333" y="25" width="15" height="5"></rect>
                <rect id="Rectangle-31-Copy-2" fill="#D8D8D8" x="13.3333333" y="35" width="15" height="5"></rect>
                <rect id="Rectangle-31-Copy-5" fill="#D8D8D8" x="41.6666667" y="15" width="15" height="5"></rect>
                <rect id="Rectangle-31-Copy-4" fill="#D8D8D8" x="41.6666667" y="25" width="15" height="5"></rect>
                <rect id="Rectangle-31-Copy-3" fill="#D8D8D8" x="41.6666667" y="35" width="15" height="5"></rect>
                <path d="M28.3333333,56.6666667 L41.6666667,56.6666667 L41.6666667,56.6666667 C41.6666667,58.5076158 40.1742825,60 38.3333333,60 L31.6666667,60 C29.8257175,60 28.3333333,58.5076158 28.3333333,56.6666667 Z" id="Rectangle-28" fill="#5BC4EF"></path>
            </g>
            <g id="shopping" transform="translate(373.000000, 17.000000)">
                <path d="M19,7 C19,3.13400675 15.8659932,0 12,0 C8.13400675,0 5,3.13400675 5,7" id="Oval-14" stroke="#676767" stroke-width="2"></path>
                <path d="M0,7 L24,7 L24,38 L2,38 C0.8954305,38 1.3527075e-16,37.1045695 0,36 L0,7 Z" id="Rectangle-38" fill="#5AC8FA"></path>
                <path d="M35,20 C35,16.1340068 31.8659932,13 28,13 C24.1340068,13 21,16.1340068 21,20" id="Oval-14-Copy" stroke="#676767" stroke-width="2"></path>
                <path d="M14,19 L42,19 L42,36 C42,37.1045695 41.1045695,38 40,38 L16,38 C14.8954305,38 14,37.1045695 14,36 L14,19 Z" id="Rectangle-39" fill="#51B748"></path>
            </g>
            <g id="photo" transform="translate(1302.000000, 344.000000)">
                <rect id="Rectangle-41" fill="#676767" x="7.14285714" y="1.41935484" width="5.71428571" height="2.83870968"></rect>
                <path d="M16.9387755,7.09677419 L19.2530328,1.73167877 C19.7063776,0.68069877 20.7413265,-2.33831904e-16 21.8859139,-4.4408921e-16 L38.1140861,8.8817842e-16 C39.2586735,6.77921113e-16 40.2936224,0.68069877 40.7469672,1.73167877 L43.0612245,7.09677419 L57.1326165,7.09677419 C58.7162287,7.09677419 60,8.38054552 60,9.96415771 L60,41.1326165 C60,42.7162287 58.7162287,44 57.1326165,44 L2.86738351,44 C1.28377133,44 -1.58242028e-15,42.7162287 -1.77635684e-15,41.1326165 L-4.4408921e-16,9.96415771 C-6.38025769e-16,8.38054552 1.28377133,7.09677419 2.86738351,7.09677419 L16.9387755,7.09677419 Z" id="Combined-Shape" fill="#676767"></path>
                <ellipse id="Oval-16" stroke="#F4F4F4" stroke-width="2.86738351" cx="30" cy="24.1290323" rx="12.8520225" ry="12.7598566"></ellipse>
                <rect id="Rectangle-44" fill="#FFCE00" x="47.1428571" y="12.7741935" width="2.85714286" height="2.83870968"></rect>
            </g>
            <g id="productivity" transform="translate(405.000000, 85.000000)">
                <path d="M32.0019721,9.42770678 L52.4834777,49.4133368 C52.7739973,49.9805122 52.5497233,50.6758115 51.9825478,50.966331 C51.7493328,51.0857888 51.4824034,51.1223103 51.2256715,51.0698874 L30.9750101,46.93484 L10.7243486,51.0698874 C10.0999806,51.1973791 9.49047776,50.7945812 9.36298604,50.1702131 C9.31056313,49.9134812 9.3470846,49.6465518 9.46654241,49.4133368 L29.948048,9.42770678 C30.2385676,8.8605313 30.9338668,8.63625736 31.5010423,8.92677693 C31.716415,9.03709551 31.8916535,9.21233404 32.0019721,9.42770678 Z" id="Triangle-2" fill="#DDDDDC" transform="translate(30.975130, 29.944385) rotate(37.000000) translate(-30.975130, -29.944385) "></path>
                <path d="M12.509434,39.5192308 L12.509434,53.7813534 C12.509434,54.0999792 12.7677312,54.3582765 13.086357,54.3582765 C13.2262006,54.3582765 13.3612839,54.3074824 13.4664807,54.2153421 L22.8679245,45.9807697 L20.0023266,42.293977 C19.661774,41.8558322 19.6813484,41.237324 20.0489242,40.8215898 L39.5483706,18.7674055 C39.8619516,18.4127403 39.8340055,17.8723405 39.4855128,17.5519137 L39.4855128,17.5519137 C39.127487,17.2227216 38.5799525,17.2129411 38.2103983,17.5291366 L12.509434,39.5192308 Z" id="Path-9" fill="#999999"></path>
            </g>
            <g id="music" transform="translate(12.000000, 344.000000)">
                <g id="duo" transform="translate(32.105174, 32.967103) rotate(-345.000000) translate(-32.105174, -32.967103) translate(10.105174, 11.633770)" fill="#6772B5">
                    <path d="M13.3333333,0 L42.6666667,0 C43.4030463,1.82683884e-15 44,0.596953667 44,1.33333333 L44,9.33333333 L12,9.33333333 L12,1.33333333 C12,0.596953667 12.5969537,-7.52907669e-16 13.3333333,-8.8817842e-16 Z" id="Rectangle-46"></path>
                    <path d="M16,34.6666667 C16,39.0849447 12.418278,42.6666667 8,42.6666667 C3.581722,42.6666667 0,39.0849447 0,34.6666667 C0,30.2483887 3.581722,26.6666667 8,26.6666667 C9.45714857,26.6666667 10.8233065,27.0562438 12,27.7369242 L12,8 L16,8 L16,34.6666667 Z" id="Combined-Shape"></path>
                    <path d="M44,34.6666667 C44,39.0849447 40.418278,42.6666667 36,42.6666667 C31.581722,42.6666667 28,39.0849447 28,34.6666667 C28,30.2483887 31.581722,26.6666667 36,26.6666667 C37.4571486,26.6666667 38.8233065,27.0562438 40,27.7369242 L40,8 L44,8 L44,34.6666667 Z" id="Combined-Shape"></path>
                </g>
                <g id="single" transform="translate(12.293682, 14.650705) rotate(-15.000000) translate(-12.293682, -14.650705) translate(2.960349, 1.984038)" fill="#ED4E80">
                    <path d="M8,0 L17.3333333,0 C18.069713,1.17280231e-15 18.6666667,0.596953667 18.6666667,1.33333333 L18.6666667,6.66666667 C18.6666667,7.40304633 18.069713,8 17.3333333,8 L6.66666667,8 L6.66666667,1.33333333 C6.66666667,0.596953667 7.26362033,1.3527075e-16 8,0 Z" id="Rectangle-48"></path>
                    <rect id="Rectangle-49" x="6.66666667" y="5.33333333" width="4" height="14.6666667"></rect>
                    <circle id="Oval-21" cx="5.33333333" cy="20" r="5.33333333"></circle>
                </g>
            </g>
            <g id="waze" transform="translate(485.000000, 20.000000)" fill-rule="nonzero">
                <path d="M36,50 C50.36,50 62,39.256 62,26 C62,12.744 50.36,2 36,2 C21.64,2 10,12.744 10,26 C10,26 11.876,38 2,38 C2,48 20,50 36,50" id="Shape" fill="#BBDEFB"></path>
                <path d="M36,52 C11.776,52 0,47.42 0,38 C0,36.896 0.896,36 2,36 C3.984,36 5.432,35.432 6.428,34.272 C8.764,31.54 8.032,26.36 8.024,26.308 C8,11.664 20.56,0 36,0 C51.436,0 64,11.664 64,26 C64,40.336 51.436,52 36,52 Z M4.304,39.792 C6.208,45.172 17.072,48 36,48 C49.236,48 60,38.128 60,26 C60,13.868 49.236,4 36,4 C22.764,4 12,13.868 12,26 C12.024,26 13.02,32.724 9.468,36.872 C8.144,38.416 6.416,39.396 4.304,39.792 Z" id="Shape" fill="#3C3C3C"></path>
                <g id="Group" transform="translate(12.000000, 44.000000)" fill="#3C3C3C">
                    <circle id="Oval" cx="32" cy="8" r="8"></circle>
                    <circle id="Oval" cx="8" cy="8" r="8"></circle>
                </g>
                <g id="Group" transform="translate(23.875000, 18.000000)" fill="#3C3C3C">
                    <path d="M4.205,4 C3.101,4 2.185,3.104 2.185,2 C2.185,0.896 3.061,0 4.165,0 L4.205,0 C5.309,0 6.205,0.896 6.205,2 C6.205,3.104 5.309,4 4.205,4 Z" id="Shape" stroke="#3C3C3C" stroke-width="2"></path>
                    <path d="M20.205,4 C19.105,4 18.185,3.104 18.185,2 C18.185,0.896 19.061,0 20.165,0 L20.205,0 C21.309,0 22.205,0.896 22.205,2 C22.205,3.104 21.309,4 20.205,4 Z" id="Shape" stroke="#3C3C3C" stroke-width="2"></path>
                    <path d="M12.125,22 C6.357,22 1.441,18.072 0.173,12.44 C-0.067,11.36 0.609,10.292 1.685,10.048 C2.765,9.816 3.833,10.48 4.077,11.56 C4.929,15.352 8.241,18 12.125,18 C16.013,18 19.321,15.352 20.173,11.56 C20.421,10.484 21.477,9.808 22.565,10.048 C23.645,10.292 24.321,11.36 24.081,12.44 C22.813,18.068 17.897,22 12.125,22 Z" id="Shape"></path>
                </g>
            </g>
            <g id="crown" transform="translate(1194.571975, 165.036441) rotate(-15.000000) translate(-1194.571975, -165.036441) translate(1159.571975, 135.036441)" fill-rule="nonzero">
                <path d="M55.272793,26.4139726 C47.1850586,12.1906849 54.4543945,24.9746575 45.1774805,8.66054795 L35.0823047,26.4139726 L24.9872656,8.66054795 L14.8919531,26.4139726 L4.79705078,8.66041096 L4.79705078,52.6253425 L65.3679687,52.6253425 L65.3679687,8.66041096 L55.272793,26.4139726 Z" id="Shape" fill="#FFCA54"></path>
                <path d="M19.0252344,19.1453425 L14.8920898,26.4139726 L4.79705078,8.66041096 L4.79705078,52.6253425 L32.7336133,52.6253425 C22.7166406,44.7578082 17.3660156,32.1750685 19.0252344,19.1453425 Z" id="Shape" fill="#F99830"></path>
                <path d="M24.9874023,30.1328767 L22.0963477,33.0294521 C21.4001758,33.7271233 21.4001758,34.8584932 22.0963477,35.5563014 L24.9874023,38.4528767 L27.8783203,35.5563014 C28.5746289,34.8586301 28.5746289,33.7272603 27.8783203,33.0294521 L24.9874023,30.1328767 Z" id="Shape" fill="#57BAE5"></path>
                <path d="M45.1777539,30.1328767 L42.2866992,33.0294521 C41.5905273,33.7271233 41.5905273,34.8584932 42.2866992,35.5563014 L45.1777539,38.4528767 L48.0686719,35.5563014 C48.7649805,34.8586301 48.7649805,33.7272603 48.0686719,33.0294521 L45.1777539,30.1328767 Z" id="Shape" fill="#57BAE5"></path>
                <path d="M65.367832,30.1328767 L62.4769141,33.0294521 C61.7806055,33.7271233 61.7806055,34.8584932 62.4769141,35.5563014 L65.3679687,38.4528767 L65.3679687,30.1328767 L65.367832,30.1328767 Z" id="Shape" fill="#45A7C9"></path>
                <path d="M4.79705078,30.1328767 L7.68796875,33.0294521 C8.38414063,33.7271233 8.38414063,34.8584932 7.68796875,35.5563014 L4.79691406,38.4528767 L4.79705078,30.1328767 L4.79705078,30.1328767 Z" id="Shape" fill="#45A7C9"></path>
                <path d="M19.8052148,58.4660274 L63.6938477,58.4660274 C65.4264844,58.4660274 66.8314063,57.0586301 66.8314063,55.3223288 C66.8314063,53.5863014 65.4263477,52.1789041 63.6938477,52.1789041 L6.47089844,52.1789041 C4.73826172,52.1789041 3.33347656,53.5864384 3.33347656,55.3223288 C3.33347656,57.0586301 4.73839844,58.4660274 6.47089844,58.4660274 L16.0405273,58.4660274" id="Shape" fill="#7C5437"></path>
                <path d="M63.6938477,55.620137 L6.47103516,55.620137 C5.25013672,55.620137 4.19453125,54.919726 3.67582031,53.8993151 C2.61242188,55.9906849 4.13587891,58.4658904 6.47103516,58.4658904 L63.6938477,58.4658904 C66.0239453,58.4658904 67.5549219,55.9965753 66.4891992,53.8993151 C65.9704883,54.919589 64.9147461,55.620137 63.6938477,55.620137 Z" id="Shape" fill="#603D26"></path>
                <rect id="Rectangle-path" fill="#FC883A" x="4.79773437" y="45.8821918" width="60.570918" height="6.74424658"></rect>
                <path d="M26.1183398,45.8816438 L4.79705078,45.8816438 L4.79705078,52.6253425 L32.7336133,52.6253425 C30.2490234,50.6736986 28.025293,48.4046575 26.1183398,45.8816438 Z" id="Shape" fill="#EF7A2B"></path>
                <ellipse id="Oval" fill="#FC883A" cx="65.3686523" cy="5.32246575" rx="3.77726562" ry="3.78465753"></ellipse>
                <ellipse id="Oval" fill="#FC883A" cx="45.1783008" cy="5.32246575" rx="3.77726563" ry="3.78465753"></ellipse>
                <ellipse id="Oval" fill="#FC883A" cx="24.9867187" cy="5.32246575" rx="3.77726562" ry="3.78465753"></ellipse>
                <ellipse id="Oval" fill="#FC883A" cx="4.79773438" cy="5.32246575" rx="3.77726563" ry="3.78465753"></ellipse>
                <path d="M67.4579883,2.16986301 C64.9662891,0.508082192 61.5907031,2.29369863 61.5907031,5.32232877 C61.5907031,8.3469863 64.9625977,10.1390411 67.4579883,8.47465753 C65.2095117,6.97493151 65.209375,3.66945205 67.4579883,2.16986301 Z" id="Shape" fill="#EF7A2B"></path>
                <path d="M47.2676367,2.16986301 C46.669082,1.77068493 45.950625,1.53753425 45.1774805,1.53753425 C43.0911523,1.53753425 41.4003516,3.23205479 41.4003516,5.32232877 C41.4003516,8.3469863 44.7722461,10.1390411 47.2676367,8.47465753 C45.0194336,6.97520548 45.0190234,3.66945205 47.2676367,2.16986301 Z" id="Shape" fill="#EF7A2B"></path>
                <path d="M27.0775586,2.16986301 C24.5857227,0.508219178 21.21,2.29369863 21.21,5.32232877 C21.21,8.34684932 24.5817578,10.1390411 27.0775586,8.47465753 C24.829082,6.97534247 24.8285352,3.66945205 27.0775586,2.16986301 Z" id="Shape" fill="#EF7A2B"></path>
                <path d="M6.88707031,2.16986301 C4.39550781,0.508219178 1.01978516,2.29369863 1.01978516,5.32246575 C1.01978516,8.3469863 4.39140625,10.1393151 6.88693359,8.47479452 C4.63900391,6.97506849 4.63886719,3.66945205 6.88707031,2.16986301 Z" id="Shape" fill="#EF7A2B"></path>
                <path d="M24.9874023,30.1328767 L22.0963477,33.0294521 C21.4001758,33.7271233 21.4001758,34.8584932 22.0963477,35.5563014 L24.9874023,38.4528767 L24.9874023,30.1328767 Z" id="Shape" fill="#45A7C9"></path>
                <path d="M45.1777539,30.1328767 L42.2866992,33.0294521 C41.5905273,33.7271233 41.5905273,34.8584932 42.2866992,35.5563014 L45.1777539,38.4528767 L45.1777539,30.1328767 Z" id="Shape" fill="#45A7C9"></path>
                <path d="M66.2416016,9.74808219 C68.3927344,9.24369863 69.9998633,7.30739726 69.9998633,5.00068493 C69.9998633,2.31150685 67.8163281,0.12369863 65.1324023,0.12369863 C62.44875,0.12369863 60.2653516,2.31150685 60.2653516,5.00068493 C60.2653516,7.08054795 61.5718359,8.85931507 63.4053711,9.5590411 L55.0883594,24.1857534 L52.185957,19.0812329 C51.8827148,18.5479452 51.2058203,18.3623288 50.6733008,18.6660274 C50.1413281,18.969863 49.9558008,19.6480822 50.2589063,20.1815068 L54.1247656,26.9805479 C54.5494141,27.7271233 55.6270313,27.7278082 56.0518164,26.9805479 L64.0236133,12.9610959 L64.0236133,29.670274 L61.4718945,32.2271233 C60.3480664,33.3532877 60.3480664,35.1861644 61.4720313,36.3123288 L64.02375,38.8690411 L64.02375,44.6890411 L5.97583984,44.6890411 L5.97583984,38.8684932 L8.52769531,36.3119178 C9.65138672,35.1858904 9.65138672,33.3530137 8.52742187,32.2267123 L5.97583984,29.670274 L5.97583984,12.9608219 L13.9477734,26.980274 C14.3720117,27.7269863 15.4497656,27.7275342 15.8749609,26.980274 L24.9558203,11.0106849 L34.0364063,26.980274 C34.460918,27.7268493 35.5389453,27.7275342 35.963457,26.980274 L45.0441797,11.0106849 L48.4736328,17.0413699 C48.776875,17.5743836 49.4537695,17.7605479 49.9861523,17.4565753 C50.518125,17.1530137 50.7039258,16.4743836 50.4006836,15.9412329 L46.7714844,9.55876712 C48.6051562,8.8590411 49.9116406,7.08013699 49.9116406,5.00041096 C49.9116406,2.31123288 47.7281055,0.123424658 45.0441797,0.123424658 C42.3605273,0.123424658 40.1772656,2.31123288 40.1772656,5.00041096 C40.1772656,7.08027397 41.4836133,8.8590411 43.3171484,9.55876712 L34.9998633,24.1856164 L26.6828516,9.55890411 C28.51625,8.85917808 29.8227344,7.08027397 29.8227344,5.00054795 C29.8227344,2.31136986 27.6391992,0.123561644 24.9556836,0.123561644 C22.2718945,0.123561644 20.0883594,2.31136986 20.0883594,5.00054795 C20.0883594,7.08027397 21.3949805,8.8590411 23.2283789,9.55890411 L14.9110938,24.1857534 L6.59421875,9.5590411 C8.42775391,8.85931507 9.73423828,7.08041096 9.73423828,5.00068493 C9.73423828,2.31150685 7.55097656,0.12369863 4.86705078,0.12369863 C2.18339844,0.12369863 0,2.31150685 0,5.00068493 C0,7.30739726 1.60712891,9.24369863 3.75785156,9.74808219 L3.75785156,38.4084932 L3.75785156,52.4415068 C0.813886719,55.0108219 2.63525391,59.8763014 6.53242188,59.8763014 L16.0537891,59.8763014 C16.6662891,59.8763014 17.1627148,59.3789041 17.1627148,58.7654795 C17.1627148,58.1517808 16.6662891,57.6542466 16.0537891,57.6542466 L6.53255859,57.6542466 C5.4228125,57.6542466 4.51978516,56.749726 4.51978516,55.6376712 C4.51978516,54.5256164 5.42267578,53.6206849 6.53255859,53.6206849 L63.4670313,53.6206849 C64.5769141,53.6206849 65.4802148,54.5253425 65.4802148,55.6376712 C65.4802148,56.7494521 64.5771875,57.6542466 63.4670313,57.6542466 L19.7994727,57.6542466 C19.1871094,57.6542466 18.6908203,58.1517808 18.6908203,58.7654795 C18.6908203,59.3790411 19.1871094,59.8763014 19.7994727,59.8763014 L63.4670313,59.8763014 C65.8,59.8763014 67.6979297,57.9747945 67.6979297,55.6375342 C67.6979297,54.3632877 67.1328711,53.2191781 66.2416016,52.4415068 L66.2416016,9.74808219 Z M42.394707,5.00068493 C42.394707,3.53657534 43.5830664,2.3460274 45.0439062,2.3460274 C46.5051562,2.3460274 47.6935156,3.53657534 47.6935156,5.00068493 C47.6935156,6.46438356 46.5051562,7.65520548 45.0439062,7.65520548 C43.5833398,7.65520548 42.394707,6.46424658 42.394707,5.00068493 Z M22.3062109,5.00068493 C22.3062109,3.53657534 23.494707,2.3460274 24.9558203,2.3460274 C26.4167969,2.3460274 27.6051563,3.53657534 27.6051563,5.00068493 C27.6051563,6.46438356 26.4167969,7.65520548 24.9558203,7.65520548 C23.494707,7.65520548 22.3062109,6.46424658 22.3062109,5.00068493 Z M62.4833398,5.00068493 C62.4833398,3.53657534 63.6716992,2.3460274 65.1325391,2.3460274 C66.5936523,2.3460274 67.7821484,3.53657534 67.7821484,5.00068493 C67.7821484,6.46438356 66.5936523,7.65520548 65.1325391,7.65520548 C63.6718359,7.65520548 62.4833398,6.46424658 62.4833398,5.00068493 Z M63.0401953,34.7408219 C62.7809766,34.4808219 62.7809766,34.0579452 63.0400586,33.7982192 L64.0236133,32.8128767 L64.0236133,35.7264384 L63.0401953,34.7408219 Z M6.95939453,33.7980822 C7.21875,34.0578082 7.21875,34.4808219 6.95939453,34.7406849 L5.97597656,35.7260274 L5.97597656,32.8127397 L6.95939453,33.7980822 Z M2.21785156,5.00068493 C2.21785156,3.53657534 3.40607422,2.3460274 4.86705078,2.3460274 C6.32802734,2.3460274 7.51652344,3.53657534 7.51652344,5.00068493 C7.51652344,6.46438356 6.32802734,7.65520548 4.86705078,7.65520548 C3.40607422,7.65520548 2.21785156,6.46424658 2.21785156,5.00068493 Z M5.97583984,51.3986301 L5.97583984,46.9109589 L64.02375,46.9109589 L64.02375,51.3986301 L5.97583984,51.3986301 Z" id="Shape"></path>
                <path d="M24.1716016,29.3446575 L21.2950391,32.2268493 C20.1710742,33.3530137 20.1710742,35.1858904 21.2950391,36.3120548 C24.3799609,39.4028767 24.3450977,39.5193151 24.9555469,39.5193151 C25.5676367,39.5193151 25.5376953,39.3963014 28.615918,36.3120548 C29.7398828,35.1858904 29.7398828,33.3530137 28.615918,32.2267123 L25.7394922,29.3446575 C25.3069141,28.9112329 24.6045898,28.9109589 24.1716016,29.3446575 Z M27.0476172,34.7406849 L24.9555469,36.8371233 L22.8632031,34.7408219 C22.6037109,34.4808219 22.6037109,34.0579452 22.8629297,33.7982192 L24.9555469,31.7016438 L27.0476172,33.7982192 C27.3073828,34.0578082 27.3073828,34.4808219 27.0476172,34.7406849 Z" id="Shape" fill="#231F20"></path>
                <path d="M45.8285352,29.3446575 C45.3955469,28.9112329 44.6933594,28.9109589 44.2603711,29.3446575 L41.3838086,32.2268493 C40.2598437,33.3530137 40.2598437,35.1858904 41.3838086,36.3120548 L44.2603711,39.1941096 C44.6928125,39.6275342 45.3952734,39.6278082 45.8285352,39.1941096 L48.7046875,36.3120548 C49.8289258,35.1858904 49.8289258,33.3530137 48.7046875,32.2267123 L45.8285352,29.3446575 Z M47.1363867,34.7406849 L45.044043,36.8371233 L42.9518359,34.7408219 C42.6924805,34.4808219 42.6924805,34.0579452 42.9515625,33.7982192 L45.044043,31.7016438 L47.1363867,33.7982192 C47.3958789,34.0578082 47.3958789,34.4808219 47.1363867,34.7406849 Z" id="Shape" fill="#231F20"></path>
            </g>
            <g id="headphones" transform="translate(1322.640124, 66.518803) rotate(-15.000000) translate(-1322.640124, -66.518803) translate(1289.640124, 36.518803)" fill-rule="nonzero">
                <path d="M54.3872227,38.1983333 L54.2583164,28.8619231 C54.2583164,17.1812821 44.721832,7.67858974 33,7.67858974 C21.278168,7.67858974 11.7418125,17.1812821 11.7418125,28.8619231 L11.6129062,38.1983333 L5.39317969,38.1983333 L5.39317969,28.8619231 C5.39305078,13.6930769 17.7774609,1.35217949 33,1.35217949 C48.2225391,1.35217949 60.6069492,13.6930769 60.6069492,28.8619231 L60.6069492,38.1983333 L54.3872227,38.1983333 Z" id="Shape" fill="#4BC8F1"></path>
                <g id="Group" transform="translate(1.289062, 38.205128)" fill="#F48BA5">
                    <path d="M58.3389727,0.0211538462 L58.3389727,16.3725641 C61.1928281,16.0903846 63.421875,13.6912821 63.421875,10.7732051 L63.421875,5.62051282 C63.421875,2.7024359 61.1928281,0.303205128 58.3389727,0.0211538462 Z" id="Shape"></path>
                    <path d="M0,5.62051282 L0,10.7732051 C0,13.6912821 2.22904688,16.0903846 5.08290234,16.3725641 L5.08290234,0.0211538462 C2.22904688,0.303205128 0,2.7024359 0,5.62051282 Z" id="Shape"></path>
                </g>
                <g id="Group" transform="translate(6.316406, 38.076923)" fill="#F05375">
                    <path d="M5.34290625,0.121410256 L0.61978125,0.121410256 C0.429386719,0.121410256 0.241183594,0.130897436 0.0555585937,0.149358974 L0.0555585937,16.5007692 C0.241183594,16.5191026 0.429386719,16.5287179 0.61978125,16.5287179 L5.34290625,16.5287179" id="Shape"></path>
                    <path d="M48.0242813,16.5285897 L52.7474063,16.5285897 C52.9378008,16.5285897 53.1260039,16.5191026 53.3116289,16.500641 L53.3116289,0.149358974 C53.1260039,0.131025641 52.9378008,0.121410256 52.7474063,0.121410256 L48.0242813,0.121410256" id="Shape"></path>
                </g>
                <g id="Group" transform="translate(11.472656, 34.102564)" fill="#008EB0">
                    <path d="M5.11951172,24.5452564 C2.34325781,24.5452564 0.0926835937,22.3025641 0.0926835937,19.5361538 L0.0926835937,5.06269231 C0.0926835937,2.29628205 2.34325781,0.0535897436 5.11951172,0.0535897436 C7.89576562,0.0535897436 10.1463398,2.29628205 10.1463398,5.06269231 L10.1463398,19.5361538 C10.1463398,22.3025641 7.89576562,24.5452564 5.11951172,24.5452564 Z" id="Shape"></path>
                    <path d="M37.9351758,0.0534615385 C40.7114297,0.0534615385 42.9620039,2.29615385 42.9620039,5.0625641 L42.9620039,19.5360256 C42.9620039,22.3025641 40.7114297,24.5451282 37.9351758,24.5451282 C35.1589219,24.5451282 32.9083477,22.3024359 32.9083477,19.5360256 L32.9083477,5.06269231 C32.9083477,2.29615385 35.1589219,0.0534615385 37.9351758,0.0534615385 Z" id="Shape"></path>
                </g>
                <path d="M61.8960117,37.5120513 L61.8960117,28.8619231 C61.8960117,12.9860256 48.9333281,0.0701282051 33,0.0701282051 C17.0666719,0.0701282051 4.10398828,12.9860256 4.10398828,28.8619231 L4.10398828,37.5119231 C1.66173047,38.5912821 0,41.0188462 0,43.825641 L0,48.9782051 C0,52.545641 2.68447266,55.5014103 6.24434766,55.8534615 C6.24550781,55.8535897 6.24653906,55.8535897 6.24769922,55.8537179 C6.47612109,55.8761538 10.6938047,55.8875641 10.6938047,55.8875641 C11.6043984,58.2491026 13.9047305,59.9298718 16.592168,59.9298718 C20.0748281,59.9298718 22.9080586,57.1075641 22.9080586,53.6387179 L22.9080586,49.7920513 L26.0573672,49.7920513 L28.7304961,57.5592308 C28.9096758,58.0798718 29.401582,58.4261538 29.9495625,58.4261538 C29.9734102,58.4261538 29.9975156,58.4255128 30.0214922,58.4241026 C30.5980898,58.3923077 31.0829063,57.9830769 31.208332,57.4223077 L34.5128438,42.6473077 L36.7916484,48.9441026 C36.9757266,49.4528205 37.4609297,49.7919231 38.0045273,49.7919231 L43.0918125,49.7919231 L43.0918125,53.6385897 C43.0918125,57.1075641 45.9251719,59.9297436 49.4077031,59.9297436 C52.0951406,59.9297436 54.3956016,58.2489744 55.3060664,55.8874359 C55.3060664,55.8874359 59.5240078,55.8760256 59.7524297,55.8535897 C59.7534609,55.8534615 59.7543633,55.8534615 59.7553945,55.8533333 C63.3153984,55.5014103 66,52.545641 66,48.9782051 L66,43.825641 C66,41.0188462 64.3381406,38.5912821 61.8960117,37.5120513 Z M58.3389727,53.3234615 L55.7237227,53.3234615 L55.7237227,39.4803846 L58.3389727,39.4803846 L58.3389727,53.3234615 Z M6.68211328,28.8619231 C6.68211328,14.3998718 18.48825,2.63423077 33,2.63423077 C47.51175,2.63423077 59.3178867,14.3998718 59.3178867,28.8619231 L59.3178867,36.9162821 L55.6587539,36.9162821 L55.5473789,28.8528205 C55.5424805,16.4694872 45.4296563,6.39653846 32.9998711,6.39653846 C20.5703438,6.39653846 10.4575195,16.4694872 10.4526211,28.8528205 L10.3412461,36.9162821 L6.68211328,36.9162821 L6.68211328,28.8619231 Z M2.578125,48.9782051 L2.578125,43.825641 C2.578125,42.0882051 3.58887891,40.5816667 5.08290234,39.8875641 L5.08290234,52.9164103 C3.58887891,52.2221795 2.578125,50.715641 2.578125,48.9782051 Z M7.66102734,39.4803846 L10.2762773,39.4803846 L10.2762773,53.3234615 L7.66102734,53.3234615 L7.66102734,39.4803846 Z M20.3299336,53.6387179 C20.3299336,55.6938462 18.6531211,57.3657692 16.592168,57.3657692 C14.5312148,57.3657692 12.8544023,55.6938462 12.8544023,53.6387179 L12.8544023,39.1652564 C12.8544023,37.1101282 14.5312148,35.4380769 16.592168,35.4380769 C18.6531211,35.4380769 20.3299336,37.1101282 20.3299336,39.1652564 L20.3299336,53.6387179 Z M38.9106094,47.2279487 L35.4328477,37.6183333 C35.2385859,37.0815385 34.7120039,36.7362821 34.1383711,36.7730769 C33.5658984,36.8091026 33.0862383,37.2171795 32.9617148,37.7742308 L29.6864648,52.4188462 L28.1982422,48.0948718 C28.0198359,47.5762821 27.5297344,47.2279487 26.9786602,47.2279487 L22.9080586,47.2279487 L22.9080586,39.1652564 C22.9080586,35.6961538 20.0746992,32.8739744 16.592168,32.8739744 C15.2411016,32.8739744 13.9877461,33.2989744 12.9595898,34.0215385 L13.0306172,28.8796154 C13.0306172,28.8737179 13.0307461,28.8678205 13.0307461,28.8619231 C13.0307461,17.8882051 21.9888281,8.96064103 32.9998711,8.96064103 C44.0109141,8.96064103 52.9692539,17.8883333 52.9692539,28.8619231 C52.9692539,28.8678205 52.9692539,28.8737179 52.9693828,28.8796154 L53.0404102,34.0216667 C52.0122539,33.2991026 50.7590273,32.8739744 49.407832,32.8739744 C45.9251719,32.8739744 43.0919414,35.6962821 43.0919414,39.1652564 L43.0919414,47.2279487 L38.9106094,47.2279487 Z M49.407832,57.3657692 C47.3468789,57.3657692 45.6700664,55.6938462 45.6700664,53.6387179 L45.6700664,39.1652564 C45.6700664,37.1101282 47.3468789,35.4380769 49.407832,35.4380769 C51.4687852,35.4380769 53.1455977,37.1101282 53.1455977,39.1652564 L53.1455977,53.6387179 C53.1455977,55.6938462 51.4687852,57.3657692 49.407832,57.3657692 Z M63.421875,48.9782051 C63.421875,50.715641 62.4111211,52.2221795 60.9170977,52.9164103 L60.9170977,39.8875641 C62.4111211,40.5816667 63.421875,42.0882051 63.421875,43.825641 L63.421875,48.9782051 Z" id="Shape" fill="#000000"></path>
            </g>
            <g id="table-tennis" transform="translate(1195.000000, 257.000000)" fill-rule="nonzero">
                <path d="M52.9679297,37.2986719 C49.9921875,37.2986719 47.5710938,39.7197656 47.5710938,42.6955078 C47.5710938,45.67125 49.9921875,48.0923437 52.9679297,48.0923437 C55.9436719,48.0923437 58.3647656,45.67125 58.3647656,42.6955078 C58.3647656,39.7197656 55.9437891,37.2986719 52.9679297,37.2986719 Z" id="Shape" fill="#F8981D"></path>
                <g id="Group" opacity="0.19" transform="translate(47.460938, 37.265625)" fill="#202121">
                    <path d="M2.1909375,5.42988281 C2.1909375,2.81003906 4.0678125,0.620976562 6.5475,0.134648438 C6.21058594,0.0685546875 5.86289063,0.0329296875 5.50710938,0.0329296875 C2.53136719,0.0329296875 0.110273438,2.45402344 0.110273438,5.42976562 C0.110273438,8.40550781 2.53136719,10.8266016 5.50710938,10.8266016 C5.86289063,10.8266016 6.21070313,10.7909766 6.5475,10.7248828 C4.0678125,10.2389063 2.1909375,8.04984375 2.1909375,5.42988281 Z" id="Shape"></path>
                </g>
                <path d="M25.0760156,40.1178516 L19.8476953,34.8894141 C19.6803516,34.7221875 19.4554688,34.6262109 19.2307031,34.6262109 C19.0916016,34.6262109 18.8902734,34.6617187 18.7211719,34.8309375 L1.89597656,51.6561328 C1.57019531,51.9827344 1.57054687,52.5139453 1.89691406,52.8403125 L7.12523437,58.0685156 C7.2834375,58.2267187 7.49390625,58.3137891 7.71808594,58.3137891 C7.94214844,58.3137891 8.1525,58.2267187 8.31058594,58.0686328 L25.1346094,41.2444922 C25.2723047,41.1070312 25.3449609,40.9180078 25.3391016,40.7124609 C25.3330078,40.4923828 25.2394922,40.2810937 25.0760156,40.1178516 Z M8.82339844,54.8862891 C8.69273438,55.0169531 8.51894531,55.0889062 8.33414062,55.0889062 C8.14933594,55.0889062 7.97566406,55.0169531 7.845,54.8864062 L5.07914062,52.1206641 C4.94847656,51.99 4.87652344,51.8163281 4.87652344,51.6314062 C4.87652344,51.4466016 4.94847656,51.2729297 5.07902344,51.1422656 C5.2096875,51.0116016 5.38347656,50.9396484 5.56828125,50.9396484 C5.75320312,50.9396484 5.926875,51.0116016 6.05742187,51.1421484 L8.82328125,53.9078906 C8.95394531,54.0385547 9.02589844,54.2122266 9.02589844,54.3971484 C9.02601562,54.5818359 8.95394531,54.7555078 8.82339844,54.8862891 Z" id="Shape" fill="#485D6D"></path>
                <g id="Group" opacity="0.19" transform="translate(1.640625, 34.570312)" fill="#202121">
                    <path d="M2.58257812,18.2790234 C2.25632812,17.9526562 2.25597656,17.4214453 2.58164062,17.0948437 L18.7822266,0.894257812 L18.2069531,0.319101562 C18.0397266,0.151875 17.8147266,0.0558984375 17.5899609,0.0558984375 C17.4508594,0.0558984375 17.2495312,0.09140625 17.0804297,0.260625 L0.255351562,17.0858203 C-0.0704296875,17.4124219 -0.070078125,17.9436328 0.256289062,18.27 L5.48460937,23.4982031 C5.6428125,23.6564062 5.85328125,23.7434766 6.07746094,23.7434766 C6.30152344,23.7434766 6.511875,23.6564062 6.66996094,23.4983203 L7.23609375,22.9321875 L2.58257812,18.2790234 Z" id="Shape"></path>
                </g>
                <g id="Group" transform="translate(12.421875, 19.335938)" fill="#485D6D">
                    <path d="M3.06140625,16.4203125 L5.14300781,14.3387109 C5.58386719,13.8979687 6.17542969,13.6551562 6.80882812,13.6551562 C7.47375,13.6551562 8.10351562,13.9188281 8.58210937,14.3970703 L13.8105469,19.6255078 C14.270625,20.0857031 14.5339453,20.6914453 14.5517578,21.3310547 C14.5700391,21.9904687 14.3276953,22.6061719 13.8691406,23.0647266 L11.7894141,25.1444531 C16.6801172,27.8316797 22.3521094,28.5330469 27.6611719,27.2180859 L0.97453125,0.531796875 C-0.333984375,5.77769531 0.31921875,11.4426563 3.06140625,16.4203125 Z" id="Shape"></path>
                    <path d="M22.3782422,28.1139844 C18.6446484,28.1139844 14.9410547,27.1633594 11.6682422,25.3651172 L11.3745703,25.20375 L13.69125,22.8870703 C14.1002344,22.4779687 14.3165625,21.9277734 14.3002734,21.3382031 C14.2842188,20.7632812 14.0470313,20.218125 13.6326563,19.8036328 L8.40421875,14.5751953 C7.97308594,14.1441797 7.40660156,13.9067578 6.80882813,13.9067578 C6.24269531,13.9067578 5.71429688,14.1233203 5.32089844,14.5166016 L3.00257813,16.8349219 L2.84109375,16.5417187 C0.124921875,11.6112891 -0.624726562,5.90402344 0.730546875,0.470859375 L0.838125,0.039609375 L28.1539453,27.3554297 L27.7215234,27.4625391 C25.9757813,27.8948437 24.1780078,28.1139844 22.3782422,28.1139844 Z M12.2061328,25.0836328 C15.3316406,26.7379688 18.8411719,27.6110156 22.3783594,27.6110156 C23.9879297,27.6110156 25.5957422,27.4316016 27.1642969,27.0774609 L1.1146875,1.02773438 C-0.03984375,6.09773438 0.668085938,11.3853516 3.12199219,16.0038281 L4.965,14.1608203 C5.4534375,13.6723828 6.10816406,13.4035547 6.80871094,13.4035547 C7.54078125,13.4035547 8.23371094,13.6932422 8.75976563,14.2191797 L13.9882031,19.4476172 C14.4939844,19.9535156 14.7833203,20.6198438 14.8028906,21.3240234 C14.8231641,22.0532813 14.5545703,22.7346094 14.0466797,23.2426172 L12.2061328,25.0836328 Z" id="Shape"></path>
                </g>
                <path d="M52.5160547,7.44972656 C48.4642969,3.39785156 43.0223438,1.16660156 37.1922656,1.16660156 C30.5709375,1.16660156 24.1501172,3.94089844 19.1126953,8.97832031 C16.7037891,11.3872266 14.9091797,14.2170703 13.7786719,17.3894531 L13.7245313,17.5409766 L42.4108594,46.2274219 L42.5622656,46.1738672 C43.7857031,45.7405078 44.9767969,45.1992188 46.1077734,44.5621875 L46.7490234,44.1814453 L46.7135156,44.0046094 C46.6244531,43.5603516 46.5792188,43.1056641 46.5792188,42.6529687 C46.5792188,38.8689844 49.6576172,35.7905859 53.4416016,35.7905859 C53.8844531,35.7905859 54.3316406,35.8345312 54.7705078,35.9207812 L54.9420703,35.9546484 L55.0351172,35.8067578 C61.0069922,26.3240625 59.9947266,14.9281641 52.5160547,7.44972656 Z" id="Shape" fill="#F04C35"></path>
                <g id="Group">
                    <path d="M8.33425781,55.3405078 C8.57566406,55.3405078 8.81707031,55.2483984 9.00140625,55.0641797 C9.36984375,54.6957422 9.36984375,54.0984375 9.00128906,53.7302344 L6.23542969,50.9644922 C5.86710937,50.5961719 5.26980469,50.5960547 4.90148437,50.9646094 C4.53304688,51.3330469 4.53304688,51.9303516 4.90160156,52.2986719 L7.66746094,55.0644141 C7.85144531,55.2483984 8.09296875,55.3405078 8.33425781,55.3405078 Z" id="Shape" fill="#202121"></path>
                    <path d="M56.1568359,36.43125 C60.1374609,29.8853906 61.0792969,22.3098047 58.7298047,15.5300391 C58.5591797,15.0378516 58.0216406,14.7772266 57.5294531,14.9476172 C57.0371484,15.118125 56.7764063,15.6556641 56.9470313,16.1479687 C59.1523828,22.5110156 58.1950781,29.6548828 54.3287109,35.7969141 C53.8882031,35.7101953 53.4335156,35.6635547 52.9680469,35.6635547 C49.0905469,35.6635547 45.9359766,38.818125 45.9359766,42.6955078 C45.9359766,43.1695313 45.9837891,43.6325391 46.0736719,44.0805469 L45.5936719,44.3655469 C44.4764063,44.9948438 43.3185938,45.5178516 42.1344141,45.9371484 L14.0148047,17.8178906 C15.0875391,14.8078125 16.8332813,11.9933203 19.2261328,9.60058594 C28.8035156,0.022734375 43.1450391,-0.640546875 51.8757422,8.09003906 C53.3608594,9.57492187 54.6100781,11.2473047 55.5889453,13.0605469 C55.8364453,13.5188672 56.4086719,13.6900781 56.8672266,13.4424609 C57.3256641,13.1949609 57.4966406,12.6226172 57.2491406,12.1641797 C56.1832031,10.1900391 54.8242969,8.37046875 53.2099219,6.75597656 C48.6445313,2.19070312 42.5254688,-0.190429688 35.9766797,0.0495703125 C29.3704688,0.292265625 22.9478906,3.21035156 17.8920703,8.26628906 C15.2394141,10.9190625 13.2567187,14.1650391 12.0912891,17.6949609 C12.0596484,17.7645703 12.0359766,17.8367578 12.0221484,17.9105859 C11.5389844,19.4219531 11.2040625,20.9834766 11.0314453,22.5720703 C10.4821875,27.6268359 11.5695703,32.7699609 14.0984766,37.1410547 L0.740390625,50.4989062 C0.740039063,50.4992578 0.739804688,50.4996094 0.739335938,50.5000781 L0.68203125,50.5573828 C-0.249726563,51.489375 -0.22359375,53.0320312 0.740507812,53.9963672 L5.96882813,59.2246875 C6.44753906,59.7032812 7.07730469,59.9667187 7.74234375,59.9667187 C7.74246094,59.9667187 7.74257813,59.9667187 7.74257813,59.9667187 C8.37597656,59.9667187 8.96742188,59.7240234 9.40816406,59.2832812 L22.8241406,45.8674219 C26.5208203,48.0103125 30.6541406,49.0860937 34.7949609,49.0858594 C38.8344141,49.085625 42.8806641,48.0612891 46.5292969,46.0039453 C46.5355078,46.0005469 46.5416016,45.9969141 46.5476953,45.9932812 L46.7101172,45.8968359 C47.8770703,48.1686328 50.2430859,49.7275781 52.9679297,49.7275781 C56.8454297,49.7275781 59.9998828,46.5730078 59.9998828,42.695625 C60,39.9657422 58.4354297,37.5959766 56.1568359,36.43125 Z M2.0746875,52.6624219 C1.84628906,52.4339062 1.84617187,52.0621875 2.07421875,51.8336719 L15.136875,38.7710156 L15.9533203,37.9545703 L18.8990625,35.0088281 C19.0072266,34.9005469 19.1390625,34.8778125 19.2307031,34.8778125 C19.3894922,34.8778125 19.5494531,34.9469531 19.6698047,35.0673047 L24.898125,40.2957422 C25.0160156,40.4135156 25.0832813,40.5639844 25.0875,40.7194922 C25.0901953,40.8155859 25.0696875,40.95375 24.9567188,41.0666016 L22.0110938,44.0121094 L22.0109766,44.0122266 L8.40386719,57.6196875 L8.13269531,57.8908594 C7.9040625,58.1194922 7.531875,58.119375 7.30300781,57.8907422 L2.0746875,52.6624219 Z M24.2111719,44.480625 L26.2908984,42.4008984 C26.7493359,41.9423437 26.9916797,41.3266406 26.9735156,40.6672266 C26.9557031,40.0276172 26.6925,39.4219922 26.2323047,38.9616797 L21.0038672,33.7332422 C20.5252734,33.2547656 19.8955078,32.9913281 19.2307031,32.9913281 C18.5973047,32.9913281 18.0057422,33.2342578 17.5648828,33.6748828 L15.4832812,35.7564844 C12.7410937,30.7789453 12.0878906,25.1138672 13.3964063,19.8679688 L40.0829297,46.5544922 C34.7738672,47.8691016 29.101875,47.1678516 24.2111719,44.480625 Z M52.9679297,47.8409766 C50.1307031,47.8409766 47.8225781,45.5327344 47.8225781,42.695625 C47.8225781,39.8585156 50.1308203,37.5502734 52.9679297,37.5502734 C55.8050391,37.5502734 58.1132813,39.8585156 58.1132813,42.695625 C58.1132813,45.5327344 55.8051563,47.8409766 52.9679297,47.8409766 Z" id="Shape"></path>
                </g>
                <g id="Group" opacity="0.19" transform="translate(12.070312, 1.640625)" fill="#202121">
                    <path d="M24.8422266,0.06328125 C24.8422266,0.06328125 -5.07058594,6.28441406 4.87910156,32.2937109 L4.89867188,32.9854688 L2.81015625,34.9661719 C2.81015625,34.9661719 -8.07761719,15.0809766 13.2691406,2.25855469 C13.2690234,2.25867188 18.0967969,-0.248789062 24.8422266,0.06328125 Z" id="Shape"></path>
                </g>
                <g id="Group" opacity="0.19" transform="translate(22.617188, 42.656250)" fill="#202121">
                    <path d="M3.02332031,0.0392578125 L0.0609375,2.02300781 C11.4364453,10.1535938 23.1046875,1.92574219 23.1046875,1.92574219 C13.3757813,7.19203125 3.02332031,0.0392578125 3.02332031,0.0392578125 Z" id="Shape"></path>
                </g>
            </g>
            <g id="Camera" transform="translate(1033.842165, 27.720844) rotate(-15.000000) translate(-1033.842165, -27.720844) translate(1008.842165, 5.720844)">
                <path d="M5,8 L2.99653242,8 C1.34159326,8 -2.27373675e-13,9.34553934 -2.27373675e-13,11.0074199 L-2.27373675e-13,40.9925801 C-2.27373675e-13,42.6535323 1.33737922,44 2.99653242,44 L47.0034676,44 C48.6584067,44 50,42.6544607 50,40.9925801 L50,11.0074199 C50,9.34646775 48.6626208,8 47.0034676,8 L35.8047053,8 L33.8034007,0.961725533 C33.6523714,0.430579188 33.0736039,-1.13686838e-13 32.5389368,-1.13686838e-13 L17.4601836,-1.13686838e-13 C16.9128688,-1.13686838e-13 16.3477423,0.427086353 16.1957198,0.961725533 L15.3317988,4 L5.50034732,4 C5.22401312,4 5,4.22788048 5,4.49100518 L5,8 Z" id="Rectangle-32" fill="#6B6D7C"></path>
                <path d="M15,9 L17,2" id="Line" stroke="#000000" stroke-width="2" stroke-linecap="round"></path>
                <path d="M45,16 L49,16 L49,36 L33.307148,36 C36.1745338,33.6153915 38,30.020876 38,26 C38,21.979124 36.1745338,18.3846085 33.307148,16 L41,16 C41,17.1045695 41.8954305,18 43,18 C44.1045695,18 45,17.1045695 45,16 Z M16.692852,36 L1,36 L1,16 L16.692852,16 C13.8254662,18.3846085 12,21.979124 12,26 C12,30.020876 13.8254662,33.6153915 16.692852,36 Z" id="Rectangle-67" stroke="#000000" stroke-width="2" fill="#464654" fill-rule="nonzero"></path>
                <path d="M25,39 C32.1797017,39 38,33.1797017 38,26 C38,18.8202983 32.1797017,13 25,13 C17.8202983,13 12,18.8202983 12,26 C12,33.1797017 17.8202983,39 25,39 Z" id="Oval-24" stroke="#000000" stroke-width="2" fill="#4F505D"></path>
                <circle id="Oval-20" stroke="#000000" stroke-width="2" fill="#F7CE80" cx="43" cy="16" r="2"></circle>
                <path d="M8,9 L38,9" id="Line" stroke="#000000" stroke-width="2" stroke-linecap="square"></path>
                <rect id="Rectangle-71" fill-opacity="0.4" fill="#000000" fill-rule="nonzero" x="6" y="5" width="9" height="4"></rect>
                <g id="Oval-36" transform="translate(14.000000, 15.000000)">
                    <path d="M11,22 C17.0751322,22 22,17.0751322 22,11 C22,4.9248678 17.0751322,0 11,0 C4.9248678,0 0,4.9248678 0,11 C0,17.0751322 4.9248678,22 11,22 Z M7.5,10 C8.8807119,10 10,8.8807119 10,7.5 C10,6.1192881 8.8807119,5 7.5,5 C6.1192881,5 5,6.1192881 5,7.5 C5,8.8807119 6.1192881,10 7.5,10 Z M14.5,16 C15.3284271,16 16,15.3284271 16,14.5 C16,13.6715729 15.3284271,13 14.5,13 C13.6715729,13 13,13.6715729 13,14.5 C13,15.3284271 13.6715729,16 14.5,16 Z" id="path-7"></path>
                </g>
                <g id="Oval-19-Clipped" transform="translate(14.000000, 15.000000)">
                    <mask id="mask-2" fill="white">
                        <use xlink:href="#path-1"></use>
                    </mask>
                    <g id="path-7"></g>
                    <path d="M11,20 C15.9705627,20 20,15.9705627 20,11 C20,6.0294373 15.9705627,2 11,2 C6.0294373,2 2,6.0294373 2,11 C2,15.9705627 6.0294373,20 11,20 Z" id="Oval-19" stroke="#000000" stroke-width="2" fill-opacity="0.4" fill="#000000" fill-rule="nonzero" mask="url(#mask-2)"></path>
                </g>
                <g id="Oval-30-Clipped" transform="translate(14.000000, 15.000000)">
                    <path d="M11,22 C17.0751322,22 22,17.0751322 22,11 C22,4.9248678 17.0751322,0 11,0 C4.9248678,0 0,4.9248678 0,11 C0,17.0751322 4.9248678,22 11,22 Z" id="path-7"></path>
                    <circle id="Oval-30" fill="#79C9AE" fill-rule="nonzero" cx="11" cy="11" r="5"></circle>
                </g>
                <g id="Oval-26-Clipped" transform="translate(27.000000, 28.000000)">
                    <path d="M-2,7 C2.9705627,7 7,2.9705627 7,-2 C7,-6.9705627 2.9705627,-11 -2,-11 C-6.9705627,-11 -11,-6.9705627 -11,-2 C-11,2.9705627 -6.9705627,7 -2,7 Z" id="Oval-26" stroke="#000000" stroke-width="2" fill="#97E3C5" fill-rule="nonzero"></path>
                    <path d="M-2,9 C4.0751322,9 9,4.0751322 9,-2 C9,-8.0751322 4.0751322,-13 -2,-13 C-8.0751322,-13 -13,-8.0751322 -13,-2 C-13,4.0751322 -8.0751322,9 -2,9 Z" id="path-7-path"></path>
                    <path d="M-5.5,-3 C-4.1192881,-3 -3,-4.1192881 -3,-5.5 C-3,-6.8807119 -4.1192881,-8 -5.5,-8 C-6.8807119,-8 -8,-6.8807119 -8,-5.5 C-8,-4.1192881 -6.8807119,-3 -5.5,-3 Z" id="path-7-path" fill="#FFFFFF"></path>
                    <path d="M1.5,3 C2.3284271,3 3,2.3284271 3,1.5 C3,0.6715729 2.3284271,-5.68434189e-14 1.5,-5.68434189e-14 C0.6715729,-5.68434189e-14 0,0.6715729 0,1.5 C0,2.3284271 0.6715729,3 1.5,3 Z" id="path-7-path" fill="#FFFFFF"></path>
                </g>
            </g>
            <g id="palette" transform="translate(128.000000, 107.000000)" fill-rule="nonzero">
                <path d="M50.6639648,26.0779839 C44.9731608,19.6027016 39.0340088,18.097379 39.0340088,10.9570161 C39.0340088,3.17479839 32.4518172,-2.79302419 20.9313767,1.36173387 C8.57903084,5.81649194 0.0251982379,16.5618145 0.0251982379,29.9489516 C0.0251982379,46.5174194 13.4763326,59.9489516 30.0692511,59.9489516 C32.798293,59.9489516 35.442533,59.5855645 37.9556938,58.9047581 L37.954967,58.9016129 C50.6639648,55.2312097 61.082467,37.9328226 50.6639648,26.0779839 Z M37.8832489,22.946371 C36.1265198,25.1909274 31.2604736,23.8786694 29.382478,20.7027823 C27.7271476,17.9035887 28.3328744,13.9005242 31.1982048,12.1356048 C32.8591079,11.1125806 35.0495374,12.1192742 35.4662775,14.0229435 C35.8054846,15.5720565 36.5012225,17.4912097 37.9181388,19.2471774 C38.781663,20.3177419 38.7310242,21.8632258 37.8832489,22.946371 Z" id="Shape" fill="#E6BE94"></path>
                <ellipse id="Oval" fill="#FF4F19" cx="17.4568062" cy="16.413871" rx="5.80165198" ry="5.79314516"></ellipse>
                <ellipse id="Oval" fill="#FF8C62" cx="18.8914097" cy="14.9655242" rx="2.03063877" ry="2.02766129"></ellipse>
                <ellipse id="Oval" fill="#FFCD00" cx="11.6418282" cy="30.93" rx="5.80165198" ry="5.79314516"></ellipse>
                <ellipse id="Oval" fill="#FFE671" cx="13.0764317" cy="29.4816532" rx="2.03063877" ry="2.02766129"></ellipse>
                <ellipse id="Oval" fill="#00C37A" cx="18.3994383" cy="44.4518952" rx="5.80165198" ry="5.79314516"></ellipse>
                <ellipse id="Oval" fill="#60DC4D" cx="19.8339207" cy="43.0035484" rx="2.03063877" ry="2.02766129"></ellipse>
                <ellipse id="Oval" fill="#4CD7FF" cx="32.9634141" cy="49.3170968" rx="5.80165198" ry="5.79314516"></ellipse>
                <ellipse id="Oval" fill="#AEEFFF" cx="34.3978965" cy="47.86875" rx="2.03063877" ry="2.02766129"></ellipse>
                <ellipse id="Oval" fill="#009BCA" cx="43.624207" cy="38.6454435" rx="5.80165198" ry="5.79314516"></ellipse>
                <ellipse id="Oval" fill="#4CD7FF" cx="45.0586894" cy="37.1970968" rx="2.03063877" ry="2.02766129"></ellipse>
            </g>
        </g>
    </g>
</svg>