<?xml version="1.0" encoding="UTF-8"?>
<svg width="272px" height="272px" viewBox="0 0 272 272" version="1.1" xmlns="http://www.w3.org/2000/svg" xmlns:xlink="http://www.w3.org/1999/xlink">
    <!-- Generator: Sketch 52.3 (67297) - http://www.bohemiancoding.com/sketch -->
    <title>cal-manac</title>
    <desc>Created with Sketch.</desc>
    <defs>
        <linearGradient x1="50%" y1="1.4496026%" x2="50%" y2="100%" id="linearGradient-1">
            <stop stop-color="#696969" offset="0%"></stop>
            <stop stop-color="#000000" offset="100%"></stop>
        </linearGradient>
        <circle id="path-2" cx="120.5" cy="120.5" r="120.5"></circle>
        <filter x="-2.9%" y="-2.1%" width="105.8%" height="105.8%" filterUnits="objectBoundingBox" id="filter-3">
            <feOffset dx="0" dy="2" in="SourceAlpha" result="shadowOffsetOuter1"></feOffset>
            <feGaussianBlur stdDeviation="2" in="shadowOffsetOuter1" result="shadowBlurOuter1"></feGaussianBlur>
            <feColorMatrix values="0 0 0 0 0   0 0 0 0 0   0 0 0 0 0  0 0 0 0.24 0" type="matrix" in="shadowBlurOuter1"></feColorMatrix>
        </filter>
        <path d="M0,34.0243902 L0,124.02439 C0,130.076067 4.90683594,135 10.9375,135 L129.0625,135 C135.093164,135 140,130.076067 140,124.02439 L140,34.0243902 L0,34.0243902 Z" id="path-4"></path>
        <filter x="-5.0%" y="-5.0%" width="110.0%" height="113.9%" filterUnits="objectBoundingBox" id="filter-5">
            <feOffset dx="0" dy="2" in="SourceAlpha" result="shadowOffsetOuter1"></feOffset>
            <feGaussianBlur stdDeviation="2" in="shadowOffsetOuter1" result="shadowBlurOuter1"></feGaussianBlur>
            <feColorMatrix values="0 0 0 0 0   0 0 0 0 0   0 0 0 0 0  0 0 0 0.16 0" type="matrix" in="shadowBlurOuter1"></feColorMatrix>
        </filter>
        <path d="M129.0625,3.29268293 L10.9375,3.29268293 C4.90683594,3.29268293 0,8.21661585 0,14.2682927 L0,34.0243902 L140,34.0243902 L140,14.2682927 C140,8.21661585 135.092891,3.29268293 129.0625,3.29268293 Z M17.5,25.2439024 C13.8755859,25.2439024 10.9375,22.2955793 10.9375,18.6585366 C10.9375,15.0214939 13.8755859,12.0731707 17.5,12.0731707 C21.1244141,12.0731707 24.0625,15.0214939 24.0625,18.6585366 C24.0625,22.2955793 21.1244141,25.2439024 17.5,25.2439024 Z M122.5,25.2439024 C118.875586,25.2439024 115.9375,22.2955793 115.9375,18.6585366 C115.9375,15.0214939 118.875586,12.0731707 122.5,12.0731707 C126.124414,12.0731707 129.0625,15.0214939 129.0625,18.6585366 C129.0625,22.2955793 126.124414,25.2439024 122.5,25.2439024 Z" id="path-6"></path>
        <filter x="-5.0%" y="-16.3%" width="110.0%" height="145.6%" filterUnits="objectBoundingBox" id="filter-7">
            <feOffset dx="0" dy="2" in="SourceAlpha" result="shadowOffsetOuter1"></feOffset>
            <feGaussianBlur stdDeviation="2" in="shadowOffsetOuter1" result="shadowBlurOuter1"></feGaussianBlur>
            <feColorMatrix values="0 0 0 0 0   0 0 0 0 0   0 0 0 0 0  0 0 0 0.16 0" type="matrix" in="shadowBlurOuter1"></feColorMatrix>
        </filter>
    </defs>
    <g id="Page-1" stroke="none" stroke-width="1" fill="none" fill-rule="evenodd">
        <g id="cal-manac">
            <g id="Group-2" transform="translate(16.000000, 16.000000)">
                <g id="Oval" fill-rule="nonzero">
                    <use fill="black" fill-opacity="1" filter="url(#filter-3)" xlink:href="#path-2"></use>
                    <use fill="url(#linearGradient-1)" xlink:href="#path-2"></use>
                </g>
                <rect id="Rectangle" fill="#D8D8D8" fill-rule="nonzero" x="61" y="59" width="124" height="27"></rect>
                <g id="calendar" transform="translate(50.000000, 53.000000)">
                    <g id="Path">
                        <use fill="black" fill-opacity="1" filter="url(#filter-5)" xlink:href="#path-4"></use>
                        <use fill="#FAFAFA" fill-rule="evenodd" xlink:href="#path-4"></use>
                    </g>
                    <g id="Shape" fill-rule="nonzero">
                        <use fill="black" fill-opacity="1" filter="url(#filter-7)" xlink:href="#path-6"></use>
                        <use fill="#D86155" xlink:href="#path-6"></use>
                    </g>
                    <g id="Group" transform="translate(17.500000, 53.780488)">
                        <path d="M52.5,0 C47.674375,0 43.75,3.93804878 43.75,8.7804878 C43.75,13.6229268 47.674375,17.5609756 52.5,17.5609756 C57.325625,17.5609756 61.25,13.6229268 61.25,8.7804878 C61.25,3.93804878 57.325625,0 52.5,0 Z" id="Path" fill="#1D1D1D" opacity="0.244096"></path>
                        <path d="M30.625,0 C25.799375,0 21.875,3.93804878 21.875,8.7804878 C21.875,13.6229268 25.799375,17.5609756 30.625,17.5609756 C35.450625,17.5609756 39.375,13.6229268 39.375,8.7804878 C39.375,3.93804878 35.450625,0 30.625,0 Z" id="Path" fill="#1D1D1D" opacity="0.244096"></path>
                        <path d="M74.375,0 C69.549375,0 65.625,3.93804878 65.625,8.7804878 C65.625,13.6229268 69.549375,17.5609756 74.375,17.5609756 C79.200625,17.5609756 83.125,13.6229268 83.125,8.7804878 C83.125,3.93804878 79.200625,0 74.375,0 Z" id="Path" fill="#1D1D1D" opacity="0.244096"></path>
                        <path d="M96.25,17.5609756 C101.075625,17.5609756 105,13.6229268 105,8.7804878 C105,3.93804878 101.075625,0 96.25,0 C91.424375,0 87.5,3.93804878 87.5,8.7804878 C87.5,13.6229268 91.4241016,17.5609756 96.25,17.5609756 Z" id="Path" fill="#1D1D1D" opacity="0.244096"></path>
                        <path d="M52.5,21.9512195 C47.674375,21.9512195 43.75,25.8892683 43.75,30.7317073 C43.75,35.5741463 47.674375,39.5121951 52.5,39.5121951 C57.325625,39.5121951 61.25,35.5741463 61.25,30.7317073 C61.25,25.8892683 57.325625,21.9512195 52.5,21.9512195 Z" id="Path" fill="#1D1D1D" opacity="0.244096"></path>
                        <path d="M30.625,21.9512195 C25.799375,21.9512195 21.875,25.8892683 21.875,30.7317073 C21.875,35.5741463 25.799375,39.5121951 30.625,39.5121951 C35.450625,39.5121951 39.375,35.5741463 39.375,30.7317073 C39.375,25.8892683 35.450625,21.9512195 30.625,21.9512195 Z" id="Path" fill="#1D1D1D" opacity="0.244096"></path>
                        <path d="M8.75,21.9512195 C3.924375,21.9512195 0,25.8892683 0,30.7317073 C0,35.5741463 3.924375,39.5121951 8.75,39.5121951 C13.575625,39.5121951 17.5,35.5741463 17.5,30.7317073 C17.5,25.8892683 13.575625,21.9512195 8.75,21.9512195 Z" id="Path" fill="#1D1D1D" opacity="0.244096"></path>
                        <path d="M74.375,21.9512195 C69.549375,21.9512195 65.625,25.8892683 65.625,30.7317073 C65.625,35.5741463 69.549375,39.5121951 74.375,39.5121951 C79.200625,39.5121951 83.125,35.5741463 83.125,30.7317073 C83.125,25.8892683 79.200625,21.9512195 74.375,21.9512195 Z" id="Path" fill="#FFFFFF"></path>
                        <path d="M96.25,21.9512195 C91.424375,21.9512195 87.5,25.8892683 87.5,30.7317073 C87.5,35.5741463 91.424375,39.5121951 96.25,39.5121951 C101.075625,39.5121951 105,35.5741463 105,30.7317073 C105,25.8892683 101.075625,21.9512195 96.25,21.9512195 Z" id="Path" fill="#1D1D1D" opacity="0.244096"></path>
                        <path d="M52.5,43.902439 C47.674375,43.902439 43.75,47.8404878 43.75,52.6829268 C43.75,57.5253659 47.674375,61.4634146 52.5,61.4634146 C57.325625,61.4634146 61.25,57.5253659 61.25,52.6829268 C61.25,47.8402134 57.325625,43.902439 52.5,43.902439 Z" id="Path" fill="#FFFFFF"></path>
                        <path d="M30.625,43.902439 C25.799375,43.902439 21.875,47.8404878 21.875,52.6829268 C21.875,57.5253659 25.799375,61.4634146 30.625,61.4634146 C35.450625,61.4634146 39.375,57.5253659 39.375,52.6829268 C39.375,47.8402134 35.450625,43.902439 30.625,43.902439 Z" id="Path" fill="#1D1D1D" opacity="0.244096"></path>
                        <path d="M8.75,43.902439 C3.924375,43.902439 0,47.8404878 0,52.6829268 C0,57.5253659 3.924375,61.4634146 8.75,61.4634146 C13.575625,61.4634146 17.5,57.5253659 17.5,52.6829268 C17.5,47.8402134 13.575625,43.902439 8.75,43.902439 Z" id="Path" fill="#1D1D1D" opacity="0.244096"></path>
                        <path d="M74.375,43.902439 C69.549375,43.902439 65.625,47.8404878 65.625,52.6829268 C65.625,57.5253659 69.549375,61.4634146 74.375,61.4634146 C79.200625,61.4634146 83.125,57.5253659 83.125,52.6829268 C83.125,47.8402134 79.200625,43.902439 74.375,43.902439 Z" id="Path" fill="#1D1D1D" opacity="0.244096"></path>
                        <path d="M96.25,43.902439 C91.424375,43.902439 87.5,47.8404878 87.5,52.6829268 C87.5,57.5253659 91.424375,61.4634146 96.25,61.4634146 C101.075625,61.4634146 105,57.5253659 105,52.6829268 C105,47.8402134 101.075625,43.902439 96.25,43.902439 Z" id="Path" fill="#1D1D1D" opacity="0.244096"></path>
                    </g>
                    <path d="M17.5,21.9512195 C15.6884766,21.9512195 14.21875,20.4774695 14.21875,18.6585366 L14.21875,3.29268293 C14.21875,1.47375 15.6884766,0 17.5,0 C19.3115234,0 20.78125,1.47375 20.78125,3.29268293 L20.78125,18.6585366 C20.78125,20.4774695 19.3115234,21.9512195 17.5,21.9512195 Z" id="Path" fill="#5C546A"></path>
                    <path d="M122.5,21.9512195 C120.688477,21.9512195 119.21875,20.4774695 119.21875,18.6585366 L119.21875,3.29268293 C119.21875,1.47375 120.688477,0 122.5,0 C124.311523,0 125.78125,1.47375 125.78125,3.29268293 L125.78125,18.6585366 C125.78125,20.4774695 124.311523,21.9512195 122.5,21.9512195 Z" id="Path" fill="#5C546A"></path>
                    <ellipse id="Oval" fill="#5B8AEE" cx="70" cy="106.463415" rx="8.75" ry="8.7804878"></ellipse>
                    <ellipse id="Oval" fill="#C4C4C4" cx="91.875" cy="84.5121951" rx="8.75" ry="8.7804878"></ellipse>
                </g>
            </g>
        </g>
    </g>
</svg>