<?xml version="1.0" encoding="UTF-8"?>
<svg width="555px" height="360px" viewBox="0 0 555 360" version="1.1" xmlns="http://www.w3.org/2000/svg" xmlns:xlink="http://www.w3.org/1999/xlink">
    <!-- Generator: Sketch 52.4 (67378) - http://www.bohemiancoding.com/sketch -->
    <title>banner</title>
    <desc>Created with Sketch.</desc>
    <defs>
        <rect id="path-1" x="0" y="0" width="321.330998" height="239.351351" rx="5.83783784"></rect>
        <path d="M0,237.405405 L0,1.94587702 C0,0.871198817 0.86341284,-5.68434189e-14 1.94561182,-5.68434189e-14 L5.84423056,-5.68434189e-14 C6.91876229,-5.68434189e-14 7.78984238,0.871476381 7.78984238,1.94587702 L7.78984238,236.423863 C7.78984238,236.965954 8.23314564,237.405405 8.75914905,237.405405 L31.1637932,237.405405 C31.6991264,237.405405 31.9392501,237.803727 31.7105299,238.273701 L30.1856392,241.407042 L31.6911908,244.330962 C31.9352505,244.804948 31.6897965,245.189189 31.1637932,245.189189 L7.78984238,245.189189 L0,237.405405 Z" id="path-3"></path>
        <path d="M0,237.405405 L0,1.94587702 C0,0.871198817 0.86341284,-5.68434189e-14 1.94561182,-5.68434189e-14 L5.84423056,-5.68434189e-14 C6.91876229,-5.68434189e-14 7.78984238,0.871476381 7.78984238,1.94587702 L7.78984238,236.423863 C7.78984238,236.965954 8.23314564,237.405405 8.75914905,237.405405 L31.1637932,237.405405 C31.6991264,237.405405 31.9392501,237.803727 31.7105299,238.273701 L30.1856392,241.407042 L31.6911908,244.330962 C31.9352505,244.804948 31.6897965,245.189189 31.1637932,245.189189 L7.78984238,245.189189 L0,237.405405 Z" id="path-5"></path>
    </defs>
    <g id="Page-1" stroke="none" stroke-width="1" fill="none" fill-rule="evenodd">
        <g id="banner" transform="translate(-1.000000, 0.000000)">
            <g id="Coffee-Stains" transform="translate(241.485114, 13.621622)">
                <path d="M167.41097,30.1088268 C160.888636,31.7583567 154.843057,34.6036668 149.521553,38.39763 M130.565986,62.8461945 C129.341414,66.039453 128.41425,69.3798408 127.818368,72.8335104 M126.584939,82.7027027 C126.584939,112.2574 150.562404,136.216216 180.140105,136.216216 C209.717807,136.216216 233.695271,112.2574 233.695271,82.7027027 C233.695271,53.1480053 209.717807,29.1891892 180.140105,29.1891892" id="Oval-26" stroke="#000000" stroke-width="3.89189189" opacity="0.15" stroke-linecap="round" stroke-linejoin="round"></path>
                <path d="M-7.10542736e-15,53.5135135 C-7.10542736e-15,71.4089028 8.79088348,87.252668 22.2929911,96.9683235 M29.3310351,101.252676 C36.6054635,104.945497 44.8370421,107.027027 53.5551664,107.027027 M60.3032288,106.606294 C86.6954138,103.290768 107.110333,80.7843662 107.110333,53.5135135 C107.110333,23.9588161 83.132868,0 53.5551664,0" id="Oval-26" stroke="#000000" stroke-width="3.89189189" opacity="0.2" stroke-linecap="round" stroke-linejoin="round" transform="translate(53.555166, 53.513514) rotate(90.000000) translate(-53.555166, -53.513514) "></path>
                <path d="M179.208028,60.3243243 C179.208028,89.9020259 203.166844,113.879491 232.721541,113.879491 C262.276238,113.879491 286.235055,89.9020259 286.235055,60.3243243 C286.235055,30.7466227 262.276238,6.76915795 232.721541,6.76915795" id="Oval-26" stroke="#000000" stroke-width="3.89189189" opacity="0.1" stroke-linecap="round" stroke-linejoin="round" transform="translate(232.721541, 60.324324) rotate(90.000000) translate(-232.721541, -60.324324) "></path>
                <ellipse id="Oval-39" fill="#000000" opacity="0.3" cx="108.084063" cy="6.81081081" rx="6.81611208" ry="6.81081081"></ellipse>
                <ellipse id="Oval-39" fill="#000000" opacity="0.2" cx="98.8336252" cy="23.8378378" rx="4.38178634" ry="4.37837838"></ellipse>
            </g>
            <g id="Book" transform="translate(98.346760, 107.027027)">
                <g id="Cover" transform="translate(0.000000, 1.945946)">
                    <g id="path-1-link" fill="#000000">
                        <rect id="path-1" x="0" y="0" width="321.330998" height="239.351351" rx="5.83783784"></rect>
                    </g>
                    <g id="path-1-link" stroke-linecap="square">
                        <g id="path-1-Clipped">
                            <mask id="mask-2" fill="white">
                                <use xlink:href="#path-1"></use>
                            </mask>
                            <g id="path-1"></g>
                            <rect id="path-1" stroke="#272B43" stroke-width="7.78378378" fill="#62AAFF" mask="url(#mask-2)" x="0" y="0" width="321.330998" height="239.351351" rx="5.83783784"></rect>
                        </g>
                    </g>
                </g>
                <g id="Spine-Shadow" transform="translate(147.033275, 5.837838)">
                    <rect id="Rectangle-209" fill="#000000" style="mix-blend-mode: overlay;" x="0" y="0" width="13.6322242" height="231.567568"></rect>
                    <rect id="Rectangle-209" fill="#FFFFFF" style="mix-blend-mode: overlay;" x="13.6322242" y="0" width="13.6322242" height="231.567568"></rect>
                </g>
                <g id="Page-L" transform="translate(12.658494, 9.729730)">
                    <g id="Rectangle-208">
                        <g id="path-4-link" fill="#FFFFFF">
                            <rect id="path-4" x="0" y="0" width="148.007005" height="223.783784" rx="1.94594595"></rect>
                        </g>
                        <g id="path-4-link" fill="#FBFBFB">
                            <rect id="path-4" x="0" y="0" width="148.007005" height="223.783784" rx="1.94594595"></rect>
                        </g>
                    </g>
                    <g id="Text-L" transform="translate(28.238179, 38.918919)" fill="#E9EBF0">
                        <rect id="Rectangle-16" x="0" y="165.405405" width="11.6847636" height="5.83783784" rx="1.94594595"></rect>
                        <rect id="Rectangle-16" x="0" y="145.945946" width="99.3204904" height="5.83783784" rx="1.94594595"></rect>
                        <rect id="Rectangle-16" x="0" y="136.216216" width="99.3204904" height="5.83783784" rx="1.94594595"></rect>
                        <rect id="Rectangle-16" x="0" y="126.486486" width="99.3204904" height="5.83783784" rx="1.94594595"></rect>
                        <rect id="Rectangle-16" x="0" y="116.756757" width="99.3204904" height="5.83783784" rx="1.94594595"></rect>
                        <rect id="Rectangle-16" x="9.73730298" y="107.027027" width="89.5831874" height="5.83783784" rx="1.94594595"></rect>
                        <rect id="Rectangle-16" x="0" y="97.2972973" width="60.3712785" height="5.83783784" rx="1.94594595"></rect>
                        <rect id="Rectangle-16" x="0" y="87.5675676" width="99.3204904" height="5.83783784" rx="1.94594595"></rect>
                        <rect id="Rectangle-16" x="0" y="77.8378378" width="99.3204904" height="5.83783784" rx="1.94594595"></rect>
                        <rect id="Rectangle-16" x="0" y="68.1081081" width="99.3204904" height="5.83783784" rx="1.94594595"></rect>
                        <rect id="Rectangle-16" x="15.5796848" y="58.3783784" width="83.7408056" height="5.83783784" rx="1.94594595"></rect>
                        <rect id="Rectangle-16" x="15.5796848" y="48.6486486" width="83.7408056" height="5.83783784" rx="1.94594595"></rect>
                        <rect id="Rectangle-16" x="0" y="48.6486486" width="11.6847636" height="15.5675676" rx="1.94594595"></rect>
                        <rect id="Rectangle-16" x="14.6059545" y="0" width="70.1085814" height="11.6756757" rx="1.94594595"></rect>
                    </g>
                </g>
                <g id="Page-R" transform="translate(160.665499, 9.729730)">
                    <g id="Rectangle-208">
                        <g id="path-6-link" fill="#FFFFFF">
                            <rect id="path-6" x="0" y="0" width="148.007005" height="223.783784" rx="1.94594595"></rect>
                        </g>
                        <g id="path-6-link" fill="#FBFBFB">
                            <rect id="path-6" x="0" y="0" width="148.007005" height="223.783784" rx="1.94594595"></rect>
                        </g>
                    </g>
                    <g id="Text-R" transform="translate(71.082312, 114.810811) scale(-1, 1) translate(-71.082312, -114.810811) translate(21.422067, 19.459459)" fill="#E9EBF0">
                        <rect id="Rectangle-16" x="0" y="184.864865" width="11.6847636" height="5.83783784" rx="1.94594595"></rect>
                        <rect id="Rectangle-16" x="0" y="165.405405" width="99.3204904" height="5.83783784" rx="1.94594595"></rect>
                        <rect id="Rectangle-16" x="0" y="155.675676" width="99.3204904" height="5.83783784" rx="1.94594595"></rect>
                        <rect id="Rectangle-16" x="0" y="145.945946" width="99.3204904" height="5.83783784" rx="1.94594595"></rect>
                        <rect id="Rectangle-16" x="0" y="136.216216" width="99.3204904" height="5.83783784" rx="1.94594595"></rect>
                        <rect id="Rectangle-16" x="0" y="126.486486" width="99.3204904" height="5.83783784" rx="1.94594595"></rect>
                        <rect id="Rectangle-16" x="0" y="116.756757" width="99.3204904" height="5.83783784" rx="1.94594595"></rect>
                        <rect id="Rectangle-16" x="0" y="107.027027" width="89.5831874" height="5.83783784" rx="1.94594595"></rect>
                        <rect id="Rectangle-16" x="29.2119089" y="97.2972973" width="70.1085814" height="5.83783784" rx="1.94594595"></rect>
                        <rect id="Rectangle-16" x="0" y="87.5675676" width="99.3204904" height="5.83783784" rx="1.94594595"></rect>
                        <rect id="Rectangle-16" x="0" y="77.8378378" width="99.3204904" height="5.83783784" rx="1.94594595"></rect>
                        <rect id="Rectangle-16" x="0" y="68.1081081" width="99.3204904" height="5.83783784" rx="1.94594595"></rect>
                        <rect id="Rectangle-16" x="0" y="58.3783784" width="89.5831874" height="5.83783784" rx="1.94594595"></rect>
                        <rect id="Rectangle-16" x="38.9492119" y="48.6486486" width="60.3712785" height="5.83783784" rx="1.94594595"></rect>
                        <rect id="Rectangle-16" x="0" y="38.9189189" width="99.3204904" height="5.83783784" rx="1.94594595"></rect>
                        <rect id="Rectangle-16" x="0" y="29.1891892" width="99.3204904" height="5.83783784" rx="1.94594595"></rect>
                        <rect id="Rectangle-16" x="0" y="19.4594595" width="99.3204904" height="5.83783784" rx="1.94594595"></rect>
                        <rect id="Rectangle-16" x="0" y="9.72972973" width="99.3204904" height="5.83783784" rx="1.94594595"></rect>
                        <rect id="Rectangle-16" x="0" y="0" width="99.3204904" height="5.83783784" rx="1.94594595"></rect>
                    </g>
                </g>
                <g id="Bookmark" transform="translate(159.691769, 7.783784)">
                    <g id="Mask">
                        <g id="path-8-link" fill="#000000">
                            <path d="M0,237.405405 L0,1.94587702 C0,0.871198817 0.86341284,-5.68434189e-14 1.94561182,-5.68434189e-14 L5.84423056,-5.68434189e-14 C6.91876229,-5.68434189e-14 7.78984238,0.871476381 7.78984238,1.94587702 L7.78984238,236.423863 C7.78984238,236.965954 8.23314564,237.405405 8.75914905,237.405405 L31.1637932,237.405405 C31.6991264,237.405405 31.9392501,237.803727 31.7105299,238.273701 L30.1856392,241.407042 L31.6911908,244.330962 C31.9352505,244.804948 31.6897965,245.189189 31.1637932,245.189189 L7.78984238,245.189189 L0,237.405405 Z" id="path-8"></path>
                        </g>
                        <g id="path-8-link" fill="#FF5A5A">
                            <path d="M0,237.405405 L0,1.94587702 C0,0.871198817 0.86341284,-5.68434189e-14 1.94561182,-5.68434189e-14 L5.84423056,-5.68434189e-14 C6.91876229,-5.68434189e-14 7.78984238,0.871476381 7.78984238,1.94587702 L7.78984238,236.423863 C7.78984238,236.965954 8.23314564,237.405405 8.75914905,237.405405 L31.1637932,237.405405 C31.6991264,237.405405 31.9392501,237.803727 31.7105299,238.273701 L30.1856392,241.407042 L31.6911908,244.330962 C31.9352505,244.804948 31.6897965,245.189189 31.1637932,245.189189 L7.78984238,245.189189 L0,237.405405 Z" id="path-8"></path>
                        </g>
                    </g>
                    <g id="Lines-Clipped">
                        <mask id="mask-4" fill="white">
                            <use xlink:href="#path-3"></use>
                        </mask>
                        <g id="path-8"></g>
                        <g id="Lines" stroke-linecap="square" mask="url(#mask-4)">
                            <g transform="translate(0.973730, 1.945946)" id="Line">
                                <g>
                                    <path d="M0,0.972972973 L5.84238179,0.972972973" id="Path" stroke="#FF4343" stroke-width="1.94594595"></path>
                                    <path d="M0,4.86486486 L5.84238179,4.86486486" id="Path" stroke="#FF4343" stroke-width="1.94594595"></path>
                                    <path d="M0,8.75675676 L5.84238179,8.75675676" id="Path" stroke="#FF4343" stroke-width="1.94594595"></path>
                                    <path d="M0,12.6486486 L5.84238179,12.6486486" id="Path" stroke="#FF4343" stroke-width="1.94594595"></path>
                                    <path d="M0,16.5405405 L5.84238179,16.5405405" id="Path" stroke="#FF4343" stroke-width="1.94594595"></path>
                                    <path d="M0,20.4324324 L5.84238179,20.4324324" id="Path" stroke="#FF4343" stroke-width="1.94594595"></path>
                                    <path d="M0,24.3243243 L5.84238179,24.3243243" id="Path" stroke="#FF4343" stroke-width="1.94594595"></path>
                                    <path d="M0,28.2162162 L5.84238179,28.2162162" id="Path" stroke="#FF4343" stroke-width="1.94594595"></path>
                                    <path d="M0,32.1081081 L5.84238179,32.1081081" id="Path" stroke="#FF4343" stroke-width="1.94594595"></path>
                                    <path d="M0,36 L5.84238179,36" id="Path" stroke="#FF4343" stroke-width="1.94594595"></path>
                                    <path d="M0,39.8918919 L5.84238179,39.8918919" id="Path" stroke="#FF4343" stroke-width="1.94594595"></path>
                                    <path d="M0,43.7837838 L5.84238179,43.7837838" id="Path" stroke="#FF4343" stroke-width="1.94594595"></path>
                                    <path d="M0,47.6756757 L5.84238179,47.6756757" id="Path" stroke="#FF4343" stroke-width="1.94594595"></path>
                                    <path d="M0,51.5675676 L5.84238179,51.5675676" id="Path" stroke="#FF4343" stroke-width="1.94594595"></path>
                                    <path d="M0,55.4594595 L5.84238179,55.4594595" id="Path" stroke="#FF4343" stroke-width="1.94594595"></path>
                                    <path d="M0,59.3513514 L5.84238179,59.3513514" id="Path" stroke="#FF4343" stroke-width="1.94594595"></path>
                                    <path d="M0,63.2432432 L5.84238179,63.2432432" id="Path" stroke="#FF4343" stroke-width="1.94594595"></path>
                                    <path d="M0,67.1351351 L5.84238179,67.1351351" id="Path" stroke="#FF4343" stroke-width="1.94594595"></path>
                                    <path d="M0,71.027027 L5.84238179,71.027027" id="Path" stroke="#FF4343" stroke-width="1.94594595"></path>
                                    <path d="M0,74.9189189 L5.84238179,74.9189189" id="Path" stroke="#FF4343" stroke-width="1.94594595"></path>
                                    <path d="M0,78.8108108 L5.84238179,78.8108108" id="Path" stroke="#FF4343" stroke-width="1.94594595"></path>
                                    <path d="M0,82.7027027 L5.84238179,82.7027027" id="Path" stroke="#FF4343" stroke-width="1.94594595"></path>
                                    <path d="M0,86.5945946 L5.84238179,86.5945946" id="Path" stroke="#FF4343" stroke-width="1.94594595"></path>
                                    <path d="M0,90.4864865 L5.84238179,90.4864865" id="Path" stroke="#FF4343" stroke-width="1.94594595"></path>
                                    <path d="M0,94.3783784 L5.84238179,94.3783784" id="Path" stroke="#FF4343" stroke-width="1.94594595"></path>
                                    <path d="M0,98.2702703 L5.84238179,98.2702703" id="Path" stroke="#FF4343" stroke-width="1.94594595"></path>
                                    <path d="M0,102.162162 L5.84238179,102.162162" id="Path" stroke="#FF4343" stroke-width="1.94594595"></path>
                                    <path d="M0,106.054054 L5.84238179,106.054054" id="Path" stroke="#FF4343" stroke-width="1.94594595"></path>
                                    <path d="M0,109.945946 L5.84238179,109.945946" id="Path" stroke="#FF4343" stroke-width="1.94594595"></path>
                                    <path d="M0,113.837838 L5.84238179,113.837838" id="Path" stroke="#FF4343" stroke-width="1.94594595"></path>
                                    <path d="M0,117.72973 L5.84238179,117.72973" id="Path" stroke="#FF4343" stroke-width="1.94594595"></path>
                                    <path d="M0,121.621622 L5.84238179,121.621622" id="Path" stroke="#FF4343" stroke-width="1.94594595"></path>
                                    <path d="M0,125.513514 L5.84238179,125.513514" id="Path" stroke="#FF4343" stroke-width="1.94594595"></path>
                                    <path d="M0,129.405405 L5.84238179,129.405405" id="Path" stroke="#FF4343" stroke-width="1.94594595"></path>
                                    <path d="M0,133.297297 L5.84238179,133.297297" id="Path" stroke="#FF4343" stroke-width="1.94594595"></path>
                                    <path d="M0,137.189189 L5.84238179,137.189189" id="Path" stroke="#FF4343" stroke-width="1.94594595"></path>
                                    <path d="M0,141.081081 L5.84238179,141.081081" id="Path" stroke="#FF4343" stroke-width="1.94594595"></path>
                                    <path d="M0,144.972973 L5.84238179,144.972973" id="Path" stroke="#FF4343" stroke-width="1.94594595"></path>
                                    <path d="M0,148.864865 L5.84238179,148.864865" id="Path" stroke="#FF4343" stroke-width="1.94594595"></path>
                                    <path d="M0,152.756757 L5.84238179,152.756757" id="Path" stroke="#FF4343" stroke-width="1.94594595"></path>
                                    <path d="M0,156.648649 L5.84238179,156.648649" id="Path" stroke="#FF4343" stroke-width="1.94594595"></path>
                                    <path d="M0,160.540541 L5.84238179,160.540541" id="Path" stroke="#FF4343" stroke-width="1.94594595"></path>
                                    <path d="M0,164.432432 L5.84238179,164.432432" id="Path" stroke="#FF4343" stroke-width="1.94594595"></path>
                                    <path d="M0,168.324324 L5.84238179,168.324324" id="Path" stroke="#FF4343" stroke-width="1.94594595"></path>
                                    <path d="M0,172.216216 L5.84238179,172.216216" id="Path" stroke="#FF4343" stroke-width="1.94594595"></path>
                                    <path d="M0,176.108108 L5.84238179,176.108108" id="Path" stroke="#FF4343" stroke-width="1.94594595"></path>
                                    <path d="M0,180 L5.84238179,180" id="Path" stroke="#FF4343" stroke-width="1.94594595"></path>
                                    <path d="M0,183.891892 L5.84238179,183.891892" id="Path" stroke="#FF4343" stroke-width="1.94594595"></path>
                                    <path d="M0,187.783784 L5.84238179,187.783784" id="Path" stroke="#FF4343" stroke-width="1.94594595"></path>
                                    <path d="M0,191.675676 L5.84238179,191.675676" id="Path" stroke="#FF4343" stroke-width="1.94594595"></path>
                                    <path d="M0,195.567568 L5.84238179,195.567568" id="Path" stroke="#FF4343" stroke-width="1.94594595"></path>
                                    <path d="M0,199.459459 L5.84238179,199.459459" id="Path" stroke="#FF4343" stroke-width="1.94594595"></path>
                                    <path d="M0,203.351351 L5.84238179,203.351351" id="Path" stroke="#FF4343" stroke-width="1.94594595"></path>
                                    <path d="M0,207.243243 L5.84238179,207.243243" id="Path" stroke="#FF4343" stroke-width="1.94594595"></path>
                                    <path d="M0,211.135135 L5.84238179,211.135135" id="Path" stroke="#FF4343" stroke-width="1.94594595"></path>
                                    <path d="M0,215.027027 L5.84238179,215.027027" id="Path" stroke="#FF4343" stroke-width="1.94594595"></path>
                                    <path d="M0,218.918919 L5.84238179,218.918919" id="Path" stroke="#FF4343" stroke-width="1.94594595"></path>
                                    <path d="M0,222.810811 L5.84238179,222.810811" id="Path" stroke="#FF4343" stroke-width="1.94594595"></path>
                                    <path d="M0,226.702703 L5.84238179,226.702703" id="Path" stroke="#FF4343" stroke-width="1.94594595"></path>
                                    <path d="M0,230.594595 L5.84238179,230.594595" id="Path" stroke="#FF4343" stroke-width="1.94594595"></path>
                                    <path d="M0,230.594595 L5.84238179,230.594595" id="Path" stroke="#FF4343" stroke-width="1.94594595"></path>
                                    <path d="M0,234.486486 L6.81611208,234.486486" id="Path" stroke="#FF4343" stroke-width="1.94594595"></path>
                                    <path d="M7.78984238,242.27027 L7.78984238,236.432432" id="Path" stroke="#FF4343" stroke-width="1.94594595"></path>
                                    <path d="M11.6847636,242.27027 L11.6847636,236.432432" id="Path" stroke="#FF4343" stroke-width="1.94594595"></path>
                                    <path d="M15.5796848,242.27027 L15.5796848,236.432432" id="Path" stroke="#FF4343" stroke-width="1.94594595"></path>
                                    <path d="M19.474606,242.27027 L19.474606,236.432432" id="Path" stroke="#FF4343" stroke-width="1.94594595"></path>
                                    <path d="M23.3695271,242.27027 L23.3695271,236.432432" id="Path" stroke="#FF4343" stroke-width="1.94594595"></path>
                                    <path d="M27.2644483,242.27027 L27.2644483,236.432432" id="Path" stroke="#FF4343" stroke-width="1.94594595"></path>
                                </g>
                            </g>
                        </g>
                    </g>
                    <g id="Rectangle-219-Clipped">
                        <mask id="mask-6" fill="white">
                            <use xlink:href="#path-5"></use>
                        </mask>
                        <g id="path-8"></g>
                        <rect id="Rectangle-219" fill="#000000" opacity="0.2" mask="url(#mask-6)" x="7.78984238" y="236.432432" width="3.89492119" height="8.75675676"></rect>
                    </g>
                </g>
                <g id="Stickies" transform="translate(8.763573, 0.000000)">
                    <rect id="Rectangle-199" fill="#64DF66" x="32.1330998" y="0" width="23.3695271" height="9.72972973" rx="0.972972973"></rect>
                    <rect id="Rectangle-199" fill="#9A85FF" x="80.8196147" y="0" width="23.3695271" height="9.72972973" rx="0.972972973"></rect>
                    <rect id="Rectangle-199" fill="#FF5A5A" x="0" y="40.8648649" width="9.73730298" height="23.3513514" rx="0.972972973"></rect>
                    <rect id="Rectangle-199" fill="#FF5A5A" x="1.9474606" y="167.351351" width="9.73730298" height="23.3513514" rx="0.972972973"></rect>
                    <rect id="Rectangle-199" fill="#9A85FF" x="7.78984238" y="186.810811" width="5.84238179" height="23.3513514" rx="0.972972973"></rect>
                    <rect id="Rectangle-199" fill="#9A85FF" x="0" y="79.7837838" width="9.73730298" height="23.3513514" rx="0.972972973"></rect>
                    <rect id="Rectangle-199" fill="#64DF66" x="3.89492119" y="91.4594595" width="9.73730298" height="23.3513514" rx="0.972972973"></rect>
                    <rect id="Rectangle-199" fill="#FF5A5A" x="90.5569177" y="1.94594595" width="23.3695271" height="7.78378378" rx="0.972972973"></rect>
                </g>
            </g>
            <g id="Coffee" transform="translate(439.152364, 0.000000)">
                <g id="Rectangle-195" transform="translate(46.739054, 107.027027)">
                    <g id="path-11-link" fill="#000000">
                        <rect id="path-11" x="0" y="0" width="23.3695271" height="40.8648649" rx="11.6756757"></rect>
                    </g>
                    <g id="path-11-link" fill="#FFFFFF">
                        <rect id="path-11" x="0" y="0" width="23.3695271" height="40.8648649" rx="11.6756757"></rect>
                    </g>
                </g>
                <g id="Oval-20">
                    <g id="path-13-link" fill="#000000">
                        <ellipse id="path-13" cx="58.4238179" cy="58.3783784" rx="58.4238179" ry="58.3783784"></ellipse>
                    </g>
                    <g id="path-13-link" fill="#FFFFFF">
                        <ellipse id="path-13" cx="58.4238179" cy="58.3783784" rx="58.4238179" ry="58.3783784"></ellipse>
                    </g>
                </g>
                <ellipse id="Oval-20" fill="#3E2C1D" cx="58.4238179" cy="58.3783784" rx="50.6339755" ry="50.5945946"></ellipse>
                <g id="Group-18" transform="translate(7.789842, 7.783784)" fill-rule="nonzero">
                    <path d="M50.6339755,101.189189 C78.598348,101.189189 101.267951,78.5372176 101.267951,50.5945946 C101.267951,22.6519716 78.598348,7.10542736e-15 50.6339755,7.10542736e-15 C22.669603,7.10542736e-15 0,22.6519716 0,50.5945946 C0,78.5372176 22.669603,101.189189 50.6339755,101.189189 Z" id="Oval-20-path" fill="#785A3E"></path>
                    <path d="M19.4746058,34.0540536 C14.6059543,41.8378374 0.973730522,49.6216272 8.76357268,69.0810829 C15.8770902,86.8510422 34.0805595,80.7567544 42.8441322,82.7027004 C51.6077049,84.6486463 55.0309049,95.3513494 70.1085806,89.5135112 C77.1518968,86.7864504 78.302124,74.6919831 82.7670744,65.1891876 C87.860274,54.3492836 94.4518379,59.3513514 96.3992985,47.6756757 C97.7099463,39.8179088 88.6150065,37.8102274 82.7670745,31.1351351 C77.1579007,24.7325721 79.0371812,15.579393 66.2136595,9.72972973 C53.3901378,3.88006648 49.6602443,5.83783803 37.9754807,10.7027028 C26.2907172,15.5675676 24.3432572,26.2702698 19.4746058,34.0540536 Z" id="Oval-20-path" fill="#4E3724"></path>
                    <path d="M41.8704028,95.3513514 C44.5592847,95.3513514 46.7390543,93.1732774 46.7390543,90.4864865 C46.7390543,87.7996959 44.5592847,85.6216216 41.8704028,85.6216216 C39.1815209,85.6216216 37.0017513,87.7996959 37.0017513,90.4864865 C37.0017513,93.1732774 39.1815209,95.3513514 41.8704028,95.3513514 Z" id="Oval-20-path" fill="#4E3724"></path>
                    <path d="M36.028021,85.6216216 C36.5657974,85.6216216 37.0017513,85.1860067 37.0017513,84.6486486 C37.0017513,84.1112906 36.5657974,83.6756757 36.028021,83.6756757 C35.4902447,83.6756757 35.0542907,84.1112906 35.0542907,84.6486486 C35.0542907,85.1860067 35.4902447,85.6216216 36.028021,85.6216216 Z" id="Oval-20-path" fill="#4E3724"></path>
                    <path d="M33.1068301,91.4594595 C34.1823829,91.4594595 35.0542907,90.5882293 35.0542907,89.5135135 C35.0542907,88.4387972 34.1823829,87.5675676 33.1068301,87.5675676 C32.0312773,87.5675676 31.1593695,88.4387972 31.1593695,89.5135135 C31.1593695,90.5882293 32.0312773,91.4594595 33.1068301,91.4594595 Z" id="Oval-20-path" fill="#4E3724"></path>
                    <path d="M90.5569177,66.1621622 C92.1702466,66.1621622 93.4781086,64.8553176 93.4781086,63.2432432 C93.4781086,61.6311689 92.1702466,60.3243243 90.5569177,60.3243243 C88.9435886,60.3243243 87.6357268,61.6311689 87.6357268,63.2432432 C87.6357268,64.8553176 88.9435886,66.1621622 90.5569177,66.1621622 Z" id="Oval-20-path" fill="#4E3724"></path>
                    <path d="M85.6882662,72 C86.763819,72 87.6357268,71.1287703 87.6357268,70.0540541 C87.6357268,68.9793378 86.763819,68.1081081 85.6882662,68.1081081 C84.6127134,68.1081081 83.7408056,68.9793378 83.7408056,70.0540541 C83.7408056,71.1287703 84.6127134,72 85.6882662,72 Z" id="Oval-20-path" fill="#4E3724"></path>
                    <path d="M90.5569177,72 C91.0946943,72 91.530648,71.5643851 91.530648,71.027027 C91.530648,70.4896689 91.0946943,70.0540541 90.5569177,70.0540541 C90.0191411,70.0540541 89.5831874,70.4896689 89.5831874,71.027027 C89.5831874,71.5643851 90.0191411,72 90.5569177,72 Z" id="Oval-20-path" fill="#4E3724"></path>
                    <path d="M82.7670753,81.7297297 C83.3048517,81.7297297 83.7408056,81.2941148 83.7408056,80.7567568 C83.7408056,80.2193987 83.3048517,79.7837838 82.7670753,79.7837838 C82.229299,79.7837838 81.793345,80.2193987 81.793345,80.7567568 C81.793345,81.2941148 82.229299,81.7297297 82.7670753,81.7297297 Z" id="Oval-20-path" fill="#4E3724"></path>
                    <path d="M91.530648,33.0810811 C92.6062003,33.0810811 93.4781086,32.2098514 93.4781086,31.1351351 C93.4781086,30.0604189 92.6062003,29.1891892 91.530648,29.1891892 C90.4550957,29.1891892 89.5831874,30.0604189 89.5831874,31.1351351 C89.5831874,32.2098514 90.4550957,33.0810811 91.530648,33.0810811 Z" id="Oval-20-path" fill="#4E3724"></path>
                    <path d="M86.6619965,27.2432432 C88.2753256,27.2432432 89.5831874,25.9363987 89.5831874,24.3243243 C89.5831874,22.71225 88.2753256,21.4054054 86.6619965,21.4054054 C85.0486674,21.4054054 83.7408056,22.71225 83.7408056,24.3243243 C83.7408056,25.9363987 85.0486674,27.2432432 86.6619965,27.2432432 Z" id="Oval-20-path" fill="#4E3724"></path>
                    <path d="M21.4220665,23.3513514 C22.4976193,23.3513514 23.3695271,22.4801217 23.3695271,21.4054054 C23.3695271,20.3306891 22.4976193,19.4594595 21.4220665,19.4594595 C20.3465138,19.4594595 19.474606,20.3306891 19.474606,21.4054054 C19.474606,22.4801217 20.3465138,23.3513514 21.4220665,23.3513514 Z" id="Oval-20-path" fill="#4E3724"></path>
                    <path d="M7.78984238,40.8648649 C8.86539517,40.8648649 9.73730298,39.9936352 9.73730298,38.9189189 C9.73730298,37.8442026 8.86539517,36.972973 7.78984238,36.972973 C6.71428959,36.972973 5.84238179,37.8442026 5.84238179,38.9189189 C5.84238179,39.9936352 6.71428959,40.8648649 7.78984238,40.8648649 Z" id="Oval-20-path" fill="#4E3724"></path>
                    <path d="M14.6059545,36.972973 C15.1437308,36.972973 15.5796848,36.5373581 15.5796848,36 C15.5796848,35.4626419 15.1437308,35.027027 14.6059545,35.027027 C14.0681781,35.027027 13.6322242,35.4626419 13.6322242,36 C13.6322242,36.5373581 14.0681781,36.972973 14.6059545,36.972973 Z" id="Oval-20-path" fill="#4E3724"></path>
                    <path d="M13.6322242,33.0810811 C15.7833297,33.0810811 17.5271454,31.3386217 17.5271454,29.1891892 C17.5271454,27.0397566 15.7833297,25.2972973 13.6322242,25.2972973 C11.4811186,25.2972973 9.73730298,27.0397566 9.73730298,29.1891892 C9.73730298,31.3386217 11.4811186,33.0810811 13.6322242,33.0810811 Z" id="Oval-20-path" fill="#4E3724"></path>
                </g>
            </g>
            <g id="Glasses" transform="translate(0.486865, 18.972973)">
                <g id="Path-212" transform="translate(9.737303, 5.837838)">
                    <g id="path-23-link" fill="#000000">
                        <path d="M0.486865149,0.486486486 C0.486865149,0.486486486 118.308231,2.43243243 141.677758,11.1891892 C153.371954,15.5711021 184.19895,32.5994979 185.495622,36.4864865 C186.469352,39.4054054 181.600701,44.3546349 177.705779,44.2702703 C174.798275,44.2072932 146.848626,20.8300178 138.756567,18 C119.281961,11.1891892 0.486865149,10.2162162 0.486865149,10.2162162 L0.486865149,0.486486486 Z" id="path-23"></path>
                    </g>
                    <g id="path-23-link" fill="#272B43">
                        <path d="M0.486865149,0.486486486 C0.486865149,0.486486486 118.308231,2.43243243 141.677758,11.1891892 C153.371954,15.5711021 184.19895,32.5994979 185.495622,36.4864865 C186.469352,39.4054054 181.600701,44.3546349 177.705779,44.2702703 C174.798275,44.2072932 146.848626,20.8300178 138.756567,18 C119.281961,11.1891892 0.486865149,10.2162162 0.486865149,10.2162162 L0.486865149,0.486486486 Z" id="path-23"></path>
                    </g>
                </g>
                <g id="Path-212" transform="translate(93.604088, 28.216216) scale(-1, 1) translate(-93.604088, -28.216216) translate(0.125979, 5.837838)">
                    <g id="path-25-link" fill="#000000">
                        <path d="M0.486865149,0.486486486 C0.486865149,0.486486486 119.281961,2.43243243 142.651489,11.1891892 C154.345685,15.5711021 185.17268,32.5994979 186.469352,36.4864865 C187.443082,39.4054054 182.574431,44.3546349 178.67951,44.2702703 C175.772005,44.2072932 147.822357,20.8300178 139.730298,18 C120.255692,11.1891892 0.486865149,10.2162162 0.486865149,10.2162162 L0.486865149,0.486486486 Z" id="path-25"></path>
                    </g>
                    <g id="path-25-link" fill="#272B43">
                        <path d="M0.486865149,0.486486486 C0.486865149,0.486486486 119.281961,2.43243243 142.651489,11.1891892 C154.345685,15.5711021 185.17268,32.5994979 186.469352,36.4864865 C187.443082,39.4054054 182.574431,44.3546349 178.67951,44.2702703 C175.772005,44.2072932 147.822357,20.8300178 139.730298,18 C120.255692,11.1891892 0.486865149,10.2162162 0.486865149,10.2162162 L0.486865149,0.486486486 Z" id="path-25"></path>
                    </g>
                </g>
                <path d="M181.576165,35.5208538 C183.394431,24.6718703 182.530259,13.0357513 180.57719,10.8508522 C177.422435,7.32162325 160.598204,5.83783785 146.048327,5.83783784 C131.498452,5.83783783 115.891075,8.30829806 113.005015,10.8508522 C110.271552,13.25897 109.448584,23.0253157 112.293728,33.7674895 C115.138871,44.5096632 118.186096,50.8144109 122.251733,54.5356919 C130.07588,61.697141 165.989887,59.9552753 173.46433,55.2518369 C176.095115,53.596364 180.012688,44.8496059 181.576165,35.5208538 Z" id="Path" fill-opacity="0.05" fill="#FFFFFF"></path>
                <path d="M16.091085,35.5208538 C17.6545629,44.8496059 21.5721352,53.596364 24.2029205,55.2518369 C31.6773637,59.9552753 67.591371,61.697141 75.4155177,54.5356919 C79.4811541,50.8144109 82.5283792,44.5096632 85.3735227,33.7674895 C88.2186662,23.0253157 87.3956985,13.25897 84.6622363,10.8508522 C81.7761748,8.30829806 66.1687989,5.83783783 51.6189229,5.83783784 C37.0690468,5.83783785 20.2448158,7.32162325 17.0900599,10.8508522 C15.1369922,13.0357513 14.2728197,24.6718703 16.091085,35.5208538 Z" id="Path" fill-opacity="0.05" fill="#FFFFFF"></path>
                <g id="Shape" transform="translate(1.947461, 0.000000)">
                    <g id="path-27-link" fill="#000000" fill-rule="nonzero">
                        <path d="M91.0425631,19.6534942 C91.1911024,24.4030484 90.5114187,29.8339151 89.0739993,35.2610611 C85.9796346,46.9441987 82.5018421,54.1839094 77.4143689,58.8404788 C72.3180583,63.5051367 61.3862271,65.3421044 47.6617899,65.1805299 C35.4118019,65.0363137 23.9915717,63.2433408 19.1421027,60.1917182 C14.5066753,57.2747855 10.1288353,46.9109341 8.38148442,36.4850739 C7.5158985,31.3204108 7.1526055,25.8851139 7.31900291,21.041325 C7.30844541,21.0158038 7.30297723,20.9753481 7.30297723,20.9189189 C7.30297723,17.4564808 2.25992497,15.6789266 2.25992497,15.6789266 C1.29552913,15.2196777 0.486865149,14.0089253 0.486865149,12.9348651 L0.486865149,7.27112906 C0.486865149,6.19100768 1.36094812,5.31342042 2.43918411,5.29744499 C2.43918411,5.29744499 10.4379509,5.32637103 15.4134937,3.9413958 C15.4896575,3.92019513 15.5584481,3.90600675 15.6202282,3.89844297 C22.5744448,1.10539407 34.8022972,9.47197058e-09 49.6714623,0 C64.0333943,-9.1488542e-09 79.0086819,2.09533164 85.0082489,5.40166121 C85.1041652,5.41881325 85.2078729,5.44497546 85.3198278,5.48081187 C88.3594453,6.45378484 90.0700528,7.29729741 96.8861646,7.29729741 C103.702277,7.29729741 106.044494,6.32432433 108.768307,5.35135134 C108.839969,5.32575309 108.907859,5.30518058 108.972128,5.28938707 C115.104003,2.04796891 129.902181,-9.04486318e-09 144.100867,0 C161.857104,1.13110959e-08 175.846749,1.57632521 181.58718,5.72051634 C185.912218,6.28650042 190.359415,6.27041796 190.359415,6.27041796 C191.437651,6.28639339 192.311734,7.16398066 192.311734,8.24410204 L192.311734,13.9078381 C192.311734,14.9818983 191.52732,16.2458494 190.597421,16.7687317 C190.597421,16.7687317 187.635636,18.0307758 186.422998,20.2891068 C186.656219,25.3179661 186.301533,31.0513056 185.390844,36.4850739 C183.643494,46.9109341 179.265654,57.2747855 174.630227,60.1917182 C169.780758,63.2433408 158.360528,65.0363137 146.110539,65.1805299 C132.386102,65.3421044 121.454271,63.5051367 116.35796,58.8404788 C111.270487,54.1839094 107.792695,46.9441987 104.69833,35.2610611 C103.290015,29.9438013 102.609061,24.6229699 102.721761,19.9428264 C102.585661,17.7242943 100.409791,14.1081082 96.8861646,14.1081082 C93.6745437,14.1081082 91.3634694,17.4241636 91.0425631,19.6534942 Z M179.628705,35.5208538 C181.44697,24.6718703 180.582798,13.0357513 178.62973,10.8508522 C175.474974,7.32162325 158.650743,5.83783785 144.100867,5.83783784 C129.550991,5.83783783 113.943615,8.30829806 111.057554,10.8508522 C108.324091,13.25897 107.501124,23.0253157 110.346267,33.7674895 C113.191411,44.5096632 116.238636,50.8144109 120.304272,54.5356919 C128.128419,61.697141 164.042426,59.9552753 171.516869,55.2518369 C174.147655,53.596364 178.065227,44.8496059 179.628705,35.5208538 Z M14.1436244,35.5208538 C15.7071023,44.8496059 19.6246746,53.596364 22.2554599,55.2518369 C29.7299031,59.9552753 65.6439104,61.697141 73.4680571,54.5356919 C77.5336935,50.8144109 80.5809187,44.5096632 83.4260621,33.7674895 C86.2712056,23.0253157 85.4482379,13.25897 82.7147757,10.8508522 C79.8287142,8.30829806 64.2213383,5.83783783 49.6714623,5.83783784 C35.1215862,5.83783785 18.2973552,7.32162325 15.1425993,10.8508522 C13.1895316,13.0357513 12.3253591,24.6718703 14.1436244,35.5208538 Z" id="path-27"></path>
                    </g>
                    <g id="path-27-link" fill="#272B43">
                        <path d="M91.0425631,19.6534942 C91.1911024,24.4030484 90.5114187,29.8339151 89.0739993,35.2610611 C85.9796346,46.9441987 82.5018421,54.1839094 77.4143689,58.8404788 C72.3180583,63.5051367 61.3862271,65.3421044 47.6617899,65.1805299 C35.4118019,65.0363137 23.9915717,63.2433408 19.1421027,60.1917182 C14.5066753,57.2747855 10.1288353,46.9109341 8.38148442,36.4850739 C7.5158985,31.3204108 7.1526055,25.8851139 7.31900291,21.041325 C7.30844541,21.0158038 7.30297723,20.9753481 7.30297723,20.9189189 C7.30297723,17.4564808 2.25992497,15.6789266 2.25992497,15.6789266 C1.29552913,15.2196777 0.486865149,14.0089253 0.486865149,12.9348651 L0.486865149,7.27112906 C0.486865149,6.19100768 1.36094812,5.31342042 2.43918411,5.29744499 C2.43918411,5.29744499 10.4379509,5.32637103 15.4134937,3.9413958 C15.4896575,3.92019513 15.5584481,3.90600675 15.6202282,3.89844297 C22.5744448,1.10539407 34.8022972,9.47197058e-09 49.6714623,0 C64.0333943,-9.1488542e-09 79.0086819,2.09533164 85.0082489,5.40166121 C85.1041652,5.41881325 85.2078729,5.44497546 85.3198278,5.48081187 C88.3594453,6.45378484 90.0700528,7.29729741 96.8861646,7.29729741 C103.702277,7.29729741 106.044494,6.32432433 108.768307,5.35135134 C108.839969,5.32575309 108.907859,5.30518058 108.972128,5.28938707 C115.104003,2.04796891 129.902181,-9.04486318e-09 144.100867,0 C161.857104,1.13110959e-08 175.846749,1.57632521 181.58718,5.72051634 C185.912218,6.28650042 190.359415,6.27041796 190.359415,6.27041796 C191.437651,6.28639339 192.311734,7.16398066 192.311734,8.24410204 L192.311734,13.9078381 C192.311734,14.9818983 191.52732,16.2458494 190.597421,16.7687317 C190.597421,16.7687317 187.635636,18.0307758 186.422998,20.2891068 C186.656219,25.3179661 186.301533,31.0513056 185.390844,36.4850739 C183.643494,46.9109341 179.265654,57.2747855 174.630227,60.1917182 C169.780758,63.2433408 158.360528,65.0363137 146.110539,65.1805299 C132.386102,65.3421044 121.454271,63.5051367 116.35796,58.8404788 C111.270487,54.1839094 107.792695,46.9441987 104.69833,35.2610611 C103.290015,29.9438013 102.609061,24.6229699 102.721761,19.9428264 C102.585661,17.7242943 100.409791,14.1081082 96.8861646,14.1081082 C93.6745437,14.1081082 91.3634694,17.4241636 91.0425631,19.6534942 Z M179.628705,35.5208538 C181.44697,24.6718703 180.582798,13.0357513 178.62973,10.8508522 C175.474974,7.32162325 158.650743,5.83783785 144.100867,5.83783784 C129.550991,5.83783783 113.943615,8.30829806 111.057554,10.8508522 C108.324091,13.25897 107.501124,23.0253157 110.346267,33.7674895 C113.191411,44.5096632 116.238636,50.8144109 120.304272,54.5356919 C128.128419,61.697141 164.042426,59.9552753 171.516869,55.2518369 C174.147655,53.596364 178.065227,44.8496059 179.628705,35.5208538 Z M14.1436244,35.5208538 C15.7071023,44.8496059 19.6246746,53.596364 22.2554599,55.2518369 C29.7299031,59.9552753 65.6439104,61.697141 73.4680571,54.5356919 C77.5336935,50.8144109 80.5809187,44.5096632 83.4260621,33.7674895 C86.2712056,23.0253157 85.4482379,13.25897 82.7147757,10.8508522 C79.8287142,8.30829806 64.2213383,5.83783783 49.6714623,5.83783784 C35.1215862,5.83783785 18.2973552,7.32162325 15.1425993,10.8508522 C13.1895316,13.0357513 12.3253591,24.6718703 14.1436244,35.5208538 Z" id="path-27"></path>
                    </g>
                </g>
            </g>
        </g>
    </g>
</svg>