<?xml version="1.0" encoding="UTF-8"?>
<svg width="272px" height="272px" viewBox="0 0 272 272" version="1.1" xmlns="http://www.w3.org/2000/svg" xmlns:xlink="http://www.w3.org/1999/xlink">
    <!-- Generator: Sketch 52.3 (67297) - http://www.bohemiancoding.com/sketch -->
    <title>Artboard Copy 6</title>
    <desc>Created with Sketch.</desc>
    <defs>
        <linearGradient x1="50%" y1="0%" x2="50%" y2="100%" id="linearGradient-1">
            <stop stop-color="#F9E37E" offset="0%"></stop>
            <stop stop-color="#F0C248" offset="100%"></stop>
        </linearGradient>
        <circle id="path-2" cx="120" cy="120" r="120"></circle>
        <filter x="-2.9%" y="-2.1%" width="105.8%" height="105.8%" filterUnits="objectBoundingBox" id="filter-3">
            <feOffset dx="0" dy="2" in="SourceAlpha" result="shadowOffsetOuter1"></feOffset>
            <feGaussianBlur stdDeviation="2" in="shadowOffsetOuter1" result="shadowBlurOuter1"></feGaussianBlur>
            <feColorMatrix values="0 0 0 0 0   0 0 0 0 0   0 0 0 0 0  0 0 0 0.16 0" type="matrix" in="shadowBlurOuter1"></feColorMatrix>
        </filter>
        <filter x="-6.7%" y="-6.6%" width="113.3%" height="113.3%" filterUnits="objectBoundingBox" id="filter-4">
            <feOffset dx="0" dy="2" in="SourceAlpha" result="shadowOffsetOuter1"></feOffset>
            <feGaussianBlur stdDeviation="2" in="shadowOffsetOuter1" result="shadowBlurOuter1"></feGaussianBlur>
            <feColorMatrix values="0 0 0 0 0   0 0 0 0 0   0 0 0 0 0  0 0 0 0.16 0" type="matrix" in="shadowBlurOuter1" result="shadowMatrixOuter1"></feColorMatrix>
            <feMerge>
                <feMergeNode in="shadowMatrixOuter1"></feMergeNode>
                <feMergeNode in="SourceGraphic"></feMergeNode>
            </feMerge>
        </filter>
    </defs>
    <g id="Page-1" stroke="none" stroke-width="1" fill="none" fill-rule="evenodd">
        <g id="Artboard-Copy-6">
            <g id="Group" transform="translate(16.000000, 16.000000)">
                <g id="Group-3" fill-rule="nonzero">
                    <g id="Oval-Copy">
                        <use fill="black" fill-opacity="1" filter="url(#filter-3)" xlink:href="#path-2"></use>
                        <use fill="url(#linearGradient-1)" xlink:href="#path-2"></use>
                    </g>
                </g>
                <g id="Group-4" filter="url(#filter-4)" transform="translate(30.000000, 30.000000)">
                    <g id="Group-6">
                        <path d="M0.184090909,82.5953107 C0.184090909,114.295876 40.2852273,140.024463 89.7443182,140.024463 C139.203409,140.024463 179.304545,114.316328 179.304545,82.5953107 L179.304545,54.7090395 C179.304545,86.4096045 139.203409,112.148418 89.7443182,112.148418 C40.2852273,112.148418 0.184090909,86.4300565 0.184090909,54.7090395 L0.184090909,82.5953107 Z" id="Path" fill="#AA6A4D"></path>
                        <path d="M19.4318182,93.9359322 C19.4318182,93.9359322 19.4318182,94.2018079 19.5034091,94.6824294 C19.575,95.1630508 19.6159091,95.8072881 19.6568182,96.6049153 C19.6977273,97.4025424 19.7386364,98.3331073 19.7284091,99.3250282 C19.7284091,99.8261017 19.7284091,100.347627 19.7284091,100.858927 C19.7284091,101.370226 19.6772727,101.881525 19.6568182,102.433729 C19.6363636,102.985932 19.5545455,103.456328 19.5136364,104.008531 C19.4727273,104.560734 19.3909091,105.03113 19.3295455,105.532203 C19.1863636,106.554802 19.0227273,107.444463 18.8284091,108.231864 C18.6887325,108.870149 18.5076682,109.498671 18.2863636,110.113446 C18.2038891,110.353704 18.1082909,110.589256 18,110.81904 C18,110.81904 17.8670455,109.735085 17.775,108.139831 C17.775,107.342203 17.6931818,106.411638 17.6931818,105.419718 C17.6931818,104.92887 17.6931818,104.397119 17.6931818,103.885819 C17.6931818,103.37452 17.6931818,102.86322 17.775,102.311017 C17.8568182,101.758814 17.8670455,101.288418 17.9079545,100.736215 C17.9488636,100.184011 18.0409091,99.7136158 18.1022727,99.2125424 C18.2352273,98.1899435 18.4090909,97.3002825 18.5931818,96.5128814 C18.7342919,95.8749602 18.91533,95.2465293 19.1352273,94.6312994 C19.2186384,94.3947329 19.3142204,94.1626343 19.4215909,93.9359322 L19.4318182,93.9359322 Z" id="Path" fill="#64402B"></path>
                        <path d="M32.4306818,102.495085 C32.6170499,103.318296 32.7570429,104.151321 32.85,104.990226 C32.9420455,105.736723 33.0136364,106.605932 33.0545455,107.536497 C33.0545455,107.996667 33.0545455,108.477288 33.0545455,108.968136 C33.0545455,109.458983 33.0545455,109.990734 33.0545455,110.450904 C33.0545455,110.911073 33.0034091,111.473503 32.9829545,111.923446 C32.9625,112.37339 32.9011364,112.946045 32.8602273,113.355085 C32.7815693,114.206245 32.6586759,115.052738 32.4920455,115.89113 C32.3484715,116.729598 32.1329013,117.554136 31.8477273,118.355593 C31.6620628,117.528801 31.5220782,116.692412 31.4284091,115.850226 C31.3363636,115.113955 31.2647727,114.244746 31.2238636,113.314181 C31.2238636,112.843785 31.2238636,112.363164 31.2238636,111.872316 C31.2238636,111.381469 31.2238636,110.849718 31.2238636,110.399774 C31.2238636,109.949831 31.275,109.377175 31.2954545,108.917006 C31.3159091,108.456836 31.3772727,107.894407 31.4181818,107.485367 C31.5102273,106.554802 31.6329545,105.685593 31.7761364,104.949322 C31.9186707,104.113967 32.1342709,103.292736 32.4204545,102.495085 L32.4306818,102.495085 Z" id="Path" fill="#64402B"></path>
                        <path d="M51.6886364,110.05209 C51.8668286,110.876406 52.0033653,111.709175 52.0977273,112.547232 C52.1897727,113.293729 52.2613636,114.162938 52.3022727,115.093503 C52.3022727,115.563898 52.3534091,116.04452 52.3022727,116.525141 C52.2511364,117.005763 52.3022727,117.54774 52.3022727,118.00791 C52.3022727,118.468079 52.3022727,119.030508 52.2306818,119.490678 C52.1590909,119.950847 52.1488636,120.451921 52.1079545,120.922316 C52.0278077,121.7733 51.9049253,122.619716 51.7397727,123.458362 C51.5972384,124.293716 51.3816381,125.114947 51.0954545,125.912599 C50.9090865,125.089388 50.7690934,124.256363 50.6761364,123.417458 C50.5840909,122.67096 50.5125,121.801751 50.4818182,120.871186 C50.4818182,120.411017 50.4818182,119.920169 50.4818182,119.439548 C50.4818182,118.958927 50.4818182,118.416949 50.4818182,117.95678 C50.4818182,117.49661 50.4818182,116.934181 50.5534091,116.474011 C50.625,116.013842 50.6352273,115.512768 50.6761364,115.042373 C50.7562833,114.19139 50.8791656,113.344973 51.0443182,112.506328 C51.1868525,111.670973 51.4024528,110.849742 51.6886364,110.05209 Z" id="Path" fill="#64402B"></path>
                        <path d="M73.2170455,114.531073 C73.2170455,114.531073 73.2170455,114.796949 73.2886364,115.267345 C73.3602273,115.73774 73.4113636,116.392203 73.4727273,117.189831 C73.5340909,117.987458 73.5954545,118.897571 73.6261364,119.889492 C73.6261364,120.380339 73.6261364,120.91209 73.6261364,121.402938 L73.6261364,122.97774 L73.5647727,124.542316 C73.5647727,125.063842 73.5034091,125.564915 73.4829545,126.065989 C73.4113636,127.088588 73.3193182,127.968023 73.2068182,128.755424 C73.0022727,130.340452 72.7772727,131.403955 72.7772727,131.403955 C72.4782843,130.551411 72.2658506,129.67095 72.1431818,128.775876 C71.9978515,127.874841 71.8988577,126.966943 71.8465909,126.055763 C71.8465909,125.564915 71.775,125.033164 71.775,124.521864 C71.775,124.010565 71.775,123.499266 71.775,122.936836 C71.775,121.914237 71.8568182,120.820056 71.9795455,119.86904 C72.0687004,118.958636 72.2086916,118.053929 72.3988636,117.159153 C72.5226259,116.513504 72.6935381,115.87779 72.9102273,115.257119 C73.0738636,114.817401 73.1965909,114.571977 73.1965909,114.571977 L73.2170455,114.531073 Z" id="Path" fill="#64402B"></path>
                        <path d="M95.9420455,116.085424 C96.1760693,117.097372 96.3536163,118.121553 96.4738636,119.15322 C96.5863636,120.063333 96.6886364,121.137062 96.75,122.221017 C96.75,122.793672 96.8318182,123.38678 96.8318182,123.990113 L96.8318182,125.810339 L96.8318182,127.630565 C96.8318182,128.233898 96.8318182,128.81678 96.7602273,129.389435 C96.6886364,130.534746 96.5965909,131.598249 96.4738636,132.518588 C96.3547244,133.550415 96.1771667,134.574658 95.9420455,135.586384 C95.700706,134.575928 95.5230835,133.551312 95.4102273,132.518588 C95.2875,131.598249 95.1852273,130.534746 95.1238636,129.389435 C95.1238636,128.81678 95.0420455,128.233898 95.0420455,127.630565 L95.0420455,125.810339 L95.0420455,123.990113 C95.0420455,123.38678 95.1034091,122.793672 95.1238636,122.221017 C95.1954545,121.085932 95.2875,120.012203 95.4102273,119.15322 C95.5304746,118.121553 95.7080216,117.097372 95.9420455,116.085424 Z" id="Path" fill="#64402B"></path>
                        <path d="M116.590909,114.582203 C116.884449,115.430746 117.10346,116.303257 117.245455,117.189831 C117.398864,117.977232 117.521591,118.897571 117.613636,119.889492 C117.613636,120.380339 117.726136,120.91209 117.746591,121.413164 C117.767045,121.914237 117.746591,122.435763 117.818182,122.987966 C117.889773,123.540169 117.818182,124.010565 117.818182,124.562768 C117.818182,125.114972 117.818182,125.585367 117.818182,126.086441 C117.818182,127.10904 117.715909,127.998701 117.623864,128.786102 C117.45,130.37113 117.214773,131.444859 117.214773,131.444859 C116.933763,130.598247 116.725061,129.729334 116.590909,128.847458 C116.4375,128.060056 116.314773,127.139718 116.2125,126.147797 C116.2125,125.656949 116.110227,125.125198 116.089773,124.624124 C116.069318,124.123051 116.038636,123.601525 116.018182,123.059548 C115.997727,122.517571 116.018182,122.036949 116.018182,121.484746 C116.018182,120.932542 116.018182,120.462147 116.018182,119.961073 C116.018182,118.938475 116.130682,118.048814 116.222727,117.251186 C116.309803,116.362042 116.442937,115.478011 116.621591,114.602655 L116.590909,114.582203 Z" id="Path" fill="#64402B"></path>
                        <path d="M136.636364,108.047797 C136.726266,108.258171 136.804789,108.473227 136.871591,108.692034 C137.046259,109.259814 137.189656,109.836744 137.301136,110.420226 C137.471131,111.23094 137.597449,112.0502 137.679545,112.874463 C137.679545,113.314181 137.781818,113.784576 137.802273,114.254972 C137.822727,114.725367 137.863636,115.205989 137.884091,115.68661 C137.904545,116.167232 137.884091,116.647853 137.884091,117.118249 C137.884091,117.588644 137.884091,118.05904 137.884091,118.508983 C137.884091,119.40887 137.781818,120.247401 137.7,120.973446 C137.612426,121.784735 137.479261,122.590453 137.301136,123.38678 C137.211234,123.176405 137.132711,122.961349 137.065909,122.742542 C136.891241,122.174762 136.747844,121.597832 136.636364,121.01435 C136.466369,120.203636 136.340051,119.384377 136.257955,118.560113 C136.257955,118.110169 136.145455,117.65 136.135227,117.179605 C136.125,116.709209 136.084091,116.228588 136.053409,115.747966 C136.022727,115.267345 136.053409,114.786723 136.053409,114.316328 C136.053409,113.845932 136.053409,113.375537 136.053409,112.925593 C136.053409,112.025706 136.155682,111.187175 136.247727,110.46113 C136.335549,109.650521 136.465268,108.844999 136.636364,108.047797 Z" id="Path" fill="#64402B"></path>
                        <path d="M153.347727,99.9794915 C153.580987,100.819048 153.758645,101.673065 153.879545,102.535989 C153.992045,103.302938 154.094318,104.202825 154.155682,105.153842 C154.155682,105.634463 154.2375,106.176441 154.2375,106.63661 L154.2375,108.160282 L154.2375,109.683955 C154.2375,110.195254 154.2375,110.706554 154.165909,111.166723 C154.094318,112.127966 153.992045,113.017627 153.879545,113.784576 C153.758645,114.6475 153.580987,115.501517 153.347727,116.341073 C153.108429,115.502994 152.930683,114.648554 152.815909,113.784576 C152.693182,113.017627 152.590909,112.127966 152.529545,111.166723 C152.529545,110.686102 152.447727,110.144124 152.447727,109.683955 L152.447727,108.160282 L152.447727,106.63661 C152.447727,106.135537 152.509091,105.614011 152.529545,105.153842 C152.601136,104.202825 152.693182,103.302938 152.815909,102.535989 C152.93681,101.673065 153.114467,100.819048 153.347727,99.9794915 Z" id="Path" fill="#64402B"></path>
                        <path d="M164.771591,91.379435 C164.771591,91.379435 164.771591,91.6248588 164.843182,92.0441243 C164.914773,92.4633898 164.955682,93.0667232 165.006818,93.7518644 C165.128727,95.4540164 165.128727,97.1627068 165.006818,98.8648588 C164.902226,100.589788 164.638607,102.301381 164.219318,103.977853 C164.076395,104.543843 163.898787,105.100506 163.6875,105.644689 C163.605826,105.852055 163.510151,106.05363 163.401136,106.248023 L163.319318,105.593559 C163.319318,105.174294 163.206818,104.57096 163.155682,103.885819 C163.038955,102.183486 163.038955,100.475158 163.155682,98.7728249 C163.269865,97.0482614 163.53682,95.3372245 163.953409,93.6598305 C164.093156,93.0929391 164.270829,92.5360736 164.485227,91.9929944 C164.569657,91.7868343 164.665253,91.5854249 164.771591,91.389661 L164.771591,91.379435 Z" id="Path" fill="#64402B"></path>
                        <path d="M0.286363636,57.3473446 C-2.78181818,25.7592655 41.0522727,0 90.2863636,0 C139.520455,0 179.928409,25.7285876 179.345455,57.4496045 C179.250225,63.7204548 177.260909,69.8159801 173.638636,74.9360452 L174.405682,70.1196045 C174.405682,38.4190395 136.748864,12.659774 90.2863636,12.659774 C43.8238636,12.659774 6.13636364,38.3883616 6.13636364,70.1196045 L5.4,74.0463842 C2.48249858,68.9261506 0.736085151,63.2230804 0.286363636,57.3473446 Z" id="Path" fill="#214495"></path>
                        <path d="M0.286363636,57.3473446 C-2.78181818,25.7592655 41.0522727,0 90.2863636,0 C139.520455,0 179.928409,25.7285876 179.345455,57.4496045 C179.250225,63.7204548 177.260909,69.8159801 173.638636,74.9360452 L174.405682,70.1196045 C174.405682,38.4190395 136.748864,23.4481921 90.2863636,23.4481921 C43.8238636,23.4481921 6.13636364,38.3883616 6.13636364,70.1196045 L5.4,74.0463842 C2.48249858,68.9261506 0.736085151,63.2230804 0.286363636,57.3473446 Z" id="Path" fill="#64402B"></path>
                        <path d="M89.4068182,109.264689 C42.2181818,109.264689 3.33409091,84.200791 2.85340909,53.0217514 C6.59659091,24.9207345 46.1863636,3.09847458 90.2454545,3.09847458 C136.646591,3.09847458 175.060227,27.2522599 176.890909,57.6029944 C174.559091,86.5220904 134.294318,109.223785 89.4068182,109.223785 L89.4068182,109.264689 Z M179.253409,55.0669492 L179.253409,55.0158192 C177.780682,24.429887 138.160227,0.0102259887 90.2761364,0.0102259887 C41.0931818,0.0102259887 -2.7,25.7694915 0.276136364,57.3575706 C0.622691627,61.4093183 1.54918727,65.3903387 3.02727273,69.1788136 L3.18068182,69.5469492 C3.2625,69.7514689 3.34431818,69.9457627 3.43636364,70.1298305 C13.5409091,94.4983616 48.4363636,112.414294 89.4068182,112.414294 C138.497727,112.414294 182.260227,86.6448023 179.243182,55.0669492 L179.253409,55.0669492 Z" id="Shape" fill="#E8C28F" fill-rule="nonzero"></path>
                        <path d="M95.6863636,105.174294 L89.4886364,105.174294 C82.4420455,105.174294 76.725,114.08113 76.725,125.074068 C76.725,136.067006 82.4420455,144.984068 89.4886364,144.984068 L95.6863636,144.984068 C88.6397727,144.984068 82.9227273,136.067006 82.9227273,125.074068 C82.9227273,114.08113 88.6397727,105.174294 95.6863636,105.174294 Z" id="Path" fill="#E7DCAB"></path>
                        <path d="M95.1136364,105.194746 C102.129545,104.519831 107.856818,114.254972 107.856818,125.186554 C107.856818,136.118136 102.139773,145.10678 95.0931818,144.973842 C93.6990817,144.955103 92.3436504,144.51286 91.2068182,143.705819 L92.2295455,143.879661 C99.2863636,143.879661 105.003409,135.514802 105.003409,125.186554 C105.003409,114.858305 99.2863636,106.493446 92.2295455,106.493446 L91.3602273,106.329831 C92.4988151,105.682233 93.7666277,105.294603 95.0727273,105.194746 L95.1136364,105.194746 Z" id="Path" fill="#214495"></path>
                        <path d="M95.1136364,105.194746 C102.129545,104.519831 107.856818,114.254972 107.856818,125.186554 C107.856818,136.118136 102.139773,145.10678 95.0931818,144.973842 C93.6990817,144.955103 92.3436504,144.51286 91.2068182,143.705819 L92.2295455,143.879661 C99.2863636,143.879661 102.610227,135.514802 102.610227,125.186554 C102.610227,114.858305 99.2863636,106.493446 92.2295455,106.493446 L91.3602273,106.329831 C92.4988151,105.682233 93.7666277,105.294603 95.0727273,105.194746 L95.1136364,105.194746 Z" id="Path" fill="#C6AC7F"></path>
                        <path d="M83.5670455,125.002486 C83.5670455,114.520847 89.1306818,105.869661 96.0545455,105.767401 C102.303409,106.595706 107.151136,115.400282 107.151136,125.19678 C107.151136,135.504576 101.781818,144.043277 95.0318182,144.452316 C88.6090909,143.930791 83.5670455,134.983051 83.5670455,125.022938 L83.5670455,125.002486 Z M95.6147727,144.963616 C102.415909,144.636384 107.8875,135.831808 107.8875,125.186554 C107.8875,114.254972 102.160227,104.519831 95.1443182,105.194746 C94.2429729,105.270186 93.3574858,105.476888 92.5159091,105.808305 L92.4340909,105.808305 L92.3011364,105.869661 C86.8909091,108.109153 82.9022727,115.870678 82.9022727,124.971808 C82.9022727,135.893164 88.6295455,145.607853 95.6556818,144.932938 L95.6147727,144.963616 Z" id="Shape" fill="#9A8968" fill-rule="nonzero"></path>
                        <path d="M94.0909091,163.186328 C92.6788174,163.186328 91.5340909,162.041745 91.5340909,160.629831 L91.5340909,143.368362 C91.5340909,141.956447 92.6788174,140.811864 94.0909091,140.811864 C95.5030008,140.811864 96.6477273,141.956447 96.6477273,143.368362 L96.6477273,160.629831 C96.6477273,162.041745 95.5030008,163.186328 94.0909091,163.186328 Z" id="Path" fill="#AA6A4D"></path>
                        <path d="M104.584091,160.548023 L82.2272727,160.640056 C81.7227458,158.506573 80.6846195,156.53614 79.2102273,154.913503 C77.4052241,153.086806 74.7626788,152.361705 72.2780126,153.011339 C69.7933464,153.660973 67.8440392,155.586647 67.1643762,158.062977 C66.4847132,160.539308 67.1779513,163.190083 68.9829545,165.01678 C69.6416766,165.662692 70.384782,166.216511 71.1920455,166.663164 C70.3818012,167.102571 69.6323041,167.645716 68.9625,168.27887 C66.1383171,171.071637 66.1131333,175.624787 68.9062505,178.448615 C71.6993677,181.272444 76.2530893,181.297625 79.0772727,178.504859 C80.5668105,176.889364 81.6224212,174.922657 82.1454545,172.788531 L104.5125,172.696497 C105.017027,174.829981 106.055153,176.800414 107.529545,178.423051 C109.334549,180.249748 111.977094,180.974849 114.46176,180.325215 C116.946427,179.675581 118.895734,177.749908 119.575397,175.273576 C120.25506,172.797245 119.561822,170.146471 117.756818,168.319774 C117.099646,167.68376 116.364192,167.133957 115.568182,166.683616 C116.37782,166.24406 117.124346,165.697134 117.7875,165.057684 C120.611683,162.267741 120.639157,157.71688 117.848864,154.893051 C115.05857,152.069222 110.507138,152.041752 107.682955,154.831695 C106.193829,156.443513 105.138152,158.406825 104.614773,160.537797 L104.584091,160.548023 Z" id="Path" fill="#F0DCB2"></path>
                        <path d="M74.1170455,153.164859 C71.3508057,153.161162 68.8544933,154.823314 67.7913487,157.376779 C66.728204,159.930244 67.3074198,162.872582 69.2590909,164.832712 C69.9036454,165.451448 70.6255452,165.984212 71.4068182,166.41774 L71.8977273,166.704068 L71.4068182,166.980169 C70.6190983,167.404341 69.8930604,167.934179 69.2488636,168.554972 C66.5658896,171.217842 66.5498635,175.551233 69.2130684,178.23387 C71.8762732,180.916507 76.2102076,180.932531 78.8931818,178.269661 C80.3380519,176.699589 81.3619,174.789349 81.8693182,172.716949 L81.9306818,172.471525 L104.798864,172.369266 L104.860227,172.614689 C105.346336,174.693561 106.352835,176.614817 107.785227,178.198079 C110.448432,180.880716 114.782367,180.89674 117.465341,178.23387 C120.148315,175.570999 120.164341,171.237609 117.501136,168.554972 C116.865627,167.927198 116.146308,167.390357 115.363636,166.959718 L114.8625,166.683616 L115.363636,166.397288 C116.14764,165.971336 116.873021,165.445415 117.521591,164.832712 C120.188382,162.155357 120.188382,157.826055 117.521591,155.148701 C114.846225,152.476622 110.51173,152.476622 107.836364,155.148701 C106.396954,156.725088 105.377053,158.638042 104.870455,160.711638 L104.809091,160.957062 L81.9409091,161.049096 L81.8795455,160.803672 C81.3854463,158.725669 80.3760064,156.805512 78.9443182,155.220282 C77.6657872,153.913335 75.9148005,153.17617 74.0863636,153.175085 L74.1170455,153.164859 Z M74.1170455,180.907966 C71.0797784,180.90957 68.3416839,179.078596 67.1832166,176.27129 C66.0247493,173.463984 66.6748668,170.235177 68.8295455,168.094802 C69.3539054,167.560237 69.9371736,167.08682 70.5681818,166.683616 C69.909492,166.288768 69.3015702,165.814854 68.7579545,165.272429 C66.628561,163.12429 65.9989791,159.90703 67.1616056,157.114842 C68.324232,154.322653 71.0512446,152.502678 74.0761364,152.500169 C76.0755839,152.492636 77.9933302,153.292826 79.3943182,154.719209 C80.8683265,156.314066 81.9226731,158.250307 82.4625,160.353729 L104.328409,160.251469 C104.870166,158.154851 105.924483,156.225694 107.396591,154.637401 C110.348288,151.79517 115.035546,151.849467 117.920595,154.75931 C120.805644,157.669154 120.819247,162.356119 117.951136,165.282655 C117.401526,165.812328 116.794335,166.278812 116.140909,166.67339 C116.793741,167.072211 117.397823,167.545806 117.940909,168.084576 C120.785076,171.033349 120.734709,175.719029 117.827812,178.605998 C114.920915,181.492967 110.234413,181.511682 107.304545,178.648023 C105.839807,177.046535 104.786791,175.112739 104.236364,173.013503 L82.3806818,173.105537 C81.830266,175.198721 80.7770416,177.12588 79.3125,178.719605 C77.9114832,180.116043 76.0134524,180.899434 74.0352273,180.89774 L74.1170455,180.907966 Z" id="Shape" fill="#C5AA84" fill-rule="nonzero"></path>
                    </g>
                </g>
                <path d="M128,139 L134,138.486323 L135.052015,141.468362 C134.371978,141.616364 133.3606,141.756766 132.01788,141.889569 C130.67516,142.022371 129.335867,142.114463 128,142.165844 L128,139 Z" id="Rectangle" fill="#E8C28F" fill-rule="nonzero"></path>
                <path d="M129,142.162547 C132.225256,141.851165 134.55862,141.61977 136.000093,141.468362 C138.43396,141.212714 139.47684,150.290344 139.128735,168.70125 C137.122729,168.971978 135.268665,169.184371 133.566545,169.33843 C131.864424,169.492489 130.169713,169.601295 128.482412,169.664848 L129,142.162547 Z" id="Rectangle" fill="#AA6A4D" fill-rule="nonzero"></path>
            </g>
        </g>
    </g>
</svg>